<svg width="419" height="187" viewBox="0 0 419 187" fill="none" xmlns="http://www.w3.org/2000/svg">
<rect x="0.5" y="0.5" width="418" height="186" rx="5.5" fill="white"/>
<path d="M24.7614 35H30.017C33.4545 35 34.875 33.3239 34.875 31.1364C34.875 28.8352 33.2841 27.5852 31.9489 27.5V27.358C33.1989 27.017 34.3068 26.1932 34.3068 24.3182C34.3068 22.1875 32.8864 20.4545 29.8466 20.4545H24.7614V35ZM26.5227 33.4375V28.3807H30.1023C32.0057 28.3807 33.1989 29.6591 33.1989 31.1364C33.1989 32.4148 32.3182 33.4375 30.017 33.4375H26.5227ZM26.5227 26.8466V22.017H29.8466C31.7784 22.017 32.6307 23.0398 32.6307 24.3182C32.6307 25.8523 31.3807 26.8466 29.7898 26.8466H26.5227ZM39.218 20.4545H37.5419V35H39.218V20.4545ZM46.7198 35.2273C49.6744 35.2273 51.663 32.983 51.663 29.6023C51.663 26.1932 49.6744 23.9489 46.7198 23.9489C43.7653 23.9489 41.7766 26.1932 41.7766 29.6023C41.7766 32.983 43.7653 35.2273 46.7198 35.2273ZM46.7198 33.7216C44.4755 33.7216 43.4528 31.7898 43.4528 29.6023C43.4528 27.4148 44.4755 25.4545 46.7198 25.4545C48.9641 25.4545 49.9869 27.4148 49.9869 29.6023C49.9869 31.7898 48.9641 33.7216 46.7198 33.7216ZM58.6534 35.2273C61.608 35.2273 63.5966 32.983 63.5966 29.6023C63.5966 26.1932 61.608 23.9489 58.6534 23.9489C55.6989 23.9489 53.7102 26.1932 53.7102 29.6023C53.7102 32.983 55.6989 35.2273 58.6534 35.2273ZM58.6534 33.7216C56.4091 33.7216 55.3864 31.7898 55.3864 29.6023C55.3864 27.4148 56.4091 25.4545 58.6534 25.4545C60.8977 25.4545 61.9205 27.4148 61.9205 29.6023C61.9205 31.7898 60.8977 33.7216 58.6534 33.7216ZM70.2745 35.2273C72.3768 35.2273 73.087 33.9205 73.4563 33.3239H73.6552V35H75.2745V20.4545H73.5984V25.8239H73.4563C73.087 25.2557 72.4336 23.9489 70.3029 23.9489C67.5472 23.9489 65.6438 26.1364 65.6438 29.5739C65.6438 33.0398 67.5472 35.2273 70.2745 35.2273ZM70.5018 33.7216C68.3995 33.7216 67.32 31.875 67.32 29.5455C67.32 27.2443 68.3711 25.4545 70.5018 25.4545C72.5472 25.4545 73.6268 27.1023 73.6268 29.5455C73.6268 32.017 72.5188 33.7216 70.5018 33.7216ZM78.8043 35H80.4237V33.3239H80.6225C80.9918 33.9205 81.7021 35.2273 83.8043 35.2273C86.5316 35.2273 88.435 33.0398 88.435 29.5739C88.435 26.1364 86.5316 23.9489 83.7759 23.9489C81.6452 23.9489 80.9918 25.2557 80.6225 25.8239H80.4805V20.4545H78.8043V35ZM80.4521 29.5455C80.4521 27.1023 81.5316 25.4545 83.5771 25.4545C85.7077 25.4545 86.7589 27.2443 86.7589 29.5455C86.7589 31.875 85.6793 33.7216 83.5771 33.7216C81.56 33.7216 80.4521 32.017 80.4521 29.5455ZM94.2092 35.2557C96.1126 35.2557 97.1069 34.233 97.4478 33.5227H97.533V35H99.2092V27.8125C99.2092 24.3466 96.5671 23.9489 95.1751 23.9489C93.5273 23.9489 91.6523 24.517 90.8001 26.5057L92.391 27.0739C92.7603 26.2784 93.6339 25.4261 95.2319 25.4261C96.7731 25.4261 97.533 26.2429 97.533 27.642V27.6989C97.533 28.5085 96.7092 28.4375 94.7205 28.6932C92.6964 28.956 90.4876 29.4034 90.4876 31.9034C90.4876 34.0341 92.1353 35.2557 94.2092 35.2557ZM94.4648 33.75C93.1296 33.75 92.1637 33.1534 92.1637 31.9886C92.1637 30.7102 93.3285 30.3125 94.6353 30.142C95.3455 30.0568 97.2489 29.858 97.533 29.517V31.0511C97.533 32.4148 96.4535 33.75 94.4648 33.75ZM107.013 24.0909H104.683V21.4773H103.007V24.0909H101.359V25.5114H103.007V32.3295C103.007 34.233 104.541 35.142 105.962 35.142C106.587 35.142 106.984 35.0284 107.212 34.9432L106.871 33.4375C106.729 33.4659 106.501 33.5227 106.132 33.5227C105.393 33.5227 104.683 33.2955 104.683 31.875V25.5114H107.013V24.0909ZM111.445 28.4375C111.445 26.5341 112.659 25.4545 114.314 25.4545C115.891 25.4545 116.842 26.4489 116.842 28.1818V35H118.518V28.0682C118.518 25.2628 117.027 23.9489 114.797 23.9489C113.078 23.9489 112.098 24.6662 111.587 25.7955H111.445V20.4545H109.768V35H111.445V28.4375ZM122.806 35.1136C123.51 35.1136 124.085 34.5384 124.085 33.8352C124.085 33.1321 123.51 32.5568 122.806 32.5568C122.103 32.5568 121.528 33.1321 121.528 33.8352C121.528 34.5384 122.103 35.1136 122.806 35.1136ZM122.806 27.017C123.51 27.017 124.085 26.4418 124.085 25.7386C124.085 25.0355 123.51 24.4602 122.806 24.4602C122.103 24.4602 121.528 25.0355 121.528 25.7386C121.528 26.4418 122.103 27.017 122.806 27.017ZM128.314 35.1136C129.017 35.1136 129.593 34.5384 129.593 33.8352C129.593 33.1321 129.017 32.5568 128.314 32.5568C127.611 32.5568 127.036 33.1321 127.036 33.8352C127.036 34.5384 127.611 35.1136 128.314 35.1136ZM128.314 27.017C129.017 27.017 129.593 26.4418 129.593 25.7386C129.593 25.0355 129.017 24.4602 128.314 24.4602C127.611 24.4602 127.036 25.0355 127.036 25.7386C127.036 26.4418 127.611 27.017 128.314 27.017ZM132.828 35H141.72V33.4375H134.589V28.4943H141.152V26.9318H134.589V22.017H141.606V20.4545H132.828V35ZM153.474 24.0909H151.656L148.645 32.7841H148.531L145.52 24.0909H143.701L147.735 35H149.44L153.474 24.0909ZM159.87 35.2273C162.086 35.2273 163.705 34.1193 164.216 32.4716L162.597 32.017C162.171 33.1534 161.184 33.7216 159.87 33.7216C157.902 33.7216 156.546 32.4503 156.468 30.1136H164.387V29.4034C164.387 25.3409 161.972 23.9489 159.699 23.9489C156.745 23.9489 154.784 26.2784 154.784 29.6307C154.784 32.983 156.716 35.2273 159.87 35.2273ZM156.468 28.6648C156.581 26.9673 157.782 25.4545 159.699 25.4545C161.517 25.4545 162.682 26.8182 162.682 28.6648H156.468ZM168.613 28.4375C168.613 26.5341 169.792 25.4545 171.397 25.4545C172.952 25.4545 173.897 26.4702 173.897 28.1818V35H175.573V28.0682C175.573 25.2841 174.088 23.9489 171.88 23.9489C170.232 23.9489 169.209 24.6875 168.698 25.7955H168.556V24.0909H166.936V35H168.613V28.4375ZM183.38 24.0909H181.05V21.4773H179.374V24.0909H177.727V25.5114H179.374V32.3295C179.374 34.233 180.908 35.142 182.329 35.142C182.954 35.142 183.352 35.0284 183.579 34.9432L183.238 33.4375C183.096 33.4659 182.869 33.5227 182.499 33.5227C181.761 33.5227 181.05 33.2955 181.05 31.875V25.5114H183.38V24.0909ZM187.123 35.1136C187.826 35.1136 188.401 34.5384 188.401 33.8352C188.401 33.1321 187.826 32.5568 187.123 32.5568C186.42 32.5568 185.844 33.1321 185.844 33.8352C185.844 34.5384 186.42 35.1136 187.123 35.1136ZM280.546 28.8636C280.546 32.2656 281.441 35.2912 283.046 37.9545H284.197C282.819 35.7315 281.853 32.1378 281.853 28.8636C281.853 25.5966 282.812 22.0028 284.197 19.7727H283.046C281.441 22.4219 280.546 25.4545 280.546 28.8636ZM43.5114 53.5341C42.9858 51.9858 41.8068 50.9489 39.6477 50.9489C37.3466 50.9489 35.642 52.2557 35.642 54.1023C35.642 55.608 36.5369 56.6165 38.5398 57.0852L40.358 57.5114C41.4588 57.767 41.9773 58.2926 41.9773 59.0455C41.9773 59.983 40.983 60.75 39.4205 60.75C38.0497 60.75 37.1903 60.1605 36.892 58.9886L35.3011 59.3864C35.6918 61.2401 37.2188 62.2273 39.4489 62.2273C41.9844 62.2273 43.7102 60.8423 43.7102 58.9602C43.7102 57.4403 42.7585 56.4815 40.8125 56.0057L39.1932 55.608C37.9006 55.2884 37.3182 54.8551 37.3182 54.017C37.3182 53.0795 38.3125 52.3977 39.6477 52.3977C41.1108 52.3977 41.7145 53.2074 42.0057 53.9602L43.5114 53.5341ZM50.6651 62.2273C53.0799 62.2273 54.6708 60.75 54.9549 58.8182H53.2788C52.9663 60.0114 51.9719 60.7216 50.6651 60.7216C48.6765 60.7216 47.3981 59.0739 47.3981 56.5455C47.3981 54.0739 48.7049 52.4545 50.6651 52.4545C52.1424 52.4545 53.0231 53.3636 53.2788 54.358H54.9549C54.6708 52.3125 52.9379 50.9489 50.6367 50.9489C47.6822 50.9489 45.7219 53.2784 45.7219 56.6023C45.7219 59.8693 47.5969 62.2273 50.6651 62.2273ZM59.0813 55.4375C59.0813 53.5341 60.2958 52.4545 61.9506 52.4545C63.5273 52.4545 64.479 53.4489 64.479 55.1818V62H66.1552V55.0682C66.1552 52.2628 64.6637 50.9489 62.4336 50.9489C60.7148 50.9489 59.7347 51.6662 59.2234 52.7955H59.0813V47.4545H57.4052V62H59.0813V55.4375ZM73.7955 62.2273C76.0114 62.2273 77.6307 61.1193 78.142 59.4716L76.5227 59.017C76.0966 60.1534 75.1094 60.7216 73.7955 60.7216C71.8281 60.7216 70.4716 59.4503 70.3935 57.1136H78.3125V56.4034C78.3125 52.3409 75.8977 50.9489 73.625 50.9489C70.6705 50.9489 68.7102 53.2784 68.7102 56.6307C68.7102 59.983 70.642 62.2273 73.7955 62.2273ZM70.3935 55.6648C70.5071 53.9673 71.7074 52.4545 73.625 52.4545C75.4432 52.4545 76.608 53.8182 76.608 55.6648H70.3935ZM84.9815 62.2273C87.0838 62.2273 87.794 60.9205 88.1634 60.3239H88.3622V62H89.9815V47.4545H88.3054V52.8239H88.1634C87.794 52.2557 87.1406 50.9489 85.0099 50.9489C82.2543 50.9489 80.3509 53.1364 80.3509 56.5739C80.3509 60.0398 82.2543 62.2273 84.9815 62.2273ZM85.2088 60.7216C83.1065 60.7216 82.027 58.875 82.027 56.5455C82.027 54.2443 83.0781 52.4545 85.2088 52.4545C87.2543 52.4545 88.3338 54.1023 88.3338 56.5455C88.3338 59.017 87.2259 60.7216 85.2088 60.7216ZM100.159 57.5398C100.159 59.5852 98.5966 60.5227 97.3466 60.5227C95.9545 60.5227 94.9602 59.5 94.9602 57.9091V51.0909H93.2841V58.0227C93.2841 60.8068 94.7614 62.142 96.8068 62.142C98.4545 62.142 99.5341 61.2614 100.045 60.1534H100.159V62H101.835V51.0909H100.159V57.5398ZM106.581 47.4545H104.905V62H106.581V47.4545ZM114.225 62.2273C116.441 62.2273 118.06 61.1193 118.572 59.4716L116.952 59.017C116.526 60.1534 115.539 60.7216 114.225 60.7216C112.258 60.7216 110.901 59.4503 110.823 57.1136H118.742V56.4034C118.742 52.3409 116.327 50.9489 114.055 50.9489C111.1 50.9489 109.14 53.2784 109.14 56.6307C109.14 59.983 111.072 62.2273 114.225 62.2273ZM110.823 55.6648C110.937 53.9673 112.137 52.4545 114.055 52.4545C115.873 52.4545 117.038 53.8182 117.038 55.6648H110.823ZM125.411 62.2273C127.513 62.2273 128.224 60.9205 128.593 60.3239H128.792V62H130.411V47.4545H128.735V52.8239H128.593C128.224 52.2557 127.57 50.9489 125.44 50.9489C122.684 50.9489 120.781 53.1364 120.781 56.5739C120.781 60.0398 122.684 62.2273 125.411 62.2273ZM125.638 60.7216C123.536 60.7216 122.457 58.875 122.457 56.5455C122.457 54.2443 123.508 52.4545 125.638 52.4545C127.684 52.4545 128.763 54.1023 128.763 56.5455C128.763 59.017 127.656 60.7216 125.638 60.7216ZM141.926 62H132.835V63.5625H141.926V62ZM148.298 51.0909H145.855V49.983C145.855 48.9034 146.31 48.3352 147.418 48.3352C147.901 48.3352 148.185 48.4489 148.355 48.5057L148.838 47.0568C148.582 46.9432 148.071 46.7727 147.247 46.7727C145.685 46.7727 144.179 47.7102 144.179 49.5852V51.0909H142.418V52.5114H144.179V62H145.855V52.5114H148.298V51.0909ZM154.63 62.2273C157.585 62.2273 159.573 59.983 159.573 56.6023C159.573 53.1932 157.585 50.9489 154.63 50.9489C151.675 50.9489 149.687 53.1932 149.687 56.6023C149.687 59.983 151.675 62.2273 154.63 62.2273ZM154.63 60.7216C152.386 60.7216 151.363 58.7898 151.363 56.6023C151.363 54.4148 152.386 52.4545 154.63 52.4545C156.874 52.4545 157.897 54.4148 157.897 56.6023C157.897 58.7898 156.874 60.7216 154.63 60.7216ZM162.132 62H163.808V55.0966C163.808 53.6193 164.973 52.5398 166.564 52.5398C167.011 52.5398 167.473 52.625 167.586 52.6534V50.9489C167.395 50.9347 166.954 50.9205 166.706 50.9205C165.399 50.9205 164.262 51.6591 163.865 52.7386H163.751V51.0909H162.132V62ZM170.795 62.1136C171.498 62.1136 172.073 61.5384 172.073 60.8352C172.073 60.1321 171.498 59.5568 170.795 59.5568C170.092 59.5568 169.516 60.1321 169.516 60.8352C169.516 61.5384 170.092 62.1136 170.795 62.1136ZM170.795 54.017C171.498 54.017 172.073 53.4418 172.073 52.7386C172.073 52.0355 171.498 51.4602 170.795 51.4602C170.092 51.4602 169.516 52.0355 169.516 52.7386C169.516 53.4418 170.092 54.017 170.795 54.017ZM185.045 62.1989C187.73 62.1989 189.676 60.1605 189.683 57.4048C189.69 54.5923 187.709 52.5966 185.145 52.5966C184.108 52.5966 183.142 52.973 182.503 53.5128H182.432L183.014 48.6477H189.087V47.4545H181.899L181.026 54.5213L182.354 54.6918C182.979 54.1733 183.98 53.804 184.96 53.8111C186.892 53.8182 188.391 55.2955 188.398 57.4261C188.398 59.4787 186.999 61.0057 185.045 61.0057C183.369 61.0057 182.126 59.9048 182.041 58.3636H180.756C180.82 60.5866 182.624 62.1989 185.045 62.1989ZM193.178 62.1065C193.746 62.1065 194.2 61.6449 194.2 61.0838C194.2 60.5156 193.746 60.0611 193.178 60.0611C192.616 60.0611 192.155 60.5156 192.155 61.0838C192.155 61.6449 192.616 62.1065 193.178 62.1065ZM197.54 62H198.804V55.0114C198.804 53.3139 199.934 52.1065 201.446 52.1065C202.938 52.1065 203.804 53.1009 203.804 54.5781V62H205.097V54.8196C205.097 53.25 206.034 52.1065 207.696 52.1065C209.138 52.1065 210.097 52.973 210.097 54.6918V62H211.361V54.6918C211.361 52.2486 210.104 50.9489 208.08 50.9489C206.489 50.9489 205.338 51.723 204.848 52.9304H204.756C204.273 51.6946 203.314 50.9489 201.809 50.9489C200.381 50.9489 199.316 51.6378 198.882 52.767H198.769V51.0909H197.54V62ZM214.722 62H215.994V51.0909H214.722V62ZM215.369 49.2159C215.887 49.2159 216.32 48.804 216.32 48.3068C216.32 47.8097 215.887 47.3977 215.369 47.3977C214.85 47.3977 214.424 47.8097 214.424 48.3068C214.424 48.804 214.85 49.2159 215.369 49.2159ZM220.601 55.1818C220.601 53.2784 221.851 52.1065 223.57 52.1065C225.246 52.1065 226.326 53.2287 226.326 55.0114V62H227.59V54.9332C227.59 52.348 226.091 50.9489 223.89 50.9489C222.292 50.9489 221.191 51.6875 220.679 52.8026H220.566V51.0909H219.337V62H220.601V55.1818ZM237.851 57.831C237.851 59.8338 236.345 60.9134 234.868 60.9134C233.291 60.9134 232.183 59.7841 232.183 58.0795V51.0909H230.919V58.1577C230.919 60.7429 232.411 62.142 234.506 62.142C236.104 62.142 237.24 61.3111 237.751 60.1889H237.851V62H239.115V51.0909H237.851V57.831ZM246.759 51.0909H244.451V48.4773H243.179V51.0909H241.553V52.1918H243.179V59.4503C243.179 61.233 244.586 62.1634 245.985 62.1634C246.51 62.1634 246.865 62.0639 247.107 61.9716L246.837 60.8281C246.659 60.8778 246.432 60.9276 246.098 60.9276C245.239 60.9276 244.451 60.5227 244.451 59.152V52.1918H246.759V51.0909ZM253.923 62.2273C256.111 62.2273 257.581 61.0412 258.078 59.6705L256.878 59.2798C256.459 60.2599 255.472 61.0696 253.923 61.0696C251.693 61.0696 250.28 59.4432 250.223 56.9219H258.348V56.2969C258.348 52.6534 256.097 50.9418 253.732 50.9418C250.905 50.9418 248.952 53.3068 248.952 56.6094C248.952 59.919 250.869 62.2273 253.923 62.2273ZM250.23 55.8068C250.365 53.7756 251.736 52.0923 253.732 52.0923C255.685 52.0923 257.055 53.7045 257.055 55.8068H250.23ZM268.463 53.4844C267.931 51.9077 266.766 50.9418 264.77 50.9418C262.569 50.9418 260.971 52.1989 260.971 53.9957C260.971 55.4588 261.858 56.4531 263.755 56.9077L265.537 57.3338C266.738 57.6179 267.313 58.2358 267.313 59.1094C267.313 60.2457 266.226 61.0909 264.55 61.0909C263.059 61.0909 262.128 60.4162 261.823 59.1236L260.608 59.4219C260.992 61.2401 262.434 62.2273 264.571 62.2273C266.972 62.2273 268.62 60.9062 268.62 59.0526C268.62 57.5966 267.703 56.6236 265.878 56.1761L264.23 55.7713C262.874 55.4304 262.242 54.8835 262.242 53.9389C262.242 52.831 263.3 52.0568 264.77 52.0568C266.24 52.0568 266.965 52.831 267.306 53.8111L268.463 53.4844ZM272.396 62.1065C272.964 62.1065 273.419 61.6449 273.419 61.0838C273.419 60.5156 272.964 60.0611 272.396 60.0611C271.835 60.0611 271.374 60.5156 271.374 61.0838C271.374 61.6449 271.835 62.1065 272.396 62.1065ZM281.248 51.0909H278.833V49.7557C278.833 48.6122 279.451 47.973 280.551 47.973C280.971 47.973 281.226 48.0653 281.418 48.1293L281.787 47.0213C281.532 46.9148 281.105 46.7798 280.438 46.7798C278.953 46.7798 277.561 47.7315 277.561 49.4929V51.0909H275.885V52.1918H277.561V62H278.826L278.833 52.1918H281.248V51.0909ZM283.771 62H285.035V54.9545C285.035 53.3352 286.278 52.1634 287.982 52.1634C288.316 52.1634 288.629 52.2202 288.742 52.2344V50.9489C288.572 50.9418 288.281 50.9276 288.075 50.9276C286.704 50.9276 285.532 51.6662 285.092 52.767H284.999V51.0909H283.771V62ZM294.808 62.2273C297.634 62.2273 299.609 59.919 299.609 56.5952C299.609 53.25 297.634 50.9418 294.808 50.9418C291.981 50.9418 290.006 53.25 290.006 56.5952C290.006 59.919 291.981 62.2273 294.808 62.2273ZM294.808 61.0696C292.542 61.0696 291.278 59.0384 291.278 56.5952C291.278 54.152 292.542 52.0923 294.808 52.0923C297.073 52.0923 298.337 54.152 298.337 56.5952C298.337 59.0384 297.073 61.0696 294.808 61.0696ZM302.384 62H303.648V55.0114C303.648 53.3139 304.777 52.1065 306.29 52.1065C307.782 52.1065 308.648 53.1009 308.648 54.5781V62H309.941V54.8196C309.941 53.25 310.878 52.1065 312.54 52.1065C313.982 52.1065 314.941 52.973 314.941 54.6918V62H316.205V54.6918C316.205 52.2486 314.948 50.9489 312.924 50.9489C311.333 50.9489 310.182 51.723 309.692 52.9304H309.6C309.117 51.6946 308.158 50.9489 306.652 50.9489C305.225 50.9489 304.159 51.6378 303.726 52.767H303.613V51.0909H302.384V62ZM326.782 62H317.847V63.1932H326.782V62ZM330.601 55.1818C330.601 53.2784 331.851 52.1065 333.57 52.1065C335.246 52.1065 336.326 53.2287 336.326 55.0114V62H337.59V54.9332C337.59 52.348 336.091 50.9489 333.89 50.9489C332.292 50.9489 331.191 51.6875 330.679 52.8026H330.566V51.0909H329.337V62H330.601V55.1818ZM345.159 62.2273C347.986 62.2273 349.96 59.919 349.96 56.5952C349.96 53.25 347.986 50.9418 345.159 50.9418C342.332 50.9418 340.358 53.25 340.358 56.5952C340.358 59.919 342.332 62.2273 345.159 62.2273ZM345.159 61.0696C342.893 61.0696 341.629 59.0384 341.629 56.5952C341.629 54.152 342.893 52.0923 345.159 52.0923C347.425 52.0923 348.689 54.152 348.689 56.5952C348.689 59.0384 347.425 61.0696 345.159 61.0696ZM354.786 62H356.093L358.678 53.0582H358.813L361.398 62H362.705L366.001 51.0909H364.665L362.08 60.0682H361.981L359.424 51.0909H358.082L355.504 60.0895H355.411L352.826 51.0909H351.491L354.786 62ZM369.076 60.0114H367.698L367.599 60.8068C367.343 62.7315 366.96 64.5923 366.775 65.5511H367.748C368.089 64.5497 368.7 62.3054 368.948 60.7713L369.076 60.0114ZM35.7841 89H37.4602V82.1818C37.4602 80.5838 38.625 79.4545 39.9318 79.4545C41.2031 79.4545 42.0909 80.2855 42.0909 81.5284V89H43.7955V81.8977C43.7955 80.4915 44.6761 79.4545 46.2102 79.4545C47.4034 79.4545 48.4261 80.0866 48.4261 81.6989V89H50.1023V81.6989C50.1023 79.1349 48.7244 77.9489 46.7784 77.9489C45.2159 77.9489 44.0724 78.6662 43.5114 79.7955H43.3977C42.858 78.6307 41.9062 77.9489 40.4716 77.9489C39.0511 77.9489 38 78.6307 37.5455 79.7955H37.4034V78.0909H35.7841V89ZM57.7408 89.2273C59.9567 89.2273 61.576 88.1193 62.0874 86.4716L60.468 86.017C60.0419 87.1534 59.0547 87.7216 57.7408 87.7216C55.7734 87.7216 54.4169 86.4503 54.3388 84.1136H62.2578V83.4034C62.2578 79.3409 59.843 77.9489 57.5703 77.9489C54.6158 77.9489 52.6555 80.2784 52.6555 83.6307C52.6555 86.983 54.5874 89.2273 57.7408 89.2273ZM54.3388 82.6648C54.4524 80.9673 55.6527 79.4545 57.5703 79.4545C59.3885 79.4545 60.5533 80.8182 60.5533 82.6648H54.3388ZM69.5518 78.0909H67.2223V75.4773H65.5462V78.0909H63.8984V79.5114H65.5462V86.3295C65.5462 88.233 67.0803 89.142 68.5007 89.142C69.1257 89.142 69.5234 89.0284 69.7507 88.9432L69.4098 87.4375C69.2678 87.4659 69.0405 87.5227 68.6712 87.5227C67.9325 87.5227 67.2223 87.2955 67.2223 85.875V79.5114H69.5518V78.0909ZM73.9837 82.4375C73.9837 80.5341 75.1982 79.4545 76.853 79.4545C78.4297 79.4545 79.3814 80.4489 79.3814 82.1818V89H81.0575V82.0682C81.0575 79.2628 79.5661 77.9489 77.3359 77.9489C75.6172 77.9489 74.6371 78.6662 74.1257 79.7955H73.9837V74.4545H72.3075V89H73.9837V82.4375ZM88.5558 89.2273C91.5103 89.2273 93.4989 86.983 93.4989 83.6023C93.4989 80.1932 91.5103 77.9489 88.5558 77.9489C85.6012 77.9489 83.6126 80.1932 83.6126 83.6023C83.6126 86.983 85.6012 89.2273 88.5558 89.2273ZM88.5558 87.7216C86.3114 87.7216 85.2887 85.7898 85.2887 83.6023C85.2887 81.4148 86.3114 79.4545 88.5558 79.4545C90.8001 79.4545 91.8228 81.4148 91.8228 83.6023C91.8228 85.7898 90.8001 87.7216 88.5558 87.7216ZM100.177 89.2273C102.279 89.2273 102.989 87.9205 103.359 87.3239H103.558V89H105.177V74.4545H103.501V79.8239H103.359C102.989 79.2557 102.336 77.9489 100.205 77.9489C97.4496 77.9489 95.5462 80.1364 95.5462 83.5739C95.5462 87.0398 97.4496 89.2273 100.177 89.2273ZM100.404 87.7216C98.3018 87.7216 97.2223 85.875 97.2223 83.5455C97.2223 81.2443 98.2734 79.4545 100.404 79.4545C102.45 79.4545 103.529 81.1023 103.529 83.5455C103.529 86.017 102.421 87.7216 100.404 87.7216ZM109.701 89.1136C110.404 89.1136 110.979 88.5384 110.979 87.8352C110.979 87.1321 110.404 86.5568 109.701 86.5568C108.998 86.5568 108.423 87.1321 108.423 87.8352C108.423 88.5384 108.998 89.1136 109.701 89.1136ZM109.701 81.017C110.404 81.017 110.979 80.4418 110.979 79.7386C110.979 79.0355 110.404 78.4602 109.701 78.4602C108.998 78.4602 108.423 79.0355 108.423 79.7386C108.423 80.4418 108.998 81.017 109.701 81.017ZM120.756 88.7301C121.324 88.7301 121.778 88.2685 121.778 87.7074C121.778 87.1392 121.324 86.6847 120.756 86.6847C120.195 86.6847 119.733 87.1392 119.733 87.7074C119.733 88.2685 120.195 88.7301 120.756 88.7301ZM120.756 80.8608C121.324 80.8608 121.778 80.3991 121.778 79.8381C121.778 79.2699 121.324 78.8153 120.756 78.8153C120.195 78.8153 119.733 79.2699 119.733 79.8381C119.733 80.3991 120.195 80.8608 120.756 80.8608ZM125.097 93.0909H126.368V86.9759H126.482C126.915 87.9773 127.853 89.2273 129.834 89.2273C132.505 89.2273 134.323 86.9545 134.323 83.5739C134.323 80.2074 132.512 77.9418 129.813 77.9418C127.81 77.9418 126.922 79.1918 126.482 80.1719H126.326V78.0909H125.097V93.0909ZM126.347 83.5526C126.347 80.9389 127.547 79.0923 129.678 79.0923C131.873 79.0923 133.051 81.0384 133.051 83.5526C133.051 86.0952 131.851 88.0696 129.678 88.0696C127.569 88.0696 126.347 86.1875 126.347 83.5526ZM141.331 89.2273C144.158 89.2273 146.132 86.919 146.132 83.5952C146.132 80.25 144.158 77.9418 141.331 77.9418C138.504 77.9418 136.53 80.25 136.53 83.5952C136.53 86.919 138.504 89.2273 141.331 89.2273ZM141.331 88.0696C139.065 88.0696 137.801 86.0384 137.801 83.5952C137.801 81.152 139.065 79.0923 141.331 79.0923C143.597 79.0923 144.861 81.152 144.861 83.5952C144.861 86.0384 143.597 88.0696 141.331 88.0696ZM156.237 80.4844C155.704 78.9077 154.539 77.9418 152.544 77.9418C150.342 77.9418 148.744 79.1989 148.744 80.9957C148.744 82.4588 149.632 83.4531 151.528 83.9077L153.311 84.3338C154.511 84.6179 155.086 85.2358 155.086 86.1094C155.086 87.2457 154 88.0909 152.324 88.0909C150.832 88.0909 149.902 87.4162 149.596 86.1236L148.382 86.4219C148.765 88.2401 150.207 89.2273 152.345 89.2273C154.745 89.2273 156.393 87.9062 156.393 86.0526C156.393 84.5966 155.477 83.6236 153.652 83.1761L152.004 82.7713C150.647 82.4304 150.015 81.8835 150.015 80.9389C150.015 79.831 151.074 79.0568 152.544 79.0568C154.014 79.0568 154.738 79.831 155.079 80.8111L156.237 80.4844ZM163.458 78.0909H161.15V75.4773H159.879V78.0909H158.252V79.1918H159.879V86.4503C159.879 88.233 161.285 89.1634 162.684 89.1634C163.21 89.1634 163.565 89.0639 163.806 88.9716L163.536 87.8281C163.359 87.8778 163.131 87.9276 162.798 87.9276C161.938 87.9276 161.15 87.5227 161.15 86.152V79.1918H163.458V78.0909ZM168.431 87.0114H167.054L166.954 87.8068C166.699 89.7315 166.315 91.5923 166.13 92.5511H167.103C167.444 91.5497 168.055 89.3054 168.304 87.7713L168.431 87.0114ZM36.0114 116H37.6307V114.324H37.8295C38.1989 114.92 38.9091 116.227 41.0114 116.227C43.7386 116.227 45.642 114.04 45.642 110.574C45.642 107.136 43.7386 104.949 40.983 104.949C38.8523 104.949 38.1989 106.256 37.8295 106.824H37.6875V101.455H36.0114V116ZM37.6591 110.545C37.6591 108.102 38.7386 106.455 40.7841 106.455C42.9148 106.455 43.9659 108.244 43.9659 110.545C43.9659 112.875 42.8864 114.722 40.7841 114.722C38.767 114.722 37.6591 113.017 37.6591 110.545ZM52.6378 116.227C55.5923 116.227 57.581 113.983 57.581 110.602C57.581 107.193 55.5923 104.949 52.6378 104.949C49.6832 104.949 47.6946 107.193 47.6946 110.602C47.6946 113.983 49.6832 116.227 52.6378 116.227ZM52.6378 114.722C50.3935 114.722 49.3707 112.79 49.3707 110.602C49.3707 108.415 50.3935 106.455 52.6378 106.455C54.8821 106.455 55.9048 108.415 55.9048 110.602C55.9048 112.79 54.8821 114.722 52.6378 114.722ZM64.2589 116.227C66.3612 116.227 67.0714 114.92 67.4407 114.324H67.6396V116H69.2589V101.455H67.5827V106.824H67.4407C67.0714 106.256 66.418 104.949 64.2873 104.949C61.5316 104.949 59.6282 107.136 59.6282 110.574C59.6282 114.04 61.5316 116.227 64.2589 116.227ZM64.4862 114.722C62.3839 114.722 61.3043 112.875 61.3043 110.545C61.3043 108.244 62.3555 106.455 64.4862 106.455C66.5316 106.455 67.6112 108.102 67.6112 110.545C67.6112 113.017 66.5032 114.722 64.4862 114.722ZM73.641 120.091C75.1538 120.091 76.2191 119.288 76.8512 117.591L81.4961 105.119L79.6637 105.091L76.6523 113.784H76.5387L73.5273 105.091H71.7092L75.7433 116.057L75.4308 116.909C74.82 118.571 74.0671 118.727 72.8455 118.415L72.4194 119.892C72.5898 119.977 73.0728 120.091 73.641 120.091ZM84.9354 116.114C85.6385 116.114 86.2138 115.538 86.2138 114.835C86.2138 114.132 85.6385 113.557 84.9354 113.557C84.2322 113.557 83.657 114.132 83.657 114.835C83.657 115.538 84.2322 116.114 84.9354 116.114ZM84.9354 108.017C85.6385 108.017 86.2138 107.442 86.2138 106.739C86.2138 106.036 85.6385 105.46 84.9354 105.46C84.2322 105.46 83.657 106.036 83.657 106.739C83.657 107.442 84.2322 108.017 84.9354 108.017ZM96.0611 101.455H94.8679V106.305H96.0611V101.455ZM99.392 101.455H98.1989V106.305H99.392V101.455ZM105.685 116.249C107.503 116.249 108.611 115.24 109.065 114.274H109.143V116H110.408V108.592C110.408 105.666 108.206 104.942 106.537 104.942C104.868 104.942 103.149 105.602 102.411 107.385L103.611 107.818C104.009 106.881 104.996 106.078 106.572 106.078C108.227 106.078 109.143 106.987 109.143 108.479V108.734C109.143 109.558 108.121 109.572 106.288 109.8C103.824 110.105 102.098 110.794 102.098 112.953C102.098 115.055 103.703 116.249 105.685 116.249ZM105.855 115.091C104.428 115.091 103.362 114.331 103.362 113.01C103.362 111.689 104.442 111.135 106.288 110.908C107.183 110.801 108.774 110.602 109.143 110.24V111.817C109.143 113.607 107.872 115.091 105.855 115.091ZM115.035 109.182C115.035 107.278 116.285 106.107 118.004 106.107C119.68 106.107 120.759 107.229 120.759 109.011V116H122.023V108.933C122.023 106.348 120.525 104.949 118.323 104.949C116.725 104.949 115.624 105.688 115.113 106.803H114.999V105.091H113.771V116H115.035V109.182ZM125.843 120.091C127.206 120.091 128.208 119.31 128.79 117.726L133.414 105.112L132.036 105.091L128.797 114.331H128.698L125.459 105.091H124.088L128.101 116.107L127.703 117.214C127.1 118.862 126.248 119.153 124.962 118.749L124.621 119.864C124.877 119.984 125.346 120.091 125.843 120.091ZM140.177 105.091H137.869V102.477H136.597V105.091H134.971V106.192H136.597V113.45C136.597 115.233 138.004 116.163 139.403 116.163C139.928 116.163 140.283 116.064 140.525 115.972L140.255 114.828C140.077 114.878 139.85 114.928 139.516 114.928C138.657 114.928 137.869 114.523 137.869 113.152V106.192H140.177V105.091ZM144.547 109.182C144.547 107.278 145.825 106.107 147.572 106.107C149.262 106.107 150.342 107.214 150.342 109.011V116H151.613V108.933C151.613 106.334 150.108 104.949 147.892 104.949C146.244 104.949 145.172 105.673 144.66 106.803H144.547V101.455H143.282V116H144.547V109.182ZM154.957 116H156.228V105.091H154.957V116ZM155.603 103.216C156.121 103.216 156.555 102.804 156.555 102.307C156.555 101.81 156.121 101.398 155.603 101.398C155.085 101.398 154.658 101.81 154.658 102.307C154.658 102.804 155.085 103.216 155.603 103.216ZM160.836 109.182C160.836 107.278 162.086 106.107 163.804 106.107C165.48 106.107 166.56 107.229 166.56 109.011V116H167.824V108.933C167.824 106.348 166.326 104.949 164.124 104.949C162.526 104.949 161.425 105.688 160.914 106.803H160.8V105.091H159.571V116H160.836V109.182ZM175.315 120.318C177.901 120.318 179.818 119.054 179.818 116.284V105.091H178.582V107.172H178.455C178.007 106.192 177.105 104.942 175.102 104.942C172.403 104.942 170.592 107.2 170.592 110.517C170.592 113.862 172.467 115.886 175.081 115.886C177.041 115.886 178 114.75 178.433 113.749H178.547V116.206C178.547 118.237 177.247 119.182 175.315 119.182C173.447 119.182 172.553 118.28 172.091 117.449L171.054 118.131C171.693 119.381 173.085 120.318 175.315 120.318ZM175.23 114.729C173.064 114.729 171.864 112.996 171.864 110.496C171.864 108.038 173.043 106.092 175.23 106.092C177.368 106.092 178.568 107.939 178.568 110.496C178.568 113.131 177.332 114.729 175.23 114.729ZM184.245 101.455H183.051V106.305H184.245V101.455ZM187.576 101.455H186.382V106.305H187.576V101.455ZM191.166 114.011H189.788L189.689 114.807C189.433 116.732 189.049 118.592 188.865 119.551H189.838C190.179 118.55 190.789 116.305 191.038 114.771L191.166 114.011ZM40.358 143.227C42.5739 143.227 44.1932 142.119 44.7045 140.472L43.0852 140.017C42.6591 141.153 41.6719 141.722 40.358 141.722C38.3906 141.722 37.0341 140.45 36.956 138.114H44.875V137.403C44.875 133.341 42.4602 131.949 40.1875 131.949C37.233 131.949 35.2727 134.278 35.2727 137.631C35.2727 140.983 37.2045 143.227 40.358 143.227ZM36.956 136.665C37.0696 134.967 38.2699 133.455 40.1875 133.455C42.0057 133.455 43.1705 134.818 43.1705 136.665H36.956ZM49.1009 136.438C49.1009 134.534 50.2798 133.455 51.8849 133.455C53.4403 133.455 54.3849 134.47 54.3849 136.182V143H56.0611V136.068C56.0611 133.284 54.5767 131.949 52.3679 131.949C50.7202 131.949 49.6974 132.688 49.1861 133.795H49.044V132.091H47.4247V143H49.1009V136.438ZM63.2433 143.227C65.3455 143.227 66.0558 141.92 66.4251 141.324H66.6239V143H68.2433V128.455H66.5671V133.824H66.4251C66.0558 133.256 65.4023 131.949 63.2717 131.949C60.516 131.949 58.6126 134.136 58.6126 137.574C58.6126 141.04 60.516 143.227 63.2433 143.227ZM63.4705 141.722C61.3683 141.722 60.2887 139.875 60.2887 137.545C60.2887 135.244 61.3398 133.455 63.4705 133.455C65.516 133.455 66.5955 135.102 66.5955 137.545C66.5955 140.017 65.4876 141.722 63.4705 141.722ZM71.5458 147.091H73.2219V141.324H73.364C73.7333 141.92 74.4435 143.227 76.5458 143.227C79.2731 143.227 81.1765 141.04 81.1765 137.574C81.1765 134.136 79.2731 131.949 76.5174 131.949C74.3867 131.949 73.7333 133.256 73.364 133.824H73.1651V132.091H71.5458V147.091ZM73.1935 137.545C73.1935 135.102 74.2731 133.455 76.3185 133.455C78.4492 133.455 79.5004 135.244 79.5004 137.545C79.5004 139.875 78.4208 141.722 76.3185 141.722C74.3015 141.722 73.1935 140.017 73.1935 137.545ZM88.1651 143.227C91.1197 143.227 93.1083 140.983 93.1083 137.602C93.1083 134.193 91.1197 131.949 88.1651 131.949C85.2106 131.949 83.2219 134.193 83.2219 137.602C83.2219 140.983 85.2106 143.227 88.1651 143.227ZM88.1651 141.722C85.9208 141.722 84.8981 139.79 84.8981 137.602C84.8981 135.415 85.9208 133.455 88.1651 133.455C90.4094 133.455 91.4322 135.415 91.4322 137.602C91.4322 139.79 90.4094 141.722 88.1651 141.722ZM95.6669 143H97.343V132.091H95.6669V143ZM96.5192 130.273C97.1726 130.273 97.7124 129.761 97.7124 129.136C97.7124 128.511 97.1726 128 96.5192 128C95.8658 128 95.326 128.511 95.326 129.136C95.326 129.761 95.8658 130.273 96.5192 130.273ZM102.089 136.438C102.089 134.534 103.268 133.455 104.873 133.455C106.429 133.455 107.373 134.47 107.373 136.182V143H109.049V136.068C109.049 133.284 107.565 131.949 105.356 131.949C103.708 131.949 102.686 132.688 102.174 133.795H102.032V132.091H100.413V143H102.089V136.438ZM116.857 132.091H114.527V129.477H112.851V132.091H111.203V133.511H112.851V140.33C112.851 142.233 114.385 143.142 115.805 143.142C116.43 143.142 116.828 143.028 117.055 142.943L116.714 141.438C116.572 141.466 116.345 141.523 115.976 141.523C115.237 141.523 114.527 141.295 114.527 139.875V133.511H116.857V132.091ZM120.599 143.114C121.303 143.114 121.878 142.538 121.878 141.835C121.878 141.132 121.303 140.557 120.599 140.557C119.896 140.557 119.321 141.132 119.321 141.835C119.321 142.538 119.896 143.114 120.599 143.114ZM120.599 135.017C121.303 135.017 121.878 134.442 121.878 133.739C121.878 133.036 121.303 132.46 120.599 132.46C119.896 132.46 119.321 133.036 119.321 133.739C119.321 134.442 119.896 135.017 120.599 135.017ZM131.725 128.455H130.532V133.305H131.725V128.455ZM135.056 128.455H133.863V133.305H135.056V128.455ZM139.566 136.182C139.566 134.278 140.844 133.107 142.592 133.107C144.282 133.107 145.362 134.214 145.362 136.011V143H146.633V135.933C146.633 133.334 145.127 131.949 142.911 131.949C141.263 131.949 140.191 132.673 139.68 133.803H139.566V128.455H138.302V143H139.566V136.182ZM154.259 132.091H151.951V129.477H150.679V132.091H149.053V133.192H150.679V140.45C150.679 142.233 152.086 143.163 153.485 143.163C154.01 143.163 154.365 143.064 154.607 142.972L154.337 141.828C154.159 141.878 153.932 141.928 153.598 141.928C152.739 141.928 151.951 141.523 151.951 140.152V133.192H154.259V132.091ZM161.427 132.091H159.119V129.477H157.847V132.091H156.221V133.192H157.847V140.45C157.847 142.233 159.254 143.163 160.653 143.163C161.178 143.163 161.533 143.064 161.775 142.972L161.505 141.828C161.327 141.878 161.1 141.928 160.766 141.928C159.907 141.928 159.119 141.523 159.119 140.152V133.192H161.427V132.091ZM164.277 147.091H165.548V140.976H165.662C166.095 141.977 167.032 143.227 169.014 143.227C171.684 143.227 173.502 140.955 173.502 137.574C173.502 134.207 171.691 131.942 168.993 131.942C166.99 131.942 166.102 133.192 165.662 134.172H165.505V132.091H164.277V147.091ZM165.527 137.553C165.527 134.939 166.727 133.092 168.858 133.092C171.052 133.092 172.231 135.038 172.231 137.553C172.231 140.095 171.031 142.07 168.858 142.07C166.748 142.07 165.527 140.188 165.527 137.553ZM183.6 134.484C183.067 132.908 181.903 131.942 179.907 131.942C177.705 131.942 176.107 133.199 176.107 134.996C176.107 136.459 176.995 137.453 178.891 137.908L180.674 138.334C181.874 138.618 182.45 139.236 182.45 140.109C182.45 141.246 181.363 142.091 179.687 142.091C178.195 142.091 177.265 141.416 176.96 140.124L175.745 140.422C176.129 142.24 177.57 143.227 179.708 143.227C182.109 143.227 183.756 141.906 183.756 140.053C183.756 138.597 182.84 137.624 181.015 137.176L179.367 136.771C178.011 136.43 177.379 135.884 177.379 134.939C177.379 133.831 178.437 133.057 179.907 133.057C181.377 133.057 182.102 133.831 182.442 134.811L183.6 134.484ZM187.533 142.73C188.101 142.73 188.556 142.268 188.556 141.707C188.556 141.139 188.101 140.685 187.533 140.685C186.972 140.685 186.51 141.139 186.51 141.707C186.51 142.268 186.972 142.73 187.533 142.73ZM187.533 134.861C188.101 134.861 188.556 134.399 188.556 133.838C188.556 133.27 188.101 132.815 187.533 132.815C186.972 132.815 186.51 133.27 186.51 133.838C186.51 134.399 186.972 134.861 187.533 134.861ZM196.619 127.773H195.433L190.745 145.188H191.931L196.619 127.773ZM203.533 127.773H202.347L197.659 145.188H198.845L203.533 127.773ZM209.651 143.227C211.633 143.227 212.556 141.97 213.004 140.976H213.153V143H214.388V128.455H213.117V134.172H213.004C212.57 133.192 211.668 131.942 209.673 131.942C206.981 131.942 205.163 134.214 205.163 137.574C205.163 140.962 206.974 143.227 209.651 143.227ZM209.8 142.07C207.627 142.07 206.434 140.095 206.434 137.553C206.434 135.038 207.613 133.092 209.8 133.092C211.931 133.092 213.138 134.939 213.138 137.553C213.138 140.188 211.917 142.07 209.8 142.07ZM224.921 138.831C224.921 140.834 223.415 141.913 221.938 141.913C220.362 141.913 219.254 140.784 219.254 139.08V132.091H217.989V139.158C217.989 141.743 219.481 143.142 221.576 143.142C223.174 143.142 224.31 142.311 224.822 141.189H224.921V143H226.185V132.091H224.921V138.831ZM229.532 143H230.797V136.011C230.797 134.314 231.926 133.107 233.439 133.107C234.93 133.107 235.797 134.101 235.797 135.578V143H237.089V135.82C237.089 134.25 238.027 133.107 239.689 133.107C241.13 133.107 242.089 133.973 242.089 135.692V143H243.353V135.692C243.353 133.249 242.096 131.949 240.072 131.949C238.481 131.949 237.331 132.723 236.841 133.93H236.748C236.265 132.695 235.306 131.949 233.801 131.949C232.373 131.949 231.308 132.638 230.875 133.767H230.761V132.091H229.532V143ZM246.7 143H247.964V136.011C247.964 134.314 249.094 133.107 250.607 133.107C252.098 133.107 252.964 134.101 252.964 135.578V143H254.257V135.82C254.257 134.25 255.195 133.107 256.857 133.107C258.298 133.107 259.257 133.973 259.257 135.692V143H260.521V135.692C260.521 133.249 259.264 131.949 257.24 131.949C255.649 131.949 254.499 132.723 254.009 133.93H253.916C253.433 132.695 252.474 131.949 250.969 131.949C249.541 131.949 248.476 132.638 248.043 133.767H247.929V132.091H246.7V143ZM264.358 147.091C265.722 147.091 266.723 146.31 267.306 144.726L271.929 132.112L270.551 132.091L267.313 141.331H267.213L263.975 132.091H262.604L266.617 143.107L266.219 144.214C265.615 145.862 264.763 146.153 263.478 145.749L263.137 146.864C263.392 146.984 263.861 147.091 264.358 147.091ZM274.721 143.107C275.289 143.107 275.743 142.645 275.743 142.084C275.743 141.516 275.289 141.061 274.721 141.061C274.159 141.061 273.698 141.516 273.698 142.084C273.698 142.645 274.159 143.107 274.721 143.107ZM279.346 143H280.575V140.976H280.731C281.171 141.977 282.094 143.227 284.083 143.227C286.761 143.227 288.572 140.962 288.572 137.574C288.572 134.214 286.754 131.942 284.062 131.942C282.066 131.942 281.164 133.192 280.731 134.172H280.617V128.455H279.346V143ZM280.596 137.553C280.596 134.939 281.796 133.092 283.927 133.092C286.114 133.092 287.3 135.038 287.3 137.553C287.3 140.095 286.1 142.07 283.927 142.07C281.81 142.07 280.596 140.188 280.596 137.553ZM292.613 128.455H291.349V143H292.613V128.455ZM300.198 143.227C303.025 143.227 304.999 140.919 304.999 137.595C304.999 134.25 303.025 131.942 300.198 131.942C297.371 131.942 295.397 134.25 295.397 137.595C295.397 140.919 297.371 143.227 300.198 143.227ZM300.198 142.07C297.933 142.07 296.668 140.038 296.668 137.595C296.668 135.152 297.933 133.092 300.198 133.092C302.464 133.092 303.728 135.152 303.728 137.595C303.728 140.038 302.464 142.07 300.198 142.07ZM312.015 143.227C314.841 143.227 316.816 140.919 316.816 137.595C316.816 134.25 314.841 131.942 312.015 131.942C309.188 131.942 307.213 134.25 307.213 137.595C307.213 140.919 309.188 143.227 312.015 143.227ZM312.015 142.07C309.749 142.07 308.485 140.038 308.485 137.595C308.485 135.152 309.749 133.092 312.015 133.092C314.28 133.092 315.544 135.152 315.544 137.595C315.544 140.038 314.28 142.07 312.015 142.07ZM323.518 143.227C325.5 143.227 326.423 141.97 326.871 140.976H327.02V143H328.256V128.455H326.984V134.172H326.871C326.438 133.192 325.536 131.942 323.54 131.942C320.848 131.942 319.03 134.214 319.03 137.574C319.03 140.962 320.841 143.227 323.518 143.227ZM323.668 142.07C321.494 142.07 320.301 140.095 320.301 137.553C320.301 135.038 321.48 133.092 323.668 133.092C325.798 133.092 327.006 134.939 327.006 137.553C327.006 140.188 325.784 142.07 323.668 142.07ZM332.119 143H333.348V140.976H333.504C333.945 141.977 334.868 143.227 336.857 143.227C339.534 143.227 341.345 140.962 341.345 137.574C341.345 134.214 339.527 131.942 336.835 131.942C334.839 131.942 333.938 133.192 333.504 134.172H333.391V128.455H332.119V143ZM333.369 137.553C333.369 134.939 334.57 133.092 336.7 133.092C338.888 133.092 340.074 135.038 340.074 137.553C340.074 140.095 338.874 142.07 336.7 142.07C334.584 142.07 333.369 140.188 333.369 137.553ZM347.169 143.249C348.987 143.249 350.095 142.24 350.55 141.274H350.628V143H351.892V135.592C351.892 132.666 349.69 131.942 348.021 131.942C346.352 131.942 344.634 132.602 343.895 134.385L345.095 134.818C345.493 133.881 346.48 133.078 348.057 133.078C349.712 133.078 350.628 133.987 350.628 135.479V135.734C350.628 136.558 349.605 136.572 347.773 136.8C345.308 137.105 343.582 137.794 343.582 139.953C343.582 142.055 345.188 143.249 347.169 143.249ZM347.339 142.091C345.912 142.091 344.847 141.331 344.847 140.01C344.847 138.689 345.926 138.135 347.773 137.908C348.668 137.801 350.259 137.602 350.628 137.24V138.817C350.628 140.607 349.357 142.091 347.339 142.091ZM359.552 132.091H357.244V129.477H355.972V132.091H354.346V133.192H355.972V140.45C355.972 142.233 357.379 143.163 358.778 143.163C359.303 143.163 359.658 143.064 359.9 142.972L359.63 141.828C359.452 141.878 359.225 141.928 358.891 141.928C358.032 141.928 357.244 141.523 357.244 140.152V133.192H359.552V132.091ZM363.922 136.182C363.922 134.278 365.2 133.107 366.947 133.107C368.637 133.107 369.717 134.214 369.717 136.011V143H370.988V135.933C370.988 133.334 369.483 131.949 367.267 131.949C365.619 131.949 364.547 132.673 364.035 133.803H363.922V128.455H362.657V143H363.922V136.182ZM375.326 143.107C375.894 143.107 376.349 142.645 376.349 142.084C376.349 141.516 375.894 141.061 375.326 141.061C374.765 141.061 374.303 141.516 374.303 142.084C374.303 142.645 374.765 143.107 375.326 143.107ZM379.703 143H380.974V132.091H379.703V143ZM380.349 130.216C380.868 130.216 381.301 129.804 381.301 129.307C381.301 128.81 380.868 128.398 380.349 128.398C379.831 128.398 379.404 128.81 379.404 129.307C379.404 129.804 379.831 130.216 380.349 130.216ZM388.558 143.227C391.384 143.227 393.359 140.919 393.359 137.595C393.359 134.25 391.384 131.942 388.558 131.942C385.731 131.942 383.756 134.25 383.756 137.595C383.756 140.919 385.731 143.227 388.558 143.227ZM388.558 142.07C386.292 142.07 385.028 140.038 385.028 137.595C385.028 135.152 386.292 133.092 388.558 133.092C390.823 133.092 392.087 135.152 392.087 137.595C392.087 140.038 390.823 142.07 388.558 142.07ZM397.213 128.455H396.02V133.305H397.213V128.455ZM400.544 128.455H399.351V133.305H400.544V128.455ZM27.7372 163.864C27.7372 160.462 26.8423 157.436 25.2372 154.773H24.0866C25.4645 156.996 26.4304 160.589 26.4304 163.864C26.4304 167.131 25.4716 170.724 24.0866 172.955H25.2372C26.8423 170.305 27.7372 167.273 27.7372 163.864Z" fill="black"/>
<path d="M199.818 26.9744C199.463 25.1278 197.986 23.9489 195.429 23.9489C192.801 23.9489 191.011 25.2415 191.018 27.2585C191.011 28.8494 191.991 29.9006 194.087 30.3338L195.947 30.7244C196.949 30.9446 197.418 31.3494 197.418 31.9673C197.418 32.7131 196.608 33.2741 195.386 33.2741C194.207 33.2741 193.44 32.7628 193.22 31.7827L190.713 32.0241C191.033 34.027 192.716 35.2131 195.393 35.2131C198.121 35.2131 200.045 33.7997 200.053 31.733C200.045 30.1776 199.044 29.2259 196.984 28.7784L195.124 28.3807C194.016 28.1321 193.575 27.7486 193.582 27.1165C193.575 26.3778 194.392 25.8665 195.464 25.8665C196.651 25.8665 197.276 26.5128 197.474 27.2301L199.818 26.9744ZM206.931 35.2131C209.673 35.2131 211.42 33.5866 211.604 31.2713H209.147C208.927 32.4432 208.082 33.1179 206.952 33.1179C205.347 33.1179 204.31 31.7756 204.31 29.5455C204.31 27.3438 205.369 26.0227 206.952 26.0227C208.188 26.0227 208.948 26.8182 209.147 27.8693H211.604C211.427 25.5043 209.58 23.9489 206.917 23.9489C203.721 23.9489 201.704 26.2571 201.704 29.5881C201.704 32.8906 203.671 35.2131 206.931 35.2131ZM216.287 28.608C216.287 27.0312 217.267 26.1222 218.645 26.1222C219.994 26.1222 220.789 26.9815 220.789 28.4517V35H223.36V28.054C223.36 25.419 221.869 23.9489 219.603 23.9489C217.927 23.9489 216.862 24.7088 216.358 25.9446H216.23V20.4545H213.716V35H216.287V28.608ZM230.811 35.2131C233.353 35.2131 235.1 33.9702 235.555 32.0739L233.154 31.804C232.806 32.7273 231.954 33.2102 230.846 33.2102C229.184 33.2102 228.083 32.1165 228.062 30.2486H235.662V29.4602C235.662 25.6321 233.36 23.9489 230.676 23.9489C227.551 23.9489 225.512 26.2429 225.512 29.6094C225.512 33.0327 227.522 35.2131 230.811 35.2131ZM228.069 28.5156C228.147 27.1236 229.177 25.9517 230.711 25.9517C232.189 25.9517 233.183 27.0312 233.197 28.5156H228.069ZM241.885 35.1918C243.76 35.1918 244.605 34.0767 245.01 33.2812H245.166V35H247.695V20.4545H245.116V25.8949H245.01C244.619 25.1065 243.817 23.9489 241.892 23.9489C239.371 23.9489 237.389 25.9233 237.389 29.5597C237.389 33.1534 239.314 35.1918 241.885 35.1918ZM242.602 33.0824C240.905 33.0824 240.01 31.5909 240.01 29.5455C240.01 27.5142 240.891 26.0582 242.602 26.0582C244.257 26.0582 245.166 27.429 245.166 29.5455C245.166 31.6619 244.243 33.0824 242.602 33.0824ZM257.387 30.4119C257.387 32.0739 256.201 32.8977 255.065 32.8977C253.829 32.8977 253.005 32.0241 253.005 30.6392V24.0909H250.434V31.0369C250.434 33.6577 251.926 35.142 254.071 35.142C255.704 35.142 256.855 34.2827 257.352 33.0611H257.466V35H259.958V24.0909H257.387V30.4119ZM265.173 20.4545H262.602V35H265.173V20.4545ZM272.647 35.2131C275.189 35.2131 276.936 33.9702 277.391 32.0739L274.99 31.804C274.642 32.7273 273.79 33.2102 272.682 33.2102C271.02 33.2102 269.919 32.1165 269.898 30.2486H277.498V29.4602C277.498 25.6321 275.196 23.9489 272.512 23.9489C269.387 23.9489 267.348 26.2429 267.348 29.6094C267.348 33.0327 269.358 35.2131 272.647 35.2131ZM269.905 28.5156C269.983 27.1236 271.013 25.9517 272.547 25.9517C274.025 25.9517 275.019 27.0312 275.033 28.5156H269.905Z" fill="#EA5758"/>
<rect x="0.5" y="0.5" width="418" height="186" rx="5.5" stroke="#DFE2E6"/>
</svg>
