<svg width="419" height="187" viewBox="0 0 419 187" fill="none" xmlns="http://www.w3.org/2000/svg">
<rect x="0.5" y="0.5" width="418" height="186" rx="5.5" fill="white"/>
<path d="M24.7614 35H30.017C33.4545 35 34.875 33.3239 34.875 31.1364C34.875 28.8352 33.2841 27.5852 31.9489 27.5V27.358C33.1989 27.017 34.3068 26.1932 34.3068 24.3182C34.3068 22.1875 32.8864 20.4545 29.8466 20.4545H24.7614V35ZM26.5227 33.4375V28.3807H30.1023C32.0057 28.3807 33.1989 29.6591 33.1989 31.1364C33.1989 32.4148 32.3182 33.4375 30.017 33.4375H26.5227ZM26.5227 26.8466V22.017H29.8466C31.7784 22.017 32.6307 23.0398 32.6307 24.3182C32.6307 25.8523 31.3807 26.8466 29.7898 26.8466H26.5227ZM39.218 20.4545H37.5419V35H39.218V20.4545ZM46.7198 35.2273C49.6744 35.2273 51.663 32.983 51.663 29.6023C51.663 26.1932 49.6744 23.9489 46.7198 23.9489C43.7653 23.9489 41.7766 26.1932 41.7766 29.6023C41.7766 32.983 43.7653 35.2273 46.7198 35.2273ZM46.7198 33.7216C44.4755 33.7216 43.4528 31.7898 43.4528 29.6023C43.4528 27.4148 44.4755 25.4545 46.7198 25.4545C48.9641 25.4545 49.9869 27.4148 49.9869 29.6023C49.9869 31.7898 48.9641 33.7216 46.7198 33.7216ZM58.6534 35.2273C61.608 35.2273 63.5966 32.983 63.5966 29.6023C63.5966 26.1932 61.608 23.9489 58.6534 23.9489C55.6989 23.9489 53.7102 26.1932 53.7102 29.6023C53.7102 32.983 55.6989 35.2273 58.6534 35.2273ZM58.6534 33.7216C56.4091 33.7216 55.3864 31.7898 55.3864 29.6023C55.3864 27.4148 56.4091 25.4545 58.6534 25.4545C60.8977 25.4545 61.9205 27.4148 61.9205 29.6023C61.9205 31.7898 60.8977 33.7216 58.6534 33.7216ZM70.2745 35.2273C72.3768 35.2273 73.087 33.9205 73.4563 33.3239H73.6552V35H75.2745V20.4545H73.5984V25.8239H73.4563C73.087 25.2557 72.4336 23.9489 70.3029 23.9489C67.5472 23.9489 65.6438 26.1364 65.6438 29.5739C65.6438 33.0398 67.5472 35.2273 70.2745 35.2273ZM70.5018 33.7216C68.3995 33.7216 67.32 31.875 67.32 29.5455C67.32 27.2443 68.3711 25.4545 70.5018 25.4545C72.5472 25.4545 73.6268 27.1023 73.6268 29.5455C73.6268 32.017 72.5188 33.7216 70.5018 33.7216ZM78.8043 35H80.4237V33.3239H80.6225C80.9918 33.9205 81.7021 35.2273 83.8043 35.2273C86.5316 35.2273 88.435 33.0398 88.435 29.5739C88.435 26.1364 86.5316 23.9489 83.7759 23.9489C81.6452 23.9489 80.9918 25.2557 80.6225 25.8239H80.4805V20.4545H78.8043V35ZM80.4521 29.5455C80.4521 27.1023 81.5316 25.4545 83.5771 25.4545C85.7077 25.4545 86.7589 27.2443 86.7589 29.5455C86.7589 31.875 85.6793 33.7216 83.5771 33.7216C81.56 33.7216 80.4521 32.017 80.4521 29.5455ZM94.2092 35.2557C96.1126 35.2557 97.1069 34.233 97.4478 33.5227H97.533V35H99.2092V27.8125C99.2092 24.3466 96.5671 23.9489 95.1751 23.9489C93.5273 23.9489 91.6523 24.517 90.8001 26.5057L92.391 27.0739C92.7603 26.2784 93.6339 25.4261 95.2319 25.4261C96.7731 25.4261 97.533 26.2429 97.533 27.642V27.6989C97.533 28.5085 96.7092 28.4375 94.7205 28.6932C92.6964 28.956 90.4876 29.4034 90.4876 31.9034C90.4876 34.0341 92.1353 35.2557 94.2092 35.2557ZM94.4648 33.75C93.1296 33.75 92.1637 33.1534 92.1637 31.9886C92.1637 30.7102 93.3285 30.3125 94.6353 30.142C95.3455 30.0568 97.2489 29.858 97.533 29.517V31.0511C97.533 32.4148 96.4535 33.75 94.4648 33.75ZM107.013 24.0909H104.683V21.4773H103.007V24.0909H101.359V25.5114H103.007V32.3295C103.007 34.233 104.541 35.142 105.962 35.142C106.587 35.142 106.984 35.0284 107.212 34.9432L106.871 33.4375C106.729 33.4659 106.501 33.5227 106.132 33.5227C105.393 33.5227 104.683 33.2955 104.683 31.875V25.5114H107.013V24.0909ZM111.445 28.4375C111.445 26.5341 112.659 25.4545 114.314 25.4545C115.891 25.4545 116.842 26.4489 116.842 28.1818V35H118.518V28.0682C118.518 25.2628 117.027 23.9489 114.797 23.9489C113.078 23.9489 112.098 24.6662 111.587 25.7955H111.445V20.4545H109.768V35H111.445V28.4375ZM122.806 35.1136C123.51 35.1136 124.085 34.5384 124.085 33.8352C124.085 33.1321 123.51 32.5568 122.806 32.5568C122.103 32.5568 121.528 33.1321 121.528 33.8352C121.528 34.5384 122.103 35.1136 122.806 35.1136ZM271.107 28.8636C271.107 32.4432 272.073 35.4261 273.806 37.9545H275.283C273.92 36.0795 272.84 32.2443 272.84 28.8636C272.84 25.483 273.92 21.6477 275.283 19.7727H273.806C272.073 22.3011 271.107 25.2841 271.107 28.8636ZM282.785 37.9545V36.5625C281.137 36.5625 280.626 35.8097 280.626 34.1477V31.3068C280.626 30.1491 280.264 29.2898 278.637 28.9702V28.7571C280.264 28.4375 280.626 27.5781 280.626 26.4205V23.5795C280.626 21.9176 281.137 21.1648 282.785 21.1648V19.7727C280.001 19.7727 279.092 20.9659 279.092 23.5795V25.8523C279.092 27.4077 278.545 28.0114 276.961 28.0114V29.7159C278.545 29.7159 279.092 30.3196 279.092 31.875V34.1477C279.092 36.7614 280.001 37.9545 282.785 37.9545ZM43.5114 53.5341C42.9858 51.9858 41.8068 50.9489 39.6477 50.9489C37.3466 50.9489 35.642 52.2557 35.642 54.1023C35.642 55.608 36.5369 56.6165 38.5398 57.0852L40.358 57.5114C41.4588 57.767 41.9773 58.2926 41.9773 59.0455C41.9773 59.983 40.983 60.75 39.4205 60.75C38.0497 60.75 37.1903 60.1605 36.892 58.9886L35.3011 59.3864C35.6918 61.2401 37.2188 62.2273 39.4489 62.2273C41.9844 62.2273 43.7102 60.8423 43.7102 58.9602C43.7102 57.4403 42.7585 56.4815 40.8125 56.0057L39.1932 55.608C37.9006 55.2884 37.3182 54.8551 37.3182 54.017C37.3182 53.0795 38.3125 52.3977 39.6477 52.3977C41.1108 52.3977 41.7145 53.2074 42.0057 53.9602L43.5114 53.5341ZM50.6651 62.2273C53.0799 62.2273 54.6708 60.75 54.9549 58.8182H53.2788C52.9663 60.0114 51.9719 60.7216 50.6651 60.7216C48.6765 60.7216 47.3981 59.0739 47.3981 56.5455C47.3981 54.0739 48.7049 52.4545 50.6651 52.4545C52.1424 52.4545 53.0231 53.3636 53.2788 54.358H54.9549C54.6708 52.3125 52.9379 50.9489 50.6367 50.9489C47.6822 50.9489 45.7219 53.2784 45.7219 56.6023C45.7219 59.8693 47.5969 62.2273 50.6651 62.2273ZM59.0813 55.4375C59.0813 53.5341 60.2958 52.4545 61.9506 52.4545C63.5273 52.4545 64.479 53.4489 64.479 55.1818V62H66.1552V55.0682C66.1552 52.2628 64.6637 50.9489 62.4336 50.9489C60.7148 50.9489 59.7347 51.6662 59.2234 52.7955H59.0813V47.4545H57.4052V62H59.0813V55.4375ZM73.7955 62.2273C76.0114 62.2273 77.6307 61.1193 78.142 59.4716L76.5227 59.017C76.0966 60.1534 75.1094 60.7216 73.7955 60.7216C71.8281 60.7216 70.4716 59.4503 70.3935 57.1136H78.3125V56.4034C78.3125 52.3409 75.8977 50.9489 73.625 50.9489C70.6705 50.9489 68.7102 53.2784 68.7102 56.6307C68.7102 59.983 70.642 62.2273 73.7955 62.2273ZM70.3935 55.6648C70.5071 53.9673 71.7074 52.4545 73.625 52.4545C75.4432 52.4545 76.608 53.8182 76.608 55.6648H70.3935ZM84.9815 62.2273C87.0838 62.2273 87.794 60.9205 88.1634 60.3239H88.3622V62H89.9815V47.4545H88.3054V52.8239H88.1634C87.794 52.2557 87.1406 50.9489 85.0099 50.9489C82.2543 50.9489 80.3509 53.1364 80.3509 56.5739C80.3509 60.0398 82.2543 62.2273 84.9815 62.2273ZM85.2088 60.7216C83.1065 60.7216 82.027 58.875 82.027 56.5455C82.027 54.2443 83.0781 52.4545 85.2088 52.4545C87.2543 52.4545 88.3338 54.1023 88.3338 56.5455C88.3338 59.017 87.2259 60.7216 85.2088 60.7216ZM100.159 57.5398C100.159 59.5852 98.5966 60.5227 97.3466 60.5227C95.9545 60.5227 94.9602 59.5 94.9602 57.9091V51.0909H93.2841V58.0227C93.2841 60.8068 94.7614 62.142 96.8068 62.142C98.4545 62.142 99.5341 61.2614 100.045 60.1534H100.159V62H101.835V51.0909H100.159V57.5398ZM106.581 47.4545H104.905V62H106.581V47.4545ZM114.225 62.2273C116.441 62.2273 118.06 61.1193 118.572 59.4716L116.952 59.017C116.526 60.1534 115.539 60.7216 114.225 60.7216C112.258 60.7216 110.901 59.4503 110.823 57.1136H118.742V56.4034C118.742 52.3409 116.327 50.9489 114.055 50.9489C111.1 50.9489 109.14 53.2784 109.14 56.6307C109.14 59.983 111.072 62.2273 114.225 62.2273ZM110.823 55.6648C110.937 53.9673 112.137 52.4545 114.055 52.4545C115.873 52.4545 117.038 53.8182 117.038 55.6648H110.823ZM125.411 62.2273C127.513 62.2273 128.224 60.9205 128.593 60.3239H128.792V62H130.411V47.4545H128.735V52.8239H128.593C128.224 52.2557 127.57 50.9489 125.44 50.9489C122.684 50.9489 120.781 53.1364 120.781 56.5739C120.781 60.0398 122.684 62.2273 125.411 62.2273ZM125.638 60.7216C123.536 60.7216 122.457 58.875 122.457 56.5455C122.457 54.2443 123.508 52.4545 125.638 52.4545C127.684 52.4545 128.763 54.1023 128.763 56.5455C128.763 59.017 127.656 60.7216 125.638 60.7216ZM133.941 62H135.702V55.4943H142.009V53.9318H135.702V49.017H142.663V47.4545H133.941V62ZM149.083 62.2273C152.038 62.2273 154.026 59.983 154.026 56.6023C154.026 53.1932 152.038 50.9489 149.083 50.9489C146.129 50.9489 144.14 53.1932 144.14 56.6023C144.14 59.983 146.129 62.2273 149.083 62.2273ZM149.083 60.7216C146.839 60.7216 145.816 58.7898 145.816 56.6023C145.816 54.4148 146.839 52.4545 149.083 52.4545C151.327 52.4545 152.35 54.4148 152.35 56.6023C152.35 58.7898 151.327 60.7216 149.083 60.7216ZM156.585 62H158.261V55.0966C158.261 53.6193 159.426 52.5398 161.017 52.5398C161.464 52.5398 161.926 52.625 162.039 52.6534V50.9489C161.848 50.9347 161.407 50.9205 161.159 50.9205C159.852 50.9205 158.716 51.6591 158.318 52.7386H158.204V51.0909H156.585V62ZM165.248 62.1136C165.951 62.1136 166.526 61.5384 166.526 60.8352C166.526 60.1321 165.951 59.5568 165.248 59.5568C164.545 59.5568 163.969 60.1321 163.969 60.8352C163.969 61.5384 164.545 62.1136 165.248 62.1136ZM165.248 54.017C165.951 54.017 166.526 53.4418 166.526 52.7386C166.526 52.0355 165.951 51.4602 165.248 51.4602C164.545 51.4602 163.969 52.0355 163.969 52.7386C163.969 53.4418 164.545 54.017 165.248 54.017ZM179.818 62C184.193 62 186.686 59.2656 186.693 54.6918C186.693 50.1676 184.236 47.4545 180.074 47.4545H175.557V62H179.818ZM176.885 60.8068V48.6477H179.996C183.526 48.6477 185.401 50.9276 185.408 54.6918C185.408 58.4915 183.49 60.8068 179.74 60.8068H176.885ZM192.696 62.2486C194.515 62.2486 195.623 61.2401 196.077 60.2741H196.155V62H197.419V54.5923C197.419 51.6662 195.218 50.9418 193.549 50.9418C191.88 50.9418 190.161 51.6023 189.422 53.3849L190.623 53.8182C191.02 52.8807 192.007 52.0781 193.584 52.0781C195.239 52.0781 196.155 52.9872 196.155 54.4787V54.7344C196.155 55.5582 195.132 55.5724 193.3 55.7997C190.836 56.1051 189.11 56.794 189.11 58.9531C189.11 61.0554 190.715 62.2486 192.696 62.2486ZM192.867 61.0909C191.439 61.0909 190.374 60.331 190.374 59.0099C190.374 57.6889 191.453 57.1349 193.3 56.9077C194.195 56.8011 195.786 56.6023 196.155 56.2401V57.8168C196.155 59.6065 194.884 61.0909 192.867 61.0909ZM205.079 51.0909H202.771V48.4773H201.5V51.0909H199.873V52.1918H201.5V59.4503C201.5 61.233 202.906 62.1634 204.305 62.1634C204.831 62.1634 205.186 62.0639 205.427 61.9716L205.157 60.8281C204.98 60.8778 204.752 60.9276 204.419 60.9276C203.559 60.9276 202.771 60.5227 202.771 59.152V52.1918H205.079V51.0909ZM212.244 62.2273C214.431 62.2273 215.901 61.0412 216.398 59.6705L215.198 59.2798C214.779 60.2599 213.792 61.0696 212.244 61.0696C210.013 61.0696 208.6 59.4432 208.543 56.9219H216.668V56.2969C216.668 52.6534 214.417 50.9418 212.052 50.9418C209.225 50.9418 207.272 53.3068 207.272 56.6094C207.272 59.919 209.19 62.2273 212.244 62.2273ZM208.55 55.8068C208.685 53.7756 210.056 52.0923 212.052 52.0923C214.005 52.0923 215.376 53.7045 215.376 55.8068H208.55ZM220.463 62.1065C221.031 62.1065 221.485 61.6449 221.485 61.0838C221.485 60.5156 221.031 60.0611 220.463 60.0611C219.902 60.0611 219.44 60.5156 219.44 61.0838C219.44 61.6449 219.902 62.1065 220.463 62.1065ZM226.089 55.1818C226.089 53.2784 227.339 52.1065 229.058 52.1065C230.734 52.1065 231.814 53.2287 231.814 55.0114V62H233.078V54.9332C233.078 52.348 231.58 50.9489 229.378 50.9489C227.78 50.9489 226.679 51.6875 226.168 52.8026H226.054V51.0909H224.825V62H226.089V55.1818ZM240.647 62.2273C243.474 62.2273 245.449 59.919 245.449 56.5952C245.449 53.25 243.474 50.9418 240.647 50.9418C237.821 50.9418 235.846 53.25 235.846 56.5952C235.846 59.919 237.821 62.2273 240.647 62.2273ZM240.647 61.0696C238.382 61.0696 237.118 59.0384 237.118 56.5952C237.118 54.152 238.382 52.0923 240.647 52.0923C242.913 52.0923 244.177 54.152 244.177 56.5952C244.177 59.0384 242.913 61.0696 240.647 61.0696ZM250.275 62H251.581L254.167 53.0582H254.301L256.887 62H258.194L261.489 51.0909H260.154L257.569 60.0682H257.469L254.912 51.0909H253.57L250.992 60.0895H250.9L248.314 51.0909H246.979L250.275 62ZM264.472 55.8636C264.472 59.2656 265.367 62.2912 266.972 64.9545H268.123C266.745 62.7315 265.779 59.1378 265.779 55.8636C265.779 52.5966 266.738 49.0028 268.123 46.7727H266.972C265.367 49.4219 264.472 52.4545 264.472 55.8636ZM273.948 55.8636C273.948 52.4616 273.053 49.4361 271.448 46.7727H270.298C271.675 48.9957 272.641 52.5895 272.641 55.8636C272.641 59.1307 271.683 62.7244 270.298 64.9545H271.448C273.053 62.3054 273.948 59.2727 273.948 55.8636ZM287.679 60.8139H288.893V56.9219H292.785V55.7145H288.893V51.8224H287.679V55.7145H283.787V56.9219H287.679V60.8139ZM306.53 47.4545H305.145L301.707 49.7344V51.1122L305.116 48.8466H305.202V62H306.53V47.4545ZM315.464 62.1989C318.526 62.1989 320.322 59.4361 320.322 54.7273C320.322 50.0398 318.511 47.2557 315.464 47.2557C312.418 47.2557 310.607 50.0398 310.607 54.7273C310.607 59.4361 312.403 62.1989 315.464 62.1989ZM315.464 61.0057C313.227 61.0057 311.892 58.7116 311.892 54.7273C311.892 50.75 313.234 48.4276 315.464 48.4276C317.695 48.4276 319.037 50.75 319.037 54.7273C319.037 58.7116 317.702 61.0057 315.464 61.0057ZM327.73 62.1989C330.791 62.1989 332.588 59.4361 332.588 54.7273C332.588 50.0398 330.777 47.2557 327.73 47.2557C324.683 47.2557 322.872 50.0398 322.872 54.7273C322.872 59.4361 324.669 62.1989 327.73 62.1989ZM327.73 61.0057C325.493 61.0057 324.158 58.7116 324.158 54.7273C324.158 50.75 325.5 48.4276 327.73 48.4276C329.96 48.4276 331.303 50.75 331.303 54.7273C331.303 58.7116 329.967 61.0057 327.73 61.0057ZM339.996 62.1989C343.057 62.1989 344.854 59.4361 344.854 54.7273C344.854 50.0398 343.043 47.2557 339.996 47.2557C336.949 47.2557 335.138 50.0398 335.138 54.7273C335.138 59.4361 336.935 62.1989 339.996 62.1989ZM339.996 61.0057C337.759 61.0057 336.423 58.7116 336.423 54.7273C336.423 50.75 337.766 48.4276 339.996 48.4276C342.226 48.4276 343.568 50.75 343.568 54.7273C343.568 58.7116 342.233 61.0057 339.996 61.0057ZM356.217 58.8182H357.283L357.205 55.5014L360.038 57.2344L360.564 56.3111L357.638 54.7273L360.564 53.1435L360.038 52.2202L357.205 53.9531L357.283 50.6364H356.217L356.295 53.9531L353.462 52.2202L352.936 53.1435L355.862 54.7273L352.936 56.3111L353.462 57.2344L356.295 55.5014L356.217 58.8182ZM373.575 62.1989C376.352 62.2202 378.178 60.0327 378.178 57.4261C378.178 54.6918 376.161 52.6889 373.739 52.6889C372.176 52.6889 370.798 53.527 370.109 54.8125H370.017C370.024 50.75 371.388 48.4489 373.774 48.4489C375.436 48.4489 376.445 49.5568 376.714 51.0909H378.021C377.737 48.8253 376.125 47.2557 373.774 47.2557C370.429 47.2557 368.767 50.6009 368.767 55.331C368.767 60.4446 371.161 62.1776 373.575 62.1989ZM373.575 61.0057C371.764 61.0057 370.422 59.5213 370.266 57.5114C370.124 55.5938 371.636 53.8821 373.575 53.8821C375.464 53.8821 376.892 55.4588 376.892 57.4261C376.892 59.4077 375.464 61.0057 373.575 61.0057ZM385.699 62.1989C388.76 62.1989 390.557 59.4361 390.557 54.7273C390.557 50.0398 388.746 47.2557 385.699 47.2557C382.652 47.2557 380.841 50.0398 380.841 54.7273C380.841 59.4361 382.638 62.1989 385.699 62.1989ZM385.699 61.0057C383.462 61.0057 382.126 58.7116 382.126 54.7273C382.126 50.75 383.469 48.4276 385.699 48.4276C387.929 48.4276 389.271 50.75 389.271 54.7273C389.271 58.7116 387.936 61.0057 385.699 61.0057ZM395.862 60.0114H394.044L393.959 60.8068C393.753 62.7315 393.348 64.6491 393.163 65.5511H394.442C394.783 64.5852 395.507 62.3977 395.749 60.7784L395.862 60.0114ZM35.7841 89H37.4602V82.1818C37.4602 80.5838 38.625 79.4545 39.9318 79.4545C41.2031 79.4545 42.0909 80.2855 42.0909 81.5284V89H43.7955V81.8977C43.7955 80.4915 44.6761 79.4545 46.2102 79.4545C47.4034 79.4545 48.4261 80.0866 48.4261 81.6989V89H50.1023V81.6989C50.1023 79.1349 48.7244 77.9489 46.7784 77.9489C45.2159 77.9489 44.0724 78.6662 43.5114 79.7955H43.3977C42.858 78.6307 41.9062 77.9489 40.4716 77.9489C39.0511 77.9489 38 78.6307 37.5455 79.7955H37.4034V78.0909H35.7841V89ZM57.7408 89.2273C59.9567 89.2273 61.576 88.1193 62.0874 86.4716L60.468 86.017C60.0419 87.1534 59.0547 87.7216 57.7408 87.7216C55.7734 87.7216 54.4169 86.4503 54.3388 84.1136H62.2578V83.4034C62.2578 79.3409 59.843 77.9489 57.5703 77.9489C54.6158 77.9489 52.6555 80.2784 52.6555 83.6307C52.6555 86.983 54.5874 89.2273 57.7408 89.2273ZM54.3388 82.6648C54.4524 80.9673 55.6527 79.4545 57.5703 79.4545C59.3885 79.4545 60.5533 80.8182 60.5533 82.6648H54.3388ZM69.5518 78.0909H67.2223V75.4773H65.5462V78.0909H63.8984V79.5114H65.5462V86.3295C65.5462 88.233 67.0803 89.142 68.5007 89.142C69.1257 89.142 69.5234 89.0284 69.7507 88.9432L69.4098 87.4375C69.2678 87.4659 69.0405 87.5227 68.6712 87.5227C67.9325 87.5227 67.2223 87.2955 67.2223 85.875V79.5114H69.5518V78.0909ZM73.9837 82.4375C73.9837 80.5341 75.1982 79.4545 76.853 79.4545C78.4297 79.4545 79.3814 80.4489 79.3814 82.1818V89H81.0575V82.0682C81.0575 79.2628 79.5661 77.9489 77.3359 77.9489C75.6172 77.9489 74.6371 78.6662 74.1257 79.7955H73.9837V74.4545H72.3075V89H73.9837V82.4375ZM88.5558 89.2273C91.5103 89.2273 93.4989 86.983 93.4989 83.6023C93.4989 80.1932 91.5103 77.9489 88.5558 77.9489C85.6012 77.9489 83.6126 80.1932 83.6126 83.6023C83.6126 86.983 85.6012 89.2273 88.5558 89.2273ZM88.5558 87.7216C86.3114 87.7216 85.2887 85.7898 85.2887 83.6023C85.2887 81.4148 86.3114 79.4545 88.5558 79.4545C90.8001 79.4545 91.8228 81.4148 91.8228 83.6023C91.8228 85.7898 90.8001 87.7216 88.5558 87.7216ZM100.177 89.2273C102.279 89.2273 102.989 87.9205 103.359 87.3239H103.558V89H105.177V74.4545H103.501V79.8239H103.359C102.989 79.2557 102.336 77.9489 100.205 77.9489C97.4496 77.9489 95.5462 80.1364 95.5462 83.5739C95.5462 87.0398 97.4496 89.2273 100.177 89.2273ZM100.404 87.7216C98.3018 87.7216 97.2223 85.875 97.2223 83.5455C97.2223 81.2443 98.2734 79.4545 100.404 79.4545C102.45 79.4545 103.529 81.1023 103.529 83.5455C103.529 86.017 102.421 87.7216 100.404 87.7216ZM109.701 89.1136C110.404 89.1136 110.979 88.5384 110.979 87.8352C110.979 87.1321 110.404 86.5568 109.701 86.5568C108.998 86.5568 108.423 87.1321 108.423 87.8352C108.423 88.5384 108.998 89.1136 109.701 89.1136ZM109.701 81.017C110.404 81.017 110.979 80.4418 110.979 79.7386C110.979 79.0355 110.404 78.4602 109.701 78.4602C108.998 78.4602 108.423 79.0355 108.423 79.7386C108.423 80.4418 108.998 81.017 109.701 81.017ZM120.756 88.7301C121.324 88.7301 121.778 88.2685 121.778 87.7074C121.778 87.1392 121.324 86.6847 120.756 86.6847C120.195 86.6847 119.733 87.1392 119.733 87.7074C119.733 88.2685 120.195 88.7301 120.756 88.7301ZM120.756 80.8608C121.324 80.8608 121.778 80.3991 121.778 79.8381C121.778 79.2699 121.324 78.8153 120.756 78.8153C120.195 78.8153 119.733 79.2699 119.733 79.8381C119.733 80.3991 120.195 80.8608 120.756 80.8608ZM125.097 93.0909H126.368V86.9759H126.482C126.915 87.9773 127.853 89.2273 129.834 89.2273C132.505 89.2273 134.323 86.9545 134.323 83.5739C134.323 80.2074 132.512 77.9418 129.813 77.9418C127.81 77.9418 126.922 79.1918 126.482 80.1719H126.326V78.0909H125.097V93.0909ZM126.347 83.5526C126.347 80.9389 127.547 79.0923 129.678 79.0923C131.873 79.0923 133.051 81.0384 133.051 83.5526C133.051 86.0952 131.851 88.0696 129.678 88.0696C127.569 88.0696 126.347 86.1875 126.347 83.5526ZM141.331 89.2273C144.158 89.2273 146.132 86.919 146.132 83.5952C146.132 80.25 144.158 77.9418 141.331 77.9418C138.504 77.9418 136.53 80.25 136.53 83.5952C136.53 86.919 138.504 89.2273 141.331 89.2273ZM141.331 88.0696C139.065 88.0696 137.801 86.0384 137.801 83.5952C137.801 81.152 139.065 79.0923 141.331 79.0923C143.597 79.0923 144.861 81.152 144.861 83.5952C144.861 86.0384 143.597 88.0696 141.331 88.0696ZM156.237 80.4844C155.704 78.9077 154.539 77.9418 152.544 77.9418C150.342 77.9418 148.744 79.1989 148.744 80.9957C148.744 82.4588 149.632 83.4531 151.528 83.9077L153.311 84.3338C154.511 84.6179 155.086 85.2358 155.086 86.1094C155.086 87.2457 154 88.0909 152.324 88.0909C150.832 88.0909 149.902 87.4162 149.596 86.1236L148.382 86.4219C148.765 88.2401 150.207 89.2273 152.345 89.2273C154.745 89.2273 156.393 87.9062 156.393 86.0526C156.393 84.5966 155.477 83.6236 153.652 83.1761L152.004 82.7713C150.647 82.4304 150.015 81.8835 150.015 80.9389C150.015 79.831 151.074 79.0568 152.544 79.0568C154.014 79.0568 154.738 79.831 155.079 80.8111L156.237 80.4844ZM163.458 78.0909H161.15V75.4773H159.879V78.0909H158.252V79.1918H159.879V86.4503C159.879 88.233 161.285 89.1634 162.684 89.1634C163.21 89.1634 163.565 89.0639 163.806 88.9716L163.536 87.8281C163.359 87.8778 163.131 87.9276 162.798 87.9276C161.938 87.9276 161.15 87.5227 161.15 86.152V79.1918H163.458V78.0909ZM168.694 87.0114H166.876L166.791 87.8068C166.585 89.7315 166.18 91.6491 165.995 92.5511H167.274C167.615 91.5852 168.339 89.3977 168.581 87.7784L168.694 87.0114ZM36.0114 116H37.6307V114.324H37.8295C38.1989 114.92 38.9091 116.227 41.0114 116.227C43.7386 116.227 45.642 114.04 45.642 110.574C45.642 107.136 43.7386 104.949 40.983 104.949C38.8523 104.949 38.1989 106.256 37.8295 106.824H37.6875V101.455H36.0114V116ZM37.6591 110.545C37.6591 108.102 38.7386 106.455 40.7841 106.455C42.9148 106.455 43.9659 108.244 43.9659 110.545C43.9659 112.875 42.8864 114.722 40.7841 114.722C38.767 114.722 37.6591 113.017 37.6591 110.545ZM52.6378 116.227C55.5923 116.227 57.581 113.983 57.581 110.602C57.581 107.193 55.5923 104.949 52.6378 104.949C49.6832 104.949 47.6946 107.193 47.6946 110.602C47.6946 113.983 49.6832 116.227 52.6378 116.227ZM52.6378 114.722C50.3935 114.722 49.3707 112.79 49.3707 110.602C49.3707 108.415 50.3935 106.455 52.6378 106.455C54.8821 106.455 55.9048 108.415 55.9048 110.602C55.9048 112.79 54.8821 114.722 52.6378 114.722ZM64.2589 116.227C66.3612 116.227 67.0714 114.92 67.4407 114.324H67.6396V116H69.2589V101.455H67.5827V106.824H67.4407C67.0714 106.256 66.418 104.949 64.2873 104.949C61.5316 104.949 59.6282 107.136 59.6282 110.574C59.6282 114.04 61.5316 116.227 64.2589 116.227ZM64.4862 114.722C62.3839 114.722 61.3043 112.875 61.3043 110.545C61.3043 108.244 62.3555 106.455 64.4862 106.455C66.5316 106.455 67.6112 108.102 67.6112 110.545C67.6112 113.017 66.5032 114.722 64.4862 114.722ZM73.641 120.091C75.1538 120.091 76.2191 119.288 76.8512 117.591L81.4961 105.119L79.6637 105.091L76.6523 113.784H76.5387L73.5273 105.091H71.7092L75.7433 116.057L75.4308 116.909C74.82 118.571 74.0671 118.727 72.8455 118.415L72.4194 119.892C72.5898 119.977 73.0728 120.091 73.641 120.091ZM84.9354 116.114C85.6385 116.114 86.2138 115.538 86.2138 114.835C86.2138 114.132 85.6385 113.557 84.9354 113.557C84.2322 113.557 83.657 114.132 83.657 114.835C83.657 115.538 84.2322 116.114 84.9354 116.114ZM84.9354 108.017C85.6385 108.017 86.2138 107.442 86.2138 106.739C86.2138 106.036 85.6385 105.46 84.9354 105.46C84.2322 105.46 83.657 106.036 83.657 106.739C83.657 107.442 84.2322 108.017 84.9354 108.017ZM96.0611 101.455H94.8679V106.305H96.0611V101.455ZM99.392 101.455H98.1989V106.305H99.392V101.455ZM105.685 116.249C107.503 116.249 108.611 115.24 109.065 114.274H109.143V116H110.408V108.592C110.408 105.666 108.206 104.942 106.537 104.942C104.868 104.942 103.149 105.602 102.411 107.385L103.611 107.818C104.009 106.881 104.996 106.078 106.572 106.078C108.227 106.078 109.143 106.987 109.143 108.479V108.734C109.143 109.558 108.121 109.572 106.288 109.8C103.824 110.105 102.098 110.794 102.098 112.953C102.098 115.055 103.703 116.249 105.685 116.249ZM105.855 115.091C104.428 115.091 103.362 114.331 103.362 113.01C103.362 111.689 104.442 111.135 106.288 110.908C107.183 110.801 108.774 110.602 109.143 110.24V111.817C109.143 113.607 107.872 115.091 105.855 115.091ZM115.035 109.182C115.035 107.278 116.285 106.107 118.004 106.107C119.68 106.107 120.759 107.229 120.759 109.011V116H122.023V108.933C122.023 106.348 120.525 104.949 118.323 104.949C116.725 104.949 115.624 105.688 115.113 106.803H114.999V105.091H113.771V116H115.035V109.182ZM125.843 120.091C127.206 120.091 128.208 119.31 128.79 117.726L133.414 105.112L132.036 105.091L128.797 114.331H128.698L125.459 105.091H124.088L128.101 116.107L127.703 117.214C127.1 118.862 126.248 119.153 124.962 118.749L124.621 119.864C124.877 119.984 125.346 120.091 125.843 120.091ZM140.177 105.091H137.869V102.477H136.597V105.091H134.971V106.192H136.597V113.45C136.597 115.233 138.004 116.163 139.403 116.163C139.928 116.163 140.283 116.064 140.525 115.972L140.255 114.828C140.077 114.878 139.85 114.928 139.516 114.928C138.657 114.928 137.869 114.523 137.869 113.152V106.192H140.177V105.091ZM144.547 109.182C144.547 107.278 145.825 106.107 147.572 106.107C149.262 106.107 150.342 107.214 150.342 109.011V116H151.613V108.933C151.613 106.334 150.108 104.949 147.892 104.949C146.244 104.949 145.172 105.673 144.66 106.803H144.547V101.455H143.282V116H144.547V109.182ZM154.957 116H156.228V105.091H154.957V116ZM155.603 103.216C156.121 103.216 156.555 102.804 156.555 102.307C156.555 101.81 156.121 101.398 155.603 101.398C155.085 101.398 154.658 101.81 154.658 102.307C154.658 102.804 155.085 103.216 155.603 103.216ZM160.836 109.182C160.836 107.278 162.086 106.107 163.804 106.107C165.48 106.107 166.56 107.229 166.56 109.011V116H167.824V108.933C167.824 106.348 166.326 104.949 164.124 104.949C162.526 104.949 161.425 105.688 160.914 106.803H160.8V105.091H159.571V116H160.836V109.182ZM175.315 120.318C177.901 120.318 179.818 119.054 179.818 116.284V105.091H178.582V107.172H178.455C178.007 106.192 177.105 104.942 175.102 104.942C172.403 104.942 170.592 107.2 170.592 110.517C170.592 113.862 172.467 115.886 175.081 115.886C177.041 115.886 178 114.75 178.433 113.749H178.547V116.206C178.547 118.237 177.247 119.182 175.315 119.182C173.447 119.182 172.553 118.28 172.091 117.449L171.054 118.131C171.693 119.381 173.085 120.318 175.315 120.318ZM175.23 114.729C173.064 114.729 171.864 112.996 171.864 110.496C171.864 108.038 173.043 106.092 175.23 106.092C177.368 106.092 178.568 107.939 178.568 110.496C178.568 113.131 177.332 114.729 175.23 114.729ZM184.245 101.455H183.051V106.305H184.245V101.455ZM187.576 101.455H186.382V106.305H187.576V101.455ZM193.186 114.011H191.368L191.283 114.807C191.077 116.732 190.672 118.649 190.488 119.551H191.766C192.107 118.585 192.831 116.398 193.073 114.778L193.186 114.011ZM40.358 143.227C42.5739 143.227 44.1932 142.119 44.7045 140.472L43.0852 140.017C42.6591 141.153 41.6719 141.722 40.358 141.722C38.3906 141.722 37.0341 140.45 36.956 138.114H44.875V137.403C44.875 133.341 42.4602 131.949 40.1875 131.949C37.233 131.949 35.2727 134.278 35.2727 137.631C35.2727 140.983 37.2045 143.227 40.358 143.227ZM36.956 136.665C37.0696 134.967 38.2699 133.455 40.1875 133.455C42.0057 133.455 43.1705 134.818 43.1705 136.665H36.956ZM49.1009 136.438C49.1009 134.534 50.2798 133.455 51.8849 133.455C53.4403 133.455 54.3849 134.47 54.3849 136.182V143H56.0611V136.068C56.0611 133.284 54.5767 131.949 52.3679 131.949C50.7202 131.949 49.6974 132.688 49.1861 133.795H49.044V132.091H47.4247V143H49.1009V136.438ZM63.2433 143.227C65.3455 143.227 66.0558 141.92 66.4251 141.324H66.6239V143H68.2433V128.455H66.5671V133.824H66.4251C66.0558 133.256 65.4023 131.949 63.2717 131.949C60.516 131.949 58.6126 134.136 58.6126 137.574C58.6126 141.04 60.516 143.227 63.2433 143.227ZM63.4705 141.722C61.3683 141.722 60.2887 139.875 60.2887 137.545C60.2887 135.244 61.3398 133.455 63.4705 133.455C65.516 133.455 66.5955 135.102 66.5955 137.545C66.5955 140.017 65.4876 141.722 63.4705 141.722ZM71.5458 147.091H73.2219V141.324H73.364C73.7333 141.92 74.4435 143.227 76.5458 143.227C79.2731 143.227 81.1765 141.04 81.1765 137.574C81.1765 134.136 79.2731 131.949 76.5174 131.949C74.3867 131.949 73.7333 133.256 73.364 133.824H73.1651V132.091H71.5458V147.091ZM73.1935 137.545C73.1935 135.102 74.2731 133.455 76.3185 133.455C78.4492 133.455 79.5004 135.244 79.5004 137.545C79.5004 139.875 78.4208 141.722 76.3185 141.722C74.3015 141.722 73.1935 140.017 73.1935 137.545ZM88.1651 143.227C91.1197 143.227 93.1083 140.983 93.1083 137.602C93.1083 134.193 91.1197 131.949 88.1651 131.949C85.2106 131.949 83.2219 134.193 83.2219 137.602C83.2219 140.983 85.2106 143.227 88.1651 143.227ZM88.1651 141.722C85.9208 141.722 84.8981 139.79 84.8981 137.602C84.8981 135.415 85.9208 133.455 88.1651 133.455C90.4094 133.455 91.4322 135.415 91.4322 137.602C91.4322 139.79 90.4094 141.722 88.1651 141.722ZM95.6669 143H97.343V132.091H95.6669V143ZM96.5192 130.273C97.1726 130.273 97.7124 129.761 97.7124 129.136C97.7124 128.511 97.1726 128 96.5192 128C95.8658 128 95.326 128.511 95.326 129.136C95.326 129.761 95.8658 130.273 96.5192 130.273ZM102.089 136.438C102.089 134.534 103.268 133.455 104.873 133.455C106.429 133.455 107.373 134.47 107.373 136.182V143H109.049V136.068C109.049 133.284 107.565 131.949 105.356 131.949C103.708 131.949 102.686 132.688 102.174 133.795H102.032V132.091H100.413V143H102.089V136.438ZM116.857 132.091H114.527V129.477H112.851V132.091H111.203V133.511H112.851V140.33C112.851 142.233 114.385 143.142 115.805 143.142C116.43 143.142 116.828 143.028 117.055 142.943L116.714 141.438C116.572 141.466 116.345 141.523 115.976 141.523C115.237 141.523 114.527 141.295 114.527 139.875V133.511H116.857V132.091ZM120.599 143.114C121.303 143.114 121.878 142.538 121.878 141.835C121.878 141.132 121.303 140.557 120.599 140.557C119.896 140.557 119.321 141.132 119.321 141.835C119.321 142.538 119.896 143.114 120.599 143.114ZM120.599 135.017C121.303 135.017 121.878 134.442 121.878 133.739C121.878 133.036 121.303 132.46 120.599 132.46C119.896 132.46 119.321 133.036 119.321 133.739C119.321 134.442 119.896 135.017 120.599 135.017ZM131.725 128.455H130.532V133.305H131.725V128.455ZM135.056 128.455H133.863V133.305H135.056V128.455ZM139.566 136.182C139.566 134.278 140.844 133.107 142.592 133.107C144.282 133.107 145.362 134.214 145.362 136.011V143H146.633V135.933C146.633 133.334 145.127 131.949 142.911 131.949C141.263 131.949 140.191 132.673 139.68 133.803H139.566V128.455H138.302V143H139.566V136.182ZM154.259 132.091H151.951V129.477H150.679V132.091H149.053V133.192H150.679V140.45C150.679 142.233 152.086 143.163 153.485 143.163C154.01 143.163 154.365 143.064 154.607 142.972L154.337 141.828C154.159 141.878 153.932 141.928 153.598 141.928C152.739 141.928 151.951 141.523 151.951 140.152V133.192H154.259V132.091ZM161.427 132.091H159.119V129.477H157.847V132.091H156.221V133.192H157.847V140.45C157.847 142.233 159.254 143.163 160.653 143.163C161.178 143.163 161.533 143.064 161.775 142.972L161.505 141.828C161.327 141.878 161.1 141.928 160.766 141.928C159.907 141.928 159.119 141.523 159.119 140.152V133.192H161.427V132.091ZM164.277 147.091H165.548V140.976H165.662C166.095 141.977 167.032 143.227 169.014 143.227C171.684 143.227 173.502 140.955 173.502 137.574C173.502 134.207 171.691 131.942 168.993 131.942C166.99 131.942 166.102 133.192 165.662 134.172H165.505V132.091H164.277V147.091ZM165.527 137.553C165.527 134.939 166.727 133.092 168.858 133.092C171.052 133.092 172.231 135.038 172.231 137.553C172.231 140.095 171.031 142.07 168.858 142.07C166.748 142.07 165.527 140.188 165.527 137.553ZM183.6 134.484C183.067 132.908 181.903 131.942 179.907 131.942C177.705 131.942 176.107 133.199 176.107 134.996C176.107 136.459 176.995 137.453 178.891 137.908L180.674 138.334C181.874 138.618 182.45 139.236 182.45 140.109C182.45 141.246 181.363 142.091 179.687 142.091C178.195 142.091 177.265 141.416 176.96 140.124L175.745 140.422C176.129 142.24 177.57 143.227 179.708 143.227C182.109 143.227 183.756 141.906 183.756 140.053C183.756 138.597 182.84 137.624 181.015 137.176L179.367 136.771C178.011 136.43 177.379 135.884 177.379 134.939C177.379 133.831 178.437 133.057 179.907 133.057C181.377 133.057 182.102 133.831 182.442 134.811L183.6 134.484ZM187.533 142.73C188.101 142.73 188.556 142.268 188.556 141.707C188.556 141.139 188.101 140.685 187.533 140.685C186.972 140.685 186.51 141.139 186.51 141.707C186.51 142.268 186.972 142.73 187.533 142.73ZM187.533 134.861C188.101 134.861 188.556 134.399 188.556 133.838C188.556 133.27 188.101 132.815 187.533 132.815C186.972 132.815 186.51 133.27 186.51 133.838C186.51 134.399 186.972 134.861 187.533 134.861ZM196.619 127.773H195.433L190.745 145.188H191.931L196.619 127.773ZM203.533 127.773H202.347L197.659 145.188H198.845L203.533 127.773ZM209.651 143.227C211.633 143.227 212.556 141.97 213.004 140.976H213.153V143H214.388V128.455H213.117V134.172H213.004C212.57 133.192 211.668 131.942 209.673 131.942C206.981 131.942 205.163 134.214 205.163 137.574C205.163 140.962 206.974 143.227 209.651 143.227ZM209.8 142.07C207.627 142.07 206.434 140.095 206.434 137.553C206.434 135.038 207.613 133.092 209.8 133.092C211.931 133.092 213.138 134.939 213.138 137.553C213.138 140.188 211.917 142.07 209.8 142.07ZM224.921 138.831C224.921 140.834 223.415 141.913 221.938 141.913C220.362 141.913 219.254 140.784 219.254 139.08V132.091H217.989V139.158C217.989 141.743 219.481 143.142 221.576 143.142C223.174 143.142 224.31 142.311 224.822 141.189H224.921V143H226.185V132.091H224.921V138.831ZM229.532 143H230.797V136.011C230.797 134.314 231.926 133.107 233.439 133.107C234.93 133.107 235.797 134.101 235.797 135.578V143H237.089V135.82C237.089 134.25 238.027 133.107 239.689 133.107C241.13 133.107 242.089 133.973 242.089 135.692V143H243.353V135.692C243.353 133.249 242.096 131.949 240.072 131.949C238.481 131.949 237.331 132.723 236.841 133.93H236.748C236.265 132.695 235.306 131.949 233.801 131.949C232.373 131.949 231.308 132.638 230.875 133.767H230.761V132.091H229.532V143ZM246.7 143H247.964V136.011C247.964 134.314 249.094 133.107 250.607 133.107C252.098 133.107 252.964 134.101 252.964 135.578V143H254.257V135.82C254.257 134.25 255.195 133.107 256.857 133.107C258.298 133.107 259.257 133.973 259.257 135.692V143H260.521V135.692C260.521 133.249 259.264 131.949 257.24 131.949C255.649 131.949 254.499 132.723 254.009 133.93H253.916C253.433 132.695 252.474 131.949 250.969 131.949C249.541 131.949 248.476 132.638 248.043 133.767H247.929V132.091H246.7V143ZM264.358 147.091C265.722 147.091 266.723 146.31 267.306 144.726L271.929 132.112L270.551 132.091L267.313 141.331H267.213L263.975 132.091H262.604L266.617 143.107L266.219 144.214C265.615 145.862 264.763 146.153 263.478 145.749L263.137 146.864C263.392 146.984 263.861 147.091 264.358 147.091ZM274.721 143.107C275.289 143.107 275.743 142.645 275.743 142.084C275.743 141.516 275.289 141.061 274.721 141.061C274.159 141.061 273.698 141.516 273.698 142.084C273.698 142.645 274.159 143.107 274.721 143.107ZM279.346 143H280.575V140.976H280.731C281.171 141.977 282.094 143.227 284.083 143.227C286.761 143.227 288.572 140.962 288.572 137.574C288.572 134.214 286.754 131.942 284.062 131.942C282.066 131.942 281.164 133.192 280.731 134.172H280.617V128.455H279.346V143ZM280.596 137.553C280.596 134.939 281.796 133.092 283.927 133.092C286.114 133.092 287.3 135.038 287.3 137.553C287.3 140.095 286.1 142.07 283.927 142.07C281.81 142.07 280.596 140.188 280.596 137.553ZM292.613 128.455H291.349V143H292.613V128.455ZM300.198 143.227C303.025 143.227 304.999 140.919 304.999 137.595C304.999 134.25 303.025 131.942 300.198 131.942C297.371 131.942 295.397 134.25 295.397 137.595C295.397 140.919 297.371 143.227 300.198 143.227ZM300.198 142.07C297.933 142.07 296.668 140.038 296.668 137.595C296.668 135.152 297.933 133.092 300.198 133.092C302.464 133.092 303.728 135.152 303.728 137.595C303.728 140.038 302.464 142.07 300.198 142.07ZM312.015 143.227C314.841 143.227 316.816 140.919 316.816 137.595C316.816 134.25 314.841 131.942 312.015 131.942C309.188 131.942 307.213 134.25 307.213 137.595C307.213 140.919 309.188 143.227 312.015 143.227ZM312.015 142.07C309.749 142.07 308.485 140.038 308.485 137.595C308.485 135.152 309.749 133.092 312.015 133.092C314.28 133.092 315.544 135.152 315.544 137.595C315.544 140.038 314.28 142.07 312.015 142.07ZM323.518 143.227C325.5 143.227 326.423 141.97 326.871 140.976H327.02V143H328.256V128.455H326.984V134.172H326.871C326.438 133.192 325.536 131.942 323.54 131.942C320.848 131.942 319.03 134.214 319.03 137.574C319.03 140.962 320.841 143.227 323.518 143.227ZM323.668 142.07C321.494 142.07 320.301 140.095 320.301 137.553C320.301 135.038 321.48 133.092 323.668 133.092C325.798 133.092 327.006 134.939 327.006 137.553C327.006 140.188 325.784 142.07 323.668 142.07ZM332.119 143H333.348V140.976H333.504C333.945 141.977 334.868 143.227 336.857 143.227C339.534 143.227 341.345 140.962 341.345 137.574C341.345 134.214 339.527 131.942 336.835 131.942C334.839 131.942 333.938 133.192 333.504 134.172H333.391V128.455H332.119V143ZM333.369 137.553C333.369 134.939 334.57 133.092 336.7 133.092C338.888 133.092 340.074 135.038 340.074 137.553C340.074 140.095 338.874 142.07 336.7 142.07C334.584 142.07 333.369 140.188 333.369 137.553ZM347.169 143.249C348.987 143.249 350.095 142.24 350.55 141.274H350.628V143H351.892V135.592C351.892 132.666 349.69 131.942 348.021 131.942C346.352 131.942 344.634 132.602 343.895 134.385L345.095 134.818C345.493 133.881 346.48 133.078 348.057 133.078C349.712 133.078 350.628 133.987 350.628 135.479V135.734C350.628 136.558 349.605 136.572 347.773 136.8C345.308 137.105 343.582 137.794 343.582 139.953C343.582 142.055 345.188 143.249 347.169 143.249ZM347.339 142.091C345.912 142.091 344.847 141.331 344.847 140.01C344.847 138.689 345.926 138.135 347.773 137.908C348.668 137.801 350.259 137.602 350.628 137.24V138.817C350.628 140.607 349.357 142.091 347.339 142.091ZM359.552 132.091H357.244V129.477H355.972V132.091H354.346V133.192H355.972V140.45C355.972 142.233 357.379 143.163 358.778 143.163C359.303 143.163 359.658 143.064 359.9 142.972L359.63 141.828C359.452 141.878 359.225 141.928 358.891 141.928C358.032 141.928 357.244 141.523 357.244 140.152V133.192H359.552V132.091ZM363.922 136.182C363.922 134.278 365.2 133.107 366.947 133.107C368.637 133.107 369.717 134.214 369.717 136.011V143H370.988V135.933C370.988 133.334 369.483 131.949 367.267 131.949C365.619 131.949 364.547 132.673 364.035 133.803H363.922V128.455H362.657V143H363.922V136.182ZM375.326 143.107C375.894 143.107 376.349 142.645 376.349 142.084C376.349 141.516 375.894 141.061 375.326 141.061C374.765 141.061 374.303 141.516 374.303 142.084C374.303 142.645 374.765 143.107 375.326 143.107ZM379.703 143H380.974V132.091H379.703V143ZM380.349 130.216C380.868 130.216 381.301 129.804 381.301 129.307C381.301 128.81 380.868 128.398 380.349 128.398C379.831 128.398 379.404 128.81 379.404 129.307C379.404 129.804 379.831 130.216 380.349 130.216ZM388.558 143.227C391.384 143.227 393.359 140.919 393.359 137.595C393.359 134.25 391.384 131.942 388.558 131.942C385.731 131.942 383.756 134.25 383.756 137.595C383.756 140.919 385.731 143.227 388.558 143.227ZM388.558 142.07C386.292 142.07 385.028 140.038 385.028 137.595C385.028 135.152 386.292 133.092 388.558 133.092C390.823 133.092 392.087 135.152 392.087 137.595C392.087 140.038 390.823 142.07 388.558 142.07ZM397.213 128.455H396.02V133.305H397.213V128.455ZM400.544 128.455H399.351V133.305H400.544V128.455ZM23.6818 154.773V156.165C25.3295 156.165 25.8409 156.918 25.8409 158.58V161.42C25.8409 162.578 26.2031 163.438 27.8295 163.757V163.97C26.2031 164.29 25.8409 165.149 25.8409 166.307V169.148C25.8409 170.81 25.3295 171.562 23.6818 171.562V172.955C26.4659 172.955 27.375 171.761 27.375 169.148V166.875C27.375 165.32 27.9219 164.716 29.5057 164.716V163.011C27.9219 163.011 27.375 162.408 27.375 160.852V158.58C27.375 155.966 26.4659 154.773 23.6818 154.773ZM35.3597 163.864C35.3597 160.284 34.3938 157.301 32.6609 154.773H31.1836C32.5472 156.648 33.6268 160.483 33.6268 163.864C33.6268 167.244 32.5472 171.08 31.1836 172.955H32.6609C34.3938 170.426 35.3597 167.443 35.3597 163.864Z" fill="black"/>
<path d="M135.502 26.9744C135.147 25.1278 133.669 23.9489 131.113 23.9489C128.485 23.9489 126.695 25.2415 126.702 27.2585C126.695 28.8494 127.675 29.9006 129.77 30.3338L131.631 30.7244C132.632 30.9446 133.101 31.3494 133.101 31.9673C133.101 32.7131 132.292 33.2741 131.07 33.2741C129.891 33.2741 129.124 32.7628 128.904 31.7827L126.397 32.0241C126.716 34.027 128.4 35.2131 131.077 35.2131C133.804 35.2131 135.729 33.7997 135.736 31.733C135.729 30.1776 134.728 29.2259 132.668 28.7784L130.807 28.3807C129.699 28.1321 129.259 27.7486 129.266 27.1165C129.259 26.3778 130.076 25.8665 131.148 25.8665C132.334 25.8665 132.959 26.5128 133.158 27.2301L135.502 26.9744ZM142.615 35.2131C145.356 35.2131 147.103 33.5866 147.288 31.2713H144.831C144.61 32.4432 143.765 33.1179 142.636 33.1179C141.031 33.1179 139.994 31.7756 139.994 29.5455C139.994 27.3438 141.052 26.0227 142.636 26.0227C143.872 26.0227 144.632 26.8182 144.831 27.8693H147.288C147.11 25.5043 145.264 23.9489 142.6 23.9489C139.404 23.9489 137.387 26.2571 137.387 29.5881C137.387 32.8906 139.355 35.2131 142.615 35.2131ZM151.97 28.608C151.97 27.0312 152.95 26.1222 154.328 26.1222C155.678 26.1222 156.473 26.9815 156.473 28.4517V35H159.044V28.054C159.044 25.419 157.553 23.9489 155.287 23.9489C153.611 23.9489 152.545 24.7088 152.041 25.9446H151.913V20.4545H149.399V35H151.97V28.608ZM166.494 35.2131C169.037 35.2131 170.784 33.9702 171.239 32.0739L168.838 31.804C168.49 32.7273 167.638 33.2102 166.53 33.2102C164.868 33.2102 163.767 32.1165 163.746 30.2486H171.345V29.4602C171.345 25.6321 169.044 23.9489 166.359 23.9489C163.234 23.9489 161.196 26.2429 161.196 29.6094C161.196 33.0327 163.206 35.2131 166.494 35.2131ZM163.753 28.5156C163.831 27.1236 164.861 25.9517 166.395 25.9517C167.872 25.9517 168.866 27.0312 168.881 28.5156H163.753ZM177.569 35.1918C179.444 35.1918 180.289 34.0767 180.694 33.2812H180.85V35H183.378V20.4545H180.8V25.8949H180.694C180.303 25.1065 179.5 23.9489 177.576 23.9489C175.054 23.9489 173.073 25.9233 173.073 29.5597C173.073 33.1534 174.998 35.1918 177.569 35.1918ZM178.286 33.0824C176.588 33.0824 175.694 31.5909 175.694 29.5455C175.694 27.5142 176.574 26.0582 178.286 26.0582C179.941 26.0582 180.85 27.429 180.85 29.5455C180.85 31.6619 179.926 33.0824 178.286 33.0824ZM193.071 30.4119C193.071 32.0739 191.885 32.8977 190.749 32.8977C189.513 32.8977 188.689 32.0241 188.689 30.6392V24.0909H186.118V31.0369C186.118 33.6577 187.609 35.142 189.754 35.142C191.388 35.142 192.538 34.2827 193.036 33.0611H193.149V35H195.642V24.0909H193.071V30.4119ZM200.857 20.4545H198.286V35H200.857V20.4545ZM208.33 35.2131C210.873 35.2131 212.62 33.9702 213.075 32.0739L210.674 31.804C210.326 32.7273 209.474 33.2102 208.366 33.2102C206.704 33.2102 205.603 32.1165 205.582 30.2486H213.181V29.4602C213.181 25.6321 210.88 23.9489 208.195 23.9489C205.07 23.9489 203.032 26.2429 203.032 29.6094C203.032 33.0327 205.042 35.2131 208.33 35.2131ZM205.589 28.5156C205.667 27.1236 206.697 25.9517 208.231 25.9517C209.708 25.9517 210.702 27.0312 210.717 28.5156H205.589ZM215.47 35H224.987V32.7912H218.105V28.821H224.44V26.6122H218.105V22.6634H224.93V20.4545H215.47V35ZM237.249 24.0909H234.515L232 32.1946H231.887L229.38 24.0909H226.638L230.523 35H233.364L237.249 24.0909ZM243.487 35.2131C246.029 35.2131 247.776 33.9702 248.231 32.0739L245.83 31.804C245.482 32.7273 244.63 33.2102 243.522 33.2102C241.86 33.2102 240.759 32.1165 240.738 30.2486H248.337V29.4602C248.337 25.6321 246.036 23.9489 243.352 23.9489C240.227 23.9489 238.188 26.2429 238.188 29.6094C238.188 33.0327 240.198 35.2131 243.487 35.2131ZM240.745 28.5156C240.823 27.1236 241.853 25.9517 243.387 25.9517C244.864 25.9517 245.859 27.0312 245.873 28.5156H240.745ZM253.083 28.608C253.083 27.0312 254.035 26.1222 255.392 26.1222C256.72 26.1222 257.515 26.9957 257.515 28.4517V35H260.086V28.054C260.093 25.4403 258.602 23.9489 256.35 23.9489C254.717 23.9489 253.595 24.7301 253.098 25.9446H252.97V24.0909H250.512V35H253.083V28.608ZM268.147 24.0909H265.995V21.4773H263.424V24.0909H261.876V26.0795H263.424V32.1449C263.41 34.1974 264.902 35.206 266.833 35.1491C267.565 35.1278 268.069 34.9858 268.346 34.8935L267.913 32.8835C267.771 32.919 267.48 32.983 267.16 32.983C266.514 32.983 265.995 32.7557 265.995 31.7188V26.0795H268.147V24.0909Z" fill="#EA5758"/>
<rect x="0.5" y="0.5" width="418" height="186" rx="5.5" stroke="#DFE2E6"/>
</svg>
