<svg width="419" height="187" viewBox="0 0 419 187" fill="none" xmlns="http://www.w3.org/2000/svg">
<rect x="0.5" y="0.5" width="418" height="186" rx="5.5" fill="white"/>
<path d="M20.7614 35H22.3807V33.3239H22.5795C22.9489 33.9205 23.6591 35.2273 25.7614 35.2273C28.4886 35.2273 30.392 33.0398 30.392 29.5739C30.392 26.1364 28.4886 23.9489 25.733 23.9489C23.6023 23.9489 22.9489 25.2557 22.5795 25.8239H22.4375V20.4545H20.7614V35ZM22.4091 29.5455C22.4091 27.1023 23.4886 25.4545 25.5341 25.4545C27.6648 25.4545 28.7159 27.2443 28.7159 29.5455C28.7159 31.875 27.6364 33.7216 25.5341 33.7216C23.517 33.7216 22.4091 32.017 22.4091 29.5455ZM34.6321 20.4545H32.956V35H34.6321V20.4545ZM42.1339 35.2273C45.0884 35.2273 47.0771 32.983 47.0771 29.6023C47.0771 26.1932 45.0884 23.9489 42.1339 23.9489C39.1793 23.9489 37.1907 26.1932 37.1907 29.6023C37.1907 32.983 39.1793 35.2273 42.1339 35.2273ZM42.1339 33.7216C39.8896 33.7216 38.8668 31.7898 38.8668 29.6023C38.8668 27.4148 39.8896 25.4545 42.1339 25.4545C44.3782 25.4545 45.4009 27.4148 45.4009 29.6023C45.4009 31.7898 44.3782 33.7216 42.1339 33.7216ZM54.0675 35.2273C57.022 35.2273 59.0107 32.983 59.0107 29.6023C59.0107 26.1932 57.022 23.9489 54.0675 23.9489C51.1129 23.9489 49.1243 26.1932 49.1243 29.6023C49.1243 32.983 51.1129 35.2273 54.0675 35.2273ZM54.0675 33.7216C51.8232 33.7216 50.8004 31.7898 50.8004 29.6023C50.8004 27.4148 51.8232 25.4545 54.0675 25.4545C56.3118 25.4545 57.3345 27.4148 57.3345 29.6023C57.3345 31.7898 56.3118 33.7216 54.0675 33.7216ZM65.6886 35.2273C67.7908 35.2273 68.5011 33.9205 68.8704 33.3239H69.0692V35H70.6886V20.4545H69.0124V25.8239H68.8704C68.5011 25.2557 67.8477 23.9489 65.717 23.9489C62.9613 23.9489 61.0579 26.1364 61.0579 29.5739C61.0579 33.0398 62.9613 35.2273 65.6886 35.2273ZM65.9158 33.7216C63.8136 33.7216 62.734 31.875 62.734 29.5455C62.734 27.2443 63.7852 25.4545 65.9158 25.4545C67.9613 25.4545 69.0408 27.1023 69.0408 29.5455C69.0408 32.017 67.9329 33.7216 65.9158 33.7216ZM74.2184 35H75.8377V33.3239H76.0366C76.4059 33.9205 77.1161 35.2273 79.2184 35.2273C81.9457 35.2273 83.8491 33.0398 83.8491 29.5739C83.8491 26.1364 81.9457 23.9489 79.19 23.9489C77.0593 23.9489 76.4059 25.2557 76.0366 25.8239H75.8945V20.4545H74.2184V35ZM75.8661 29.5455C75.8661 27.1023 76.9457 25.4545 78.9911 25.4545C81.1218 25.4545 82.1729 27.2443 82.1729 29.5455C82.1729 31.875 81.0934 33.7216 78.9911 33.7216C76.9741 33.7216 75.8661 32.017 75.8661 29.5455ZM89.6232 35.2557C91.5266 35.2557 92.521 34.233 92.8619 33.5227H92.9471V35H94.6232V27.8125C94.6232 24.3466 91.9812 23.9489 90.5891 23.9489C88.9414 23.9489 87.0664 24.517 86.2141 26.5057L87.805 27.0739C88.1744 26.2784 89.0479 25.4261 90.646 25.4261C92.1871 25.4261 92.9471 26.2429 92.9471 27.642V27.6989C92.9471 28.5085 92.1232 28.4375 90.1346 28.6932C88.1104 28.956 85.9016 29.4034 85.9016 31.9034C85.9016 34.0341 87.5494 35.2557 89.6232 35.2557ZM89.8789 33.75C88.5437 33.75 87.5778 33.1534 87.5778 31.9886C87.5778 30.7102 88.7425 30.3125 90.0494 30.142C90.7596 30.0568 92.663 29.858 92.9471 29.517V31.0511C92.9471 32.4148 91.8675 33.75 89.8789 33.75ZM102.427 24.0909H100.097V21.4773H98.4212V24.0909H96.7734V25.5114H98.4212V32.3295C98.4212 34.233 99.9553 35.142 101.376 35.142C102.001 35.142 102.398 35.0284 102.626 34.9432L102.285 33.4375C102.143 33.4659 101.915 33.5227 101.546 33.5227C100.808 33.5227 100.097 33.2955 100.097 31.875V25.5114H102.427V24.0909ZM106.859 28.4375C106.859 26.5341 108.073 25.4545 109.728 25.4545C111.305 25.4545 112.256 26.4489 112.256 28.1818V35H113.933V28.0682C113.933 25.2628 112.441 23.9489 110.211 23.9489C108.492 23.9489 107.512 24.6662 107.001 25.7955H106.859V20.4545H105.183V35H106.859V28.4375ZM118.221 35.1136C118.924 35.1136 119.499 34.5384 119.499 33.8352C119.499 33.1321 118.924 32.5568 118.221 32.5568C117.517 32.5568 116.942 33.1321 116.942 33.8352C116.942 34.5384 117.517 35.1136 118.221 35.1136ZM122.734 35H131.626V33.4375H124.495V28.4943H131.058V26.9318H124.495V22.017H131.512V20.4545H122.734V35ZM143.38 24.0909H141.562L138.551 32.7841H138.437L135.426 24.0909H133.608L137.642 35H139.346L143.38 24.0909ZM149.776 35.2273C151.992 35.2273 153.611 34.1193 154.123 32.4716L152.503 32.017C152.077 33.1534 151.09 33.7216 149.776 33.7216C147.809 33.7216 146.452 32.4503 146.374 30.1136H154.293V29.4034C154.293 25.3409 151.878 23.9489 149.605 23.9489C146.651 23.9489 144.691 26.2784 144.691 29.6307C144.691 32.983 146.623 35.2273 149.776 35.2273ZM146.374 28.6648C146.488 26.9673 147.688 25.4545 149.605 25.4545C151.424 25.4545 152.588 26.8182 152.588 28.6648H146.374ZM158.519 28.4375C158.519 26.5341 159.698 25.4545 161.303 25.4545C162.858 25.4545 163.803 26.4702 163.803 28.1818V35H165.479V28.0682C165.479 25.2841 163.995 23.9489 161.786 23.9489C160.138 23.9489 159.115 24.6875 158.604 25.7955H158.462V24.0909H156.843V35H158.519V28.4375ZM173.286 24.0909H170.957V21.4773H169.281V24.0909H167.633V25.5114H169.281V32.3295C169.281 34.233 170.815 35.142 172.235 35.142C172.86 35.142 173.258 35.0284 173.485 34.9432L173.144 33.4375C173.002 33.4659 172.775 33.5227 172.406 33.5227C171.667 33.5227 170.957 33.2955 170.957 31.875V25.5114H173.286V24.0909ZM177.029 35.1136C177.732 35.1136 178.308 34.5384 178.308 33.8352C178.308 33.1321 177.732 32.5568 177.029 32.5568C176.326 32.5568 175.751 33.1321 175.751 33.8352C175.751 34.5384 176.326 35.1136 177.029 35.1136ZM270.388 28.8636C270.388 32.4432 271.354 35.4261 273.087 37.9545H274.565C273.201 36.0795 272.121 32.2443 272.121 28.8636C272.121 25.483 273.201 21.6477 274.565 19.7727H273.087C271.354 22.3011 270.388 25.2841 270.388 28.8636ZM39.5114 53.5341C38.9858 51.9858 37.8068 50.9489 35.6477 50.9489C33.3466 50.9489 31.642 52.2557 31.642 54.1023C31.642 55.608 32.5369 56.6165 34.5398 57.0852L36.358 57.5114C37.4588 57.767 37.9773 58.2926 37.9773 59.0455C37.9773 59.983 36.983 60.75 35.4205 60.75C34.0497 60.75 33.1903 60.1605 32.892 58.9886L31.3011 59.3864C31.6918 61.2401 33.2188 62.2273 35.4489 62.2273C37.9844 62.2273 39.7102 60.8423 39.7102 58.9602C39.7102 57.4403 38.7585 56.4815 36.8125 56.0057L35.1932 55.608C33.9006 55.2884 33.3182 54.8551 33.3182 54.017C33.3182 53.0795 34.3125 52.3977 35.6477 52.3977C37.1108 52.3977 37.7145 53.2074 38.0057 53.9602L39.5114 53.5341ZM46.6651 62.2273C49.0799 62.2273 50.6708 60.75 50.9549 58.8182H49.2788C48.9663 60.0114 47.9719 60.7216 46.6651 60.7216C44.6765 60.7216 43.3981 59.0739 43.3981 56.5455C43.3981 54.0739 44.7049 52.4545 46.6651 52.4545C48.1424 52.4545 49.0231 53.3636 49.2788 54.358H50.9549C50.6708 52.3125 48.9379 50.9489 46.6367 50.9489C43.6822 50.9489 41.7219 53.2784 41.7219 56.6023C41.7219 59.8693 43.5969 62.2273 46.6651 62.2273ZM55.0813 55.4375C55.0813 53.5341 56.2958 52.4545 57.9506 52.4545C59.5273 52.4545 60.479 53.4489 60.479 55.1818V62H62.1552V55.0682C62.1552 52.2628 60.6637 50.9489 58.4336 50.9489C56.7148 50.9489 55.7347 51.6662 55.2234 52.7955H55.0813V47.4545H53.4052V62H55.0813V55.4375ZM69.7955 62.2273C72.0114 62.2273 73.6307 61.1193 74.142 59.4716L72.5227 59.017C72.0966 60.1534 71.1094 60.7216 69.7955 60.7216C67.8281 60.7216 66.4716 59.4503 66.3935 57.1136H74.3125V56.4034C74.3125 52.3409 71.8977 50.9489 69.625 50.9489C66.6705 50.9489 64.7102 53.2784 64.7102 56.6307C64.7102 59.983 66.642 62.2273 69.7955 62.2273ZM66.3935 55.6648C66.5071 53.9673 67.7074 52.4545 69.625 52.4545C71.4432 52.4545 72.608 53.8182 72.608 55.6648H66.3935ZM80.9815 62.2273C83.0838 62.2273 83.794 60.9205 84.1634 60.3239H84.3622V62H85.9815V47.4545H84.3054V52.8239H84.1634C83.794 52.2557 83.1406 50.9489 81.0099 50.9489C78.2543 50.9489 76.3509 53.1364 76.3509 56.5739C76.3509 60.0398 78.2543 62.2273 80.9815 62.2273ZM81.2088 60.7216C79.1065 60.7216 78.027 58.875 78.027 56.5455C78.027 54.2443 79.0781 52.4545 81.2088 52.4545C83.2543 52.4545 84.3338 54.1023 84.3338 56.5455C84.3338 59.017 83.2259 60.7216 81.2088 60.7216ZM96.1591 57.5398C96.1591 59.5852 94.5966 60.5227 93.3466 60.5227C91.9545 60.5227 90.9602 59.5 90.9602 57.9091V51.0909H89.2841V58.0227C89.2841 60.8068 90.7614 62.142 92.8068 62.142C94.4545 62.142 95.5341 61.2614 96.0455 60.1534H96.1591V62H97.8352V51.0909H96.1591V57.5398ZM102.581 47.4545H100.905V62H102.581V47.4545ZM110.225 62.2273C112.441 62.2273 114.06 61.1193 114.572 59.4716L112.952 59.017C112.526 60.1534 111.539 60.7216 110.225 60.7216C108.258 60.7216 106.901 59.4503 106.823 57.1136H114.742V56.4034C114.742 52.3409 112.327 50.9489 110.055 50.9489C107.1 50.9489 105.14 53.2784 105.14 56.6307C105.14 59.983 107.072 62.2273 110.225 62.2273ZM106.823 55.6648C106.937 53.9673 108.137 52.4545 110.055 52.4545C111.873 52.4545 113.038 53.8182 113.038 55.6648H106.823ZM121.411 62.2273C123.513 62.2273 124.224 60.9205 124.593 60.3239H124.792V62H126.411V47.4545H124.735V52.8239H124.593C124.224 52.2557 123.57 50.9489 121.44 50.9489C118.684 50.9489 116.781 53.1364 116.781 56.5739C116.781 60.0398 118.684 62.2273 121.411 62.2273ZM121.638 60.7216C119.536 60.7216 118.457 58.875 118.457 56.5455C118.457 54.2443 119.508 52.4545 121.638 52.4545C123.684 52.4545 124.763 54.1023 124.763 56.5455C124.763 59.017 123.656 60.7216 121.638 60.7216ZM137.926 62H128.835V63.5625H137.926V62ZM144.298 51.0909H141.855V49.983C141.855 48.9034 142.31 48.3352 143.418 48.3352C143.901 48.3352 144.185 48.4489 144.355 48.5057L144.838 47.0568C144.582 46.9432 144.071 46.7727 143.247 46.7727C141.685 46.7727 140.179 47.7102 140.179 49.5852V51.0909H138.418V52.5114H140.179V62H141.855V52.5114H144.298V51.0909ZM150.63 62.2273C153.585 62.2273 155.573 59.983 155.573 56.6023C155.573 53.1932 153.585 50.9489 150.63 50.9489C147.675 50.9489 145.687 53.1932 145.687 56.6023C145.687 59.983 147.675 62.2273 150.63 62.2273ZM150.63 60.7216C148.386 60.7216 147.363 58.7898 147.363 56.6023C147.363 54.4148 148.386 52.4545 150.63 52.4545C152.874 52.4545 153.897 54.4148 153.897 56.6023C153.897 58.7898 152.874 60.7216 150.63 60.7216ZM158.132 62H159.808V55.0966C159.808 53.6193 160.973 52.5398 162.564 52.5398C163.011 52.5398 163.473 52.625 163.586 52.6534V50.9489C163.395 50.9347 162.954 50.9205 162.706 50.9205C161.399 50.9205 160.262 51.6591 159.865 52.7386H159.751V51.0909H158.132V62ZM166.255 59.1875H175.005V57.6534H166.255V59.1875ZM166.255 54.983H175.005V53.4489H166.255V54.983ZM182.819 62.2273C184.801 62.2273 185.724 60.9702 186.172 59.9759H186.321V62H187.556V47.4545H186.285V53.1719H186.172C185.738 52.1918 184.836 50.9418 182.841 50.9418C180.149 50.9418 178.331 53.2145 178.331 56.5739C178.331 59.9616 180.142 62.2273 182.819 62.2273ZM182.968 61.0696C180.795 61.0696 179.602 59.0952 179.602 56.5526C179.602 54.0384 180.781 52.0923 182.968 52.0923C185.099 52.0923 186.306 53.9389 186.306 56.5526C186.306 59.1875 185.085 61.0696 182.968 61.0696ZM194.204 62.2486C196.022 62.2486 197.13 61.2401 197.585 60.2741H197.663V62H198.927V54.5923C198.927 51.6662 196.725 50.9418 195.056 50.9418C193.387 50.9418 191.669 51.6023 190.93 53.3849L192.13 53.8182C192.528 52.8807 193.515 52.0781 195.092 52.0781C196.747 52.0781 197.663 52.9872 197.663 54.4787V54.7344C197.663 55.5582 196.64 55.5724 194.808 55.7997C192.343 56.1051 190.618 56.794 190.618 58.9531C190.618 61.0554 192.223 62.2486 194.204 62.2486ZM194.375 61.0909C192.947 61.0909 191.882 60.331 191.882 59.0099C191.882 57.6889 192.961 57.1349 194.808 56.9077C195.703 56.8011 197.294 56.6023 197.663 56.2401V57.8168C197.663 59.6065 196.392 61.0909 194.375 61.0909ZM206.587 51.0909H204.279V48.4773H203.007V51.0909H201.381V52.1918H203.007V59.4503C203.007 61.233 204.414 62.1634 205.813 62.1634C206.338 62.1634 206.694 62.0639 206.935 61.9716L206.665 60.8281C206.488 60.8778 206.26 60.9276 205.926 60.9276C205.067 60.9276 204.279 60.5227 204.279 59.152V52.1918H206.587V51.0909ZM213.751 62.2273C215.939 62.2273 217.409 61.0412 217.906 59.6705L216.706 59.2798C216.287 60.2599 215.3 61.0696 213.751 61.0696C211.521 61.0696 210.108 59.4432 210.051 56.9219H218.176V56.2969C218.176 52.6534 215.925 50.9418 213.56 50.9418C210.733 50.9418 208.78 53.3068 208.78 56.6094C208.78 59.919 210.697 62.2273 213.751 62.2273ZM210.058 55.8068C210.193 53.7756 211.564 52.0923 213.56 52.0923C215.513 52.0923 216.884 53.7045 216.884 55.8068H210.058ZM225.259 51.0909H222.951V48.4773H221.679V51.0909H220.053V52.1918H221.679V59.4503C221.679 61.233 223.086 62.1634 224.485 62.1634C225.01 62.1634 225.365 62.0639 225.607 61.9716L225.337 60.8281C225.159 60.8778 224.932 60.9276 224.598 60.9276C223.739 60.9276 222.951 60.5227 222.951 59.152V52.1918H225.259V51.0909ZM228.144 62H229.415V51.0909H228.144V62ZM228.79 49.2159C229.309 49.2159 229.742 48.804 229.742 48.3068C229.742 47.8097 229.309 47.3977 228.79 47.3977C228.272 47.3977 227.846 47.8097 227.846 48.3068C227.846 48.804 228.272 49.2159 228.79 49.2159ZM232.759 62H234.023V55.0114C234.023 53.3139 235.152 52.1065 236.665 52.1065C238.157 52.1065 239.023 53.1009 239.023 54.5781V62H240.316V54.8196C240.316 53.25 241.253 52.1065 242.915 52.1065C244.357 52.1065 245.316 52.973 245.316 54.6918V62H246.58V54.6918C246.58 52.2486 245.323 50.9489 243.299 50.9489C241.708 50.9489 240.557 51.723 240.067 52.9304H239.975C239.492 51.6946 238.533 50.9489 237.027 50.9489C235.6 50.9489 234.534 51.6378 234.101 52.767H233.988V51.0909H232.759V62ZM254.337 62.2273C256.525 62.2273 257.995 61.0412 258.492 59.6705L257.292 59.2798C256.873 60.2599 255.886 61.0696 254.337 61.0696C252.107 61.0696 250.694 59.4432 250.637 56.9219H258.762V56.2969C258.762 52.6534 256.511 50.9418 254.146 50.9418C251.319 50.9418 249.366 53.3068 249.366 56.6094C249.366 59.919 251.283 62.2273 254.337 62.2273ZM250.644 55.8068C250.779 53.7756 252.15 52.0923 254.146 52.0923C256.099 52.0923 257.469 53.7045 257.469 55.8068H250.644ZM262.556 62.1065C263.125 62.1065 263.579 61.6449 263.579 61.0838C263.579 60.5156 263.125 60.0611 262.556 60.0611C261.995 60.0611 261.534 60.5156 261.534 61.0838C261.534 61.6449 261.995 62.1065 262.556 62.1065ZM270.847 62.2273C272.828 62.2273 273.751 60.9702 274.199 59.9759H274.348V62H275.584V47.4545H274.312V53.1719H274.199C273.766 52.1918 272.864 50.9418 270.868 50.9418C268.176 50.9418 266.358 53.2145 266.358 56.5739C266.358 59.9616 268.169 62.2273 270.847 62.2273ZM270.996 61.0696C268.822 61.0696 267.629 59.0952 267.629 56.5526C267.629 54.0384 268.808 52.0923 270.996 52.0923C273.126 52.0923 274.334 53.9389 274.334 56.5526C274.334 59.1875 273.112 61.0696 270.996 61.0696ZM282.232 62.2486C284.05 62.2486 285.158 61.2401 285.612 60.2741H285.69V62H286.955V54.5923C286.955 51.6662 284.753 50.9418 283.084 50.9418C281.415 50.9418 279.696 51.6023 278.957 53.3849L280.158 53.8182C280.555 52.8807 281.543 52.0781 283.119 52.0781C284.774 52.0781 285.69 52.9872 285.69 54.4787V54.7344C285.69 55.5582 284.668 55.5724 282.835 55.7997C280.371 56.1051 278.645 56.794 278.645 58.9531C278.645 61.0554 280.25 62.2486 282.232 62.2486ZM282.402 61.0909C280.974 61.0909 279.909 60.331 279.909 59.0099C279.909 57.6889 280.989 57.1349 282.835 56.9077C283.73 56.8011 285.321 56.6023 285.69 56.2401V57.8168C285.69 59.6065 284.419 61.0909 282.402 61.0909ZM294.614 51.0909H292.306V48.4773H291.035V51.0909H289.408V52.1918H291.035V59.4503C291.035 61.233 292.441 62.1634 293.84 62.1634C294.366 62.1634 294.721 62.0639 294.962 61.9716L294.692 60.8281C294.515 60.8778 294.288 60.9276 293.954 60.9276C293.094 60.9276 292.306 60.5227 292.306 59.152V52.1918H294.614V51.0909ZM301.779 62.2273C303.966 62.2273 305.436 61.0412 305.934 59.6705L304.733 59.2798C304.314 60.2599 303.327 61.0696 301.779 61.0696C299.549 61.0696 298.135 59.4432 298.078 56.9219H306.203V56.2969C306.203 52.6534 303.952 50.9418 301.587 50.9418C298.76 50.9418 296.807 53.3068 296.807 56.6094C296.807 59.919 298.725 62.2273 301.779 62.2273ZM298.086 55.8068C298.221 53.7756 299.591 52.0923 301.587 52.0923C303.54 52.0923 304.911 53.7045 304.911 55.8068H298.086ZM313.286 51.0909H310.978V48.4773H309.707V51.0909H308.08V52.1918H309.707V59.4503C309.707 61.233 311.113 62.1634 312.512 62.1634C313.038 62.1634 313.393 62.0639 313.634 61.9716L313.364 60.8281C313.187 60.8778 312.96 60.9276 312.626 60.9276C311.766 60.9276 310.978 60.5227 310.978 59.152V52.1918H313.286V51.0909ZM316.172 62H317.443V51.0909H316.172V62ZM316.818 49.2159C317.336 49.2159 317.77 48.804 317.77 48.3068C317.77 47.8097 317.336 47.3977 316.818 47.3977C316.299 47.3977 315.873 47.8097 315.873 48.3068C315.873 48.804 316.299 49.2159 316.818 49.2159ZM320.786 62H322.05V55.0114C322.05 53.3139 323.18 52.1065 324.692 52.1065C326.184 52.1065 327.05 53.1009 327.05 54.5781V62H328.343V54.8196C328.343 53.25 329.281 52.1065 330.942 52.1065C332.384 52.1065 333.343 52.973 333.343 54.6918V62H334.607V54.6918C334.607 52.2486 333.35 50.9489 331.326 50.9489C329.735 50.9489 328.585 51.723 328.094 52.9304H328.002C327.519 51.6946 326.56 50.9489 325.055 50.9489C323.627 50.9489 322.562 51.6378 322.129 52.767H322.015V51.0909H320.786V62ZM342.365 62.2273C344.552 62.2273 346.022 61.0412 346.52 59.6705L345.319 59.2798C344.9 60.2599 343.913 61.0696 342.365 61.0696C340.135 61.0696 338.721 59.4432 338.664 56.9219H346.789V56.2969C346.789 52.6534 344.538 50.9418 342.173 50.9418C339.346 50.9418 337.393 53.3068 337.393 56.6094C337.393 59.919 339.311 62.2273 342.365 62.2273ZM338.672 55.8068C338.806 53.7756 340.177 52.0923 342.173 52.0923C344.126 52.0923 345.497 53.7045 345.497 55.8068H338.672ZM350.584 62.1065C351.152 62.1065 351.607 61.6449 351.607 61.0838C351.607 60.5156 351.152 60.0611 350.584 60.0611C350.023 60.0611 349.561 60.5156 349.561 61.0838C349.561 61.6449 350.023 62.1065 350.584 62.1065ZM356.211 55.1818C356.211 53.2784 357.461 52.1065 359.179 52.1065C360.855 52.1065 361.935 53.2287 361.935 55.0114V62H363.199V54.9332C363.199 52.348 361.701 50.9489 359.499 50.9489C357.901 50.9489 356.8 51.6875 356.289 52.8026H356.175V51.0909H354.946V62H356.211V55.1818ZM370.768 62.2273C373.595 62.2273 375.57 59.919 375.57 56.5952C375.57 53.25 373.595 50.9418 370.768 50.9418C367.942 50.9418 365.967 53.25 365.967 56.5952C365.967 59.919 367.942 62.2273 370.768 62.2273ZM370.768 61.0696C368.503 61.0696 367.239 59.0384 367.239 56.5952C367.239 54.152 368.503 52.0923 370.768 52.0923C373.034 52.0923 374.298 54.152 374.298 56.5952C374.298 59.0384 373.034 61.0696 370.768 61.0696ZM380.396 62H381.702L384.288 53.0582H384.423L387.008 62H388.315L391.61 51.0909H390.275L387.69 60.0682H387.59L385.033 51.0909H383.691L381.113 60.0895H381.021L378.435 51.0909H377.1L380.396 62ZM394.593 55.8636C394.593 59.2656 395.488 62.2912 397.093 64.9545H398.244C396.866 62.7315 395.9 59.1378 395.9 55.8636C395.9 52.5966 396.859 49.0028 398.244 46.7727H397.093C395.488 49.4219 394.593 52.4545 394.593 55.8636ZM404.069 55.8636C404.069 52.4616 403.174 49.4361 401.569 46.7727H400.419C401.797 48.9957 402.762 52.5895 402.762 55.8636C402.762 59.1307 401.804 62.7244 400.419 64.9545H401.569C403.174 62.3054 404.069 59.2727 404.069 55.8636ZM31.7841 89H33.4602V82.1818C33.4602 80.5838 34.625 79.4545 35.9318 79.4545C37.2031 79.4545 38.0909 80.2855 38.0909 81.5284V89H39.7955V81.8977C39.7955 80.4915 40.6761 79.4545 42.2102 79.4545C43.4034 79.4545 44.4261 80.0866 44.4261 81.6989V89H46.1023V81.6989C46.1023 79.1349 44.7244 77.9489 42.7784 77.9489C41.2159 77.9489 40.0724 78.6662 39.5114 79.7955H39.3977C38.858 78.6307 37.9062 77.9489 36.4716 77.9489C35.0511 77.9489 34 78.6307 33.5455 79.7955H33.4034V78.0909H31.7841V89ZM53.7408 89.2273C55.9567 89.2273 57.576 88.1193 58.0874 86.4716L56.468 86.017C56.0419 87.1534 55.0547 87.7216 53.7408 87.7216C51.7734 87.7216 50.4169 86.4503 50.3388 84.1136H58.2578V83.4034C58.2578 79.3409 55.843 77.9489 53.5703 77.9489C50.6158 77.9489 48.6555 80.2784 48.6555 83.6307C48.6555 86.983 50.5874 89.2273 53.7408 89.2273ZM50.3388 82.6648C50.4524 80.9673 51.6527 79.4545 53.5703 79.4545C55.3885 79.4545 56.5533 80.8182 56.5533 82.6648H50.3388ZM65.5518 78.0909H63.2223V75.4773H61.5462V78.0909H59.8984V79.5114H61.5462V86.3295C61.5462 88.233 63.0803 89.142 64.5007 89.142C65.1257 89.142 65.5234 89.0284 65.7507 88.9432L65.4098 87.4375C65.2678 87.4659 65.0405 87.5227 64.6712 87.5227C63.9325 87.5227 63.2223 87.2955 63.2223 85.875V79.5114H65.5518V78.0909ZM69.9837 82.4375C69.9837 80.5341 71.1982 79.4545 72.853 79.4545C74.4297 79.4545 75.3814 80.4489 75.3814 82.1818V89H77.0575V82.0682C77.0575 79.2628 75.5661 77.9489 73.3359 77.9489C71.6172 77.9489 70.6371 78.6662 70.1257 79.7955H69.9837V74.4545H68.3075V89H69.9837V82.4375ZM84.5558 89.2273C87.5103 89.2273 89.4989 86.983 89.4989 83.6023C89.4989 80.1932 87.5103 77.9489 84.5558 77.9489C81.6012 77.9489 79.6126 80.1932 79.6126 83.6023C79.6126 86.983 81.6012 89.2273 84.5558 89.2273ZM84.5558 87.7216C82.3114 87.7216 81.2887 85.7898 81.2887 83.6023C81.2887 81.4148 82.3114 79.4545 84.5558 79.4545C86.8001 79.4545 87.8228 81.4148 87.8228 83.6023C87.8228 85.7898 86.8001 87.7216 84.5558 87.7216ZM96.1768 89.2273C98.2791 89.2273 98.9893 87.9205 99.3587 87.3239H99.5575V89H101.177V74.4545H99.5007V79.8239H99.3587C98.9893 79.2557 98.3359 77.9489 96.2053 77.9489C93.4496 77.9489 91.5462 80.1364 91.5462 83.5739C91.5462 87.0398 93.4496 89.2273 96.1768 89.2273ZM96.4041 87.7216C94.3018 87.7216 93.2223 85.875 93.2223 83.5455C93.2223 81.2443 94.2734 79.4545 96.4041 79.4545C98.4496 79.4545 99.5291 81.1023 99.5291 83.5455C99.5291 86.017 98.4212 87.7216 96.4041 87.7216ZM105.161 86.1875H113.911V84.6534H105.161V86.1875ZM105.161 81.983H113.911V80.4489H105.161V81.983ZM118.877 74.4545H117.684V79.3054H118.877V74.4545ZM122.208 74.4545H121.015V79.3054H122.208V74.4545ZM125.433 93.0909H126.704V86.9759H126.818C127.251 87.9773 128.189 89.2273 130.17 89.2273C132.841 89.2273 134.659 86.9545 134.659 83.5739C134.659 80.2074 132.848 77.9418 130.149 77.9418C128.146 77.9418 127.258 79.1918 126.818 80.1719H126.662V78.0909H125.433V93.0909ZM126.683 83.5526C126.683 80.9389 127.883 79.0923 130.014 79.0923C132.208 79.0923 133.387 81.0384 133.387 83.5526C133.387 86.0952 132.187 88.0696 130.014 88.0696C127.904 88.0696 126.683 86.1875 126.683 83.5526ZM141.667 89.2273C144.494 89.2273 146.468 86.919 146.468 83.5952C146.468 80.25 144.494 77.9418 141.667 77.9418C138.84 77.9418 136.866 80.25 136.866 83.5952C136.866 86.919 138.84 89.2273 141.667 89.2273ZM141.667 88.0696C139.401 88.0696 138.137 86.0384 138.137 83.5952C138.137 81.152 139.401 79.0923 141.667 79.0923C143.933 79.0923 145.197 81.152 145.197 83.5952C145.197 86.0384 143.933 88.0696 141.667 88.0696ZM156.573 80.4844C156.04 78.9077 154.875 77.9418 152.88 77.9418C150.678 77.9418 149.08 79.1989 149.08 80.9957C149.08 82.4588 149.968 83.4531 151.864 83.9077L153.647 84.3338C154.847 84.6179 155.422 85.2358 155.422 86.1094C155.422 87.2457 154.336 88.0909 152.659 88.0909C151.168 88.0909 150.238 87.4162 149.932 86.1236L148.718 86.4219C149.101 88.2401 150.543 89.2273 152.681 89.2273C155.081 89.2273 156.729 87.9062 156.729 86.0526C156.729 84.5966 155.813 83.6236 153.988 83.1761L152.34 82.7713C150.983 82.4304 150.351 81.8835 150.351 80.9389C150.351 79.831 151.409 79.0568 152.88 79.0568C154.35 79.0568 155.074 79.831 155.415 80.8111L156.573 80.4844ZM163.794 78.0909H161.486V75.4773H160.214V78.0909H158.588V79.1918H160.214V86.4503C160.214 88.233 161.621 89.1634 163.02 89.1634C163.545 89.1634 163.901 89.0639 164.142 88.9716L163.872 87.8281C163.695 87.8778 163.467 87.9276 163.134 87.9276C162.274 87.9276 161.486 87.5227 161.486 86.152V79.1918H163.794V78.0909ZM167.745 74.4545H166.551V79.3054H167.745V74.4545ZM171.076 74.4545H169.882V79.3054H171.076V74.4545ZM176.686 87.0114H174.868L174.783 87.8068C174.577 89.7315 174.172 91.6491 173.988 92.5511H175.266C175.607 91.5852 176.331 89.3977 176.573 87.7784L176.686 87.0114ZM32.0114 116H33.6307V114.324H33.8295C34.1989 114.92 34.9091 116.227 37.0114 116.227C39.7386 116.227 41.642 114.04 41.642 110.574C41.642 107.136 39.7386 104.949 36.983 104.949C34.8523 104.949 34.1989 106.256 33.8295 106.824H33.6875V101.455H32.0114V116ZM33.6591 110.545C33.6591 108.102 34.7386 106.455 36.7841 106.455C38.9148 106.455 39.9659 108.244 39.9659 110.545C39.9659 112.875 38.8864 114.722 36.7841 114.722C34.767 114.722 33.6591 113.017 33.6591 110.545ZM48.6378 116.227C51.5923 116.227 53.581 113.983 53.581 110.602C53.581 107.193 51.5923 104.949 48.6378 104.949C45.6832 104.949 43.6946 107.193 43.6946 110.602C43.6946 113.983 45.6832 116.227 48.6378 116.227ZM48.6378 114.722C46.3935 114.722 45.3707 112.79 45.3707 110.602C45.3707 108.415 46.3935 106.455 48.6378 106.455C50.8821 106.455 51.9048 108.415 51.9048 110.602C51.9048 112.79 50.8821 114.722 48.6378 114.722ZM60.2589 116.227C62.3612 116.227 63.0714 114.92 63.4407 114.324H63.6396V116H65.2589V101.455H63.5827V106.824H63.4407C63.0714 106.256 62.418 104.949 60.2873 104.949C57.5316 104.949 55.6282 107.136 55.6282 110.574C55.6282 114.04 57.5316 116.227 60.2589 116.227ZM60.4862 114.722C58.3839 114.722 57.3043 112.875 57.3043 110.545C57.3043 108.244 58.3555 106.455 60.4862 106.455C62.5316 106.455 63.6112 108.102 63.6112 110.545C63.6112 113.017 62.5032 114.722 60.4862 114.722ZM69.641 120.091C71.1538 120.091 72.2191 119.288 72.8512 117.591L77.4961 105.119L75.6637 105.091L72.6523 113.784H72.5387L69.5273 105.091H67.7092L71.7433 116.057L71.4308 116.909C70.82 118.571 70.0671 118.727 68.8455 118.415L68.4194 119.892C68.5898 119.977 69.0728 120.091 69.641 120.091ZM79.5948 113.188H88.3448V111.653H79.5948V113.188ZM79.5948 108.983H88.3448V107.449H79.5948V108.983ZM93.3111 101.455H92.1179V106.305H93.3111V101.455ZM96.642 101.455H95.4489V106.305H96.642V101.455ZM102.935 116.249C104.753 116.249 105.861 115.24 106.315 114.274H106.393V116H107.658V108.592C107.658 105.666 105.456 104.942 103.787 104.942C102.118 104.942 100.399 105.602 99.6605 107.385L100.861 107.818C101.259 106.881 102.246 106.078 103.822 106.078C105.477 106.078 106.393 106.987 106.393 108.479V108.734C106.393 109.558 105.371 109.572 103.538 109.8C101.074 110.105 99.348 110.794 99.348 112.953C99.348 115.055 100.953 116.249 102.935 116.249ZM103.105 115.091C101.678 115.091 100.612 114.331 100.612 113.01C100.612 111.689 101.692 111.135 103.538 110.908C104.433 110.801 106.024 110.602 106.393 110.24V111.817C106.393 113.607 105.122 115.091 103.105 115.091ZM112.285 109.182C112.285 107.278 113.535 106.107 115.254 106.107C116.93 106.107 118.009 107.229 118.009 109.011V116H119.273V108.933C119.273 106.348 117.775 104.949 115.573 104.949C113.975 104.949 112.874 105.688 112.363 106.803H112.249V105.091H111.021V116H112.285V109.182ZM123.093 120.091C124.456 120.091 125.458 119.31 126.04 117.726L130.664 105.112L129.286 105.091L126.047 114.331H125.948L122.709 105.091H121.338L125.351 116.107L124.953 117.214C124.35 118.862 123.498 119.153 122.212 118.749L121.871 119.864C122.127 119.984 122.596 120.091 123.093 120.091ZM137.427 105.091H135.119V102.477H133.847V105.091H132.221V106.192H133.847V113.45C133.847 115.233 135.254 116.163 136.653 116.163C137.178 116.163 137.533 116.064 137.775 115.972L137.505 114.828C137.327 114.878 137.1 114.928 136.766 114.928C135.907 114.928 135.119 114.523 135.119 113.152V106.192H137.427V105.091ZM141.797 109.182C141.797 107.278 143.075 106.107 144.822 106.107C146.512 106.107 147.592 107.214 147.592 109.011V116H148.863V108.933C148.863 106.334 147.358 104.949 145.142 104.949C143.494 104.949 142.422 105.673 141.91 106.803H141.797V101.455H140.532V116H141.797V109.182ZM152.207 116H153.478V105.091H152.207V116ZM152.853 103.216C153.371 103.216 153.805 102.804 153.805 102.307C153.805 101.81 153.371 101.398 152.853 101.398C152.335 101.398 151.908 101.81 151.908 102.307C151.908 102.804 152.335 103.216 152.853 103.216ZM158.086 109.182C158.086 107.278 159.336 106.107 161.054 106.107C162.73 106.107 163.81 107.229 163.81 109.011V116H165.074V108.933C165.074 106.348 163.576 104.949 161.374 104.949C159.776 104.949 158.675 105.688 158.164 106.803H158.05V105.091H156.821V116H158.086V109.182ZM172.565 120.318C175.151 120.318 177.068 119.054 177.068 116.284V105.091H175.832V107.172H175.705C175.257 106.192 174.355 104.942 172.352 104.942C169.653 104.942 167.842 107.2 167.842 110.517C167.842 113.862 169.717 115.886 172.331 115.886C174.291 115.886 175.25 114.75 175.683 113.749H175.797V116.206C175.797 118.237 174.497 119.182 172.565 119.182C170.697 119.182 169.803 118.28 169.341 117.449L168.304 118.131C168.943 119.381 170.335 120.318 172.565 120.318ZM172.48 114.729C170.314 114.729 169.114 112.996 169.114 110.496C169.114 108.038 170.293 106.092 172.48 106.092C174.618 106.092 175.818 107.939 175.818 110.496C175.818 113.131 174.582 114.729 172.48 114.729ZM181.495 101.455H180.301V106.305H181.495V101.455ZM184.826 101.455H183.632V106.305H184.826V101.455ZM190.436 114.011H188.618L188.533 114.807C188.327 116.732 187.922 118.649 187.738 119.551H189.016C189.357 118.585 190.081 116.398 190.323 114.778L190.436 114.011ZM36.358 143.227C38.5739 143.227 40.1932 142.119 40.7045 140.472L39.0852 140.017C38.6591 141.153 37.6719 141.722 36.358 141.722C34.3906 141.722 33.0341 140.45 32.956 138.114H40.875V137.403C40.875 133.341 38.4602 131.949 36.1875 131.949C33.233 131.949 31.2727 134.278 31.2727 137.631C31.2727 140.983 33.2045 143.227 36.358 143.227ZM32.956 136.665C33.0696 134.967 34.2699 133.455 36.1875 133.455C38.0057 133.455 39.1705 134.818 39.1705 136.665H32.956ZM45.1009 136.438C45.1009 134.534 46.2798 133.455 47.8849 133.455C49.4403 133.455 50.3849 134.47 50.3849 136.182V143H52.0611V136.068C52.0611 133.284 50.5767 131.949 48.3679 131.949C46.7202 131.949 45.6974 132.688 45.1861 133.795H45.044V132.091H43.4247V143H45.1009V136.438ZM59.2433 143.227C61.3455 143.227 62.0558 141.92 62.4251 141.324H62.6239V143H64.2433V128.455H62.5671V133.824H62.4251C62.0558 133.256 61.4023 131.949 59.2717 131.949C56.516 131.949 54.6126 134.136 54.6126 137.574C54.6126 141.04 56.516 143.227 59.2433 143.227ZM59.4705 141.722C57.3683 141.722 56.2887 139.875 56.2887 137.545C56.2887 135.244 57.3398 133.455 59.4705 133.455C61.516 133.455 62.5955 135.102 62.5955 137.545C62.5955 140.017 61.4876 141.722 59.4705 141.722ZM67.5458 147.091H69.2219V141.324H69.364C69.7333 141.92 70.4435 143.227 72.5458 143.227C75.2731 143.227 77.1765 141.04 77.1765 137.574C77.1765 134.136 75.2731 131.949 72.5174 131.949C70.3867 131.949 69.7333 133.256 69.364 133.824H69.1651V132.091H67.5458V147.091ZM69.1935 137.545C69.1935 135.102 70.2731 133.455 72.3185 133.455C74.4492 133.455 75.5004 135.244 75.5004 137.545C75.5004 139.875 74.4208 141.722 72.3185 141.722C70.3015 141.722 69.1935 140.017 69.1935 137.545ZM84.1651 143.227C87.1197 143.227 89.1083 140.983 89.1083 137.602C89.1083 134.193 87.1197 131.949 84.1651 131.949C81.2106 131.949 79.2219 134.193 79.2219 137.602C79.2219 140.983 81.2106 143.227 84.1651 143.227ZM84.1651 141.722C81.9208 141.722 80.8981 139.79 80.8981 137.602C80.8981 135.415 81.9208 133.455 84.1651 133.455C86.4094 133.455 87.4322 135.415 87.4322 137.602C87.4322 139.79 86.4094 141.722 84.1651 141.722ZM91.6669 143H93.343V132.091H91.6669V143ZM92.5192 130.273C93.1726 130.273 93.7124 129.761 93.7124 129.136C93.7124 128.511 93.1726 128 92.5192 128C91.8658 128 91.326 128.511 91.326 129.136C91.326 129.761 91.8658 130.273 92.5192 130.273ZM98.0891 136.438C98.0891 134.534 99.2681 133.455 100.873 133.455C102.429 133.455 103.373 134.47 103.373 136.182V143H105.049V136.068C105.049 133.284 103.565 131.949 101.356 131.949C99.7085 131.949 98.6857 132.688 98.1744 133.795H98.0323V132.091H96.413V143H98.0891V136.438ZM112.857 132.091H110.527V129.477H108.851V132.091H107.203V133.511H108.851V140.33C108.851 142.233 110.385 143.142 111.805 143.142C112.43 143.142 112.828 143.028 113.055 142.943L112.714 141.438C112.572 141.466 112.345 141.523 111.976 141.523C111.237 141.523 110.527 141.295 110.527 139.875V133.511H112.857V132.091ZM116.06 140.188H124.81V138.653H116.06V140.188ZM116.06 135.983H124.81V134.449H116.06V135.983ZM129.776 128.455H128.583V133.305H129.776V128.455ZM133.107 128.455H131.914V133.305H133.107V128.455ZM137.617 136.182C137.617 134.278 138.895 133.107 140.642 133.107C142.333 133.107 143.412 134.214 143.412 136.011V143H144.684V135.933C144.684 133.334 143.178 131.949 140.962 131.949C139.314 131.949 138.242 132.673 137.73 133.803H137.617V128.455H136.353V143H137.617V136.182ZM152.31 132.091H150.001V129.477H148.73V132.091H147.104V133.192H148.73V140.45C148.73 142.233 150.136 143.163 151.536 143.163C152.061 143.163 152.416 143.064 152.658 142.972L152.388 141.828C152.21 141.878 151.983 141.928 151.649 141.928C150.79 141.928 150.001 141.523 150.001 140.152V133.192H152.31V132.091ZM159.478 132.091H157.169V129.477H155.898V132.091H154.272V133.192H155.898V140.45C155.898 142.233 157.304 143.163 158.703 143.163C159.229 143.163 159.584 143.064 159.826 142.972L159.556 141.828C159.378 141.878 159.151 141.928 158.817 141.928C157.958 141.928 157.169 141.523 157.169 140.152V133.192H159.478V132.091ZM162.327 147.091H163.599V140.976H163.712C164.146 141.977 165.083 143.227 167.065 143.227C169.735 143.227 171.553 140.955 171.553 137.574C171.553 134.207 169.742 131.942 167.043 131.942C165.04 131.942 164.153 133.192 163.712 134.172H163.556V132.091H162.327V147.091ZM163.577 137.553C163.577 134.939 164.778 133.092 166.908 133.092C169.103 133.092 170.282 135.038 170.282 137.553C170.282 140.095 169.082 142.07 166.908 142.07C164.799 142.07 163.577 140.188 163.577 137.553ZM181.651 134.484C181.118 132.908 179.953 131.942 177.958 131.942C175.756 131.942 174.158 133.199 174.158 134.996C174.158 136.459 175.046 137.453 176.942 137.908L178.725 138.334C179.925 138.618 180.5 139.236 180.5 140.109C180.5 141.246 179.414 142.091 177.738 142.091C176.246 142.091 175.316 141.416 175.01 140.124L173.796 140.422C174.179 142.24 175.621 143.227 177.759 143.227C180.159 143.227 181.807 141.906 181.807 140.053C181.807 138.597 180.891 137.624 179.066 137.176L177.418 136.771C176.061 136.43 175.429 135.884 175.429 134.939C175.429 133.831 176.488 133.057 177.958 133.057C179.428 133.057 180.152 133.831 180.493 134.811L181.651 134.484ZM185.584 142.73C186.152 142.73 186.607 142.268 186.607 141.707C186.607 141.139 186.152 140.685 185.584 140.685C185.023 140.685 184.561 141.139 184.561 141.707C184.561 142.268 185.023 142.73 185.584 142.73ZM185.584 134.861C186.152 134.861 186.607 134.399 186.607 133.838C186.607 133.27 186.152 132.815 185.584 132.815C185.023 132.815 184.561 133.27 184.561 133.838C184.561 134.399 185.023 134.861 185.584 134.861ZM194.669 127.773H193.483L188.796 145.188H189.982L194.669 127.773ZM201.583 127.773H200.397L195.71 145.188H196.896L201.583 127.773ZM207.702 143.227C209.684 143.227 210.607 141.97 211.054 140.976H211.203V143H212.439V128.455H211.168V134.172H211.054C210.621 133.192 209.719 131.942 207.723 131.942C205.032 131.942 203.213 134.214 203.213 137.574C203.213 140.962 205.025 143.227 207.702 143.227ZM207.851 142.07C205.678 142.07 204.485 140.095 204.485 137.553C204.485 135.038 205.664 133.092 207.851 133.092C209.982 133.092 211.189 134.939 211.189 137.553C211.189 140.188 209.968 142.07 207.851 142.07ZM222.972 138.831C222.972 140.834 221.466 141.913 219.989 141.913C218.412 141.913 217.304 140.784 217.304 139.08V132.091H216.04V139.158C216.04 141.743 217.532 143.142 219.627 143.142C221.225 143.142 222.361 142.311 222.873 141.189H222.972V143H224.236V132.091H222.972V138.831ZM227.583 143H228.847V136.011C228.847 134.314 229.977 133.107 231.489 133.107C232.981 133.107 233.847 134.101 233.847 135.578V143H235.14V135.82C235.14 134.25 236.077 133.107 237.739 133.107C239.181 133.107 240.14 133.973 240.14 135.692V143H241.404V135.692C241.404 133.249 240.147 131.949 238.123 131.949C236.532 131.949 235.381 132.723 234.891 133.93H234.799C234.316 132.695 233.357 131.949 231.852 131.949C230.424 131.949 229.359 132.638 228.925 133.767H228.812V132.091H227.583V143ZM244.751 143H246.015V136.011C246.015 134.314 247.145 133.107 248.657 133.107C250.149 133.107 251.015 134.101 251.015 135.578V143H252.308V135.82C252.308 134.25 253.245 133.107 254.907 133.107C256.349 133.107 257.308 133.973 257.308 135.692V143H258.572V135.692C258.572 133.249 257.315 131.949 255.291 131.949C253.7 131.949 252.549 132.723 252.059 133.93H251.967C251.484 132.695 250.525 131.949 249.02 131.949C247.592 131.949 246.527 132.638 246.093 133.767H245.98V132.091H244.751V143ZM262.409 147.091C263.773 147.091 264.774 146.31 265.357 144.726L269.98 132.112L268.602 132.091L265.364 141.331H265.264L262.026 132.091H260.655L264.668 143.107L264.27 144.214C263.666 145.862 262.814 146.153 261.528 145.749L261.188 146.864C261.443 146.984 261.912 147.091 262.409 147.091ZM272.771 143.107C273.339 143.107 273.794 142.645 273.794 142.084C273.794 141.516 273.339 141.061 272.771 141.061C272.21 141.061 271.749 141.516 271.749 142.084C271.749 142.645 272.21 143.107 272.771 143.107ZM277.397 143H278.625V140.976H278.782C279.222 141.977 280.145 143.227 282.134 143.227C284.811 143.227 286.623 140.962 286.623 137.574C286.623 134.214 284.804 131.942 282.113 131.942C280.117 131.942 279.215 133.192 278.782 134.172H278.668V128.455H277.397V143ZM278.647 137.553C278.647 134.939 279.847 133.092 281.978 133.092C284.165 133.092 285.351 135.038 285.351 137.553C285.351 140.095 284.151 142.07 281.978 142.07C279.861 142.07 278.647 140.188 278.647 137.553ZM290.664 128.455H289.4V143H290.664V128.455ZM298.249 143.227C301.076 143.227 303.05 140.919 303.05 137.595C303.05 134.25 301.076 131.942 298.249 131.942C295.422 131.942 293.448 134.25 293.448 137.595C293.448 140.919 295.422 143.227 298.249 143.227ZM298.249 142.07C295.983 142.07 294.719 140.038 294.719 137.595C294.719 135.152 295.983 133.092 298.249 133.092C300.515 133.092 301.779 135.152 301.779 137.595C301.779 140.038 300.515 142.07 298.249 142.07ZM310.065 143.227C312.892 143.227 314.866 140.919 314.866 137.595C314.866 134.25 312.892 131.942 310.065 131.942C307.239 131.942 305.264 134.25 305.264 137.595C305.264 140.919 307.239 143.227 310.065 143.227ZM310.065 142.07C307.8 142.07 306.536 140.038 306.536 137.595C306.536 135.152 307.8 133.092 310.065 133.092C312.331 133.092 313.595 135.152 313.595 137.595C313.595 140.038 312.331 142.07 310.065 142.07ZM321.569 143.227C323.551 143.227 324.474 141.97 324.922 140.976H325.071V143H326.306V128.455H325.035V134.172H324.922C324.488 133.192 323.586 131.942 321.591 131.942C318.899 131.942 317.081 134.214 317.081 137.574C317.081 140.962 318.892 143.227 321.569 143.227ZM321.718 142.07C319.545 142.07 318.352 140.095 318.352 137.553C318.352 135.038 319.531 133.092 321.718 133.092C323.849 133.092 325.056 134.939 325.056 137.553C325.056 140.188 323.835 142.07 321.718 142.07ZM330.17 143H331.399V140.976H331.555C331.995 141.977 332.919 143.227 334.907 143.227C337.585 143.227 339.396 140.962 339.396 137.574C339.396 134.214 337.578 131.942 334.886 131.942C332.89 131.942 331.988 133.192 331.555 134.172H331.441V128.455H330.17V143ZM331.42 137.553C331.42 134.939 332.62 133.092 334.751 133.092C336.939 133.092 338.125 135.038 338.125 137.553C338.125 140.095 336.924 142.07 334.751 142.07C332.635 142.07 331.42 140.188 331.42 137.553ZM345.22 143.249C347.038 143.249 348.146 142.24 348.6 141.274H348.679V143H349.943V135.592C349.943 132.666 347.741 131.942 346.072 131.942C344.403 131.942 342.684 132.602 341.946 134.385L343.146 134.818C343.544 133.881 344.531 133.078 346.108 133.078C347.762 133.078 348.679 133.987 348.679 135.479V135.734C348.679 136.558 347.656 136.572 345.824 136.8C343.359 137.105 341.633 137.794 341.633 139.953C341.633 142.055 343.238 143.249 345.22 143.249ZM345.39 142.091C343.963 142.091 342.897 141.331 342.897 140.01C342.897 138.689 343.977 138.135 345.824 137.908C346.718 137.801 348.309 137.602 348.679 137.24V138.817C348.679 140.607 347.407 142.091 345.39 142.091ZM357.603 132.091H355.294V129.477H354.023V132.091H352.397V133.192H354.023V140.45C354.023 142.233 355.429 143.163 356.828 143.163C357.354 143.163 357.709 143.064 357.951 142.972L357.681 141.828C357.503 141.878 357.276 141.928 356.942 141.928C356.083 141.928 355.294 141.523 355.294 140.152V133.192H357.603V132.091ZM361.972 136.182C361.972 134.278 363.251 133.107 364.998 133.107C366.688 133.107 367.768 134.214 367.768 136.011V143H369.039V135.933C369.039 133.334 367.533 131.949 365.317 131.949C363.67 131.949 362.597 132.673 362.086 133.803H361.972V128.455H360.708V143H361.972V136.182ZM373.377 143.107C373.945 143.107 374.4 142.645 374.4 142.084C374.4 141.516 373.945 141.061 373.377 141.061C372.816 141.061 372.354 141.516 372.354 142.084C372.354 142.645 372.816 143.107 373.377 143.107ZM377.754 143H379.025V132.091H377.754V143ZM378.4 130.216C378.918 130.216 379.352 129.804 379.352 129.307C379.352 128.81 378.918 128.398 378.4 128.398C377.881 128.398 377.455 128.81 377.455 129.307C377.455 129.804 377.881 130.216 378.4 130.216ZM386.608 143.227C389.435 143.227 391.409 140.919 391.409 137.595C391.409 134.25 389.435 131.942 386.608 131.942C383.782 131.942 381.807 134.25 381.807 137.595C381.807 140.919 383.782 143.227 386.608 143.227ZM386.608 142.07C384.343 142.07 383.078 140.038 383.078 137.595C383.078 135.152 384.343 133.092 386.608 133.092C388.874 133.092 390.138 135.152 390.138 137.595C390.138 140.038 388.874 142.07 386.608 142.07ZM395.264 128.455H394.071V133.305H395.264V128.455ZM398.595 128.455H397.402V133.305H398.595V128.455ZM24.1136 163.864C24.1136 160.284 23.1477 157.301 21.4148 154.773H19.9375C21.3011 156.648 22.3807 160.483 22.3807 163.864C22.3807 167.244 21.3011 171.08 19.9375 172.955H21.4148C23.1477 170.426 24.1136 167.443 24.1136 163.864Z" fill="black"/>
<path d="M189.724 26.9744C189.369 25.1278 187.892 23.9489 185.335 23.9489C182.707 23.9489 180.918 25.2415 180.925 27.2585C180.918 28.8494 181.898 29.9006 183.993 30.3338L185.854 30.7244C186.855 30.9446 187.324 31.3494 187.324 31.9673C187.324 32.7131 186.514 33.2741 185.293 33.2741C184.114 33.2741 183.347 32.7628 183.126 31.7827L180.619 32.0241C180.939 34.027 182.622 35.2131 185.3 35.2131C188.027 35.2131 189.952 33.7997 189.959 31.733C189.952 30.1776 188.95 29.2259 186.891 28.7784L185.03 28.3807C183.922 28.1321 183.482 27.7486 183.489 27.1165C183.482 26.3778 184.298 25.8665 185.371 25.8665C186.557 25.8665 187.182 26.5128 187.381 27.2301L189.724 26.9744ZM196.837 35.2131C199.579 35.2131 201.326 33.5866 201.511 31.2713H199.053C198.833 32.4432 197.988 33.1179 196.859 33.1179C195.254 33.1179 194.217 31.7756 194.217 29.5455C194.217 27.3438 195.275 26.0227 196.859 26.0227C198.094 26.0227 198.854 26.8182 199.053 27.8693H201.511C201.333 25.5043 199.487 23.9489 196.823 23.9489C193.627 23.9489 191.61 26.2571 191.61 29.5881C191.61 32.8906 193.577 35.2131 196.837 35.2131ZM206.193 28.608C206.193 27.0312 207.173 26.1222 208.551 26.1222C209.9 26.1222 210.696 26.9815 210.696 28.4517V35H213.267V28.054C213.267 25.419 211.775 23.9489 209.51 23.9489C207.833 23.9489 206.768 24.7088 206.264 25.9446H206.136V20.4545H203.622V35H206.193V28.608ZM220.717 35.2131C223.26 35.2131 225.007 33.9702 225.461 32.0739L223.061 31.804C222.713 32.7273 221.86 33.2102 220.752 33.2102C219.091 33.2102 217.99 32.1165 217.968 30.2486H225.568V29.4602C225.568 25.6321 223.267 23.9489 220.582 23.9489C217.457 23.9489 215.419 26.2429 215.419 29.6094C215.419 33.0327 217.429 35.2131 220.717 35.2131ZM217.975 28.5156C218.054 27.1236 219.083 25.9517 220.618 25.9517C222.095 25.9517 223.089 27.0312 223.103 28.5156H217.975ZM231.791 35.1918C233.666 35.1918 234.511 34.0767 234.916 33.2812H235.072V35H237.601V20.4545H235.023V25.8949H234.916C234.526 25.1065 233.723 23.9489 231.798 23.9489C229.277 23.9489 227.295 25.9233 227.295 29.5597C227.295 33.1534 229.22 35.1918 231.791 35.1918ZM232.509 33.0824C230.811 33.0824 229.916 31.5909 229.916 29.5455C229.916 27.5142 230.797 26.0582 232.509 26.0582C234.163 26.0582 235.072 27.429 235.072 29.5455C235.072 31.6619 234.149 33.0824 232.509 33.0824ZM247.294 30.4119C247.294 32.0739 246.108 32.8977 244.971 32.8977C243.735 32.8977 242.912 32.0241 242.912 30.6392V24.0909H240.341V31.0369C240.341 33.6577 241.832 35.142 243.977 35.142C245.61 35.142 246.761 34.2827 247.258 33.0611H247.372V35H249.865V24.0909H247.294V30.4119ZM255.08 20.4545H252.509V35H255.08V20.4545ZM262.553 35.2131C265.096 35.2131 266.843 33.9702 267.297 32.0739L264.897 31.804C264.549 32.7273 263.696 33.2102 262.588 33.2102C260.926 33.2102 259.826 32.1165 259.804 30.2486H267.404V29.4602C267.404 25.6321 265.103 23.9489 262.418 23.9489C259.293 23.9489 257.255 26.2429 257.255 29.6094C257.255 33.0327 259.265 35.2131 262.553 35.2131ZM259.811 28.5156C259.89 27.1236 260.919 25.9517 262.453 25.9517C263.931 25.9517 264.925 27.0312 264.939 28.5156H259.811Z" fill="#EA5758"/>
<rect x="0.5" y="0.5" width="418" height="186" rx="5.5" stroke="#DFE2E6"/>
</svg>
