<svg width="400" height="357" viewBox="0 0 400 357" fill="none" xmlns="http://www.w3.org/2000/svg">
<g clip-path="url(#clip0)">
<path d="M86.4706 109.894C85.3974 109.894 84.3683 110.32 83.6094 111.079C82.8506 111.838 82.4243 112.867 82.4243 113.94C82.4243 115.013 82.8506 116.042 83.6094 116.801C84.3683 117.56 85.3974 117.986 86.4706 117.986H137.332V116.221C137.332 114.967 137.643 113.732 138.238 112.627C138.833 111.523 139.693 110.584 140.741 109.894H86.4706Z" fill="#E6E6E6"/>
<path d="M132.752 100.79H115.555C114.482 100.79 113.453 100.363 112.694 99.6047C111.935 98.8458 111.509 97.8167 111.509 96.7435C111.509 95.6704 111.935 94.6412 112.694 93.8824C113.453 93.1236 114.482 92.6973 115.555 92.6973H132.752C133.825 92.6973 134.854 93.1236 135.613 93.8824C136.372 94.6412 136.798 95.6704 136.798 96.7435C136.798 97.8167 136.372 98.8458 135.613 99.6047C134.854 100.363 133.825 100.79 132.752 100.79Z" fill="#E6E6E6"/>
<path d="M94.1834 71.9602H27.4202C26.3471 71.9602 25.3179 71.5339 24.5591 70.7751C23.8003 70.0163 23.374 68.9871 23.374 67.914C23.374 66.8409 23.8003 65.8117 24.5591 65.0529C25.3179 64.294 26.3471 63.8677 27.4202 63.8677H94.1834C95.2565 63.8677 96.2857 64.294 97.0445 65.0529C97.8033 65.8117 98.2296 66.8409 98.2296 67.914C98.2296 68.9871 97.8033 70.0163 97.0445 70.7751C96.2857 71.5339 95.2565 71.9602 94.1834 71.9602Z" fill="#E6E6E6"/>
<path d="M65.101 54.7637H56.5027C55.4295 54.7637 54.4004 54.3374 53.6415 53.5786C52.8827 52.8197 52.4564 51.7906 52.4564 50.7174C52.4564 49.6443 52.8827 48.6151 53.6415 47.8563C54.4004 47.0975 55.4295 46.6712 56.5027 46.6712H65.101C66.1741 46.6712 67.2033 47.0975 67.9621 47.8563C68.7209 48.6151 69.1472 49.6443 69.1472 50.7174C69.1472 51.7906 68.7209 52.8197 67.9621 53.5786C67.2033 54.3374 66.1741 54.7637 65.101 54.7637Z" fill="#E6E6E6"/>
<path d="M136.824 191.271H73.8856C71.606 191.269 69.4205 190.362 67.8086 188.75C66.1966 187.138 65.2899 184.953 65.2874 182.673V83.1151C65.2899 80.8355 66.1966 78.65 67.8086 77.038C69.4205 75.4261 71.606 74.5194 73.8856 74.5168H174.422C176.701 74.5194 178.887 75.4261 180.499 77.038C182.111 78.65 183.017 80.8355 183.02 83.1151V107.791H182.008V83.1151C182.006 81.1037 181.206 79.1753 179.784 77.753C178.361 76.3307 176.433 75.5307 174.422 75.5284H73.8857C71.8742 75.5307 69.9458 76.3307 68.5235 77.753C67.1012 79.1753 66.3012 81.1037 66.2989 83.1151V182.673C66.3012 184.684 67.1012 186.613 68.5235 188.035C69.9458 189.457 71.8742 190.257 73.8857 190.26H136.824V191.271Z" fill="#CCCCCC"/>
<path d="M65.7932 131.672H19.9141C17.6345 131.67 15.449 130.763 13.837 129.151C12.2251 127.539 11.3184 125.353 11.3158 123.074V42.1192C11.3184 39.8395 12.2251 37.654 13.837 36.0421C15.449 34.4302 17.6345 33.5234 19.9141 33.5209H101.69C103.969 33.5234 106.155 34.4302 107.767 36.0421C109.379 37.654 110.285 39.8395 110.288 42.1192V75.0226H109.276V42.1192C109.274 40.1077 108.474 38.1793 107.052 36.757C105.629 35.3348 103.701 34.5347 101.69 34.5324H19.9141C17.9027 34.5347 15.9743 35.3348 14.552 36.757C13.1297 38.1793 12.3296 40.1077 12.3274 42.1192V123.074C12.3296 125.085 13.1297 127.014 14.552 128.436C15.9743 129.858 17.9027 130.658 19.9141 130.661H65.7932V131.672Z" fill="#CCCCCC"/>
<path d="M270.575 109.894C271.623 110.584 272.483 111.523 273.078 112.627C273.673 113.732 273.984 114.967 273.984 116.221V117.986H324.845C325.918 117.986 326.948 117.56 327.706 116.801C328.465 116.042 328.891 115.013 328.891 113.94C328.891 112.867 328.465 111.838 327.706 111.079C326.948 110.32 325.918 109.894 324.845 109.894H270.575Z" fill="#E6E6E6"/>
<path d="M274.517 96.7435C274.519 95.6708 274.945 94.6423 275.704 93.8837C276.462 93.1252 277.491 92.6985 278.564 92.6973H295.76C296.833 92.6973 297.863 93.1236 298.621 93.8824C299.38 94.6412 299.807 95.6704 299.807 96.7435C299.807 97.8167 299.38 98.8458 298.621 99.6047C297.863 100.363 296.833 100.79 295.76 100.79H278.564C277.491 100.789 276.462 100.362 275.704 99.6033C274.945 98.8447 274.519 97.8163 274.517 96.7435Z" fill="#E6E6E6"/>
<path d="M313.086 67.914C313.087 66.8412 313.514 65.8128 314.273 65.0542C315.031 64.2957 316.06 63.869 317.132 63.8677H383.896C384.969 63.8677 385.998 64.294 386.757 65.0529C387.516 65.8117 387.942 66.8409 387.942 67.914C387.942 68.9871 387.516 70.0163 386.757 70.7751C385.998 71.5339 384.969 71.9602 383.896 71.9602H317.132C316.06 71.959 315.031 71.5323 314.273 70.7738C313.514 70.0152 313.087 68.9867 313.086 67.914Z" fill="#E6E6E6"/>
<path d="M342.169 50.7174C342.17 49.6447 342.596 48.6162 343.355 47.8576C344.114 47.0991 345.142 46.6724 346.215 46.6712H354.813C355.886 46.6712 356.915 47.0975 357.674 47.8563C358.433 48.6151 358.859 49.6443 358.859 50.7174C358.859 51.7906 358.433 52.8197 357.674 53.5786C356.915 54.3374 355.886 54.7637 354.813 54.7637H346.215C345.142 54.7625 344.114 54.3358 343.355 53.5772C342.596 52.8187 342.17 51.7902 342.169 50.7174Z" fill="#E6E6E6"/>
<path d="M274.492 191.271H337.43C339.71 191.269 341.895 190.362 343.507 188.75C345.119 187.138 346.026 184.953 346.028 182.673V83.1151C346.026 80.8355 345.119 78.65 343.507 77.038C341.895 75.4261 339.71 74.5194 337.43 74.5168H236.894C234.614 74.5194 232.429 75.4261 230.817 77.038C229.205 78.65 228.298 80.8355 228.296 83.1151V107.791H229.307V83.1151C229.31 81.1037 230.11 79.1753 231.532 77.753C232.954 76.3307 234.883 75.5307 236.894 75.5284H337.43C339.442 75.5307 341.37 76.3307 342.792 77.753C344.214 79.1753 345.015 81.1037 345.017 83.1151V182.673C345.015 184.684 344.214 186.613 342.792 188.035C341.37 189.457 339.442 190.257 337.43 190.26H274.492V191.271Z" fill="#CCCCCC"/>
<path d="M345.523 131.672H391.402C393.681 131.67 395.867 130.763 397.479 129.151C399.091 127.539 399.997 125.353 400 123.074V42.1192C399.997 39.8395 399.091 37.654 397.479 36.0421C395.867 34.4302 393.681 33.5234 391.402 33.5209H309.626C307.347 33.5234 305.161 34.4302 303.549 36.0421C301.937 37.654 301.031 39.8395 301.028 42.1192V75.0226H302.04V42.1192C302.042 40.1077 302.842 38.1793 304.264 36.757C305.686 35.3348 307.615 34.5347 309.626 34.5324H391.402C393.413 34.5347 395.341 35.3348 396.764 36.757C398.186 38.1793 398.986 40.1077 398.988 42.1192V123.074C398.986 125.085 398.186 127.014 396.764 128.436C395.341 129.858 393.413 130.658 391.402 130.661H345.523V131.672Z" fill="#CCCCCC"/>
<path d="M266.185 107.623H144.919C142.64 107.627 140.455 108.535 138.844 110.146C137.232 111.758 136.325 113.942 136.32 116.221V236.339C136.323 238.619 137.229 240.804 138.841 242.416C140.453 244.028 142.639 244.935 144.919 244.937H266.185C268.464 244.935 270.65 244.028 272.262 242.416C273.874 240.804 274.781 238.619 274.783 236.339V116.221C274.781 113.942 273.874 111.756 272.262 110.144C270.65 108.532 268.464 107.625 266.185 107.623ZM273.771 236.339C273.769 238.351 272.969 240.279 271.547 241.701C270.124 243.123 268.196 243.923 266.185 243.926H144.919C142.907 243.923 140.979 243.123 139.557 241.701C138.135 240.279 137.334 238.351 137.332 236.339V116.221C137.335 114.21 138.135 112.282 139.558 110.86C140.98 109.438 142.908 108.638 144.919 108.634H266.185C268.196 108.637 270.124 109.437 271.547 110.859C272.969 112.282 273.769 114.21 273.771 116.221V236.339Z" fill="#3F3D56"/>
<path d="M256.635 154.403H154.467C153.394 154.403 152.365 153.976 151.606 153.218C150.847 152.459 150.421 151.43 150.421 150.356C150.421 149.283 150.847 148.254 151.606 147.495C152.365 146.736 153.394 146.31 154.467 146.31H256.635C257.708 146.31 258.738 146.736 259.496 147.495C260.255 148.254 260.681 149.283 260.681 150.356C260.681 151.43 260.255 152.459 259.496 153.218C258.738 153.976 257.708 154.403 256.635 154.403Z" fill="#CCCCCC"/>
<path d="M227.553 137.206H183.55C182.477 137.206 181.447 136.78 180.689 136.021C179.93 135.262 179.504 134.233 179.504 133.16C179.504 132.087 179.93 131.057 180.689 130.299C181.447 129.54 182.477 129.114 183.55 129.114H227.553C228.626 129.114 229.655 129.54 230.414 130.299C231.173 131.057 231.599 132.087 231.599 133.16C231.599 134.233 231.173 135.262 230.414 136.021C229.655 136.78 228.626 137.206 227.553 137.206Z" fill="#6C63FF"/>
<path d="M198.217 178.68H154.214C153.141 178.68 152.112 178.254 151.353 177.495C150.595 176.736 150.168 175.707 150.168 174.634C150.168 173.561 150.595 172.532 151.353 171.773C152.112 171.014 153.141 170.588 154.214 170.588H198.217C199.291 170.588 200.32 171.014 201.079 171.773C201.837 172.532 202.264 173.561 202.264 174.634C202.264 175.707 201.837 176.736 201.079 177.495C200.32 178.254 199.291 178.68 198.217 178.68Z" fill="#CCCCCC"/>
<path d="M198.217 196.382H154.214C153.141 196.382 152.112 195.956 151.353 195.197C150.595 194.439 150.168 193.409 150.168 192.336C150.168 191.263 150.595 190.234 151.353 189.475C152.112 188.716 153.141 188.29 154.214 188.29H198.217C199.291 188.29 200.32 188.716 201.079 189.475C201.837 190.234 202.264 191.263 202.264 192.336C202.264 193.409 201.837 194.439 201.079 195.197C200.32 195.956 199.291 196.382 198.217 196.382Z" fill="#CCCCCC"/>
<path d="M198.217 214.085H154.214C153.141 214.085 152.112 213.659 151.353 212.9C150.595 212.141 150.168 211.112 150.168 210.039C150.168 208.965 150.595 207.936 151.353 207.177C152.112 206.419 153.141 205.992 154.214 205.992H198.217C199.291 205.992 200.32 206.419 201.079 207.177C201.837 207.936 202.264 208.965 202.264 210.039C202.264 211.112 201.837 212.141 201.079 212.9C200.32 213.659 199.291 214.085 198.217 214.085Z" fill="#CCCCCC"/>
<path d="M253.098 182.149C257.268 182.149 260.649 178.768 260.649 174.598C260.649 170.428 257.268 167.047 253.098 167.047C248.928 167.047 245.547 170.428 245.547 174.598C245.547 178.768 248.928 182.149 253.098 182.149Z" fill="#6C63FF"/>
<path d="M252.35 177.478C252.18 177.479 252.014 177.424 251.878 177.322L251.87 177.316L250.095 175.958C249.929 175.831 249.821 175.643 249.793 175.435C249.766 175.228 249.822 175.018 249.949 174.852C250.077 174.686 250.265 174.578 250.472 174.55C250.679 174.523 250.889 174.579 251.055 174.706L252.204 175.588L254.921 172.044C254.984 171.962 255.062 171.893 255.152 171.841C255.241 171.79 255.34 171.756 255.443 171.742C255.546 171.729 255.65 171.736 255.75 171.762C255.85 171.789 255.944 171.835 256.026 171.898L256.026 171.898L256.009 171.922L256.026 171.898C256.192 172.026 256.301 172.214 256.328 172.421C256.355 172.628 256.299 172.838 256.172 173.004L252.977 177.17C252.904 177.266 252.809 177.344 252.7 177.397C252.591 177.45 252.471 177.478 252.35 177.477L252.35 177.478Z" fill="white"/>
<path d="M60.8018 23.4729C58.4805 23.4729 56.2114 22.7846 54.2814 21.4949C52.3513 20.2053 50.847 18.3723 49.9587 16.2278C49.0704 14.0832 48.838 11.7234 49.2909 9.44675C49.7438 7.1701 50.8616 5.07888 52.5029 3.43751C54.1443 1.79615 56.2355 0.678363 58.5122 0.225514C60.7888 -0.227334 63.1486 0.00508669 65.2932 0.893393C67.4377 1.7817 69.2707 3.28599 70.5603 5.21604C71.85 7.14609 72.5383 9.41521 72.5383 11.7365C72.5347 14.8481 71.2971 17.8312 69.0968 20.0315C66.8966 22.2317 63.9134 23.4694 60.8018 23.4729ZM60.8018 1.01157C58.6806 1.01158 56.607 1.64059 54.8434 2.81907C53.0797 3.99754 51.705 5.67254 50.8933 7.63226C50.0816 9.59198 49.8692 11.7484 50.283 13.8288C50.6969 15.9092 51.7183 17.8202 53.2182 19.3201C54.7181 20.82 56.6291 21.8414 58.7095 22.2553C60.7899 22.6691 62.9464 22.4567 64.9061 21.645C66.8658 20.8332 68.5408 19.4586 69.7193 17.6949C70.8977 15.9312 71.5267 13.8576 71.5267 11.7365C71.5235 8.89302 70.3925 6.16696 68.3819 4.15634C66.3713 2.14573 63.6452 1.01477 60.8018 1.01157Z" fill="#CCCCCC"/>
<path d="M59.6888 16.0206C59.4362 16.021 59.1902 15.9393 58.9881 15.7877L58.9756 15.7783L56.3362 13.7593C56.2139 13.6656 56.1114 13.5487 56.0343 13.4153C55.9572 13.282 55.9072 13.1347 55.887 12.982C55.8668 12.8293 55.8769 12.6741 55.9167 12.5253C55.9565 12.3765 56.0253 12.237 56.119 12.1148C56.2127 11.9926 56.3295 11.89 56.4629 11.8129C56.5963 11.7358 56.7435 11.6858 56.8962 11.6656C57.0489 11.6454 57.2041 11.6555 57.3529 11.6953C57.5017 11.7351 57.6412 11.8039 57.7634 11.8976L59.473 13.2086L63.5128 7.93817C63.6065 7.81598 63.7233 7.71344 63.8566 7.6364C63.9899 7.55935 64.1371 7.50932 64.2898 7.48916C64.4424 7.469 64.5975 7.4791 64.7463 7.51889C64.895 7.55868 65.0344 7.62737 65.1566 7.72105L65.157 7.72131L65.1319 7.75612L65.1576 7.72131C65.4042 7.91077 65.5654 8.19028 65.6061 8.49852C65.6468 8.80676 65.5635 9.11853 65.3745 9.36543L60.6228 15.5618C60.5129 15.7046 60.3715 15.8201 60.2098 15.8994C60.048 15.9787 59.8701 16.0197 59.6899 16.0192L59.6888 16.0206Z" fill="#CCCCCC"/>
<path d="M135.251 64.4412C132.929 64.4411 130.66 63.7528 128.73 62.4632C126.8 61.1735 125.296 59.3405 124.408 57.196C123.519 55.0514 123.287 52.6916 123.74 50.415C124.193 48.1383 125.311 46.0471 126.952 44.4058C128.593 42.7644 130.685 41.6466 132.961 41.1938C135.238 40.7409 137.598 40.9734 139.742 41.8617C141.887 42.75 143.72 44.2543 145.009 46.1843C146.299 48.1144 146.987 50.3835 146.987 52.7047C146.984 55.8164 145.746 58.7995 143.546 60.9998C141.346 63.2 138.362 64.4377 135.251 64.4412ZM135.251 41.9798C133.13 41.9799 131.056 42.6089 129.292 43.7874C127.529 44.9658 126.154 46.6408 125.342 48.6006C124.531 50.5603 124.318 52.7167 124.732 54.7971C125.146 56.8775 126.167 58.7885 127.667 60.2884C129.167 61.7883 131.078 62.8097 133.159 63.2235C135.239 63.6374 137.395 63.425 139.355 62.6132C141.315 61.8015 142.99 60.4268 144.168 58.6631C145.347 56.8994 145.976 54.8259 145.976 52.7047C145.972 49.8613 144.841 47.1352 142.831 45.1246C140.82 43.114 138.094 41.983 135.251 41.9798Z" fill="#CCCCCC"/>
<path d="M134.138 56.9889C133.885 56.9893 133.639 56.9076 133.437 56.756L133.425 56.7466L130.785 54.7276C130.538 54.5383 130.377 54.2587 130.336 53.9503C130.295 53.6419 130.379 53.33 130.568 53.0831C130.757 52.8362 131.037 52.6747 131.345 52.6339C131.654 52.5932 131.966 52.6766 132.212 52.8659L133.922 54.1769L137.962 48.9065C138.055 48.7843 138.172 48.6818 138.306 48.6047C138.439 48.5277 138.586 48.4776 138.739 48.4575C138.891 48.4373 139.046 48.4474 139.195 48.4872C139.344 48.527 139.483 48.5957 139.606 48.6894L139.606 48.6896L139.581 48.7244L139.607 48.6896C139.853 48.8791 140.014 49.1586 140.055 49.4668C140.096 49.7751 140.012 50.0869 139.823 50.3337L135.072 56.5301C134.962 56.6729 134.821 56.7884 134.659 56.8677C134.497 56.947 134.319 56.988 134.139 56.9875L134.138 56.9889Z" fill="#CCCCCC"/>
<path d="M253.098 199.851C257.268 199.851 260.649 196.471 260.649 192.3C260.649 188.13 257.268 184.749 253.098 184.749C248.928 184.749 245.547 188.13 245.547 192.3C245.547 196.471 248.928 199.851 253.098 199.851Z" fill="#6C63FF"/>
<path d="M252.35 195.181C252.18 195.181 252.014 195.126 251.878 195.024L251.87 195.018L250.095 193.66C250.013 193.597 249.944 193.519 249.892 193.429C249.841 193.34 249.807 193.241 249.793 193.138C249.78 193.035 249.787 192.931 249.813 192.831C249.84 192.731 249.886 192.637 249.949 192.555C250.012 192.473 250.091 192.404 250.181 192.352C250.27 192.3 250.369 192.266 250.472 192.253C250.575 192.239 250.679 192.246 250.779 192.273C250.879 192.3 250.973 192.346 251.055 192.409L252.204 193.29L254.921 189.747C254.984 189.665 255.062 189.596 255.152 189.544C255.241 189.492 255.34 189.458 255.443 189.445C255.546 189.431 255.65 189.438 255.75 189.465C255.85 189.492 255.944 189.538 256.026 189.601L256.026 189.601L256.009 189.624L256.026 189.601C256.192 189.728 256.301 189.916 256.328 190.123C256.355 190.331 256.299 190.54 256.172 190.706L252.977 194.872C252.904 194.968 252.809 195.046 252.7 195.099C252.591 195.153 252.471 195.18 252.35 195.18L252.35 195.181Z" fill="white"/>
<path d="M253.098 217.589C257.268 217.589 260.649 214.209 260.649 210.039C260.649 205.868 257.268 202.488 253.098 202.488C248.928 202.488 245.547 205.868 245.547 210.039C245.547 214.209 248.928 217.589 253.098 217.589Z" fill="#6C63FF"/>
<path d="M252.35 212.919C252.18 212.919 252.014 212.864 251.878 212.762L251.87 212.756L250.095 211.399C249.93 211.271 249.821 211.083 249.794 210.876C249.767 210.669 249.823 210.459 249.95 210.294C250.077 210.128 250.265 210.019 250.472 209.992C250.679 209.964 250.889 210.02 251.055 210.147L252.204 211.028L254.921 207.485C254.984 207.403 255.062 207.334 255.152 207.282C255.241 207.23 255.34 207.197 255.443 207.183C255.546 207.169 255.65 207.176 255.75 207.203C255.85 207.23 255.944 207.276 256.026 207.339L256.026 207.339L256.009 207.362L256.027 207.339C256.192 207.466 256.301 207.654 256.328 207.862C256.355 208.069 256.299 208.278 256.172 208.444L252.978 212.611C252.904 212.707 252.809 212.784 252.7 212.838C252.591 212.891 252.471 212.918 252.35 212.918L252.35 212.919Z" fill="white"/>
<path d="M205.562 97.317C197.597 97.1812 193.977 91.1375 193.977 85.5795C193.978 80.0216 197.598 73.9787 205.546 73.8441H205.563C213.512 73.9797 217.132 80.0234 217.131 85.5813C217.131 91.1392 213.511 97.1824 205.562 97.317ZM205.554 74.8556C198.295 74.9826 194.989 80.5027 194.989 85.5795C194.988 90.6586 198.297 96.1814 205.563 96.3054C212.81 96.1824 216.119 90.6601 216.12 85.5813C216.12 80.5044 212.813 74.9843 205.554 74.8556Z" fill="#6C63FF"/>
<path d="M208.189 86.2179C210.219 89.7449 204.646 91.1224 202.514 88.9977L203.048 87.8565C206.514 90.8509 209.569 85.6642 204.274 86.1572V84.9068C209.123 85.2978 206.399 80.4172 203.169 83.3045L202.647 82.1635C205.279 79.4315 211.189 82.735 207.017 85.4651C207.482 85.574 207.896 85.8398 208.189 86.2179Z" fill="#6C63FF"/>
<path d="M276.869 64.4412C274.548 64.4411 272.279 63.7528 270.349 62.4632C268.419 61.1735 266.915 59.3405 266.026 57.196C265.138 55.0514 264.906 52.6916 265.359 50.415C265.811 48.1383 266.929 46.0471 268.571 44.4058C270.212 42.7644 272.303 41.6466 274.58 41.1938C276.857 40.7409 279.216 40.9734 281.361 41.8617C283.505 42.75 285.338 44.2543 286.628 46.1843C287.918 48.1144 288.606 50.3835 288.606 52.7047C288.602 55.8164 287.365 58.7995 285.165 60.9998C282.964 63.2 279.981 64.4377 276.869 64.4412ZM276.869 41.9798C274.748 41.9799 272.675 42.6089 270.911 43.7874C269.147 44.9658 267.773 46.6408 266.961 48.6006C266.149 50.5603 265.937 52.7167 266.351 54.7971C266.765 56.8775 267.786 58.7885 269.286 60.2884C270.786 61.7883 272.697 62.8097 274.777 63.2235C276.858 63.6374 279.014 63.425 280.974 62.6132C282.934 61.8015 284.608 60.4268 285.787 58.6631C286.965 56.8994 287.594 54.8259 287.594 52.7047C287.591 49.8613 286.46 47.1352 284.45 45.1246C282.439 43.114 279.713 41.983 276.869 41.9798Z" fill="#CCCCCC"/>
<path d="M280.129 55.3388H278.903V57.0261H277.373V55.3388H273.61V54.1734L277.652 48.3833H278.903V54.1129H280.129V55.3388ZM277.373 54.1129V50.8231L275.091 54.1129H277.373Z" fill="#CCCCCC"/>
<path d="M350.514 23.4729C348.193 23.4729 345.924 22.7845 343.994 21.4949C342.063 20.2053 340.559 18.3723 339.671 16.2277C338.783 14.0832 338.55 11.7234 339.003 9.44671C339.456 7.17007 340.574 5.07885 342.215 3.43749C343.857 1.79613 345.948 0.678352 348.224 0.225508C350.501 -0.227335 352.861 0.00509423 355.005 0.893402C357.15 1.78171 358.983 3.286 360.273 5.21605C361.562 7.14609 362.25 9.41521 362.25 11.7365C362.247 14.8481 361.009 17.8313 358.809 20.0315C356.609 22.2318 353.626 23.4694 350.514 23.4729ZM350.514 1.01157C348.393 1.0116 346.319 1.64062 344.556 2.8191C342.792 3.99758 341.417 5.67259 340.606 7.63231C339.794 9.59203 339.581 11.7484 339.995 13.8289C340.409 15.9093 341.431 17.8202 342.93 19.3201C344.43 20.82 346.341 21.8415 348.422 22.2553C350.502 22.6691 352.659 22.4567 354.618 21.6449C356.578 20.8332 358.253 19.4586 359.431 17.6949C360.61 15.9312 361.239 13.8576 361.239 11.7365C361.236 8.89301 360.105 6.16694 358.094 4.15633C356.083 2.14571 353.357 1.01476 350.514 1.01157Z" fill="#CCCCCC"/>
<path d="M352.262 10.8322C352.668 11.0567 353.001 11.3939 353.221 11.8032C353.454 12.2463 353.571 12.7411 353.561 13.2415C353.571 13.7675 353.437 14.2862 353.172 14.7408C352.907 15.1793 352.519 15.5297 352.055 15.7482C351.528 15.9961 350.951 16.1187 350.368 16.1063C349.823 16.1058 349.281 16.0135 348.766 15.8332C348.288 15.6786 347.846 15.4289 347.467 15.099L347.989 13.9577C348.667 14.5177 349.513 14.8341 350.393 14.8562C350.844 14.8871 351.291 14.7413 351.637 14.4494C351.917 14.1298 352.07 13.7188 352.068 13.294C352.066 12.8691 351.908 12.4597 351.625 12.1431C351.466 11.9961 351.28 11.8823 351.076 11.8083C350.873 11.7343 350.657 11.7016 350.441 11.7121C350.112 11.71 349.786 11.774 349.482 11.9003C349.183 12.0257 348.914 12.2141 348.693 12.4525H347.746V7.36652H353.16V8.58035H349.276V10.9351C349.735 10.6293 350.278 10.4725 350.83 10.4862C351.329 10.4757 351.822 10.5949 352.262 10.8322Z" fill="#CCCCCC"/>
<path d="M74.954 263.436C74.647 262.759 74.4922 262.023 74.5006 261.279C74.5089 260.536 74.6802 259.803 75.0023 259.133C75.3244 258.463 75.7895 257.872 76.3649 257.401C76.9403 256.93 77.612 256.591 78.3326 256.407L79.8658 238.398L87.2397 244.216L84.6532 260.425C84.8809 261.656 84.6491 262.928 84.0018 263.999C83.3544 265.071 82.3365 265.868 81.141 266.239C79.9454 266.61 78.6552 266.53 77.5149 266.013C76.3746 265.497 75.4634 264.58 74.9539 263.436H74.954Z" fill="#FFB8B8"/>
<path d="M79.6964 254.517C79.1657 254.447 78.6768 254.192 78.3157 253.797C77.9546 253.402 77.7444 252.892 77.722 252.357L76.8683 231.92C76.5615 224.575 78.0565 217.265 81.2229 210.63L88.7934 194.767C89.3005 193.813 90.028 192.993 90.9153 192.377C91.8026 191.76 92.8242 191.364 93.8953 191.222C94.9349 191.075 95.9945 191.182 96.9839 191.533C97.9733 191.885 98.8631 192.47 99.5776 193.239C99.9401 193.626 100.266 194.047 100.55 194.494C101.121 195.421 101.452 196.475 101.512 197.562C101.573 198.649 101.361 199.734 100.895 200.718L89.2869 232.43L88.3938 253.09C88.3802 253.403 88.3022 253.71 88.1645 253.991C88.0269 254.273 87.8326 254.523 87.5938 254.726C87.3551 254.929 87.077 255.08 86.777 255.171C86.4771 255.261 86.1616 255.289 85.8505 255.252L79.7265 254.521L79.6964 254.517Z" fill="#6C63FF"/>
<path d="M57.9777 343.811L63.6556 346.303L75.9704 325.589L67.5906 321.911L57.9777 343.811Z" fill="#FFB8B8"/>
<path d="M57.3431 341.322L68.5248 346.23L68.5253 346.23C69.461 346.641 70.3068 347.232 71.0141 347.969C71.7215 348.707 72.2766 349.577 72.6478 350.529C73.019 351.481 73.1991 352.497 73.1776 353.519C73.1562 354.54 72.9337 355.548 72.5229 356.484L72.4213 356.715L54.1135 348.679L57.3431 341.322Z" fill="#2F2E41"/>
<path d="M134.205 350.704H140.406L143.356 326.787L134.204 326.787L134.205 350.704Z" fill="#FFB8B8"/>
<path d="M132.623 348.68L144.835 348.68H144.835C145.857 348.679 146.869 348.881 147.814 349.272C148.758 349.663 149.616 350.236 150.338 350.959C151.061 351.681 151.634 352.539 152.025 353.483C152.416 354.428 152.618 355.44 152.618 356.462V356.714L132.624 356.715L132.623 348.68Z" fill="#2F2E41"/>
<path d="M71.7501 343.905C71.5117 343.904 71.2747 343.867 71.0478 343.793L60.5338 340.414C59.966 340.229 59.4932 339.829 59.2165 339.3C58.9399 338.77 58.8814 338.154 59.0536 337.582L93.9198 226.555L120.036 221.434L120.128 221.583C137.393 249.679 143.157 292.596 146.813 338.069C146.858 338.663 146.669 339.25 146.288 339.708C145.906 340.165 145.362 340.455 144.769 340.518L133.275 341.667C132.739 341.723 132.2 341.586 131.756 341.28C131.311 340.975 130.991 340.52 130.852 339.999L109.806 265.544C109.764 265.393 109.677 265.257 109.555 265.158C109.434 265.058 109.284 264.998 109.127 264.987C108.97 264.976 108.814 265.014 108.679 265.095C108.545 265.177 108.439 265.299 108.377 265.443L73.8343 342.528C73.6598 342.936 73.3693 343.284 72.9988 343.529C72.6283 343.774 72.1941 343.904 71.7501 343.905Z" fill="#2F2E41"/>
<path d="M107.413 182.097C114.274 182.097 119.835 176.535 119.835 169.674C119.835 162.813 114.274 157.252 107.413 157.252C100.552 157.252 94.9904 162.813 94.9904 169.674C94.9904 176.535 100.552 182.097 107.413 182.097Z" fill="#FFB8B8"/>
<path d="M91.6982 229.842L91.613 229.665C91.5553 229.544 85.8319 217.402 86.3645 203.397C86.5408 198.8 88.4671 194.445 91.7492 191.221C95.0313 187.998 99.4211 186.151 104.02 186.057C108.259 185.974 112.391 187.39 115.689 190.054C118.986 192.719 121.238 196.462 122.047 200.623C123.642 208.766 123.602 216.478 121.928 223.544L121.891 223.701L121.733 223.734L91.6982 229.842Z" fill="#6C63FF"/>
<path d="M155.034 247.367C154.299 247.259 153.596 246.99 152.975 246.58C152.355 246.17 151.832 245.63 151.443 244.996C151.054 244.362 150.809 243.651 150.725 242.912C150.64 242.173 150.719 241.425 150.955 240.72L136.647 229.677L145.531 226.629L157.756 237.583C158.914 238.058 159.858 238.942 160.408 240.066C160.958 241.191 161.077 242.478 160.741 243.684C160.405 244.89 159.639 245.931 158.587 246.61C157.536 247.289 156.271 247.558 155.034 247.367H155.034Z" fill="#FFB8B8"/>
<path d="M119.921 223.023L119.888 222.97L104.804 198.541C104.277 197.598 103.982 196.543 103.944 195.463C103.906 194.384 104.127 193.31 104.587 192.333C105.027 191.379 105.691 190.546 106.522 189.905C107.353 189.263 108.327 188.832 109.361 188.649C109.882 188.554 110.412 188.507 110.942 188.511C112.03 188.532 113.096 188.825 114.042 189.363C114.989 189.901 115.786 190.667 116.361 191.591L136.732 218.525L153.616 230.466C153.872 230.646 154.087 230.878 154.249 231.146C154.411 231.415 154.516 231.713 154.558 232.024C154.599 232.335 154.576 232.65 154.489 232.952C154.403 233.253 154.255 233.533 154.055 233.774L150.125 238.527C149.781 238.945 149.3 239.226 148.767 239.32C148.234 239.414 147.685 239.315 147.219 239.039L119.921 223.023Z" fill="#6C63FF"/>
<path d="M105.191 168.903C106.107 167.397 108.127 166.972 109.882 167.144C111.636 167.315 113.342 167.932 115.104 167.918C119.998 167.88 123.776 161.916 121.718 157.475C120.031 153.833 115.816 152.234 112.004 150.979C104.011 148.347 94.8285 145.819 87.5749 150.086C85.2633 151.486 83.3675 153.477 82.0831 155.855C80.7988 158.233 80.1725 160.91 80.269 163.611C80.4321 166.969 81.7181 170.418 80.6305 173.599C79.3757 177.269 75.3974 179.238 71.6376 180.191C65.047 181.86 58.0981 181.591 51.4662 183.089C44.8343 184.587 38.0385 188.563 36.2508 195.123C35.0766 199.431 36.3018 204.07 38.3309 208.048C40.4011 212.106 43.2781 215.7 46.7856 218.608C50.2931 221.516 54.3573 223.677 58.7294 224.96C63.1014 226.242 67.6892 226.618 72.2118 226.066C76.7344 225.513 81.0966 224.043 85.0312 221.746C93.0486 217.064 98.837 209.152 102.288 200.533C104.244 195.505 105.622 190.271 106.394 184.931C107.166 179.933 106.511 174.882 105.111 170.022C105.045 169.84 105.018 169.647 105.031 169.454C105.045 169.261 105.1 169.073 105.191 168.903Z" fill="#2F2E41"/>
<path d="M193.208 356.898H0.505781C0.37164 356.898 0.242992 356.845 0.14814 356.75C0.0532871 356.655 0 356.527 0 356.393C0 356.258 0.0532871 356.13 0.14814 356.035C0.242992 355.94 0.37164 355.887 0.505781 355.887H193.208C193.343 355.887 193.471 355.94 193.566 356.035C193.661 356.13 193.714 356.258 193.714 356.393C193.714 356.527 193.661 356.655 193.566 356.75C193.471 356.845 193.343 356.898 193.208 356.898Z" fill="#3F3D56"/>
</g>
<defs>
<clipPath id="clip0">
<rect width="400" height="356.898" fill="white"/>
</clipPath>
</defs>
</svg>
