<svg width="540" height="267" viewBox="0 0 540 267" fill="none" xmlns="http://www.w3.org/2000/svg">
<path d="M182.077 228.786L175.908 226.189L171.676 195.266H115.325L110.738 226.063L105.219 228.822C104.955 228.954 104.743 229.171 104.618 229.439C104.493 229.706 104.462 230.008 104.53 230.295C104.598 230.582 104.76 230.838 104.992 231.022C105.223 231.205 105.51 231.305 105.805 231.305H181.568C181.871 231.305 182.164 231.2 182.398 231.008C182.632 230.817 182.793 230.55 182.853 230.253C182.913 229.957 182.868 229.649 182.727 229.381C182.585 229.114 182.356 228.904 182.077 228.786Z" fill="#E6E6E6"/>
<path d="M266.082 198.215H21.5748C15.9353 198.202 10.5311 195.952 6.54781 191.96C2.56456 187.968 0.32758 182.558 0.327606 176.919V154.968H287.329V176.919C287.329 182.558 285.092 187.968 281.109 191.96C277.125 195.952 271.721 198.202 266.082 198.215Z" fill="#CCCCCC"/>
<path d="M287.656 172.987H0V21.2957C0.00640378 15.6497 2.25211 10.2368 6.24445 6.24445C10.2368 2.25211 15.6497 0.00640378 21.2957 0H266.361C272.007 0.00639015 277.42 2.2521 281.412 6.24444C285.404 10.2368 287.65 15.6497 287.656 21.2957V172.987Z" fill="#E6E6E6"/>
<path d="M264.722 160.865H22.9339C20.0674 160.861 17.3193 159.721 15.2924 157.694C13.2656 155.668 12.1254 152.919 12.1222 150.053V22.9338C12.1254 20.0673 13.2656 17.3192 15.2924 15.2923C17.3193 13.2654 20.0674 12.1253 22.9339 12.1221H264.722C267.589 12.1253 270.337 13.2654 272.364 15.2923C274.391 17.3192 275.531 20.0673 275.534 22.9338V150.053C275.531 152.919 274.391 155.668 272.364 157.694C270.337 159.721 267.589 160.861 264.722 160.865Z" fill="white"/>
<path d="M158.446 77.017C158.446 77.0376 158.447 77.0581 158.448 77.0787C159.116 87.5793 163.758 97.4316 171.43 104.632C179.102 111.832 189.229 115.84 199.751 115.84C210.273 115.84 220.4 111.832 228.072 104.632C235.745 97.4315 240.387 87.5793 241.054 77.0786C241.063 76.9488 241.044 76.8185 241 76.696C240.956 76.5736 240.888 76.4615 240.798 76.3669C240.71 76.2725 240.604 76.1974 240.486 76.1462C240.367 76.095 240.24 76.0688 240.111 76.0693L159.392 76.0694C159.141 76.07 158.9 76.1701 158.723 76.3477C158.546 76.5254 158.446 76.7661 158.446 77.017Z" fill="#3F3D56"/>
<path d="M227.333 43.7853C227.333 44.1076 227.205 44.4166 226.977 44.6448L198.874 72.7481C198.762 72.8611 198.628 72.9507 198.481 73.0117C198.333 73.0727 198.176 73.1039 198.016 73.1035H159.392C159.226 73.1042 159.062 73.0705 158.91 73.0047C158.758 72.9388 158.621 72.8422 158.508 72.7209C158.394 72.5993 158.305 72.4555 158.249 72.2984C158.192 72.1413 158.169 71.9744 158.179 71.8078C158.671 64.076 161.309 56.6345 165.797 50.3194C170.285 44.0043 176.445 39.066 183.585 36.0592C190.725 33.0524 198.562 32.0964 206.216 33.2985C213.869 34.5006 221.036 37.8133 226.91 42.8642C227.037 42.9735 227.14 43.1077 227.212 43.2584C227.285 43.4091 227.326 43.5731 227.332 43.7403C227.333 43.7553 227.333 43.7704 227.333 43.7853Z" fill="#E6E6E6"/>
<path d="M346.579 155.976C346.367 156.202 346.076 156.338 345.766 156.358C345.601 156.369 345.435 156.345 345.279 156.289C345.123 156.233 344.98 156.145 344.86 156.031L319.478 132.15C319.303 131.986 319.181 131.773 319.127 131.54C319.073 131.306 319.09 131.061 319.175 130.837C319.26 130.613 319.41 130.418 319.605 130.279C319.8 130.14 320.033 130.061 320.273 130.054L354.938 128.998C355.103 128.993 355.267 129.021 355.42 129.082C355.573 129.142 355.713 129.233 355.83 129.349C355.947 129.465 356.039 129.604 356.101 129.757C356.163 129.909 356.193 130.073 356.19 130.238C355.984 139.63 352.615 148.679 346.629 155.92C346.613 155.939 346.597 155.958 346.579 155.976Z" fill="#6C63FF"/>
<path d="M185.35 132.4C185.335 133.87 184.884 135.303 184.055 136.517C183.225 137.731 182.055 138.672 180.691 139.22C179.327 139.769 177.831 139.901 176.392 139.599C174.953 139.298 173.636 138.576 172.607 137.526C171.578 136.476 170.884 135.144 170.612 133.699C170.34 132.254 170.502 130.761 171.079 129.409C171.655 128.057 172.62 126.906 173.851 126.101C175.081 125.297 176.523 124.876 177.993 124.891C179.964 124.913 181.845 125.717 183.224 127.124C184.603 128.532 185.368 130.43 185.35 132.4Z" fill="#6C63FF"/>
<path d="M206.587 132.618C206.572 134.088 206.121 135.521 205.292 136.735C204.462 137.949 203.292 138.889 201.928 139.438C200.564 139.987 199.068 140.119 197.629 139.817C196.19 139.515 194.873 138.794 193.844 137.744C192.815 136.694 192.121 135.362 191.849 133.917C191.577 132.472 191.739 130.979 192.316 129.627C192.892 128.274 193.857 127.123 195.088 126.319C196.318 125.515 197.76 125.094 199.23 125.109C201.201 125.131 203.082 125.934 204.461 127.342C205.84 128.75 206.605 130.647 206.587 132.618Z" fill="#3F3D56"/>
<path d="M227.824 132.836C227.809 134.306 227.358 135.739 226.529 136.952C225.699 138.166 224.529 139.107 223.165 139.656C221.801 140.205 220.305 140.336 218.866 140.035C217.427 139.733 216.11 139.012 215.081 137.962C214.052 136.911 213.358 135.58 213.086 134.135C212.814 132.69 212.976 131.197 213.553 129.845C214.129 128.492 215.094 127.341 216.325 126.537C217.555 125.733 218.997 125.311 220.467 125.327C222.438 125.349 224.319 126.152 225.698 127.56C227.077 128.968 227.842 130.865 227.824 132.836Z" fill="#E6E6E6"/>
<path d="M120.213 52.5281L52.0139 51.8284C51.3493 51.8211 50.6898 51.9448 50.0731 52.1924C49.4564 52.4401 48.8945 52.8068 48.4196 53.2717C47.9446 53.7367 47.566 54.2906 47.3053 54.9019C47.0445 55.5132 46.9068 56.1699 46.9 56.8345C46.8932 57.499 47.0174 58.1584 47.2655 58.775C47.5137 59.3915 47.8809 59.9531 48.3461 60.4276C48.8114 60.9022 49.3657 61.2804 49.9772 61.5406C50.5887 61.8009 51.2455 61.9381 51.9101 61.9444L120.11 62.644C120.774 62.6514 121.434 62.5277 122.05 62.28C122.667 62.0324 123.229 61.6656 123.704 61.2007C124.179 60.7358 124.557 60.1819 124.818 59.5706C125.079 58.9593 125.217 58.3026 125.223 57.638C125.23 56.9734 125.106 56.314 124.858 55.6975C124.61 55.081 124.243 54.5194 123.777 54.0449C123.312 53.5703 122.758 53.1921 122.146 52.9318C121.535 52.6716 120.878 52.5344 120.213 52.5281Z" fill="#E6E6E6"/>
<path d="M119.93 80.1678L51.7303 79.4681C50.5727 79.4541 49.4453 79.8379 48.5366 80.5553C47.628 81.2728 46.9932 82.2804 46.7383 83.4098C46.4835 84.5391 46.6241 85.7218 47.1366 86.7599C47.6491 87.798 48.5025 88.6287 49.554 89.1132C50.203 89.4171 50.9099 89.5777 51.6266 89.5841L119.826 90.2837C120.491 90.2915 121.151 90.1681 121.768 89.9206C122.385 89.6731 122.947 89.3064 123.422 88.8415C123.897 88.3766 124.276 87.8225 124.537 87.211C124.798 86.5995 124.936 85.9425 124.943 85.2777C124.95 84.6129 124.825 83.9533 124.577 83.3366C124.329 82.7198 123.961 82.1581 123.496 81.6835C123.03 81.2089 122.475 80.8308 121.864 80.5707C121.252 80.3106 120.595 80.1737 119.93 80.1678V80.1678Z" fill="#E6E6E6"/>
<path d="M119.646 107.806L51.4467 107.107C50.7822 107.099 50.1227 107.223 49.506 107.471C48.8893 107.718 48.3274 108.085 47.8525 108.55C47.3775 109.015 46.9989 109.569 46.7381 110.18C46.4774 110.792 46.3397 111.448 46.3329 112.113C46.3261 112.777 46.4503 113.437 46.6984 114.053C46.9466 114.67 47.3138 115.231 47.779 115.706C48.2443 116.181 48.7986 116.559 49.4101 116.819C50.0216 117.079 50.6784 117.216 51.343 117.223L119.542 117.922C120.207 117.93 120.867 117.807 121.484 117.559C122.101 117.312 122.663 116.945 123.139 116.48C123.614 116.015 123.993 115.461 124.254 114.85C124.515 114.238 124.652 113.581 124.659 112.916C124.666 112.252 124.542 111.592 124.293 110.975C124.045 110.358 123.678 109.797 123.212 109.322C122.746 108.848 122.192 108.469 121.58 108.209C120.968 107.949 120.311 107.812 119.646 107.806Z" fill="#E6E6E6"/>
<path d="M100.805 52.329L52.0139 51.8284C51.3493 51.8211 50.6898 51.9448 50.0731 52.1924C49.4564 52.4401 48.8945 52.8068 48.4196 53.2717C47.9446 53.7367 47.566 54.2906 47.3053 54.9019C47.0445 55.5132 46.9068 56.1699 46.9 56.8345C46.8932 57.499 47.0174 58.1584 47.2655 58.775C47.5137 59.3915 47.8809 59.9531 48.3461 60.4276C48.8114 60.9022 49.3657 61.2804 49.9772 61.5406C50.5887 61.8009 51.2455 61.9381 51.9101 61.9444L99.6849 62.4345C100.656 62.0484 101.503 61.4055 102.136 60.5747C102.77 59.7439 103.165 58.7565 103.28 57.7182C103.395 56.6799 103.226 55.6299 102.79 54.6806C102.354 53.7312 101.668 52.9184 100.805 52.329Z" fill="#6C63FF"/>
<path d="M77.9887 79.7375L51.7303 79.4681C50.5727 79.4541 49.4453 79.8379 48.5366 80.5553C47.628 81.2728 46.9932 82.2804 46.7383 83.4098C46.4835 84.5391 46.6241 85.7218 47.1366 86.7599C47.6491 87.798 48.5025 88.6287 49.554 89.1132L73.6719 89.3606C75.1992 89.3757 76.6699 88.7838 77.7609 87.715C78.8519 86.6461 79.4738 85.1878 79.49 83.6606C79.5131 82.2084 78.9753 80.8032 77.9887 79.7375Z" fill="#6C63FF"/>
<path d="M114.55 107.754L51.4467 107.107C50.7822 107.099 50.1227 107.223 49.506 107.471C48.8893 107.718 48.3274 108.085 47.8525 108.55C47.3775 109.015 46.9989 109.569 46.7381 110.18C46.4774 110.792 46.3397 111.448 46.3329 112.113C46.3261 112.777 46.4503 113.437 46.6984 114.053C46.9466 114.67 47.3138 115.231 47.779 115.706C48.2443 116.181 48.7986 116.559 49.4101 116.819C50.0216 117.079 50.6784 117.216 51.343 117.223L114.853 117.874C115.753 117.356 116.496 116.603 117.002 115.696C117.508 114.789 117.759 113.762 117.728 112.724C117.697 111.685 117.385 110.675 116.826 109.8C116.266 108.925 115.48 108.218 114.55 107.754H114.55Z" fill="#6C63FF"/>
<path d="M378.183 258.874L370.807 258.874L367.299 230.423L378.186 230.424L378.183 258.874Z" fill="#A0616A"/>
<path d="M365.539 256.767H379.764V265.723H356.582C356.582 264.547 356.814 263.382 357.264 262.296C357.714 261.209 358.374 260.222 359.205 259.39C360.037 258.558 361.024 257.899 362.111 257.448C363.198 256.998 364.362 256.767 365.539 256.767Z" fill="#2F2E41"/>
<path d="M456.111 253.359L448.982 255.253L438.282 228.659L448.804 225.862L456.111 253.359Z" fill="#A0616A"/>
<path d="M443.349 254.57L457.097 250.916L459.398 259.572L436.993 265.526C436.383 263.231 436.71 260.786 437.902 258.732C439.094 256.677 441.053 255.18 443.349 254.57Z" fill="#2F2E41"/>
<path d="M409.68 51.7229C418.432 51.7229 425.527 44.628 425.527 35.8761C425.527 27.1242 418.432 20.0293 409.68 20.0293C400.928 20.0293 393.833 27.1242 393.833 35.8761C393.833 44.628 400.928 51.7229 409.68 51.7229Z" fill="#A0616A"/>
<path d="M440.458 246.798L417.322 200.843L395.632 151.104L385.246 193.622L383.656 244.172C383.638 244.869 383.368 245.536 382.897 246.05C382.425 246.563 381.783 246.888 381.091 246.966C375.673 247.599 366.511 248.151 366.019 244.739C359.258 197.878 360.252 171.235 362.276 157.136C364.481 141.781 368.266 137.602 368.426 137.431L368.534 137.316L424.949 142.475L425.165 142.495L440.325 191.643L458.433 241.243C458.572 241.624 458.63 242.03 458.602 242.434C458.575 242.838 458.463 243.233 458.275 243.591C458.086 243.95 457.824 244.265 457.506 244.516C457.188 244.768 456.821 244.95 456.429 245.051L443.775 248.305C443.542 248.364 443.302 248.395 443.061 248.395C442.522 248.394 441.994 248.245 441.535 247.963C441.075 247.681 440.703 247.278 440.458 246.798Z" fill="#2F2E41"/>
<path d="M443.999 138.496L437.104 97.123L438.803 86.8796C440.249 78.1651 438.95 69.2167 435.087 61.2725L425.564 106.422L437.739 140.336C436.769 141.368 436.166 142.691 436.022 144.1C435.878 145.508 436.202 146.925 436.943 148.132C437.685 149.339 438.803 150.267 440.125 150.775C441.447 151.283 442.899 151.342 444.258 150.943C445.617 150.543 446.806 149.708 447.643 148.565C448.48 147.422 448.917 146.036 448.888 144.62C448.858 143.204 448.363 141.838 447.48 140.731C446.597 139.624 445.373 138.838 443.999 138.496Z" fill="#A0616A"/>
<path d="M374.972 97.3993L354.338 133.916C352.928 133.767 351.509 134.086 350.298 134.824C349.088 135.562 348.155 136.678 347.642 138C347.129 139.322 347.065 140.775 347.46 142.136C347.856 143.498 348.688 144.691 349.83 145.532C350.971 146.373 352.357 146.815 353.774 146.79C355.192 146.765 356.561 146.274 357.672 145.393C358.782 144.511 359.572 143.289 359.919 141.915C360.266 140.54 360.15 139.09 359.591 137.787L382.634 110.085L389.133 64.4023C382.785 70.5456 378.504 78.5096 376.88 87.1928L374.972 97.3993Z" fill="#A0616A"/>
<path d="M421.487 146.832L370.024 141.212C369.313 141.135 368.629 140.891 368.03 140.5C367.43 140.11 366.93 139.584 366.571 138.964C366.212 138.345 366.004 137.65 365.963 136.935C365.922 136.221 366.05 135.507 366.337 134.851L375.09 114.787C377.529 109.197 379.28 103.332 380.306 97.3205L381.224 91.9336C381.941 87.5041 382.027 82.9956 381.48 78.5419C381.257 76.2637 381.358 73.9654 381.781 71.7157C382.178 69.4677 383.214 67.3815 384.765 65.7062C386.315 64.0308 388.315 62.837 390.526 62.2673L399.898 59.8434L400.154 59.1447C400.379 58.5247 400.785 57.9865 401.32 57.5995C401.854 57.2125 402.492 56.9944 403.151 56.9734C403.622 56.9532 404.091 57.0374 404.525 57.2201L408.925 59.0271L418.54 54.3494C418.848 54.1996 419.175 54.0943 419.513 54.0366C420.355 53.8904 421.222 54.0478 421.96 54.4807C422.697 54.9136 423.257 55.594 423.54 56.401L423.639 56.6788L432.253 56.7796C434.214 56.8044 436.098 57.5449 437.551 58.8618C439.004 60.1788 439.926 61.9814 440.142 63.9304L440.775 69.6714L429.279 106.744C426.13 116.944 425.35 127.728 426.998 138.275L427.373 140.66C427.493 141.425 427.447 142.207 427.237 142.953C427.026 143.698 426.657 144.389 426.155 144.979C425.652 145.568 425.028 146.042 424.325 146.367C423.622 146.693 422.857 146.863 422.082 146.865C421.883 146.865 421.685 146.854 421.487 146.832Z" fill="#3F3D56"/>
<path d="M432.01 66.1015L437.776 65.2578L439.534 67.3223C440.466 68.4201 441.006 69.7974 441.068 71.2363L441.89 91.0611C441.937 92.1403 441.71 93.2138 441.229 94.1811C440.749 95.1485 440.03 95.9779 439.141 96.5917L422.345 108.256L432.01 66.1015Z" fill="#3F3D56"/>
<path d="M375.421 95.8332C374.761 94.9782 374.329 93.9695 374.165 92.9017C374.001 91.8339 374.111 90.742 374.485 89.7284L381.296 71.0922C381.792 69.7403 382.725 68.5925 383.947 67.8303L386.25 66.3984L391.486 68.955L387.876 112.053L375.421 95.8332Z" fill="#3F3D56"/>
<path d="M415.581 29.3627C411.155 33.3684 404.844 35.6777 399.085 34.1058C393.326 32.534 388.804 26.387 390.185 20.5796C391.565 14.7721 399.729 11.4894 404.154 15.496C412.15 9.17213 425.007 10.2647 431.821 17.847C438.635 25.4294 438.353 38.3298 431.214 45.6071C426.996 49.9067 419.089 49.6752 415.13 45.1363C411.171 40.5974 412.015 32.7317 415.581 29.3627Z" fill="#2F2E41"/>
<path d="M539.355 266.468H293.533C293.362 266.468 293.198 266.4 293.077 266.279C292.956 266.158 292.888 265.994 292.888 265.823C292.888 265.652 292.956 265.488 293.077 265.367C293.198 265.246 293.362 265.178 293.533 265.178H539.355C539.526 265.178 539.69 265.246 539.811 265.367C539.932 265.488 540 265.652 540 265.823C540 265.994 539.932 266.158 539.811 266.279C539.69 266.4 539.526 266.468 539.355 266.468Z" fill="#CCCCCC"/>
<path d="M268.37 231.627H22.5488C22.3777 231.627 22.2136 231.559 22.0926 231.438C21.9716 231.317 21.9036 231.153 21.9036 230.982C21.9036 230.811 21.9716 230.647 22.0926 230.526C22.2136 230.405 22.3777 230.337 22.5488 230.337H268.37C268.542 230.337 268.706 230.405 268.827 230.526C268.948 230.647 269.016 230.811 269.016 230.982C269.016 231.153 268.948 231.317 268.827 231.438C268.706 231.559 268.542 231.627 268.37 231.627Z" fill="#CCCCCC"/>
</svg>
