<?xml version="1.0" encoding="UTF-8"?>
<svg width="70px" height="70px" viewBox="0 0 70 70" version="1.1" xmlns="http://www.w3.org/2000/svg" xmlns:xlink="http://www.w3.org/1999/xlink">
    <!-- Generator: Sketch 52.6 (67491) - http://www.bohemiancoding.com/sketch -->
    <title>down</title>
    <desc>Created with Sketch.</desc>
    <g id="Page-1" stroke="none" stroke-width="1" fill="none" fill-rule="evenodd">
        <g id="down" fill="#EA5758" fill-rule="nonzero">
            <path d="M35,0 C28.0777,0 21.3108,2.05271 15.5551,5.89856 C9.79934,9.74441 5.3133,15.2107 2.66423,21.6061 C0.0151648,28.0015 -0.677952,35.0388 0.672531,41.8282 C2.02301,48.6175 5.35644,54.8539 10.2513,59.7487 C15.1461,64.6436 21.3825,67.977 28.1718,69.3275 C34.9612,70.678 41.9985,69.9848 48.3939,67.3358 C54.7893,64.6867 60.2556,60.2007 64.1014,54.4449 C67.9473,48.6892 70,41.9223 70,35 C69.9824,25.7228 66.2892,16.8307 59.7293,10.2707 C53.1693,3.71077 44.2772,0.0176205 35,0 Z M49.6833,32.8 L37.1833,46.8 C36.9076,47.1059 36.5709,47.3507 36.1949,47.5186 C35.8189,47.6865 35.4118,47.7739 35,47.775 C34.5907,47.7736 34.1862,47.6861 33.8129,47.5181 C33.4396,47.3501 33.1059,47.1055 32.8333,46.8 L20.2667,32.8 C19.7785,32.2202 19.5352,31.4732 19.5883,30.7172 C19.6414,29.9611 19.9867,29.2554 20.551,28.7495 C21.1154,28.2437 21.8545,27.9774 22.6119,28.007 C23.3692,28.0366 24.0852,28.3599 24.6083,28.9083 L35,40.4833 L45.3333,28.9083 C45.5889,28.6227 45.8982,28.3902 46.2435,28.2241 C46.5889,28.058 46.9636,27.9616 47.3463,27.9403 C47.7289,27.919 48.1121,27.9733 48.4737,28.1001 C48.8354,28.2269 49.1686,28.4236 49.4542,28.6792 C49.7398,28.9347 49.9723,29.244 50.1384,29.5894 C50.3045,29.9347 50.4009,30.3095 50.4222,30.6921 C50.4435,31.0748 50.3892,31.4579 50.2624,31.8195 C50.1356,32.1812 49.9389,32.5144 49.6833,32.8 Z" id="Shape"></path>
        </g>
    </g>
</svg>