<svg width="500" height="320" viewBox="0 0 500 320" fill="none" xmlns="http://www.w3.org/2000/svg">
<path d="M88.9302 316.282C93.6983 312.253 96.5945 305.888 95.8349 299.692C95.0754 293.496 90.3712 287.8 84.269 286.484C78.1669 285.169 71.2109 288.811 69.3575 294.772C68.3375 283.279 67.1621 271.306 61.052 261.519C55.5195 252.657 45.9371 246.316 35.552 245.182C25.1669 244.047 14.2327 248.332 7.75584 256.529C1.27901 264.726 -0.306832 276.642 4.22937 286.053C7.57104 292.985 13.7276 298.145 20.1781 302.342C41.0219 315.791 66.0215 321.26 90.5769 317.743L88.9302 316.282Z" fill="#F2F2F2"/>
<path d="M18.0255 248.569C26.5945 255.549 34.4557 263.355 41.4953 271.875C48.5361 280.386 54.7347 289.56 60.0041 299.267C62.9495 304.713 65.5953 310.315 67.93 316.05C68.406 317.216 66.5118 317.724 66.0411 316.57C61.906 306.461 56.79 296.781 50.7666 287.67C44.7724 278.592 37.9118 270.117 30.281 262.363C25.965 257.98 21.4113 253.837 16.6404 249.954C15.6625 249.158 17.0557 247.779 18.0255 248.569Z" fill="white"/>
<path d="M373.465 0H115.246C114.262 0.00109186 113.319 0.392477 112.623 1.08829C111.927 1.78411 111.536 2.72753 111.535 3.71156V178.685C111.536 179.669 111.927 180.613 112.623 181.308C113.319 182.004 114.262 182.396 115.246 182.397H373.465C374.449 182.396 375.392 182.004 376.088 181.308C376.784 180.613 377.175 179.669 377.176 178.685V3.71156C377.175 2.72753 376.784 1.78411 376.088 1.08829C375.392 0.392477 374.449 0.00109186 373.465 0ZM376.116 178.685C376.115 179.388 375.836 180.062 375.339 180.559C374.842 181.056 374.168 181.336 373.465 181.336H115.246C114.543 181.336 113.869 181.056 113.372 180.559C112.875 180.062 112.595 179.388 112.595 178.685V3.71156C112.595 3.00853 112.875 2.33437 113.372 1.83725C113.869 1.34013 114.543 1.06073 115.246 1.06045H373.465C374.168 1.06073 374.842 1.34013 375.339 1.83725C375.836 2.33437 376.115 3.00853 376.116 3.71156V178.685Z" fill="#3F3D56"/>
<path d="M376.646 14.8672H112.065V15.9276H376.646V14.8672Z" fill="#3F3D56"/>
<path d="M121.079 11.1351C122.836 11.1351 124.26 9.7108 124.26 7.9538C124.26 6.19679 122.836 4.77246 121.079 4.77246C119.322 4.77246 117.897 6.19679 117.897 7.9538C117.897 9.7108 119.322 11.1351 121.079 11.1351Z" fill="#3F3D56"/>
<path d="M130.225 11.1351C131.982 11.1351 133.406 9.7108 133.406 7.9538C133.406 6.19679 131.982 4.77246 130.225 4.77246C128.468 4.77246 127.044 6.19679 127.044 7.9538C127.044 9.7108 128.468 11.1351 130.225 11.1351Z" fill="#3F3D56"/>
<path d="M139.371 11.1351C141.128 11.1351 142.553 9.7108 142.553 7.9538C142.553 6.19679 141.128 4.77246 139.371 4.77246C137.614 4.77246 136.19 6.19679 136.19 7.9538C136.19 9.7108 137.614 11.1351 139.371 11.1351Z" fill="#3F3D56"/>
<path d="M266.625 39.5012H222.086C221.102 39.5012 220.158 39.1102 219.462 38.4142C218.766 37.7181 218.375 36.7741 218.375 35.7897C218.375 34.8053 218.766 33.8613 219.462 33.1652C220.158 32.4692 221.102 32.0781 222.086 32.0781H266.625C267.609 32.0781 268.553 32.4692 269.249 33.1652C269.945 33.8613 270.336 34.8053 270.336 35.7897C270.336 36.7741 269.945 37.7181 269.249 38.4142C268.553 39.1102 267.609 39.5012 266.625 39.5012Z" fill="#CCCCCC"/>
<path d="M297.113 57.5296H191.598C190.614 57.5296 189.67 57.1385 188.974 56.4425C188.278 55.7464 187.887 54.8024 187.887 53.818C187.887 52.8336 188.278 51.8896 188.974 51.1935C189.67 50.4975 190.614 50.1064 191.598 50.1064H297.113C298.097 50.1064 299.041 50.4975 299.737 51.1935C300.433 51.8896 300.824 52.8336 300.824 53.818C300.824 54.8024 300.433 55.7464 299.737 56.4425C299.041 57.1385 298.097 57.5296 297.113 57.5296Z" fill="#CCCCCC"/>
<path d="M328.757 168.32C324.757 168.32 320.848 167.134 317.522 164.912C314.197 162.69 311.605 159.532 310.075 155.837C308.544 152.142 308.144 148.076 308.924 144.154C309.704 140.231 311.63 136.628 314.458 133.8C317.286 130.972 320.889 129.046 324.812 128.266C328.734 127.485 332.8 127.886 336.495 129.416C340.19 130.947 343.348 133.539 345.57 136.864C347.792 140.189 348.978 144.099 348.978 148.099C348.972 153.46 346.84 158.6 343.049 162.391C339.258 166.182 334.118 168.314 328.757 168.32ZM328.757 129.272C325.033 129.272 321.393 130.376 318.297 132.444C315.201 134.513 312.788 137.454 311.363 140.894C309.938 144.334 309.565 148.119 310.292 151.772C311.018 155.424 312.811 158.778 315.444 161.411C318.077 164.044 321.432 165.837 325.084 166.564C328.736 167.29 332.521 166.917 335.962 165.492C339.402 164.067 342.342 161.654 344.411 158.558C346.48 155.462 347.584 151.822 347.584 148.099C347.578 143.107 345.593 138.322 342.063 134.792C338.534 131.263 333.748 129.277 328.757 129.272Z" fill="#3F3D56"/>
<path d="M159.225 114.161C155.226 114.161 151.316 112.975 147.991 110.753C144.666 108.531 142.074 105.373 140.543 101.678C139.013 97.9828 138.612 93.9169 139.392 89.9943C140.173 86.0717 142.099 82.4686 144.927 79.6406C147.755 76.8125 151.358 74.8866 155.28 74.1063C159.203 73.3261 163.269 73.7265 166.964 75.2571C170.659 76.7876 173.817 79.3794 176.039 82.7049C178.261 86.0303 179.447 89.9399 179.447 93.9394C179.441 99.3006 177.309 104.441 173.518 108.232C169.727 112.022 164.587 114.155 159.225 114.161ZM159.225 75.1124C155.502 75.1124 151.862 76.2166 148.766 78.2853C145.67 80.354 143.257 83.2944 141.832 86.7346C140.407 90.1748 140.034 93.9603 140.76 97.6123C141.487 101.264 143.28 104.619 145.913 107.252C148.546 109.885 151.9 111.678 155.552 112.405C159.205 113.131 162.99 112.758 166.43 111.333C169.87 109.908 172.811 107.495 174.88 104.399C176.948 101.303 178.052 97.663 178.052 93.9394C178.047 88.9479 176.061 84.1624 172.532 80.6329C169.002 77.1034 164.217 75.118 159.225 75.1124Z" fill="#3F3D56"/>
<path d="M167.08 104.659C166.551 104.659 166.043 104.449 165.668 104.075C165.294 103.701 165.083 103.193 165.082 102.664V91.318C165.082 90.789 165.293 90.2819 165.667 89.9079C166.041 89.5339 166.548 89.3235 167.077 89.3229H167.08C167.609 89.3235 168.116 89.5339 168.49 89.9079C168.864 90.2819 169.075 90.789 169.075 91.318V102.664C169.075 103.193 168.864 103.7 168.49 104.074C168.116 104.448 167.609 104.658 167.08 104.659ZM161.871 104.659C161.607 104.662 161.345 104.612 161.1 104.513C160.855 104.414 160.633 104.268 160.445 104.082C160.256 103.897 160.107 103.676 160.004 103.433C159.902 103.189 159.849 102.928 159.848 102.664V96.5521C159.848 96.0232 160.059 95.5162 160.433 95.1422C160.807 94.7682 161.314 94.5579 161.843 94.5573H161.871C162.4 94.5579 162.907 94.7682 163.281 95.1422C163.655 95.5162 163.866 96.0232 163.866 96.5521V102.664C163.866 103.193 163.655 103.7 163.281 104.074C162.907 104.448 162.4 104.658 161.871 104.659ZM156.612 104.659C156.082 104.659 155.575 104.449 155.2 104.075C154.825 103.701 154.614 103.193 154.613 102.664V85.2148C154.614 84.6859 154.824 84.1788 155.198 83.8048C155.572 83.4307 156.079 83.2203 156.608 83.2197H156.612C157.141 83.2203 157.648 83.4307 158.022 83.8048C158.396 84.1788 158.606 84.6859 158.607 85.2148V102.664C158.606 103.193 158.396 103.7 158.022 104.074C157.648 104.448 157.141 104.658 156.612 104.659ZM151.373 104.659C151.11 104.659 150.851 104.608 150.608 104.508C150.366 104.407 150.146 104.26 149.96 104.075C149.775 103.889 149.628 103.669 149.527 103.427C149.427 103.184 149.375 102.925 149.376 102.662L149.378 100.042C149.378 99.5126 149.588 99.0053 149.963 98.6313C150.337 98.2574 150.844 98.0474 151.374 98.0476C151.903 98.0479 152.41 98.2583 152.784 98.6325C153.158 99.0068 153.368 99.5143 153.368 100.043V102.664C153.367 103.193 153.157 103.7 152.783 104.074C152.409 104.448 151.902 104.658 151.373 104.659Z" fill="#6C63FF"/>
<path d="M465.982 317.766C461.983 317.766 458.073 316.58 454.748 314.358C451.422 312.137 448.83 308.978 447.3 305.283C445.769 301.588 445.369 297.522 446.149 293.6C446.929 289.677 448.855 286.074 451.683 283.246C454.511 280.418 458.115 278.492 462.037 277.712C465.96 276.932 470.026 277.332 473.721 278.863C477.416 280.393 480.574 282.985 482.796 286.31C485.018 289.636 486.204 293.545 486.204 297.545C486.198 302.906 484.065 308.046 480.274 311.837C476.483 315.628 471.343 317.76 465.982 317.766ZM465.982 278.718C462.259 278.718 458.619 279.822 455.522 281.891C452.426 283.959 450.013 286.9 448.588 290.34C447.163 293.78 446.79 297.566 447.517 301.218C448.243 304.87 450.036 308.225 452.669 310.858C455.302 313.491 458.657 315.284 462.309 316.01C465.961 316.737 469.747 316.364 473.187 314.939C476.627 313.514 479.568 311.101 481.636 308.005C483.705 304.908 484.809 301.268 484.809 297.545C484.804 292.553 482.818 287.768 479.289 284.238C475.759 280.709 470.974 278.724 465.982 278.718Z" fill="#3F3D56"/>
<path d="M471.557 294.035L467.614 300.064C467.931 300.448 468.103 300.931 468.101 301.429C468.1 302.004 467.871 302.554 467.465 302.961C467.058 303.367 466.507 303.595 465.932 303.595C465.358 303.595 464.806 303.367 464.4 302.961C463.993 302.554 463.764 302.004 463.763 301.429C463.764 301.289 463.777 301.15 463.801 301.013L461.199 299.497C460.863 299.823 460.43 300.03 459.967 300.089C459.503 300.147 459.032 300.054 458.626 299.822L455.858 302.416V305.001C455.859 305.512 456.062 306.002 456.423 306.364C456.784 306.726 457.274 306.93 457.785 306.933H474.175C474.687 306.93 475.177 306.726 475.539 306.364C475.9 306.003 476.105 305.513 476.107 305.001V295.413L473.459 293.652C473.193 293.859 472.883 294.001 472.553 294.068C472.223 294.134 471.882 294.123 471.557 294.035H471.557Z" fill="#6C63FF"/>
<path d="M459.696 295.784C460.271 295.784 460.823 296.012 461.23 296.419C461.636 296.826 461.865 297.378 461.865 297.953V298.232L464.579 299.751C464.966 299.434 465.452 299.26 465.953 299.26C466.111 299.261 466.269 299.278 466.423 299.31L470.374 293.195C470.177 292.917 470.048 292.597 469.998 292.261C469.947 291.924 469.977 291.581 470.085 291.258C470.193 290.935 470.375 290.642 470.617 290.403C470.86 290.164 471.155 289.986 471.479 289.882C471.803 289.779 472.147 289.754 472.483 289.809C472.819 289.864 473.137 289.997 473.412 290.198C473.686 290.399 473.909 290.662 474.063 290.966C474.217 291.27 474.296 291.605 474.296 291.946C474.296 292.118 474.276 292.29 474.237 292.458L476.107 293.707V290.089C476.104 289.577 475.9 289.087 475.539 288.725C475.177 288.364 474.687 288.159 474.175 288.157H457.785C457.274 288.159 456.784 288.364 456.423 288.726C456.062 289.088 455.859 289.578 455.858 290.089V300.451L457.664 298.719C457.544 298.392 457.504 298.04 457.548 297.694C457.593 297.348 457.72 297.018 457.919 296.732C458.119 296.445 458.385 296.212 458.694 296.05C459.003 295.889 459.347 295.805 459.696 295.805V295.784Z" fill="#6C63FF"/>
<path d="M245.157 114.161C241.158 114.161 237.248 112.975 233.923 110.753C230.597 108.531 228.006 105.373 226.475 101.678C224.945 97.9828 224.544 93.9169 225.324 89.9943C226.105 86.0717 228.03 82.4686 230.859 79.6406C233.687 76.8125 237.29 74.8866 241.212 74.1063C245.135 73.3261 249.201 73.7265 252.896 75.2571C256.591 76.7876 259.749 79.3794 261.971 82.7049C264.193 86.0303 265.379 89.9399 265.379 93.9394C265.373 99.3006 263.24 104.441 259.45 108.232C255.659 112.022 250.519 114.155 245.157 114.161ZM245.157 75.1124C241.434 75.1124 237.794 76.2166 234.698 78.2853C231.602 80.354 229.188 83.2944 227.763 86.7346C226.338 90.1748 225.966 93.9603 226.692 97.6123C227.419 101.264 229.212 104.619 231.845 107.252C234.478 109.885 237.832 111.678 241.484 112.405C245.136 113.131 248.922 112.758 252.362 111.333C255.802 109.908 258.743 107.495 260.811 104.399C262.88 101.303 263.984 97.663 263.984 93.9394C263.979 88.9479 261.993 84.1624 258.464 80.6329C254.934 77.1034 250.149 75.118 245.157 75.1124Z" fill="#3F3D56"/>
<path d="M234.414 101.27C234.123 101.27 233.839 101.183 233.598 101.022C233.356 100.861 233.168 100.631 233.056 100.363C232.945 100.094 232.915 99.799 232.972 99.5139C233.028 99.2289 233.168 98.9668 233.373 98.761L240.845 91.2684C240.961 91.1511 241.099 91.0581 241.252 90.9948C241.404 90.9315 241.568 90.8991 241.733 90.8995H241.734C241.899 90.899 242.062 90.9313 242.215 90.9944C242.367 91.0575 242.505 91.1502 242.622 91.2672L246.087 94.7324C246.157 94.8026 246.24 94.8583 246.331 94.8962C246.423 94.9341 246.521 94.9534 246.62 94.9532H246.62C246.719 94.9534 246.817 94.934 246.909 94.8961C247 94.8582 247.083 94.8024 247.153 94.7321L252.045 89.8316C252.069 89.8082 252.087 89.7805 252.1 89.75C252.112 89.7196 252.119 89.6869 252.119 89.6539C252.119 89.6209 252.112 89.5883 252.1 89.5578C252.087 89.5273 252.068 89.4997 252.045 89.4764L250.462 87.8961C250.357 87.7908 250.285 87.6565 250.255 87.5103C250.226 87.3641 250.241 87.2126 250.298 87.0748C250.355 86.937 250.452 86.8193 250.576 86.7364C250.7 86.6536 250.845 86.6094 250.994 86.6094H256.617C256.816 86.6096 257.008 86.6891 257.149 86.8303C257.291 86.9716 257.37 87.1631 257.37 87.3629V92.9816C257.37 93.1307 257.326 93.2764 257.243 93.4003C257.161 93.5243 257.043 93.6209 256.905 93.6779C256.767 93.735 256.616 93.7499 256.47 93.7208C256.324 93.6918 256.189 93.62 256.084 93.5146L254.499 91.9292C254.475 91.9058 254.448 91.8873 254.417 91.8747C254.387 91.8621 254.354 91.8556 254.321 91.8556C254.288 91.8556 254.255 91.8621 254.225 91.8747C254.194 91.8873 254.167 91.9058 254.143 91.9292L247.518 98.5496C247.402 98.6666 247.264 98.7593 247.111 98.8224C246.959 98.8855 246.796 98.9178 246.631 98.9173H246.631C246.466 98.9177 246.302 98.8854 246.15 98.8223C245.997 98.7591 245.859 98.6664 245.743 98.5494L242.276 95.0824C242.132 94.9455 241.941 94.869 241.743 94.869C241.544 94.869 241.354 94.9455 241.21 95.0824L235.454 100.839C235.317 100.976 235.155 101.084 234.977 101.158C234.799 101.232 234.607 101.27 234.414 101.27Z" fill="#6C63FF"/>
<path d="M245.157 167.183C241.158 167.183 237.248 165.997 233.923 163.775C230.597 161.553 228.006 158.395 226.475 154.7C224.945 151.005 224.544 146.939 225.324 143.017C226.105 139.094 228.03 135.491 230.859 132.663C233.687 129.835 237.29 127.909 241.212 127.129C245.135 126.349 249.201 126.749 252.896 128.28C256.591 129.81 259.749 132.402 261.971 135.727C264.193 139.053 265.379 142.962 265.379 146.962C265.373 152.323 263.24 157.463 259.45 161.254C255.659 165.045 250.519 167.177 245.157 167.183Z" fill="#E6E6E6"/>
<path d="M328.933 112.57C324.933 112.57 321.023 111.384 317.698 109.162C314.373 106.94 311.781 103.782 310.25 100.087C308.72 96.392 308.319 92.3261 309.099 88.4035C309.88 84.4809 311.806 80.8778 314.634 78.0497C317.462 75.2217 321.065 73.2958 324.988 72.5155C328.91 71.7353 332.976 72.1357 336.671 73.6662C340.366 75.1968 343.524 77.7886 345.746 81.114C347.968 84.4395 349.154 88.3491 349.154 92.3486C349.148 97.7098 347.016 102.85 343.225 106.641C339.434 110.432 334.294 112.564 328.933 112.57Z" fill="#E6E6E6"/>
<path d="M159.226 126.74C155.755 126.745 152.343 127.639 149.316 129.338C153.69 129.725 157.792 131.628 160.912 134.718C164.031 137.809 165.973 141.892 166.401 146.263C166.828 150.633 165.715 155.015 163.254 158.652C160.793 162.289 157.138 164.951 152.922 166.178C153.712 166.44 154.517 166.651 155.334 166.809C156.616 167.061 157.92 167.187 159.226 167.186C164.589 167.186 169.733 165.055 173.526 161.263C177.318 157.47 179.449 152.326 179.449 146.963C179.449 141.6 177.318 136.456 173.526 132.663C169.733 128.871 164.589 126.74 159.226 126.74Z" fill="#E6E6E6"/>
<path d="M151.554 128.257C150.272 128 148.969 127.872 147.662 127.875C142.462 127.87 137.46 129.865 133.692 133.448C129.924 137.031 127.678 141.926 127.422 147.119C127.165 152.312 128.916 157.405 132.313 161.342C135.709 165.279 140.49 167.758 145.665 168.266C150.839 168.774 156.011 167.271 160.108 164.069C164.204 160.867 166.912 156.211 167.669 151.067C168.426 145.923 167.175 140.685 164.175 136.438C161.174 132.191 156.655 129.262 151.554 128.257ZM152.922 166.178C150.332 166.932 147.611 167.12 144.942 166.73C142.273 166.34 139.719 165.382 137.453 163.919C135.187 162.457 133.261 160.525 131.807 158.254C130.352 155.982 129.403 153.425 129.022 150.755C128.642 148.085 128.839 145.364 129.601 142.777C130.363 140.19 131.673 137.797 133.44 135.76C135.207 133.723 137.392 132.089 139.846 130.969C142.299 129.849 144.965 129.27 147.662 129.27C148.219 129.27 148.77 129.296 149.316 129.338C153.69 129.725 157.792 131.628 160.912 134.718C164.031 137.809 165.973 141.892 166.401 146.263C166.828 150.633 165.715 155.016 163.254 158.652C160.793 162.289 157.138 164.951 152.922 166.178Z" fill="#3F3D56"/>
<path d="M159.436 144.537C158.768 141.608 156.964 139.063 154.421 137.462C151.878 135.861 148.804 135.334 145.873 135.998C145.587 136.063 145.291 136.143 145.029 136.224L147.732 148.099L159.607 145.401C159.557 145.125 159.501 144.824 159.436 144.537Z" fill="#6C63FF"/>
<path d="M158.286 147.486L146.406 150.184L143.708 138.309C141.637 138.949 139.793 140.171 138.395 141.828C136.996 143.485 136.103 145.508 135.819 147.658C135.536 149.807 135.875 151.993 136.796 153.956C137.717 155.919 139.182 157.576 141.016 158.732C142.851 159.888 144.978 160.493 147.146 160.477C149.314 160.46 151.432 159.822 153.249 158.638C155.065 157.455 156.504 155.775 157.395 153.798C158.286 151.822 158.592 149.631 158.276 147.486H158.286Z" fill="#6C63FF"/>
<path d="M367.039 242.551C363.04 242.551 359.13 241.365 355.805 239.143C352.48 236.921 349.888 233.763 348.357 230.068C346.827 226.372 346.426 222.307 347.206 218.384C347.987 214.461 349.913 210.858 352.741 208.03C355.569 205.202 359.172 203.276 363.094 202.496C367.017 201.716 371.083 202.116 374.778 203.647C378.473 205.177 381.631 207.769 383.853 211.095C386.075 214.42 387.261 218.33 387.261 222.329C387.255 227.69 385.123 232.83 381.332 236.621C377.541 240.412 372.401 242.545 367.039 242.551ZM367.039 203.502C363.316 203.502 359.676 204.606 356.58 206.675C353.484 208.744 351.071 211.684 349.646 215.124C348.221 218.564 347.848 222.35 348.574 226.002C349.301 229.654 351.094 233.009 353.727 235.642C356.36 238.275 359.714 240.068 363.366 240.794C367.019 241.521 370.804 241.148 374.244 239.723C377.684 238.298 380.625 235.885 382.694 232.789C384.762 229.693 385.866 226.053 385.866 222.329C385.861 217.338 383.875 212.552 380.346 209.023C376.816 205.493 372.031 203.508 367.039 203.502Z" fill="#3F3D56"/>
<path d="M375.765 230.432C375.025 230.432 374.301 230.213 373.685 229.803C373.07 229.392 372.59 228.808 372.306 228.124C372.022 227.44 371.948 226.688 372.091 225.962C372.235 225.236 372.591 224.569 373.114 224.045C373.637 223.521 374.304 223.165 375.03 223.02C375.756 222.875 376.508 222.948 377.192 223.231C377.876 223.514 378.461 223.993 378.873 224.608C379.284 225.224 379.504 225.947 379.505 226.687C379.505 227.679 379.111 228.631 378.41 229.334C377.709 230.036 376.757 230.431 375.765 230.432ZM367.039 230.432C366.048 230.431 365.097 230.036 364.396 229.335C363.695 228.634 363.301 227.684 363.3 226.692V217.967C363.301 216.976 363.695 216.026 364.397 215.325C365.098 214.625 366.048 214.231 367.04 214.231C368.031 214.231 368.981 214.625 369.682 215.325C370.384 216.026 370.778 216.976 370.779 217.967V226.692C370.778 227.684 370.384 228.634 369.683 229.335C368.982 230.036 368.031 230.431 367.039 230.432ZM358.317 230.432C357.324 230.431 356.373 230.036 355.672 229.335C354.97 228.633 354.575 227.682 354.574 226.689V223.203C354.574 222.211 354.969 221.259 355.67 220.557C356.372 219.855 357.324 219.461 358.317 219.461C359.309 219.461 360.261 219.855 360.963 220.557C361.665 221.259 362.059 222.211 362.059 223.203V226.689C362.058 227.682 361.663 228.633 360.962 229.335C360.26 230.036 359.309 230.431 358.317 230.432Z" fill="#6C63FF"/>
<path d="M110.62 313.053L116.784 312.354L117.02 288.247L107.923 289.279L110.62 313.053Z" fill="#A0616A"/>
<path d="M129.32 316.728L109.949 318.926L109.1 311.441L120.987 310.093C122.972 309.867 124.965 310.44 126.528 311.684C128.091 312.928 129.095 314.743 129.32 316.728L129.32 316.728Z" fill="#2F2E41"/>
<path d="M47.2328 312.667L53.4358 312.667L56.3865 288.74L47.2317 288.741L47.2328 312.667Z" fill="#A0616A"/>
<path d="M65.399 318.427L45.9035 318.428L45.9032 310.895L57.8663 310.895C59.864 310.895 61.7799 311.688 63.1926 313.101C64.6053 314.513 65.3989 316.429 65.399 318.427L65.399 318.427Z" fill="#2F2E41"/>
<path d="M91.7385 205.671L95.2803 217.191L114.507 258.798L119.567 298.263L107.93 298.769L100.846 262.339L76.5593 236.029L55.3085 304.841L45.6951 303.829C45.6951 303.829 53.7906 214.778 64.922 205.671C64.922 205.671 83.1369 197.069 91.7385 205.671Z" fill="#2F2E41"/>
<path d="M76.0275 155.961C82.8908 155.961 88.4547 150.397 88.4547 143.534C88.4547 136.67 82.8908 131.106 76.0275 131.106C69.1641 131.106 63.6003 136.67 63.6003 143.534C63.6003 150.397 69.1641 155.961 76.0275 155.961Z" fill="#A0616A"/>
<path d="M93.0034 207.948C93.0034 207.948 94.5213 156.339 73.2705 159.88C52.0197 163.422 60.8742 213.26 60.8742 213.26C60.8742 213.26 65.4279 222.368 76.5593 212.249C87.6907 202.129 93.0034 207.948 93.0034 207.948Z" fill="#6C63FF"/>
<path d="M136.998 164.991C136.599 165.618 136.067 166.151 135.44 166.551C134.813 166.951 134.106 167.209 133.368 167.306C132.631 167.403 131.881 167.338 131.172 167.114C130.463 166.89 129.811 166.513 129.263 166.01L113.345 174.586L114.179 165.227L129.167 158.518C130.073 157.654 131.264 157.151 132.516 157.107C133.767 157.062 134.992 157.478 135.957 158.276C136.922 159.074 137.562 160.198 137.753 161.435C137.945 162.673 137.676 163.938 136.998 164.991L136.998 164.991Z" fill="#A0616A"/>
<path d="M75.9087 166.181L101.747 170.549L124.902 159.618L128.417 167.135L103.069 183.281C103.069 183.281 76.2337 185.103 70.0292 178.026C67.7026 175.372 67.4366 172.956 68.013 170.974C68.5179 169.349 69.5993 167.965 71.0535 167.083C72.5078 166.2 74.2346 165.879 75.9087 166.181Z" fill="#6C63FF"/>
<path d="M74.5494 156.591C74.6088 156.538 74.6549 156.472 74.6842 156.398C74.7135 156.324 74.725 156.244 74.718 156.164C74.7109 156.085 74.6855 156.008 74.6437 155.94C74.6018 155.872 74.5448 155.815 74.477 155.773C73.3734 155.09 72.4743 154.122 71.8741 152.971C71.2739 151.82 70.9948 150.529 71.066 149.233C71.1372 147.937 71.5562 146.684 72.279 145.605C73.0017 144.527 74.0015 143.663 75.1733 143.105C78.8269 141.363 83.7778 142.718 86.4788 139.371C87.028 138.655 87.4165 137.828 87.6175 136.949C87.8186 136.069 87.8275 135.156 87.6438 134.272C87.061 131.11 84.6842 128.762 82.0224 127.153C78.7525 125.177 74.9943 124.155 71.1737 124.205C67.3531 124.255 63.6228 125.373 60.4054 127.434C57.1881 129.495 54.6123 132.416 52.9699 135.866C51.3276 139.316 50.6843 143.157 51.113 146.954C51.4566 149.997 52.3955 153.409 50.5861 155.88C48.9937 158.054 45.9878 158.462 43.3473 159.002C37.6839 160.161 32.2202 162.834 28.3769 167.153C24.5336 171.471 22.4833 177.529 23.6421 183.193C24.8008 188.856 29.4496 193.833 35.1633 194.711C39.8141 195.426 44.6162 193.45 48.0315 190.214C51.4467 186.977 53.6055 182.606 54.9671 178.102C56.5833 172.757 57.2208 166.996 60.1386 162.234C62.9938 157.574 69.1468 154.234 73.9692 156.661C74.0617 156.709 74.1666 156.728 74.2701 156.716C74.3736 156.703 74.471 156.66 74.5494 156.591Z" fill="#2F2E41"/>
<path d="M434.681 248.577C435.354 248.242 435.944 247.764 436.412 247.176C436.88 246.588 437.213 245.905 437.388 245.175C437.564 244.444 437.577 243.684 437.426 242.948C437.276 242.212 436.966 241.518 436.518 240.915L448.492 174.65L437.319 174.503L429.004 240.03C428.04 240.849 427.41 241.993 427.234 243.246C427.057 244.498 427.346 245.772 428.046 246.825C428.746 247.879 429.808 248.639 431.031 248.962C432.254 249.284 433.552 249.147 434.681 248.577H434.681Z" fill="#FFB8B8"/>
<path d="M400.003 245.436L395.761 265.584L396.292 310.653H404.245L407.957 266.644L413.789 248.087L400.003 245.436Z" fill="#FFB8B8"/>
<path d="M426.288 246.947L422.047 267.096L422.577 312.165H430.53L434.242 268.156L440.074 249.598L426.288 246.947Z" fill="#FFB8B8"/>
<path d="M393.514 310.14L406.05 310.109L406.07 318.002L385.64 318.053C385.638 317.017 385.839 315.99 386.234 315.031C386.628 314.073 387.207 313.201 387.938 312.466C388.669 311.731 389.538 311.148 390.495 310.749C391.451 310.35 392.477 310.143 393.514 310.14Z" fill="#2F2E41"/>
<path d="M419.995 310.993L432.531 310.961L432.551 318.855L412.121 318.906C412.119 317.869 412.32 316.843 412.714 315.884C413.109 314.925 413.688 314.054 414.419 313.319C415.15 312.584 416.019 312 416.976 311.601C417.932 311.202 418.958 310.995 419.995 310.993Z" fill="#2F2E41"/>
<path d="M419.356 146.625C426.549 146.625 432.379 140.794 432.379 133.602C432.379 126.41 426.549 120.579 419.356 120.579C412.164 120.579 406.333 126.41 406.333 133.602C406.333 140.794 412.164 146.625 419.356 146.625Z" fill="#FFB8B8"/>
<path d="M448.136 165.812C444.174 159.595 431.733 144.85 413.222 153.314C411.764 153.988 410.547 155.093 409.735 156.48C408.923 157.867 408.554 159.469 408.68 161.071C409.575 172.894 410.706 203.018 401.064 221.045C401.064 221.045 429.165 229.528 444.542 221.575C444.542 221.575 439.24 186.05 444.542 179.157C446.31 176.954 447.742 174.502 448.79 171.879C449.159 170.886 449.291 169.821 449.178 168.768C449.064 167.716 448.707 166.704 448.136 165.812Z" fill="#3F3D56"/>
<path d="M442.951 165.371L448.155 167.539C448.501 167.684 448.799 167.924 449.014 168.232C449.228 168.539 449.35 168.902 449.366 169.277L449.844 180.748L438.179 179.687L442.951 165.371Z" fill="#3F3D56"/>
<path d="M403.184 219.984C403.184 219.984 391.52 241.724 393.64 261.872L410.077 264.523L421.742 236.421L419.091 265.053L436.058 265.584C436.058 265.584 447.193 224.226 443.481 220.515L403.184 219.984Z" fill="#2F2E41"/>
<path d="M386.617 221.925C387.36 221.811 388.068 221.536 388.693 221.119C389.318 220.702 389.844 220.153 390.233 219.511C390.623 218.869 390.867 218.149 390.949 217.402C391.03 216.655 390.947 215.9 390.704 215.189L414.367 170.581L403.772 167.032L383.818 212.054C382.65 212.54 381.701 213.437 381.151 214.576C380.601 215.715 380.488 217.016 380.833 218.233C381.178 219.449 381.958 220.497 383.024 221.178C384.09 221.858 385.368 222.124 386.617 221.925H386.617Z" fill="#FFB8B8"/>
<path d="M417.598 158.505L413.215 156.545C413.215 156.545 409.499 154.241 406.205 159.31C402.911 164.379 399.353 175.488 399.353 175.488L413.653 179.512L417.598 158.505Z" fill="#3F3D56"/>
<path d="M421.442 139.871C421.91 138.248 421.775 136.051 420.201 135.437C419.381 135.117 418.466 135.369 417.59 135.459C415.877 135.627 414.162 135.155 412.775 134.134C411.147 132.924 410.142 131.074 409.187 129.284L407.743 126.577C407.421 126.012 407.147 125.422 406.923 124.813C406.119 122.423 406.992 119.656 408.778 117.876C410.645 116.14 413.102 115.177 415.652 115.182C418.181 115.2 420.681 115.735 422.996 116.755C427.111 118.432 430.838 120.936 433.947 124.112C435.978 126.19 437.828 128.898 437.404 131.774C437.073 134.012 435.442 135.804 433.886 137.447L428.241 143.405C427.242 144.46 426.174 145.558 424.778 145.964C423.383 146.369 421.585 145.774 421.204 144.371C421.204 144.371 420.975 141.495 421.442 139.871Z" fill="#2F2E41"/>
<path d="M499.47 319.057H0.530223C0.389599 319.057 0.254734 319.002 0.155298 318.902C0.0558622 318.803 0 318.668 0 318.527C0 318.387 0.0558622 318.252 0.155298 318.152C0.254734 318.053 0.389599 317.997 0.530223 317.997H499.47C499.61 317.997 499.745 318.053 499.845 318.152C499.944 318.252 500 318.387 500 318.527C500 318.668 499.944 318.803 499.845 318.902C499.745 319.002 499.61 319.057 499.47 319.057Z" fill="#3F3D56"/>
<path d="M336.18 156.582H321.334C320.912 156.582 320.507 156.414 320.209 156.116C319.911 155.818 319.743 155.413 319.743 154.991C319.743 154.569 319.911 154.165 320.209 153.866C320.507 153.568 320.912 153.4 321.334 153.4H336.18C336.602 153.4 337.006 153.568 337.305 153.866C337.603 154.165 337.771 154.569 337.771 154.991C337.771 155.413 337.603 155.818 337.305 156.116C337.006 156.414 336.602 156.582 336.18 156.582Z" fill="#6C63FF"/>
<path d="M336.18 149.689H321.334C320.912 149.689 320.507 149.522 320.209 149.223C319.911 148.925 319.743 148.52 319.743 148.098C319.743 147.677 319.911 147.272 320.209 146.974C320.507 146.675 320.912 146.508 321.334 146.508H336.18C336.602 146.508 337.006 146.675 337.305 146.974C337.603 147.272 337.771 147.677 337.771 148.098C337.771 148.52 337.603 148.925 337.305 149.223C337.006 149.522 336.602 149.689 336.18 149.689Z" fill="#6C63FF"/>
<path d="M336.18 142.796H321.334C320.912 142.796 320.507 142.628 320.209 142.33C319.911 142.031 319.743 141.627 319.743 141.205C319.743 140.783 319.911 140.378 320.209 140.08C320.507 139.782 320.912 139.614 321.334 139.614H336.18C336.602 139.614 337.006 139.782 337.305 140.08C337.603 140.378 337.771 140.783 337.771 141.205C337.771 141.627 337.603 142.031 337.305 142.33C337.006 142.628 336.602 142.796 336.18 142.796Z" fill="#6C63FF"/>
</svg>
