<svg width="800" height="437" viewBox="0 0 800 437" fill="none" xmlns="http://www.w3.org/2000/svg">
<path opacity="0.1" d="M791.52 404.995C788.415 412.656 784.593 420.007 780.104 426.949C777.999 430.26 775.69 433.436 773.19 436.459C773.167 436.49 773.142 436.518 773.113 436.542H0L0.104348 436.459C0.8 435.916 4.88348 432.612 11.2348 426.949C15.7913 422.894 21.5096 417.621 27.9304 411.276C80.4452 359.624 181.322 237.363 97.3078 125.363C19.207 21.245 103.297 2.35111 158.769 0.145888C180.081 -0.689035 201.343 2.78676 221.28 10.365C246.908 20.1042 293.746 35.0328 354.769 41.8781C356.772 42.1007 358.79 42.3233 360.835 42.525C393.142 45.8145 425.667 46.4056 458.073 44.292C459.026 44.2363 459.986 44.1667 460.953 44.0972C493.01 41.8462 524.824 36.9248 556.063 29.3841C558.087 28.8902 560.083 28.4241 562.073 27.9581C666.163 3.87458 762.122 85.9546 738.129 178.713C729.259 213.022 731.513 249.593 761.085 279.179C809.503 327.471 803.638 375.033 791.52 404.995Z" fill="#6C63FF"/>
<path d="M791.52 404.995C788.415 412.657 784.593 420.008 780.104 426.95C777.999 430.26 775.69 433.436 773.189 436.459H0.10434C0.799992 435.917 4.88347 432.612 11.2348 426.95C15.7913 422.894 21.5096 417.621 27.9304 411.277L109.412 394.442C110.465 394.225 111.537 394.115 112.612 394.115L199.478 393.99H199.569L242.595 393.934H242.692L279.005 393.892H302.776H327.123L426.894 393.753H427.054H434.783H448.362H465.315H469.823L486.956 393.559H492.619L542.456 393.489H558.372H566.024L623.59 393.412H640.73L695.256 393.336L741.28 393.28C742.562 393.281 743.839 393.433 745.085 393.732L791.52 404.995Z" fill="#454B69"/>
<path opacity="0.4" d="M11.2348 426.949H780.104C777.999 430.26 775.69 433.436 773.19 436.459H0.10434C0.786079 435.881 4.86956 432.577 11.2348 426.949Z" fill="black"/>
<path d="M510.066 210.602L508.522 210.901L438.706 224.313C418.428 228.209 397.857 232.125 377.259 230.629C362.337 229.544 348.397 225.12 334.059 221.238C325.955 219.04 317.363 218.163 314.616 209.092C310.824 196.57 316.995 178.031 318.449 165.342C319.84 152.89 320.661 140.125 318.184 127.819C317.634 125.054 316.909 122.326 316.014 119.652C313.53 112.285 309.628 104.626 311.736 97.1477C313.398 91.2138 318.47 86.9772 323.214 83.0537C332.508 75.4016 341.996 66.8242 345.683 55.3529C347.492 49.7877 347.833 43.7981 349.781 38.2746C353.475 27.7703 362.755 19.9164 373.078 15.7564C383.402 11.5964 394.755 10.7129 405.892 10.7129C415.726 10.7134 425.55 11.3665 435.297 12.6677C445.927 14.059 456.654 16.3477 465.997 21.6207C475.339 26.8938 483.214 35.5338 485.391 46.0659C488.473 60.9598 479.917 76.8207 484.508 91.2833C486.817 98.5946 492.16 104.501 495.868 111.193C498.891 116.791 500.757 122.94 501.355 129.274C501.952 135.608 501.269 141.998 499.346 148.062C494.908 161.815 484.042 175.729 489.607 189.064C493.148 197.544 502.191 202.073 508.494 208.793C509.055 209.396 509.579 209.999 510.066 210.602Z" fill="#454B69"/>
<path opacity="0.1" d="M508.522 208.848V210.9L438.706 224.313C418.428 228.208 397.857 232.125 377.259 230.629C362.337 229.544 348.396 225.12 334.059 221.238C325.955 219.04 317.363 218.163 314.616 209.092C310.824 196.57 316.995 178.031 318.449 165.342C319.84 152.89 341.259 107.429 338.783 95.123L466.783 100.688C467.645 107.485 501.475 141.6 499.367 148.118C494.929 161.871 484.063 175.784 489.628 189.12C493.176 197.6 502.219 202.128 508.522 208.848Z" fill="black"/>
<path d="M377.739 174.428C378.497 178.734 378.901 183.471 376.703 187.228C373.774 192.264 367.388 193.871 361.676 195.012L341.85 198.977C340.501 199.249 339.068 199.555 338.059 200.48C336.87 201.544 336.466 203.228 336.292 204.814C335.492 211.993 338.031 219.068 340.348 225.906C345.03 239.756 348.96 253.899 354.88 267.263C360.8 280.626 368.925 293.384 380.522 302.316C392.118 311.249 407.464 316.007 421.663 312.515C434.031 309.475 444.174 300.744 452.918 291.485C460.132 283.833 466.88 275.485 470.379 265.558C472.793 258.741 473.579 251.478 474.337 244.285C475.511 233.257 476.684 222.228 477.857 211.2C478.407 206.024 478.769 200.202 475.409 196.229C473.934 194.483 471.93 193.322 469.885 192.243C462.275 188.202 454.261 184.862 447.179 179.993C440.097 175.123 433.816 168.417 431.666 160.097C430.379 155.102 430.609 149.662 428.417 145.009C425.969 139.791 420.765 136.257 415.2 134.706C409.635 133.155 403.763 133.363 398.031 134.01C392.299 134.657 370.205 136.313 367.833 142.776C366.56 146.254 371.84 153.718 373.092 157.141C375.153 162.753 376.709 168.538 377.739 174.428Z" fill="#EFB7B9"/>
<path opacity="0.1" d="M377.739 174.428C378.497 178.734 378.901 183.471 376.703 187.228C373.774 192.264 367.388 193.871 361.676 195.012L341.85 198.977C340.501 199.249 339.068 199.555 338.059 200.48C336.87 201.544 336.466 203.228 336.292 204.814C335.492 211.993 338.031 219.068 340.348 225.906C345.03 239.756 348.96 253.899 354.88 267.263C360.8 280.626 368.925 293.384 380.522 302.316C392.118 311.249 407.464 316.007 421.663 312.515C434.031 309.475 444.174 300.744 452.918 291.485C460.132 283.833 466.88 275.485 470.379 265.558C472.793 258.741 473.579 251.478 474.337 244.285C475.511 233.257 476.684 222.228 477.857 211.2C478.407 206.024 478.769 200.202 475.409 196.229C473.934 194.483 471.93 193.322 469.885 192.243C462.275 188.202 454.261 184.862 447.179 179.993C440.097 175.123 433.816 168.417 431.666 160.097C430.379 155.102 430.609 149.662 428.417 145.009C425.969 139.791 420.765 136.257 415.2 134.706C409.635 133.155 403.763 133.363 398.031 134.01C392.299 134.657 370.205 136.313 367.833 142.776C366.56 146.254 371.84 153.718 373.092 157.141C375.153 162.753 376.709 168.538 377.739 174.428Z" fill="black"/>
<path d="M425.454 250.073L437.078 225.461C442.525 213.927 448.09 201.809 447.513 189.071C447.402 186.539 447.374 183.374 449.6 182.226C450.566 181.832 451.619 181.697 452.654 181.837C464.892 182.462 476.968 184.905 488.487 189.085C490.72 189.892 493.009 190.825 494.574 192.605C496.139 194.386 496.772 196.779 497.308 199.075C499.132 206.837 500.464 214.707 501.294 222.637C503.381 242.268 502.344 262.073 501.294 281.767L498.205 341.892C498.222 342.745 498.048 343.591 497.697 344.369C496.932 345.76 495.207 346.226 493.656 346.491C487.68 347.513 481.572 347.305 475.52 347.075C432.946 345.461 390.15 342.985 347.854 348.146C348.044 341.89 347.944 335.629 347.555 329.364C345.878 302.31 338.866 275.917 331.979 249.705C327.965 234.4 324.077 217.705 330.539 203.284C331.489 201.006 332.855 198.926 334.567 197.148C337.315 194.456 341.064 193.037 344.779 192.021C351.187 190.278 357.824 189.527 364.459 189.795L408.32 285.287C410.323 289.656 411.972 294.254 413.969 298.567C415.763 291.117 413.607 282.386 415.763 274.31C418.087 265.927 421.746 257.906 425.454 250.073Z" fill="white"/>
<path d="M420.87 315.778C428.717 316.271 436.341 312.251 441.739 306.567C447.137 300.884 450.699 293.677 453.711 286.393C458.042 276.011 461.483 265.28 464 254.317C466.087 244.995 467.569 235.346 466.129 225.899C464.139 212.856 456.758 201.002 455.499 187.868C455.284 185.572 455.423 182.887 457.266 181.503C458.407 180.647 459.91 180.529 461.329 180.445C474.449 179.666 488.863 179.812 499.026 188.139C502.122 190.671 504.633 193.837 507.659 196.445C514.866 202.706 525.05 205.892 529.677 214.205C531.29 217.099 532.063 220.376 533.19 223.492C535.847 230.866 540.445 237.35 545.016 243.729C540.584 262.428 535.492 281.141 531.061 299.84C528.466 310.811 525.85 321.823 521.774 332.327C519.103 339.214 515.743 346.24 516.563 353.614C516.89 356.515 517.857 359.291 518.699 362.087C521.65 371.902 523.033 382.122 522.797 392.369L324.299 392.856C333.809 379.221 336.598 362.497 335.631 345.906C335.165 337.955 333.37 329.955 329.37 323.075C323.068 312.292 311.979 305.266 301.05 299.249C293.398 295.075 285.183 318.56 276.911 315.868C278.247 306.421 278.859 269.955 278.303 260.445C278.122 257.329 277.843 254.129 278.803 251.151C279.457 249.113 280.661 247.291 281.475 245.308C284.737 237.371 281.628 227.221 286.901 220.466C290.546 215.771 296.939 214.435 302.136 211.541C307.471 208.564 311.597 203.889 316.243 199.896C325.362 192.153 336.503 187.179 348.355 185.558C351.812 191.012 353.914 197.214 354.483 203.645C354.838 207.687 354.581 211.784 355.144 215.805C355.917 221.252 358.17 226.365 360.404 231.402C369.704 252.404 379.04 273.468 390.824 293.19C394.157 298.755 397.781 304.32 402.609 308.654C407.437 312.988 414.386 316.084 420.87 315.778Z" fill="#6C63FF"/>
<path opacity="0.1" d="M420.87 315.778C428.717 316.271 436.341 312.251 441.739 306.567C447.137 300.884 450.699 293.677 453.711 286.393C458.042 276.011 461.483 265.28 464 254.317C466.087 244.995 467.569 235.346 466.129 225.899C464.139 212.856 456.758 201.002 455.499 187.868C455.284 185.572 455.423 182.887 457.266 181.503C458.407 180.647 459.91 180.529 461.329 180.445C474.449 179.666 488.863 179.812 499.026 188.139C502.122 190.671 504.633 193.837 507.659 196.445C514.866 202.706 525.05 205.892 529.677 214.205C531.29 217.099 532.063 220.376 533.19 223.492C535.847 230.866 540.445 237.35 545.016 243.729C540.584 262.428 535.492 281.141 531.061 299.84C528.466 310.811 525.85 321.823 521.774 332.327C519.103 339.214 515.743 346.24 516.563 353.614C516.89 356.515 517.857 359.291 518.699 362.087C521.65 371.902 523.033 382.122 522.797 392.369L324.299 392.856C333.809 379.221 336.598 362.497 335.631 345.906C335.165 337.955 333.37 329.955 329.37 323.075C323.068 312.292 311.979 305.266 301.05 299.249C293.398 295.075 285.183 318.56 276.911 315.868C278.247 306.421 278.859 269.955 278.303 260.445C278.122 257.329 277.843 254.129 278.803 251.151C279.457 249.113 280.661 247.291 281.475 245.308C284.737 237.371 281.628 227.221 286.901 220.466C290.546 215.771 296.939 214.435 302.136 211.541C307.471 208.564 311.597 203.889 316.243 199.896C325.362 192.153 336.503 187.179 348.355 185.558C351.812 191.012 353.914 197.214 354.483 203.645C354.838 207.687 354.581 211.784 355.144 215.805C355.917 221.252 358.17 226.365 360.404 231.402C369.704 252.404 379.04 273.468 390.824 293.19C394.157 298.755 397.781 304.32 402.609 308.654C407.437 312.988 414.386 316.084 420.87 315.778Z" fill="black"/>
<path d="M410.372 172.849C443.306 172.849 470.003 146.151 470.003 113.217C470.003 80.2838 443.306 53.5859 410.372 53.5859C377.439 53.5859 350.741 80.2838 350.741 113.217C350.741 146.151 377.439 172.849 410.372 172.849Z" fill="#EFB7B9"/>
<path d="M379.082 192.681C380.717 177.252 374.303 162.156 367.04 148.445C363.562 141.892 359.833 135.36 358.087 128.16C356.341 120.96 356.842 112.807 361.308 106.887C365.106 101.85 371.13 99.13 376.703 96.1735C392.431 87.8257 406.81 75.5544 413.725 59.1439C409.816 61.2726 410.831 67.6239 414.282 70.4274C417.732 73.2309 422.435 73.7735 426.678 75.1091C442.15 79.9787 451.43 95.4083 458.873 109.822C460.09 112.173 461.329 114.657 461.315 117.307C461.301 119.958 460.09 122.309 458.824 124.563C455.151 131.102 450.657 137.384 448.988 144.695C447.075 153.043 449.092 161.822 451.715 170.01C454.497 178.72 458.191 187.499 464.87 193.746C471.548 199.993 481.906 203.095 490.122 199.06C481.92 184.96 473.426 169.203 476.626 153.217C478.17 145.565 482.323 138.608 484.09 130.998C487.457 116.48 481.85 101.544 476.348 87.6865L459.903 46.33C457.391 40.0065 454.532 33.2587 448.772 29.6761C444.877 27.2622 440.16 26.6361 435.597 26.1978C420.904 24.89 405.683 25.3213 392.007 30.7891C367.089 40.7439 351.464 65.2865 339.068 89.0917C335.353 96.2222 331.687 103.798 331.84 111.84C331.923 116.25 333.155 120.542 334.157 124.841C338.233 142.344 338.456 160.48 338.664 178.448C338.824 192.236 338.108 205.231 332.077 217.787C340.341 219.429 352.327 223.86 360.508 220.619C371.172 216.403 377.739 203.415 379.082 192.681Z" fill="#454B69"/>
<g opacity="0.1">
<path opacity="0.1" d="M338.63 178.156C338.657 176.194 338.657 174.214 338.63 172.215C338.421 154.246 338.198 136.111 334.122 118.608C333.211 115.202 332.5 111.746 331.993 108.257C331.85 109.455 331.787 110.661 331.805 111.867C331.889 116.278 333.12 120.57 334.122 124.869C338.177 142.267 338.428 160.292 338.63 178.156Z" fill="black"/>
<path opacity="0.1" d="M484.09 130.998C485.004 126.933 485.308 122.756 484.995 118.602C484.858 120.668 484.556 122.72 484.09 124.737C482.323 132.389 478.17 139.283 476.626 146.956C475.961 150.341 475.773 153.802 476.07 157.238C476.18 155.889 476.366 154.546 476.626 153.217C478.17 145.544 482.323 138.622 484.09 130.998Z" fill="black"/>
<path opacity="0.1" d="M460.772 114.114C461.112 113.126 461.295 112.091 461.315 111.047C461.315 108.396 460.09 105.913 458.873 103.561C451.43 89.1475 442.177 73.7319 426.678 68.8484C422.435 67.5127 417.739 66.9701 414.282 64.1667C413.392 63.4004 412.664 62.4643 412.141 61.4131C411.618 60.3619 411.31 59.2168 411.235 58.0449C403.694 71.8884 390.741 82.4762 376.703 89.9128C371.137 92.8693 365.106 95.5893 361.308 100.626C357.739 105.356 356.703 111.513 357.322 117.468C357.673 113.646 359.05 109.99 361.308 106.887C365.106 101.85 371.13 99.1301 376.703 96.1736C390.741 88.7371 403.694 78.1493 411.235 64.3058C411.31 65.4776 411.618 66.6227 412.141 67.6739C412.664 68.7251 413.392 69.6613 414.282 70.4275C417.76 73.2101 422.435 73.7736 426.678 75.1093C442.15 79.9788 451.43 95.4084 458.873 109.822C459.628 111.196 460.263 112.632 460.772 114.114Z" fill="black"/>
<path opacity="0.1" d="M464.87 187.485C458.191 181.224 454.511 172.459 451.715 163.749C450.037 158.857 448.917 153.79 448.376 148.646C447.729 155.791 449.503 163.102 451.715 170.01C454.497 178.72 458.191 187.499 464.87 193.746C471.548 199.993 481.906 203.095 490.122 199.06C489.134 197.37 488.153 195.652 487.179 193.92C479.548 196.069 470.783 193.008 464.87 187.485Z" fill="black"/>
<path opacity="0.1" d="M379.082 186.42C377.739 197.154 371.172 210.142 360.48 214.385C353.057 217.328 342.49 213.947 334.428 212.076C333.734 214.029 332.94 215.944 332.049 217.815C340.313 219.457 352.299 223.888 360.48 220.646C371.172 216.403 377.739 203.415 379.082 192.681C379.358 189.996 379.41 187.292 379.235 184.598C379.193 185.203 379.13 185.815 379.082 186.42Z" fill="black"/>
</g>
<path d="M463.374 358.901C452.626 357.196 441.718 353.906 431.061 356.118C424.884 357.398 419.235 360.473 414.101 364.188C416.925 366.448 420.223 368.466 422.017 371.61C423.131 373.786 423.968 376.092 424.508 378.476C425.635 382.65 426.769 386.907 426.943 391.248C427.117 395.589 426.247 400.111 423.659 403.61C437.21 404.946 450.344 401.607 463.562 398.344C465.073 398.079 466.512 397.498 467.784 396.64C469.871 394.998 470.483 392.076 470.497 389.412C470.497 384.654 469.162 380.014 467.805 375.45C466.191 369.975 464.995 364.341 463.374 358.901Z" fill="white"/>
<path d="M535.944 241.566C541.28 242.261 545.419 246.567 548.466 250.992C557.016 263.305 560.703 278.233 564.807 292.654C569.908 310.588 575.907 328.239 582.803 345.607C584.288 349.618 586.093 353.503 588.202 357.225C589.92 360.098 592.007 362.859 592.765 366.122C594.602 374.011 588.097 381.426 581.315 385.823C577.7 388.26 573.752 390.162 569.593 391.472C565.544 392.682 561.322 393.141 557.127 393.6L518.511 397.774C500.737 399.708 482.803 401.642 465.023 399.778C463.903 395.882 466.101 393.127 465.941 389.072C465.83 386.171 464.55 383.472 463.409 380.8C461.305 376.043 459.915 371 459.283 365.837C459.082 363.938 459.012 361.99 458.289 360.223C457.565 358.456 456.014 356.87 454.115 356.745C464.55 355.708 472.473 353.739 482.908 352.696C486.783 352.306 490.81 351.868 494.115 349.809C498.212 347.256 500.508 342.651 502.33 338.185C506.845 327.124 509.753 314.936 507.381 303.221C505.433 293.614 500 284.668 500.028 274.866C500.028 269.03 502.017 263.374 504.369 258.032C506.859 252.383 510.108 246.609 515.576 243.743C521.043 240.877 529.774 240.731 535.944 241.566Z" fill="#6C63FF"/>
<path opacity="0.08" d="M535.944 241.566C541.28 242.261 545.419 246.567 548.466 250.992C557.016 263.305 560.703 278.233 564.807 292.654C569.908 310.588 575.907 328.239 582.803 345.607C584.288 349.618 586.093 353.503 588.202 357.225C589.92 360.098 592.007 362.859 592.765 366.122C594.602 374.011 588.097 381.426 581.315 385.823C577.7 388.26 573.752 390.162 569.593 391.472C565.544 392.682 561.322 393.141 557.127 393.6L518.511 397.774C500.737 399.708 482.803 401.642 465.023 399.778C463.903 395.882 466.101 393.127 465.941 389.072C465.83 386.171 464.55 383.472 463.409 380.8C461.305 376.043 459.915 371 459.283 365.837C459.082 363.938 459.012 361.99 458.289 360.223C457.565 358.456 456.014 356.87 454.115 356.745C464.55 355.708 472.473 353.739 482.908 352.696C486.783 352.306 490.81 351.868 494.115 349.809C498.212 347.256 500.508 342.651 502.33 338.185C506.845 327.124 509.753 314.936 507.381 303.221C505.433 293.614 500 284.668 500.028 274.866C500.028 269.03 502.017 263.374 504.369 258.032C506.859 252.383 510.108 246.609 515.576 243.743C521.043 240.877 529.774 240.731 535.944 241.566Z" fill="black"/>
<path d="M294.129 232.529C296.654 226.532 299.221 220.341 299.29 213.836C299.367 206.803 296.508 200.125 294.323 193.447C291.622 185.276 289.824 176.834 288.96 168.271C288.781 167.451 288.904 166.594 289.308 165.857C289.885 165.043 290.998 164.876 291.979 164.661C296.793 163.562 300.431 159.673 303.437 155.756C308.099 149.708 312.035 143.133 315.165 136.167C317.468 131.04 320.584 124.786 326.205 124.737C323.942 135.366 321.137 145.873 317.802 156.216C323.68 154.713 329.266 152.529 335.144 151.026C336.295 150.663 337.5 150.503 338.706 150.553C342.226 150.922 344.383 155.687 342.337 158.574C345.21 161.941 349.99 162.845 353.746 165.155C357.503 167.464 360.202 173.183 356.863 176.083C356.209 176.647 355.381 177.043 354.908 177.767C353.294 180.257 357.245 183.116 356.918 186.066C356.654 188.48 353.558 189.607 351.214 188.967C348.87 188.327 347.04 186.574 344.953 185.287C342.866 184 340.139 183.2 338.115 184.536C337.572 191.082 336.988 197.753 334.157 203.715C333.12 205.892 331.791 207.93 330.957 210.191C330.158 212.656 329.663 215.21 329.482 217.795L326.957 240.883C314.908 243.297 304.104 239.687 294.129 232.529Z" fill="#EFB7B9"/>
<path d="M291.186 253.225L288.967 238.206C288.755 236.983 288.636 235.746 288.612 234.505C288.612 231.026 290.143 227.708 291.624 224.543C303.903 230.275 317.176 232.313 330.72 232.32C332.508 232.32 334.546 232.153 335.659 230.755C337.962 233.406 338.031 237.67 337.05 241.037C336.07 244.404 334.184 247.437 332.932 250.72C332.299 252.383 331.784 254.199 330.574 255.479C328.696 257.503 325.649 257.851 322.88 257.837C319.967 257.819 317.062 257.542 314.198 257.009C306.783 255.632 298.602 251.896 291.186 253.225Z" fill="white"/>
<path d="M336.981 252.613C327.45 251.527 317.983 249.997 308.577 248.021C303.965 247.054 299.311 245.976 294.609 246.164C291.548 246.289 288.257 246.901 285.565 245.385C288.188 254.31 288.348 263.715 285.21 272.473C283.353 277.691 280.522 282.553 279.158 287.924C276.32 299.159 280.216 311.409 276.668 322.442C276.293 323.884 275.555 325.206 274.525 326.282C273.44 327.277 271.958 327.792 270.957 328.87C269.482 330.456 269.391 332.842 269.384 335.006L269.322 354.171C269.28 366.373 269.44 379.312 275.882 389.649C283.228 401.475 298.692 407.604 312.153 404.007C315.732 403.092 319.085 401.451 322.003 399.186C326.678 395.472 329.656 390.101 332.57 384.87C336.049 378.609 339.527 372.209 340.647 365.162C341.44 360.174 340.995 355.082 340.424 350.066C337.28 322.24 330.456 294.651 331.923 266.72C332.143 261.614 333.907 256.695 336.981 252.613Z" fill="#6C63FF"/>
<path d="M376.814 368.09C371.979 368.368 367.11 368.647 362.296 368.09C358.817 367.673 355.423 366.817 351.972 366.233C342.549 364.711 332.908 365.246 323.711 367.801C314.515 370.357 305.98 374.871 298.692 381.036C296.021 383.318 293.322 386.817 294.797 390.01C296.383 393.447 301.231 393.349 304.967 392.709C300.935 394.635 297.373 397.42 294.532 400.869C293.489 402.142 292.501 403.652 292.703 405.301C293.127 408.744 297.802 409.37 301.259 409.071C300.132 410.281 300.89 412.424 302.323 413.245C303.757 414.066 305.537 413.899 307.158 413.6C310.742 412.943 314.204 411.745 317.426 410.045C316.772 411.749 317.906 413.746 319.513 414.594C321.12 415.443 323.075 415.381 324.877 415.088C333.377 413.697 340.473 407.784 348.765 405.461C362.024 401.753 375.896 407.666 389.676 408.083C393.99 408.215 398.414 407.777 402.344 405.996C407.165 403.805 411.054 399.694 416.146 398.233C421.802 396.619 428.292 398.476 433.468 395.687C437.231 393.662 433.837 378.059 432.877 375.054C431.117 369.558 429.35 365.913 423.485 365.356C408.647 363.902 391.763 367.227 376.814 368.09Z" fill="#EFB7B9"/>
<path d="M413.83 363.833C413.83 363.833 436.292 382.845 423.332 403.59L448.376 394.943V376.793C448.376 375.93 438.866 362.97 438.866 362.97L427.631 361.238L413.83 363.833Z" fill="white"/>
<path d="M178.637 362.657H187.061C191.673 362.657 196.097 364.49 199.358 367.751C202.62 371.013 204.452 375.436 204.452 380.049V405.864H161.245V380.049C161.245 377.765 161.695 375.503 162.569 373.393C163.443 371.283 164.724 369.366 166.339 367.751C167.954 366.136 169.871 364.855 171.981 363.981C174.091 363.107 176.353 362.657 178.637 362.657Z" fill="#3F3D56"/>
<path opacity="0.1" d="M178.637 362.657H187.061C191.673 362.657 196.097 364.49 199.358 367.751C202.62 371.013 204.452 375.436 204.452 380.049V405.864H161.245V380.049C161.245 377.765 161.695 375.503 162.569 373.393C163.443 371.283 164.724 369.366 166.339 367.751C167.954 366.136 169.871 364.855 171.981 363.981C174.091 363.107 176.353 362.657 178.637 362.657Z" fill="black"/>
<path d="M181.12 372.16C183.029 372.16 184.577 370.612 184.577 368.703C184.577 366.793 183.029 365.245 181.12 365.245C179.211 365.245 177.663 366.793 177.663 368.703C177.663 370.612 179.211 372.16 181.12 372.16Z" fill="#3F3D56"/>
<path d="M181.12 367.84C183.029 367.84 184.577 366.292 184.577 364.382C184.577 362.473 183.029 360.925 181.12 360.925C179.211 360.925 177.663 362.473 177.663 364.382C177.663 366.292 179.211 367.84 181.12 367.84Z" fill="#3F3D56"/>
<path d="M181.12 363.52C183.029 363.52 184.577 361.972 184.577 360.063C184.577 358.153 183.029 356.605 181.12 356.605C179.211 356.605 177.663 358.153 177.663 360.063C177.663 361.972 179.211 363.52 181.12 363.52Z" fill="#3F3D56"/>
<path d="M181.12 359.2C183.029 359.2 184.577 357.652 184.577 355.743C184.577 353.833 183.029 352.285 181.12 352.285C179.211 352.285 177.663 353.833 177.663 355.743C177.663 357.652 179.211 359.2 181.12 359.2Z" fill="#3F3D56"/>
<path d="M181.12 354.88C183.029 354.88 184.577 353.332 184.577 351.422C184.577 349.513 183.029 347.965 181.12 347.965C179.211 347.965 177.663 349.513 177.663 351.422C177.663 353.332 179.211 354.88 181.12 354.88Z" fill="#3F3D56"/>
<path d="M181.12 350.56C183.029 350.56 184.577 349.012 184.577 347.103C184.577 345.193 183.029 343.646 181.12 343.646C179.211 343.646 177.663 345.193 177.663 347.103C177.663 349.012 179.211 350.56 181.12 350.56Z" fill="#3F3D56"/>
<path d="M181.12 346.233C183.029 346.233 184.577 344.685 184.577 342.776C184.577 340.866 183.029 339.318 181.12 339.318C179.211 339.318 177.663 340.866 177.663 342.776C177.663 344.685 179.211 346.233 181.12 346.233Z" fill="#3F3D56"/>
<path d="M186.31 347.966C188.219 347.966 189.767 346.418 189.767 344.508C189.767 342.599 188.219 341.051 186.31 341.051C184.4 341.051 182.852 342.599 182.852 344.508C182.852 346.418 184.4 347.966 186.31 347.966Z" fill="#3F3D56"/>
<path d="M189.767 346.233C191.676 346.233 193.224 344.685 193.224 342.776C193.224 340.866 191.676 339.318 189.767 339.318C187.858 339.318 186.31 340.866 186.31 342.776C186.31 344.685 187.858 346.233 189.767 346.233Z" fill="#3F3D56"/>
<path d="M193.224 344.508C195.134 344.508 196.682 342.96 196.682 341.05C196.682 339.141 195.134 337.593 193.224 337.593C191.315 337.593 189.767 339.141 189.767 341.05C189.767 342.96 191.315 344.508 193.224 344.508Z" fill="#3F3D56"/>
<path d="M181.12 341.913C183.029 341.913 184.577 340.365 184.577 338.455C184.577 336.546 183.029 334.998 181.12 334.998C179.211 334.998 177.663 336.546 177.663 338.455C177.663 340.365 179.211 341.913 181.12 341.913Z" fill="#3F3D56"/>
<path d="M181.12 337.594C183.029 337.594 184.577 336.046 184.577 334.136C184.577 332.227 183.029 330.679 181.12 330.679C179.211 330.679 177.663 332.227 177.663 334.136C177.663 336.046 179.211 337.594 181.12 337.594Z" fill="#3F3D56"/>
<path d="M181.12 333.273C183.029 333.273 184.577 331.725 184.577 329.816C184.577 327.906 183.029 326.358 181.12 326.358C179.211 326.358 177.663 327.906 177.663 329.816C177.663 331.725 179.211 333.273 181.12 333.273Z" fill="#3F3D56"/>
<path d="M181.12 328.953C183.029 328.953 184.577 327.405 184.577 325.495C184.577 323.586 183.029 322.038 181.12 322.038C179.211 322.038 177.663 323.586 177.663 325.495C177.663 327.405 179.211 328.953 181.12 328.953Z" fill="#3F3D56"/>
<path d="M195.478 314.344C194.616 314.47 193.753 314.56 192.89 314.616C193.692 313.916 194.437 313.153 195.117 312.334C194.638 310.881 193.933 309.513 193.03 308.278C192.173 308.76 191.225 309.058 190.247 309.155C189.391 309.28 188.529 309.37 187.666 309.433C188.8 308.508 189.857 307.117 190.97 305.955C188.477 303.695 185.282 302.36 181.921 302.175C178.561 301.989 175.238 302.965 172.511 304.937C169.784 306.909 167.818 309.759 166.941 313.009C166.065 316.258 166.332 319.71 167.697 322.786C169.063 325.863 171.444 328.376 174.442 329.906C177.441 331.435 180.873 331.888 184.165 331.188C187.457 330.488 190.409 328.678 192.526 326.061C194.642 323.444 195.795 320.18 195.791 316.814C195.792 315.967 195.717 315.122 195.569 314.289L195.478 314.344Z" fill="#6C63FF"/>
<path d="M207.005 331.52C206.124 332.063 205.128 332.394 204.097 332.487C203.242 332.612 202.379 332.71 201.517 332.765C202.433 331.943 203.289 331.055 204.077 330.108C201.992 329.565 199.78 329.818 197.872 330.819C195.965 331.82 194.499 333.496 193.762 335.521C193.025 337.545 193.069 339.771 193.886 341.764C194.703 343.758 196.234 345.374 198.18 346.299C200.126 347.223 202.346 347.389 204.408 346.763C206.469 346.137 208.223 344.765 209.326 342.914C210.429 341.064 210.803 338.869 210.374 336.758C209.944 334.647 208.743 332.772 207.005 331.499V331.52Z" fill="#6C63FF"/>
<path d="M175.937 347.966C177.847 347.966 179.395 346.418 179.395 344.508C179.395 342.599 177.847 341.051 175.937 341.051C174.028 341.051 172.48 342.599 172.48 344.508C172.48 346.418 174.028 347.966 175.937 347.966Z" fill="#3F3D56"/>
<path d="M172.48 346.233C174.389 346.233 175.937 344.685 175.937 342.776C175.937 340.866 174.389 339.318 172.48 339.318C170.571 339.318 169.023 340.866 169.023 342.776C169.023 344.685 170.571 346.233 172.48 346.233Z" fill="#3F3D56"/>
<path d="M169.023 344.508C170.932 344.508 172.48 342.96 172.48 341.05C172.48 339.141 170.932 337.593 169.023 337.593C167.113 337.593 165.565 339.141 165.565 341.05C165.565 342.96 167.113 344.508 169.023 344.508Z" fill="#3F3D56"/>
<path d="M155.242 331.52C156.123 332.063 157.119 332.394 158.15 332.487C159.005 332.612 159.868 332.71 160.73 332.765C159.812 331.945 158.956 331.057 158.17 330.108C160.255 329.565 162.467 329.818 164.375 330.819C166.282 331.82 167.748 333.496 168.485 335.521C169.222 337.545 169.178 339.771 168.361 341.764C167.544 343.758 166.013 345.374 164.067 346.299C162.121 347.223 159.901 347.389 157.839 346.763C155.778 346.137 154.024 344.765 152.921 342.914C151.818 341.064 151.444 338.869 151.873 336.758C152.302 334.647 153.504 332.772 155.242 331.499V331.52Z" fill="#6C63FF"/>
<path d="M178.637 365.218H187.061C191.673 365.218 196.097 367.05 199.358 370.312C202.62 373.573 204.452 377.997 204.452 382.609V405.475C204.452 406.257 204.141 407.008 203.588 407.561C203.035 408.114 202.285 408.425 201.503 408.425H164.174C163.392 408.425 162.641 408.114 162.088 407.561C161.535 407.008 161.224 406.257 161.224 405.475V382.609C161.224 380.323 161.675 378.06 162.55 375.949C163.425 373.838 164.708 371.919 166.326 370.304C167.943 368.689 169.862 367.408 171.975 366.536C174.087 365.663 176.351 365.215 178.637 365.218Z" fill="#3F3D56"/>
<g opacity="0.1">
<path opacity="0.1" d="M195.715 315.291C195.365 315.665 194.993 316.018 194.602 316.348C194.998 316.348 195.388 316.286 195.784 316.244C195.77 315.924 195.75 315.604 195.715 315.291Z" fill="black"/>
<path opacity="0.1" d="M189.412 311.158C190.282 311.103 191.137 311.012 192 310.887C192.774 310.789 193.53 310.583 194.247 310.275C193.895 309.579 193.49 308.912 193.037 308.278C192.604 308.542 192.135 308.741 191.645 308.87C190.963 309.691 190.216 310.456 189.412 311.158Z" fill="black"/>
<path opacity="0.1" d="M168.16 318.581C168.155 315.944 168.861 313.354 170.204 311.084C171.547 308.814 173.478 306.949 175.792 305.684C178.107 304.419 180.719 303.802 183.355 303.897C185.991 303.993 188.552 304.797 190.769 306.226L190.991 305.99C189.545 304.702 187.857 303.714 186.027 303.082C184.196 302.449 182.259 302.186 180.326 302.305C178.393 302.425 176.503 302.926 174.765 303.78C173.026 304.634 171.474 305.823 170.197 307.279C168.921 308.735 167.945 310.429 167.326 312.264C166.707 314.099 166.457 316.039 166.591 317.971C166.725 319.903 167.24 321.789 168.106 323.521C168.972 325.253 170.173 326.797 171.638 328.063C169.388 325.416 168.155 322.055 168.16 318.581Z" fill="black"/>
</g>
<g opacity="0.1">
<path opacity="0.1" d="M201.517 334.49C202.379 334.435 203.242 334.344 204.097 334.219C205.129 334.123 206.124 333.79 207.005 333.245C207.982 333.964 208.796 334.881 209.396 335.936C209.995 336.991 210.366 338.16 210.483 339.367C210.517 339.064 210.533 338.76 210.532 338.456C210.539 337.104 210.227 335.771 209.623 334.562C209.019 333.354 208.139 332.304 207.054 331.499C206.172 332.041 205.177 332.372 204.146 332.466L203.45 332.556C202.857 333.25 202.21 333.897 201.517 334.49Z" fill="black"/>
<path opacity="0.1" d="M201.864 331.541C202.153 331.544 202.441 331.565 202.727 331.603C203.179 331.123 203.624 330.608 204.076 330.108C202.798 329.766 201.457 329.723 200.159 329.983C198.861 330.242 197.64 330.797 196.591 331.604C195.542 332.411 194.692 333.449 194.109 334.637C193.525 335.825 193.222 337.132 193.224 338.455C193.224 338.748 193.224 339.033 193.266 339.318C193.48 337.186 194.478 335.21 196.067 333.773C197.656 332.336 199.722 331.54 201.864 331.541Z" fill="black"/>
</g>
<g opacity="0.1">
<path opacity="0.1" d="M160.73 334.49C159.868 334.435 159.005 334.344 158.15 334.219C157.118 334.123 156.123 333.79 155.242 333.245C154.265 333.964 153.451 334.881 152.851 335.936C152.252 336.991 151.881 338.16 151.763 339.367C151.73 339.064 151.713 338.76 151.715 338.456C151.708 337.104 152.02 335.771 152.624 334.562C153.228 333.354 154.108 332.304 155.193 331.499C156.075 332.041 157.07 332.372 158.101 332.466L158.797 332.556C159.386 333.254 160.033 333.9 160.73 334.49Z" fill="black"/>
<path opacity="0.1" d="M160.383 331.541C160.092 331.544 159.801 331.565 159.513 331.603C159.068 331.123 158.623 330.608 158.17 330.108C159.449 329.766 160.79 329.723 162.088 329.983C163.386 330.242 164.607 330.797 165.656 331.604C166.705 332.411 167.555 333.449 168.138 334.637C168.722 335.825 169.025 337.132 169.023 338.455C169.023 338.748 169.023 339.033 168.981 339.318C168.767 337.186 167.769 335.21 166.18 333.773C164.591 332.336 162.525 331.54 160.383 331.541Z" fill="black"/>
</g>
<path d="M136.939 416.786H68.9739C68.2082 416.786 67.4739 416.482 66.9325 415.941C66.3911 415.399 66.0869 414.665 66.0869 413.899V381.732C66.0868 381.245 66.21 380.766 66.445 380.339C66.68 379.912 67.0191 379.552 67.4309 379.292C67.8427 379.031 68.3136 378.879 68.7999 378.85C69.2862 378.821 69.7721 378.915 70.2122 379.124C89.7391 388.39 110.776 391.569 135.603 379.27C136.044 379.053 136.532 378.951 137.022 378.975C137.512 378.998 137.988 379.146 138.405 379.404C138.823 379.662 139.168 380.022 139.408 380.45C139.648 380.878 139.775 381.36 139.777 381.851V413.851C139.784 414.23 139.716 414.606 139.576 414.959C139.437 415.312 139.23 415.634 138.966 415.906C138.703 416.179 138.388 416.397 138.04 416.548C137.692 416.699 137.318 416.78 136.939 416.786Z" fill="#6C63FF"/>
<path opacity="0.1" d="M136.939 416.786H68.9739C68.2082 416.786 67.4739 416.482 66.9325 415.941C66.3911 415.399 66.0869 414.665 66.0869 413.899V381.732C66.0868 381.245 66.21 380.766 66.445 380.339C66.68 379.912 67.0191 379.552 67.4309 379.292C67.8427 379.031 68.3136 378.879 68.7999 378.85C69.2862 378.821 69.7721 378.915 70.2122 379.124C89.7391 388.39 110.776 391.569 135.603 379.27C136.044 379.053 136.532 378.951 137.022 378.975C137.512 378.998 137.988 379.146 138.405 379.404C138.823 379.662 139.168 380.022 139.408 380.45C139.648 380.878 139.775 381.36 139.777 381.851V413.851C139.784 414.23 139.716 414.606 139.576 414.959C139.437 415.312 139.23 415.634 138.966 415.906C138.703 416.179 138.388 416.397 138.04 416.548C137.692 416.699 137.318 416.78 136.939 416.786Z" fill="black"/>
<path d="M102.483 392.334C104.704 392.334 106.504 389.976 106.504 387.068C106.504 384.159 104.704 381.802 102.483 381.802C100.263 381.802 98.4626 384.159 98.4626 387.068C98.4626 389.976 100.263 392.334 102.483 392.334Z" fill="#3F3D56"/>
<path d="M102.483 385.899C104.704 385.899 106.504 383.542 106.504 380.633C106.504 377.725 104.704 375.367 102.483 375.367C100.263 375.367 98.4626 377.725 98.4626 380.633C98.4626 383.542 100.263 385.899 102.483 385.899Z" fill="#3F3D56"/>
<path d="M102.483 379.457C104.704 379.457 106.504 377.099 106.504 374.191C106.504 371.283 104.704 368.925 102.483 368.925C100.263 368.925 98.4626 371.283 98.4626 374.191C98.4626 377.099 100.263 379.457 102.483 379.457Z" fill="#3F3D56"/>
<path d="M102.483 373.022C104.704 373.022 106.504 370.665 106.504 367.756C106.504 364.848 104.704 362.49 102.483 362.49C100.263 362.49 98.4626 364.848 98.4626 367.756C98.4626 370.665 100.263 373.022 102.483 373.022Z" fill="#3F3D56"/>
<path d="M102.483 366.581C104.704 366.581 106.504 364.223 106.504 361.315C106.504 358.407 104.704 356.049 102.483 356.049C100.263 356.049 98.4626 358.407 98.4626 361.315C98.4626 364.223 100.263 366.581 102.483 366.581Z" fill="#3F3D56"/>
<path d="M102.483 360.14C104.704 360.14 106.504 357.782 106.504 354.874C106.504 351.965 104.704 349.607 102.483 349.607C100.263 349.607 98.4626 351.965 98.4626 354.874C98.4626 357.782 100.263 360.14 102.483 360.14Z" fill="#3F3D56"/>
<path d="M102.483 353.704C104.704 353.704 106.504 351.346 106.504 348.438C106.504 345.53 104.704 343.172 102.483 343.172C100.263 343.172 98.4626 345.53 98.4626 348.438C98.4626 351.346 100.263 353.704 102.483 353.704Z" fill="#3F3D56"/>
<path d="M117.565 304.375C118.111 303.673 118.611 302.937 119.061 302.17L108.487 300.431L119.923 300.514C121.027 298.124 121.629 295.533 121.692 292.9C121.756 290.268 121.279 287.651 120.292 285.21L104.953 293.168L119.103 282.734C117.778 280.442 115.995 278.448 113.866 276.876C111.737 275.304 109.307 274.187 106.727 273.595C104.147 273.003 101.473 272.948 98.8718 273.435C96.2702 273.921 93.7966 274.938 91.6052 276.423C89.4138 277.907 87.5515 279.827 86.1344 282.062C84.7173 284.297 83.7757 286.801 83.3683 289.416C82.9609 292.031 83.0964 294.702 83.7664 297.263C84.4364 299.823 85.6265 302.218 87.2626 304.299C86.403 305.385 85.6658 306.564 85.0643 307.812L98.7826 315.019L84.1739 310.08C83.15 313.116 82.8981 316.359 83.441 319.516C83.9838 322.674 85.3044 325.647 87.2835 328.167C85.047 331.01 83.6558 334.425 83.2689 338.022C82.8819 341.619 83.5149 345.252 85.0954 348.506C86.6759 351.76 89.1402 354.503 92.2064 356.423C95.2727 358.342 98.8173 359.36 102.435 359.36C106.052 359.36 109.597 358.342 112.663 356.423C115.729 354.503 118.194 351.76 119.774 348.506C121.355 345.252 121.988 341.619 121.601 338.022C121.214 334.425 119.823 331.01 117.586 328.167C120.258 324.769 121.711 320.572 121.711 316.25C121.711 311.928 120.258 307.731 117.586 304.334L117.565 304.375Z" fill="#6C63FF"/>
<path opacity="0.1" d="M83.1235 316.292C83.1172 320.615 84.5707 324.814 87.2487 328.208C85.0122 331.052 83.621 334.467 83.2341 338.064C82.8471 341.661 83.4801 345.294 85.0606 348.548C86.6411 351.802 89.1054 354.545 92.1717 356.465C95.238 358.384 98.7825 359.402 102.4 359.402C106.018 359.402 109.562 358.384 112.628 356.465C115.695 354.545 118.159 351.802 119.739 348.548C121.32 345.294 121.953 341.661 121.566 338.064C121.179 334.467 119.788 331.052 117.551 328.208C120.132 324.932 83.1235 314.128 83.1235 316.292Z" fill="black"/>
<path d="M136.939 418.491H68.9739C68.2082 418.491 67.4739 418.186 66.9325 417.645C66.3911 417.104 66.0869 416.369 66.0869 415.604V381.732C66.0868 381.245 66.21 380.766 66.445 380.339C66.68 379.912 67.0191 379.552 67.4309 379.292C67.8427 379.031 68.3136 378.879 68.7999 378.85C69.2862 378.821 69.7721 378.915 70.2122 379.124C89.7391 388.39 105.224 399.193 135.603 379.27C137.405 378.087 139.777 379.701 139.777 381.851V415.59C139.781 416.349 139.485 417.08 138.954 417.623C138.423 418.166 137.699 418.478 136.939 418.491Z" fill="#6C63FF"/>
<path d="M641.273 408.911L541.002 422.177L535.986 422.838L486.964 396.654V390.525L640.16 373.815L641.273 408.911Z" fill="#9C9CA1"/>
<path d="M515.374 399.437L624 386.63L622.887 406.686L538.275 412.891L515.374 399.437Z" fill="#939498"/>
<path opacity="0.4" d="M541.002 415.59V422.171L535.986 422.866L486.957 396.654V390.525L533.753 415.569C533.753 415.569 539.889 416.146 541.002 415.59Z" fill="black"/>
<path d="M560.25 311.138L537.739 415.52C537.512 416.565 537.54 417.65 537.82 418.682C538.101 419.714 538.625 420.663 539.35 421.45C540.074 422.236 540.977 422.837 541.983 423.201C542.988 423.565 544.067 423.682 545.127 423.541L687.548 404.689C688.788 404.526 689.958 404.016 690.922 403.219C691.887 402.422 692.608 401.369 693.002 400.181L723.729 307.52C724.068 306.492 724.153 305.397 723.975 304.329C723.797 303.261 723.362 302.252 722.707 301.39C722.053 300.527 721.199 299.837 720.218 299.378C719.237 298.919 718.16 298.705 717.078 298.755L566.456 305.907C564.99 305.976 563.589 306.526 562.467 307.471C561.346 308.417 560.567 309.705 560.25 311.138Z" fill="#3F3D56"/>
<path d="M638.508 349.646C638.857 346.322 637.409 343.445 635.273 343.221C633.137 342.997 631.123 345.509 630.773 348.834C630.424 352.158 631.872 355.035 634.008 355.259C636.144 355.484 638.159 352.971 638.508 349.646Z" fill="white"/>
</svg>
