<svg width="500" height="418" viewBox="0 0 500 418" fill="none" xmlns="http://www.w3.org/2000/svg">
<g clip-path="url(#clip0)">
<path opacity="0.1" d="M162.085 14.8454C176.706 1.83171 199.655 -0.836094 220.547 0.199994C286.161 3.46342 345.388 35.1367 396.622 70.9693C415.171 83.9379 433.43 97.9176 445.468 115.781C469.994 152.145 462.706 202.517 428.63 232.474C417.033 242.665 402.978 250.493 388.548 257.405C362.891 269.718 335.207 279.603 306.086 282.431C285.325 284.433 264.303 282.807 243.656 280.009C185.98 272.171 129.376 254.872 81.9111 225.281C61.0993 212.303 41.4837 196.166 32.9047 175.179C24.3257 154.192 29.8164 127.564 51.0688 115.116C59.858 109.975 70.369 107.653 80.6548 105.471C95.8007 102.262 111.187 99.0988 124.851 92.577C138.971 85.8399 155.684 72.8112 152.881 57.8956C149.898 41.9138 147.485 27.859 162.085 14.8454Z" fill="#504DE2"/>
<path d="M342.835 334.797C342.835 334.797 355.378 312.578 374.263 306.176C382.202 303.542 389.073 298.403 393.844 291.531C396.083 288.252 398.017 284.773 399.62 281.14" stroke="#535461" stroke-width="2" stroke-miterlimit="10"/>
<path d="M411.502 277.031C409.35 279.123 399.324 281.28 399.324 281.28C399.324 281.28 401.782 271.325 403.934 269.238C404.967 268.234 406.357 267.682 407.798 267.703C409.238 267.724 410.611 268.317 411.615 269.35C412.618 270.384 413.17 271.773 413.149 273.214C413.128 274.654 412.535 276.027 411.502 277.031Z" fill="#504DE2"/>
<path d="M405.831 295.045C402.888 295.631 393.318 291.997 393.318 291.997C393.318 291.997 400.796 284.989 403.734 284.389C405.147 284.108 406.614 284.4 407.811 285.201C409.009 286.002 409.84 287.245 410.121 288.658C410.401 290.071 410.109 291.538 409.309 292.736C408.508 293.934 407.264 294.764 405.851 295.045H405.831Z" fill="#504DE2"/>
<path d="M385.184 314.535C382.346 313.534 375.905 305.576 375.905 305.576C375.905 305.576 385.915 303.294 388.738 304.275C389.427 304.496 390.064 304.853 390.613 305.324C391.161 305.796 391.61 306.372 391.933 307.019C392.256 307.666 392.447 308.371 392.494 309.093C392.541 309.814 392.443 310.538 392.206 311.222C391.969 311.905 391.599 312.534 391.115 313.073C390.632 313.611 390.046 314.047 389.392 314.356C388.738 314.664 388.029 314.839 387.306 314.87C386.584 314.901 385.862 314.787 385.184 314.535Z" fill="#504DE2"/>
<path d="M366.24 325.767C363.282 325.267 355.583 318.505 355.583 318.505C355.583 318.505 365.048 314.561 368.007 315.051C368.715 315.161 369.396 315.411 370.008 315.785C370.619 316.159 371.151 316.651 371.572 317.233C371.993 317.814 372.294 318.472 372.459 319.171C372.623 319.869 372.648 320.593 372.531 321.301C372.415 322.009 372.159 322.686 371.779 323.295C371.399 323.903 370.902 324.43 370.317 324.846C369.732 325.261 369.07 325.556 368.37 325.714C367.671 325.873 366.946 325.891 366.24 325.767Z" fill="#504DE2"/>
<path d="M384.939 284.219C384.939 287.222 390.365 295.916 390.365 295.916C390.365 295.916 395.801 287.222 395.801 284.224C395.801 282.783 395.228 281.402 394.21 280.384C393.192 279.365 391.81 278.793 390.37 278.793C388.93 278.793 387.548 279.365 386.53 280.384C385.511 281.402 384.939 282.783 384.939 284.224V284.219Z" fill="#504DE2"/>
<path d="M362.951 297.632C363.852 300.495 371.63 307.172 371.63 307.172C371.63 307.172 374.213 297.247 373.317 294.384C372.886 293.009 371.927 291.862 370.65 291.195C369.374 290.527 367.884 290.394 366.51 290.825C365.135 291.256 363.988 292.215 363.321 293.492C362.653 294.768 362.52 296.258 362.951 297.632Z" fill="#504DE2"/>
<path d="M343.37 313.599C343.771 316.572 350.313 324.471 350.313 324.471C350.313 324.471 354.537 315.126 354.137 312.153C353.945 310.725 353.194 309.432 352.049 308.558C350.903 307.684 349.458 307.301 348.03 307.493C346.603 307.685 345.31 308.436 344.436 309.581C343.562 310.726 343.179 312.171 343.37 313.599Z" fill="#504DE2"/>
<path opacity="0.25" d="M411.502 277.031C409.35 279.123 399.324 281.28 399.324 281.28C399.324 281.28 401.782 271.325 403.934 269.238C404.967 268.234 406.357 267.682 407.798 267.703C409.238 267.724 410.611 268.317 411.615 269.35C412.618 270.384 413.17 271.773 413.149 273.214C413.128 274.654 412.535 276.027 411.502 277.031Z" fill="black"/>
<path opacity="0.25" d="M405.831 295.045C402.888 295.631 393.318 291.997 393.318 291.997C393.318 291.997 400.796 284.989 403.734 284.389C405.147 284.108 406.614 284.4 407.811 285.201C409.009 286.002 409.84 287.245 410.121 288.658C410.401 290.071 410.109 291.538 409.309 292.736C408.508 293.934 407.264 294.764 405.851 295.045H405.831Z" fill="black"/>
<path opacity="0.25" d="M385.184 314.535C382.346 313.534 375.905 305.576 375.905 305.576C375.905 305.576 385.915 303.294 388.738 304.275C389.427 304.496 390.064 304.853 390.613 305.324C391.161 305.796 391.61 306.372 391.933 307.019C392.256 307.666 392.447 308.371 392.494 309.093C392.541 309.814 392.443 310.538 392.206 311.222C391.969 311.905 391.599 312.534 391.115 313.073C390.632 313.611 390.046 314.047 389.392 314.356C388.738 314.664 388.029 314.839 387.306 314.87C386.584 314.901 385.862 314.787 385.184 314.535Z" fill="black"/>
<path opacity="0.25" d="M366.24 325.767C363.282 325.267 355.583 318.505 355.583 318.505C355.583 318.505 365.048 314.561 368.007 315.051C368.715 315.161 369.396 315.411 370.008 315.785C370.619 316.159 371.151 316.651 371.572 317.233C371.993 317.814 372.294 318.472 372.459 319.171C372.623 319.869 372.648 320.593 372.531 321.301C372.415 322.009 372.159 322.686 371.779 323.295C371.399 323.903 370.902 324.43 370.317 324.846C369.732 325.261 369.07 325.556 368.37 325.714C367.671 325.873 366.946 325.891 366.24 325.767Z" fill="black"/>
<path opacity="0.25" d="M384.939 284.219C384.939 287.222 390.365 295.916 390.365 295.916C390.365 295.916 395.801 287.222 395.801 284.224C395.801 282.783 395.228 281.402 394.21 280.384C393.192 279.365 391.81 278.793 390.37 278.793C388.93 278.793 387.548 279.365 386.53 280.384C385.511 281.402 384.939 282.783 384.939 284.224V284.219Z" fill="black"/>
<path opacity="0.25" d="M362.951 297.632C363.852 300.495 371.63 307.172 371.63 307.172C371.63 307.172 374.213 297.247 373.317 294.384C372.886 293.009 371.927 291.862 370.65 291.195C369.374 290.527 367.884 290.394 366.51 290.825C365.135 291.256 363.988 292.215 363.321 293.492C362.653 294.768 362.52 296.258 362.951 297.632Z" fill="black"/>
<path opacity="0.25" d="M343.37 313.599C343.771 316.572 350.313 324.471 350.313 324.471C350.313 324.471 354.537 315.126 354.137 312.153C353.945 310.725 353.194 309.432 352.049 308.558C350.903 307.684 349.458 307.301 348.03 307.493C346.603 307.685 345.31 308.436 344.436 309.581C343.562 310.726 343.179 312.171 343.37 313.599Z" fill="black"/>
<path d="M343.556 334.346C343.556 334.346 346.018 308.95 360.694 295.445C366.884 289.818 371.081 282.334 372.656 274.118C373.377 270.21 373.735 266.244 373.727 262.271" stroke="#535461" stroke-width="2" stroke-miterlimit="10"/>
<path d="M382.922 253.722C381.801 256.504 373.512 262.541 373.512 262.541C373.512 262.541 371.73 252.44 372.851 249.662C373.105 248.983 373.492 248.362 373.99 247.835C374.488 247.308 375.086 246.886 375.749 246.594C376.412 246.302 377.127 246.145 377.852 246.134C378.577 246.122 379.296 246.256 379.968 246.527C380.641 246.798 381.252 247.201 381.766 247.712C382.28 248.223 382.687 248.831 382.962 249.502C383.237 250.172 383.376 250.891 383.369 251.616C383.362 252.34 383.21 253.056 382.922 253.722Z" fill="#504DE2"/>
<path d="M385.039 272.486C382.587 274.213 372.346 274.774 372.346 274.774C372.346 274.774 376.35 265.329 378.788 263.602C379.371 263.191 380.03 262.9 380.726 262.744C381.422 262.588 382.142 262.57 382.844 262.693C383.547 262.815 384.219 263.074 384.821 263.456C385.424 263.838 385.945 264.335 386.356 264.918C386.766 265.502 387.058 266.16 387.214 266.856C387.37 267.552 387.387 268.272 387.265 268.975C387.143 269.678 386.883 270.349 386.501 270.952C386.119 271.554 385.623 272.076 385.039 272.486Z" fill="#504DE2"/>
<path d="M374.063 298.674C371.06 298.924 361.95 294.239 361.95 294.239C361.95 294.239 370.164 288.103 373.132 287.847C374.568 287.726 375.992 288.181 377.093 289.111C378.194 290.04 378.88 291.369 379.001 292.805C379.121 294.241 378.667 295.665 377.737 296.766C376.807 297.867 375.479 298.553 374.043 298.674H374.063Z" fill="#504DE2"/>
<path d="M361.294 316.617C358.391 317.368 348.611 314.295 348.611 314.295C348.611 314.295 355.663 306.852 358.567 306.101C359.262 305.906 359.989 305.851 360.706 305.94C361.423 306.03 362.115 306.261 362.741 306.621C363.367 306.981 363.915 307.462 364.353 308.036C364.791 308.61 365.11 309.266 365.292 309.965C365.473 310.665 365.514 311.393 365.41 312.108C365.307 312.823 365.062 313.51 364.689 314.129C364.317 314.748 363.825 315.286 363.242 315.713C362.659 316.139 361.997 316.445 361.294 316.612V316.617Z" fill="#504DE2"/>
<path d="M361.555 271.049C362.766 273.792 371.255 279.558 371.255 279.558C371.255 279.558 372.701 269.408 371.485 266.665C370.884 265.376 369.802 264.374 368.471 263.874C367.139 263.374 365.665 263.416 364.365 263.992C363.064 264.567 362.041 265.63 361.516 266.952C360.99 268.273 361.004 269.748 361.555 271.059V271.049Z" fill="#504DE2"/>
<path d="M346.889 292.227C348.866 294.479 358.687 297.432 358.687 297.432C358.687 297.432 357.03 287.312 355.048 285.059C354.581 284.51 354.01 284.058 353.367 283.732C352.724 283.405 352.023 283.21 351.304 283.157C350.585 283.104 349.863 283.195 349.179 283.425C348.496 283.654 347.865 284.018 347.323 284.493C346.781 284.969 346.34 285.548 346.024 286.196C345.709 286.845 345.525 287.549 345.485 288.269C345.445 288.989 345.548 289.71 345.789 290.389C346.03 291.069 346.404 291.693 346.889 292.227Z" fill="#504DE2"/>
<path d="M335.457 314.76C337.029 317.318 346.209 321.883 346.209 321.883C346.209 321.883 346.284 311.632 344.707 309.074C344.334 308.467 343.844 307.938 343.267 307.52C342.689 307.101 342.035 306.801 341.341 306.635C340.648 306.469 339.928 306.442 339.224 306.554C338.52 306.667 337.844 306.917 337.237 307.29C336.629 307.663 336.101 308.153 335.682 308.73C335.264 309.308 334.963 309.962 334.797 310.656C334.632 311.349 334.604 312.069 334.717 312.773C334.829 313.477 335.079 314.153 335.452 314.76H335.457Z" fill="#504DE2"/>
<path opacity="0.1" d="M187.282 417.428C220.144 417.428 246.784 412.962 246.784 407.453C246.784 401.943 220.144 397.477 187.282 397.477C154.419 397.477 127.779 401.943 127.779 407.453C127.779 412.962 154.419 417.428 187.282 417.428Z" fill="#504DE2"/>
<path opacity="0.1" d="M304.4 340.853C337.262 340.853 363.902 336.387 363.902 330.877C363.902 325.368 337.262 320.902 304.4 320.902C271.537 320.902 244.897 325.368 244.897 330.877C244.897 336.387 271.537 340.853 304.4 340.853Z" fill="#504DE2"/>
<path d="M308.349 199.224L308.294 201.171L304.91 320.557H299.224L302.012 201.171L302.067 198.924L308.349 199.224Z" fill="#B77B7F"/>
<path d="M341.269 300.36L337.009 300.35L273.723 300.215L270.349 300.21L272.146 294.674H340.818L341.269 300.36Z" fill="#DDA2A6"/>
<path opacity="0.1" d="M308.349 199.224L308.294 201.171H302.012L302.067 198.924L308.349 199.224Z" fill="black"/>
<path d="M310.746 196.306H300.2V200.275H310.746V196.306Z" fill="#B77B7F"/>
<path opacity="0.1" d="M274.283 294.674L273.723 300.215L270.349 300.21L272.146 294.674H274.283Z" fill="black"/>
<path d="M283.367 196.231L283.192 197.953L269.152 336.418L262.721 336.113L277.516 197.953L277.681 196.381L283.367 196.231Z" fill="#DDA2A6"/>
<path opacity="0.1" d="M341.268 300.36L337.009 300.35L336.433 294.674H340.818L341.268 300.36Z" fill="black"/>
<path d="M348 336.113L341.564 336.418L327.529 197.953L327.354 196.231L333.035 196.381L333.2 197.953L348 336.113Z" fill="#DDA2A6"/>
<path d="M375.374 59.7129H233.545V195.706H375.374V59.7129Z" fill="white"/>
<path d="M307.228 14.2298V47.0693H301.697V14.2298C301.681 13.8568 301.741 13.4844 301.873 13.135C302.004 12.7856 302.205 12.4666 302.464 12.197C302.722 11.9274 303.032 11.7129 303.376 11.5663C303.719 11.4198 304.089 11.3442 304.462 11.3442C304.836 11.3442 305.205 11.4198 305.549 11.5663C305.892 11.7129 306.202 11.9274 306.461 12.197C306.719 12.4666 306.92 12.7856 307.052 13.135C307.184 13.4844 307.244 13.8568 307.228 14.2298Z" fill="#DDA2A6"/>
<path opacity="0.1" d="M307.228 44.0815H301.692V47.0697H307.228V44.0815Z" fill="black"/>
<path d="M309.4 46.324V57.1653H299.554V46.324C299.554 46.147 299.588 45.9716 299.656 45.8079C299.723 45.6443 299.822 45.4956 299.947 45.3704C300.072 45.2453 300.221 45.1461 300.385 45.0787C300.548 45.0113 300.724 44.9769 300.901 44.9775H308.063C308.419 44.9802 308.759 45.1232 309.009 45.3754C309.259 45.6276 309.4 45.9686 309.4 46.324Z" fill="#DDA2A6"/>
<path opacity="0.1" d="M304.46 53.9515C305.615 53.9515 306.552 53.0148 306.552 51.8593C306.552 50.7038 305.615 49.7671 304.46 49.7671C303.304 49.7671 302.367 50.7038 302.367 51.8593C302.367 53.0148 303.304 53.9515 304.46 53.9515Z" fill="black"/>
<path d="M304.46 53.5013C305.615 53.5013 306.552 52.5646 306.552 51.4091C306.552 50.2536 305.615 49.3169 304.46 49.3169C303.304 49.3169 302.367 50.2536 302.367 51.4091C302.367 52.5646 303.304 53.5013 304.46 53.5013Z" fill="#B77B7F"/>
<path opacity="0.1" d="M309.4 55.8237H299.524V57.1701H309.4V55.8237Z" fill="black"/>
<path opacity="0.1" d="M313.439 57.6206H295.485V60.6137H313.439V57.6206Z" fill="black"/>
<path d="M313.439 56.7197H295.485V59.7128H313.439V56.7197Z" fill="#DDA2A6"/>
<path opacity="0.1" d="M268.142 192.202H343.546C344.409 192.202 345.236 192.544 345.846 193.155C346.456 193.765 346.799 194.592 346.799 195.455V196.166H264.888V195.455C264.888 194.592 265.231 193.765 265.841 193.155C266.451 192.544 267.279 192.202 268.142 192.202Z" fill="black"/>
<path opacity="0.1" d="M277.682 196.381L283.368 196.231L283.192 197.953H277.516L277.682 196.381Z" fill="black"/>
<path opacity="0.1" d="M310.746 196.306H300.2V197.953H310.746V196.306Z" fill="black"/>
<path opacity="0.1" d="M333.2 197.953H327.529L327.354 196.231L333.035 196.381L333.2 197.953Z" fill="black"/>
<path d="M268.142 193.088H343.546C344.409 193.088 345.236 193.431 345.846 194.041C346.456 194.651 346.799 195.478 346.799 196.341V197.052H264.888V196.341C264.888 195.478 265.231 194.651 265.841 194.041C266.451 193.431 267.279 193.088 268.142 193.088Z" fill="#DDA2A6"/>
<path d="M251.609 129.951C250.473 129.351 238.095 120.001 238.095 120.001L218.119 107.333C218.119 107.333 218.014 107.032 217.824 106.517C223.304 100.295 222.108 91.2657 216.532 84.919C209.775 77.2209 179.243 60.6485 170.043 74.8234C168.757 76.8255 168.712 79.0979 168.377 81.3002C167.591 86.4406 165.058 91.4208 161.084 95.6152C158.021 98.8536 154.002 101.837 152.24 105.501C152.24 105.456 152.205 105.41 152.19 105.36C151.764 106.146 151.456 106.989 151.274 107.863C150.398 112.333 153.401 116.617 154.998 120.967C155.534 122.44 155.923 123.962 156.159 125.512C156.199 125.201 156.234 124.896 156.269 124.586C156.658 126.792 156.791 129.036 156.664 131.273C145.578 133.53 145.573 152.495 145.573 152.495C145.573 152.495 144.206 160.033 144.437 162.751C144.667 165.469 144.662 171.345 144.662 172.761C144.662 174.178 143.295 183.012 143.16 184.073C143.162 184.088 143.162 184.103 143.16 184.118C142.96 185.279 140.883 190.875 145.903 192.127C146.253 192.217 146.624 192.292 147.009 192.362C147.224 196.892 147.615 206.377 147.27 208.489C147.27 208.489 149.096 221.232 150.613 224.471C151.572 226.369 152.694 228.181 153.967 229.886C153.856 230.662 153.594 231.409 153.196 232.084C152.42 233.2 152.82 234.116 154.117 234.511C154.072 234.896 154.022 235.332 153.967 235.822C153.411 240.738 152.58 250.508 153.992 255.458C155.929 262.245 156.044 264.508 156.044 264.508C156.044 264.508 156.044 266.54 156.845 267.671C157.645 268.802 159.122 279.323 159.122 281.02C159.122 282.717 162.996 297.983 161.855 301.602C160.714 305.22 161.63 310.311 161.63 310.311C161.63 310.311 160.944 319.245 160.128 321.167C159.312 323.089 158.987 354.077 160.238 362.105C161.489 370.134 162.29 376.806 162.29 376.806C162.29 376.806 161.494 384.158 162.175 385.174C162.856 386.19 164.112 392.302 163.201 392.637C162.29 392.972 161.835 395.465 161.835 395.465C162.317 396.197 162.836 396.904 163.391 397.582C163.04 397.46 162.697 397.314 162.365 397.147C162.726 397.647 163.266 398.358 163.932 399.149L163.306 407.282C163.28 407.6 163.366 407.916 163.549 408.177C163.732 408.438 164 408.626 164.307 408.709C166.306 409.252 168.415 409.243 170.408 408.683C172.402 408.122 174.207 407.031 175.629 405.526C181.325 399.76 183.262 400.55 184.288 397.047C184.398 396.671 184.494 396.301 184.574 395.951C185.309 392.827 181.981 390.505 179.333 391.836C179.699 389.364 179.984 386.556 179.709 384.969C179.138 381.691 179.253 373.097 179.253 373.097L178.457 331.928C178.457 331.928 179.934 323.785 181.646 320.622C183.357 317.458 183.147 306.372 183.147 306.372L185.084 269.953L186.906 252.2C186.906 252.2 188.728 246.093 191.005 252.88C191.005 252.88 189.754 266.56 190.325 269.843C190.895 273.127 191.691 289.068 191.121 292.572C190.55 296.076 188.047 315.306 189.619 320.166C191.191 325.026 192.942 330.917 192.592 332.844C192.242 334.771 191.091 376.495 191.091 376.495C191.091 376.495 194.169 384.504 191.891 387.126C189.614 389.749 191.776 400.14 191.776 400.14C191.776 400.14 192.052 400.335 192.522 400.605L192.457 401.471L191.741 410.826C191.716 411.144 191.802 411.461 191.984 411.722C192.167 411.983 192.435 412.173 192.742 412.258C194.741 412.802 196.85 412.793 198.844 412.232C200.837 411.671 202.642 410.58 204.064 409.074C209.76 403.303 211.697 404.099 212.723 400.59C212.833 400.215 212.928 399.85 213.014 399.494C213.814 396.086 209.76 393.613 207.047 395.84L206.912 395.956C206.77 396.076 206.622 396.188 206.467 396.291C206.395 396.344 206.319 396.392 206.241 396.436C206.812 393.853 207.643 389.429 207.242 387.357C206.672 384.303 207.808 375.034 207.808 375.034C207.808 375.034 211.112 363.947 211.227 359.517L212.138 324.235C212.138 324.235 212.027 309.87 212.483 306.367C212.938 302.863 216.582 272.551 220.226 263.502C223.024 256.574 224.275 238.896 223.535 229.931C223.495 229.491 223.454 229.065 223.404 228.67C227.874 225.371 228.32 219.886 228.32 219.886C228.32 219.886 224.215 212.047 220.266 208.729C216.317 205.411 215.466 199.705 215.606 197.277C215.673 195.798 215.186 194.347 214.24 193.208C214.24 193.208 212.418 187.327 211.202 186.726C211.102 186.675 211.012 186.607 210.936 186.526C210.11 185.64 210.746 183.107 210.746 183.107V183.027C210.891 182.441 211.747 178.647 211.492 177.676C211.187 176.625 211.642 171.645 211.642 171.645C211.642 171.645 214.53 163.051 214.075 156.264C213.619 149.477 220.001 150.082 220.001 150.082L239.707 149.877H241.949C242.74 149.206 243.462 148.458 244.106 147.645C247.86 147.199 255.453 145.783 256.304 141.639C257.46 136.138 252.75 130.557 251.609 129.951ZM160.313 192.697L160.448 189.249C160.914 189.649 161.224 189.904 161.224 189.904C161.475 190.807 161.488 191.759 161.259 192.667C161.137 193.094 160.92 193.487 160.624 193.818C160.329 194.149 159.962 194.409 159.552 194.579C159.457 194.621 159.365 194.669 159.277 194.724L159.087 192.777L160.313 192.697ZM231.788 132.134C230.952 131.758 228.139 131.833 226.693 131.833C225.246 131.833 222.899 130.627 222.899 130.627C222.398 129.651 219.63 129.07 217.168 128.74C215.296 124.125 212.663 119.625 212.308 114.815C212.308 114.64 212.308 114.465 212.283 114.29L212.568 114.79C212.568 114.79 224.04 122.108 225.331 124.3C226.333 125.972 231.153 129.706 233.385 131.378C233.078 131.779 232.647 132.067 232.159 132.199C232.031 132.212 231.903 132.19 231.788 132.134Z" fill="url(#paint0_linear)"/>
<path d="M212.844 399.525C212.759 399.875 212.668 400.24 212.558 400.611C211.557 404.115 209.64 403.304 204.049 409.025C202.656 410.518 200.881 411.602 198.917 412.16C196.952 412.717 194.873 412.727 192.903 412.188C192.595 412.107 192.326 411.92 192.143 411.66C191.96 411.4 191.875 411.083 191.902 410.767L192.607 401.487L192.943 397.022C192.943 397.022 201.872 399.525 206.417 396.346C206.569 396.242 206.716 396.13 206.857 396.011C206.892 395.979 206.926 395.946 206.957 395.911C207.544 395.425 208.268 395.135 209.027 395.082C209.787 395.028 210.544 395.214 211.193 395.612C211.842 396.01 212.35 396.602 212.646 397.304C212.942 398.005 213.011 398.782 212.844 399.525Z" fill="#67647E"/>
<path d="M184.814 396.021C184.729 396.371 184.639 396.737 184.529 397.107C183.528 400.611 181.611 399.8 176.02 405.521C174.627 407.014 172.852 408.098 170.887 408.656C168.923 409.213 166.843 409.223 164.873 408.684C164.566 408.603 164.297 408.416 164.114 408.156C163.931 407.896 163.845 407.579 163.872 407.263L164.578 397.983L164.913 393.518C164.913 393.518 173.843 396.021 178.387 392.842C178.54 392.738 178.687 392.626 178.828 392.507C178.863 392.476 178.896 392.442 178.928 392.407C179.514 391.921 180.238 391.631 180.998 391.578C181.758 391.524 182.515 391.71 183.164 392.108C183.813 392.507 184.321 393.098 184.617 393.8C184.913 394.501 184.982 395.278 184.814 396.021Z" fill="#67647E"/>
<path opacity="0.1" d="M175.589 397.412L175.95 402.237C170.824 407.358 164.723 399.735 162.936 397.232C167.636 399.654 175.589 397.412 175.589 397.412Z" fill="black"/>
<path opacity="0.1" d="M205.716 399.374L206.387 398.929C201.707 406.046 194.754 402.763 192.587 401.487L192.923 397.022C192.923 397.022 201.852 399.525 206.397 396.346C206.041 398.088 205.716 399.374 205.716 399.374Z" fill="black"/>
<path d="M219.971 264.618C216.377 273.592 212.788 303.659 212.338 307.163C211.887 310.666 212.003 324.891 212.003 324.891L211.102 359.873C210.986 364.253 207.733 375.249 207.733 375.249C207.733 375.249 206.612 384.449 207.172 387.477C207.733 390.505 205.716 398.488 205.716 398.488L206.387 398.038C200.776 406.547 191.911 400.17 191.911 400.17C191.911 400.17 189.779 389.849 192.027 387.267C194.274 384.684 191.241 376.721 191.241 376.721C191.241 376.721 192.362 335.317 192.697 333.41C193.033 331.503 191.351 325.667 189.779 320.842C188.208 316.017 190.68 296.942 191.241 293.463C191.801 289.985 191.015 274.163 190.455 270.91C189.894 267.656 191.126 254.077 191.126 254.077C188.883 247.345 187.086 253.406 187.086 253.406L185.289 271.02L183.382 307.153C183.382 307.153 183.608 318.164 181.926 321.292C180.244 324.421 178.783 332.509 178.783 332.509L179.568 373.357C179.568 373.357 179.458 381.866 180.019 385.134C180.58 388.403 178.783 396.807 178.783 396.807C172.501 411.607 162.41 395.56 162.41 395.56C162.41 395.56 162.861 393.093 163.757 392.757C164.653 392.422 163.421 386.361 162.756 385.35C162.09 384.339 162.866 377.046 162.866 377.046C162.866 377.046 162.08 370.429 160.864 362.461C159.648 354.492 159.968 323.75 160.754 321.843C161.54 319.936 162.21 311.072 162.21 311.072C162.21 311.072 161.314 306.021 162.435 302.428C163.557 298.834 159.743 283.693 159.743 282.006C159.743 280.319 158.286 269.888 157.5 268.767C156.714 267.646 156.714 265.624 156.714 265.624C156.714 265.624 156.604 263.382 154.712 256.65C153.321 251.734 154.142 242.044 154.687 237.164C154.883 235.357 155.053 234.206 155.053 234.206C155.053 234.206 219.405 223.77 221.973 226.128C222.574 226.683 222.974 228.59 223.209 231.308C223.975 240.197 222.714 257.766 219.971 264.618Z" fill="#444053"/>
<path opacity="0.1" d="M195.615 315.071C195.916 315.071 203.023 315.671 205.626 315.146C208.228 314.62 195.615 315.071 195.615 315.071Z" fill="black"/>
<path opacity="0.1" d="M196.141 319.26C196.141 319.26 205.956 320.982 206.457 320.086C206.957 319.19 196.141 319.26 196.141 319.26Z" fill="black"/>
<path opacity="0.1" d="M166.145 317.463C166.145 317.463 171.23 317.689 173.998 318.965C176.766 320.241 166.145 317.463 166.145 317.463Z" fill="black"/>
<path d="M147.665 191.646C147.665 191.646 148.486 207.278 148.04 210.046C148.04 210.046 149.832 222.689 151.329 225.902C152.825 229.116 156.044 233.16 156.044 233.16L160.458 202.127L159.407 191.496L147.665 191.646Z" fill="#EFB7B9"/>
<path d="M194.044 120.432C203.586 120.432 211.322 112.696 211.322 103.154C211.322 93.6112 203.586 85.8755 194.044 85.8755C184.501 85.8755 176.766 93.6112 176.766 103.154C176.766 112.696 184.501 120.432 194.044 120.432Z" fill="#EFB7B9"/>
<path d="M185.069 111.227C185.069 111.227 179.684 121.778 174.298 126.713C168.912 131.649 206.612 137.259 207.508 137.259C208.404 137.259 200.776 114.821 202.122 112.113C203.469 109.405 185.069 111.227 185.069 111.227Z" fill="#EFB7B9"/>
<path opacity="0.1" d="M223.219 231.308C222.373 231.954 221.44 232.476 220.446 232.86C213.569 235.552 206.086 239.291 201.001 237.8C195.916 236.308 185.144 237.8 185.144 237.8C185.144 237.8 163.447 236.003 159.117 237.049C157.145 237.524 155.613 237.504 154.612 237.164C154.808 235.357 154.978 234.206 154.978 234.206C154.978 234.206 219.405 223.77 221.973 226.127C222.584 226.683 222.974 228.59 223.219 231.308Z" fill="black"/>
<path d="M227.929 221.337C227.929 221.337 227.334 228.82 220.447 231.513C213.559 234.206 206.086 237.945 201.001 236.453C195.916 234.962 185.144 236.453 185.144 236.453C185.144 236.453 163.447 234.656 159.117 235.702C154.788 236.749 152.53 235.407 153.877 233.46C155.223 231.513 155.078 225.081 155.078 222.388C155.078 219.696 153.576 208.774 154.923 206.827C156.269 204.88 157.465 197.402 160.158 196.201C160.563 196.031 160.924 195.772 161.215 195.444C161.506 195.115 161.719 194.726 161.84 194.304C162.063 193.403 162.051 192.461 161.805 191.566C161.805 191.566 161.35 191.191 160.724 190.635C159.137 189.219 156.454 186.591 157.315 185.73C158.512 184.529 157.315 176.751 157.315 176.751C157.315 176.751 154.472 170.769 155.523 168.527C156.574 166.285 146.394 154.462 146.394 154.462C146.394 154.462 146.394 134.121 158.662 133.22C158.662 133.22 167.341 133.52 168.387 129.631C169.433 125.742 176.315 123.495 176.315 123.495L192.027 126.938C192.027 126.938 205.936 129.941 208.484 128.135C211.032 126.328 212.989 130.527 212.989 130.527C212.989 130.527 221.663 130.977 222.559 132.774C223.455 134.571 219.721 152.07 219.721 152.07C219.721 152.07 213.434 151.474 213.885 158.206C214.335 164.938 211.462 173.467 211.462 173.467C211.462 173.467 211.012 178.402 211.312 179.448C211.592 180.414 210.721 184.178 210.581 184.759V184.834C210.581 184.834 209.956 187.337 210.766 188.228C210.842 188.308 210.929 188.376 211.027 188.428C212.228 189.023 214.03 194.86 214.03 194.86C214.964 195.992 215.444 197.432 215.376 198.899C215.231 201.296 216.127 206.977 220.016 210.271C223.905 213.564 227.929 221.337 227.929 221.337Z" fill="#A36468"/>
<path d="M161.204 186.691V187.327L160.934 194.334C160.934 194.334 151.729 195.08 146.719 193.834C141.709 192.587 143.816 187.026 144.016 185.875C144.018 185.86 144.018 185.845 144.016 185.83C144.161 184.779 145.518 176.03 145.518 174.608C145.518 173.187 145.518 167.351 145.292 164.658C145.067 161.965 146.394 154.462 146.394 154.462L147.365 153.271L157.906 157.31L161.204 186.691Z" fill="#A36468"/>
<path opacity="0.1" d="M161.179 187.342L160.909 194.349C160.909 194.349 151.704 195.095 146.694 193.848C141.684 192.602 143.791 187.041 143.991 185.89L161.179 187.342Z" fill="black"/>
<path opacity="0.1" d="M161.84 194.309C162.062 193.409 162.05 192.466 161.805 191.571C161.805 191.571 161.349 191.196 160.724 190.64C168.647 189.534 200.025 185.23 210.591 184.759V184.834C210.591 184.834 209.965 187.337 210.776 188.228L161.84 194.309Z" fill="black"/>
<path opacity="0.1" d="M211.772 199.705C211.772 199.705 213.72 210.716 206.462 214.59C206.457 214.61 210.576 209.149 211.772 199.705Z" fill="black"/>
<path opacity="0.1" d="M164.272 214.906C164.272 214.906 181.791 211.903 185.219 214.235C188.648 216.567 164.272 214.906 164.272 214.906Z" fill="black"/>
<path opacity="0.1" d="M205.716 146.759C205.716 146.759 203.023 157.831 205.04 160.374C207.057 162.916 205.716 146.759 205.716 146.759Z" fill="black"/>
<path opacity="0.1" d="M154.998 137.71C154.998 137.71 157.465 141.824 155.969 146.089C154.472 150.353 154.998 137.71 154.998 137.71Z" fill="black"/>
<path opacity="0.1" d="M149.897 173.768C149.897 173.768 153.041 175.635 151.995 178.553C150.949 181.471 149.897 173.768 149.897 173.768Z" fill="black"/>
<path opacity="0.1" d="M149.612 165.239C149.612 165.239 152.525 166.81 152.9 169.128C153.276 171.445 149.612 165.239 149.612 165.239Z" fill="black"/>
<path opacity="0.1" d="M192.847 254.702C192.847 254.702 211.177 256.574 214.841 252.235C214.841 252.26 198.308 255.528 192.847 254.702Z" fill="black"/>
<path opacity="0.1" d="M161.204 253.657C161.204 253.657 180.88 258.297 184.769 254.628C184.769 254.628 167.861 255.899 161.204 253.657Z" fill="black"/>
<path opacity="0.1" d="M194.269 260.769C194.269 260.769 202.498 260.769 206.312 260.994C210.126 261.219 194.269 260.769 194.269 260.769Z" fill="black"/>
<path opacity="0.1" d="M162.551 264.272C162.551 264.272 166.59 268.837 171.155 268.016C175.72 267.196 162.551 264.272 162.551 264.272Z" fill="black"/>
<path d="M170.484 77.4011C169.218 79.3681 169.173 81.6455 168.842 83.8278C168.071 88.9282 165.574 93.8684 161.665 98.0327C158.076 101.847 153.156 105.305 152.225 109.965C151.344 114.39 154.332 118.649 155.899 122.979C160.028 134.336 154.262 146.248 152.58 157.971C152.115 161.209 152.675 165.348 156.664 166.425C157.911 166.765 159.337 166.72 160.458 167.26C161.96 167.981 162.42 169.478 162.696 170.824C163.7 175.64 164.047 180.57 163.727 185.48C163.547 188.232 163.346 191.401 165.949 193.293C167.13 194.159 168.722 194.599 170.259 195.015C174.358 196.121 179.659 197.017 182.421 194.419C183.583 193.333 184.018 191.801 185.465 190.94C187.632 189.654 190.705 190.525 193.433 190.66C199.034 190.94 204.179 187.657 206.387 183.698C208.594 179.739 208.389 175.189 207.588 170.919C206.787 166.65 205.356 162.41 205.255 158.076C205.22 156.574 205.356 155.048 206.216 153.716C207.883 151.139 211.762 149.967 214.415 147.94C219.385 144.136 219.37 137.905 217.563 132.689C215.756 127.474 212.513 122.473 212.113 117.083C211.934 115.78 212.193 114.454 212.848 113.314C213.559 112.218 214.8 111.397 215.852 110.491C223.104 104.364 222.248 94.3038 216.252 87.4166C209.615 79.7836 179.543 63.3413 170.484 77.4011Z" fill="#E3787D"/>
<g opacity="0.1">
<path opacity="0.1" d="M156.82 127.694C157.385 123.144 157.28 118.635 155.674 114.205C154.883 112.033 153.736 109.876 152.901 107.698C152.483 108.485 152.18 109.328 152 110.201C151.119 114.626 154.107 118.885 155.674 123.215C156.201 124.667 156.585 126.167 156.82 127.694Z" fill="black"/>
<path opacity="0.1" d="M163.502 176.705C163.821 171.796 163.476 166.867 162.476 162.05C162.196 160.703 161.735 159.212 160.233 158.491C159.112 157.951 157.686 157.991 156.439 157.655C155.674 157.472 154.96 157.116 154.353 156.614C153.746 156.113 153.261 155.479 152.936 154.762C152.706 155.903 152.505 157.04 152.34 158.181C151.875 161.419 152.435 165.559 156.424 166.635C157.671 166.97 159.097 166.925 160.218 167.466C161.72 168.186 162.181 169.683 162.461 171.029C162.92 173.263 163.241 175.523 163.422 177.796C163.457 177.426 163.477 177.066 163.502 176.705Z" fill="black"/>
<path opacity="0.1" d="M206.167 174.929C203.954 178.903 198.809 182.171 193.208 181.891C190.48 181.751 187.407 180.89 185.245 182.171C183.798 183.027 183.358 184.564 182.196 185.65C179.433 188.228 174.133 187.352 170.034 186.245C168.497 185.825 166.91 185.39 165.724 184.524C164.594 183.692 163.831 182.454 163.597 181.07C163.627 182.607 163.597 184.148 163.502 185.685C163.322 188.438 163.121 191.606 165.724 193.503C166.91 194.364 168.497 194.804 170.034 195.22C174.133 196.326 179.433 197.222 182.196 194.624C183.358 193.538 183.798 192.007 185.245 191.121C187.407 189.834 190.48 190.705 193.208 190.84C198.809 191.121 203.954 187.837 206.167 183.878C208.289 180.054 208.194 175.729 207.453 171.6C207.174 172.762 206.741 173.881 206.167 174.929Z" fill="black"/>
<path opacity="0.1" d="M215.647 101.742C214.575 102.643 213.334 103.469 212.643 104.565C211.988 105.705 211.729 107.031 211.908 108.334C212.053 109.972 212.399 111.585 212.939 113.139C213.772 112.25 214.685 111.439 215.667 110.716C220.572 106.577 221.763 100.636 220.171 95.0898C219.331 97.6949 217.761 100.004 215.647 101.742Z" fill="black"/>
<path opacity="0.1" d="M214.19 139.166C211.542 141.193 207.658 142.369 205.996 144.947C205.13 146.278 204.995 147.815 205.03 149.302C205.092 151.052 205.306 152.794 205.671 154.507C205.766 154.305 205.874 154.109 205.996 153.921C207.658 151.344 211.542 150.173 214.19 148.145C218.73 144.672 219.11 139.176 217.769 134.276C217.088 136.225 215.842 137.928 214.19 139.166Z" fill="black"/>
</g>
<path d="M241.393 149.827C241.393 149.827 254.337 149.157 255.458 143.696C256.579 138.235 251.955 132.684 250.823 132.099C249.692 131.513 237.489 122.223 237.489 122.223L217.819 109.66C217.819 109.66 208.394 82.6318 206.307 92.9777C204.219 103.324 212.368 117.063 212.368 117.063C212.368 117.063 223.66 124.321 224.931 126.488C226.202 128.655 233.986 134.341 233.986 134.341L241.393 149.827Z" fill="#EFB7B9"/>
<path d="M248.351 140.998C245.287 148.781 241.318 151.849 241.318 151.849H239.111L219.706 152.05L217.468 145.938L220.612 132.694L222.554 132.774C222.554 132.774 224.876 133.971 226.293 133.971C227.709 133.971 230.487 133.896 231.298 134.266C231.411 134.321 231.539 134.341 231.663 134.321C232.399 134.246 233.165 133.145 233.165 133.145C233.165 133.145 251.419 133.22 248.351 140.998Z" fill="#A36468"/>
<path opacity="0.1" d="M248.351 140.998C245.287 148.781 241.318 151.849 241.318 151.849H239.111C240.262 148.766 242.69 142.439 243.616 140.978C244.522 139.596 236.393 136.158 231.638 134.301C232.374 134.226 233.14 133.125 233.14 133.125C233.14 133.125 251.419 133.22 248.351 140.998Z" fill="black"/>
<path opacity="0.1" d="M45.4579 386.296C57.6707 386.296 67.5712 384.359 67.5712 381.971C67.5712 379.583 57.6707 377.646 45.4579 377.646C33.2452 377.646 23.3447 379.583 23.3447 381.971C23.3447 384.359 33.2452 386.296 45.4579 386.296Z" fill="#504DE2"/>
<path opacity="0.1" d="M414.075 356.594C422.97 356.594 430.182 355.185 430.182 353.446C430.182 351.707 422.97 350.298 414.075 350.298C405.179 350.298 397.968 351.707 397.968 353.446C397.968 355.185 405.179 356.594 414.075 356.594Z" fill="#504DE2"/>
<path opacity="0.1" d="M483.893 369.353C492.789 369.353 500 367.943 500 366.204C500 364.466 492.789 363.056 483.893 363.056C474.998 363.056 467.786 364.466 467.786 366.204C467.786 367.943 474.998 369.353 483.893 369.353Z" fill="#504DE2"/>
<path opacity="0.1" d="M375.784 395.63C384.68 395.63 391.891 394.221 391.891 392.482C391.891 390.743 384.68 389.333 375.784 389.333C366.889 389.333 359.677 390.743 359.677 392.482C359.677 394.221 366.889 395.63 375.784 395.63Z" fill="#504DE2"/>
<path d="M66.3546 261.925C66.3546 261.925 69.9784 266.665 64.6828 273.813C59.3873 280.96 55.0277 286.997 56.7995 291.456C56.7995 291.456 64.7829 278.177 71.2848 277.992C77.7866 277.807 73.5071 269.914 66.3546 261.925Z" fill="#504DE2"/>
<path opacity="0.1" d="M66.3546 261.925C66.6716 262.388 66.9211 262.894 67.0954 263.427C73.4371 270.88 76.8156 277.832 70.7192 278.007C65.0432 278.167 58.2311 288.323 56.5994 290.886C56.6516 291.085 56.7168 291.281 56.7946 291.471C56.7946 291.471 64.7779 278.192 71.2798 278.007C77.7816 277.822 73.5071 269.914 66.3546 261.925Z" fill="black"/>
<path d="M73.0866 267.961C73.0866 269.628 72.9014 270.964 72.6712 270.964C72.4409 270.964 72.2507 269.613 72.2507 267.961C72.2507 266.309 72.486 267.08 72.7162 267.08C72.9465 267.08 73.0866 266.274 73.0866 267.961Z" fill="#FFD037"/>
<path d="M75.399 269.954C73.9374 270.749 72.6611 271.235 72.551 271.03C72.4409 270.825 73.552 270.029 74.9985 269.218C76.4451 268.407 75.8845 269.003 75.9996 269.218C76.1147 269.433 76.8605 269.153 75.399 269.954Z" fill="#FFD037"/>
<path d="M47.2297 261.925C47.2297 261.925 43.6059 266.665 48.9015 273.813C54.197 280.96 58.5566 286.997 56.7998 291.456C56.7998 291.456 48.7914 278.177 42.2845 277.992C35.7777 277.807 40.0772 269.914 47.2297 261.925Z" fill="#504DE2"/>
<path opacity="0.1" d="M47.2297 261.925C46.9126 262.388 46.6632 262.894 46.4889 263.427C40.1472 270.88 36.7687 277.832 42.8651 278.007C48.5411 278.167 55.3782 288.323 56.9849 290.886C56.9321 291.084 56.8686 291.28 56.7947 291.471C56.7947 291.471 48.7863 278.192 42.2795 278.007C35.7727 277.822 40.0772 269.914 47.2297 261.925Z" fill="black"/>
<path d="M40.4976 267.961C40.4976 269.628 40.6828 270.964 40.913 270.964C41.1432 270.964 41.3334 269.613 41.3334 267.961C41.3334 266.309 41.0982 267.08 40.8679 267.08C40.6377 267.08 40.4976 266.274 40.4976 267.961Z" fill="#FFD037"/>
<path d="M38.185 269.954C39.6516 270.749 40.9229 271.235 41.038 271.03C41.1531 270.825 40.037 270.029 38.5854 269.218C37.1339 268.407 37.6995 269.003 37.5844 269.218C37.4693 269.433 36.7235 269.153 38.185 269.954Z" fill="#FFD037"/>
<path opacity="0.1" d="M56.7896 327.684C77.7017 327.684 94.6543 325.083 94.6543 321.873C94.6543 318.664 77.7017 316.062 56.7896 316.062C35.8774 316.062 18.9248 318.664 18.9248 321.873C18.9248 325.083 35.8774 327.684 56.7896 327.684Z" fill="#504DE2"/>
<path d="M76.2801 285.074L76.0999 286.576L75.8446 288.663L75.7395 289.534L75.4843 291.626L75.3741 292.497L75.1189 294.584L72.2258 318.329C71.9656 320.451 68.5019 322.103 64.3175 322.103H49.2918C45.1074 322.103 41.6487 320.451 41.3885 318.329L38.4904 294.579L38.2351 292.492L38.13 291.621L37.8698 289.529L37.7647 288.658L37.5094 286.571L37.3292 285.069C37.184 283.868 39.056 282.857 41.4235 282.857H72.2158C74.5533 282.862 76.4302 283.873 76.2801 285.074Z" fill="#65617D"/>
<path d="M76.0949 286.551L75.8447 288.643H37.7346L37.4844 286.551H76.0949Z" fill="#9D9CB5"/>
<path d="M75.7345 289.514L75.4842 291.601H38.1L37.8447 289.514H75.7345Z" fill="#9D9CB5"/>
<path d="M75.3741 292.472L75.1188 294.559H38.4603L38.2051 292.472H75.3741Z" fill="#9D9CB5"/>
<path opacity="0.1" d="M90.0896 78.0922C98.7972 78.0922 105.856 71.0333 105.856 62.3256C105.856 53.618 98.7972 46.5591 90.0896 46.5591C81.3819 46.5591 74.323 53.618 74.323 62.3256C74.323 71.0333 81.3819 78.0922 90.0896 78.0922Z" fill="#504DE2"/>
<path opacity="0.1" d="M57.0549 34.5464C62.4454 34.5464 66.8152 30.1766 66.8152 24.7861C66.8152 19.3957 62.4454 15.0259 57.0549 15.0259C51.6645 15.0259 47.2947 19.3957 47.2947 24.7861C47.2947 30.1766 51.6645 34.5464 57.0549 34.5464Z" fill="#504DE2"/>
<path opacity="0.1" d="M6.00631 52.5653C9.3235 52.5653 12.0126 49.8762 12.0126 46.559C12.0126 43.2418 9.3235 40.5527 6.00631 40.5527C2.68912 40.5527 0 43.2418 0 46.559C0 49.8762 2.68912 52.5653 6.00631 52.5653Z" fill="#504DE2"/>
</g>
<defs>
<linearGradient id="paint0_linear" x1="199.519" y1="412.638" x2="199.519" y2="69.2776" gradientUnits="userSpaceOnUse">
<stop stop-color="#808080" stop-opacity="0.25"/>
<stop offset="0.54" stop-color="#808080" stop-opacity="0.12"/>
<stop offset="1" stop-color="#808080" stop-opacity="0.1"/>
</linearGradient>
<clipPath id="clip0">
<rect width="500" height="417.433" fill="white"/>
</clipPath>
</defs>
</svg>
