<svg width="419" height="187" viewBox="0 0 419 187" fill="none" xmlns="http://www.w3.org/2000/svg">
<rect x="0.5" y="0.5" width="418" height="186" rx="5.5" fill="white"/>
<path d="M24.7614 35H26.3807V33.3239H26.5795C26.9489 33.9205 27.6591 35.2273 29.7614 35.2273C32.4886 35.2273 34.392 33.0398 34.392 29.5739C34.392 26.1364 32.4886 23.9489 29.733 23.9489C27.6023 23.9489 26.9489 25.2557 26.5795 25.8239H26.4375V20.4545H24.7614V35ZM26.4091 29.5455C26.4091 27.1023 27.4886 25.4545 29.5341 25.4545C31.6648 25.4545 32.7159 27.2443 32.7159 29.5455C32.7159 31.875 31.6364 33.7216 29.5341 33.7216C27.517 33.7216 26.4091 32.017 26.4091 29.5455ZM38.6321 20.4545H36.956V35H38.6321V20.4545ZM46.1339 35.2273C49.0884 35.2273 51.0771 32.983 51.0771 29.6023C51.0771 26.1932 49.0884 23.9489 46.1339 23.9489C43.1793 23.9489 41.1907 26.1932 41.1907 29.6023C41.1907 32.983 43.1793 35.2273 46.1339 35.2273ZM46.1339 33.7216C43.8896 33.7216 42.8668 31.7898 42.8668 29.6023C42.8668 27.4148 43.8896 25.4545 46.1339 25.4545C48.3782 25.4545 49.4009 27.4148 49.4009 29.6023C49.4009 31.7898 48.3782 33.7216 46.1339 33.7216ZM58.0675 35.2273C61.022 35.2273 63.0107 32.983 63.0107 29.6023C63.0107 26.1932 61.022 23.9489 58.0675 23.9489C55.1129 23.9489 53.1243 26.1932 53.1243 29.6023C53.1243 32.983 55.1129 35.2273 58.0675 35.2273ZM58.0675 33.7216C55.8232 33.7216 54.8004 31.7898 54.8004 29.6023C54.8004 27.4148 55.8232 25.4545 58.0675 25.4545C60.3118 25.4545 61.3345 27.4148 61.3345 29.6023C61.3345 31.7898 60.3118 33.7216 58.0675 33.7216ZM69.6886 35.2273C71.7908 35.2273 72.5011 33.9205 72.8704 33.3239H73.0692V35H74.6886V20.4545H73.0124V25.8239H72.8704C72.5011 25.2557 71.8477 23.9489 69.717 23.9489C66.9613 23.9489 65.0579 26.1364 65.0579 29.5739C65.0579 33.0398 66.9613 35.2273 69.6886 35.2273ZM69.9158 33.7216C67.8136 33.7216 66.734 31.875 66.734 29.5455C66.734 27.2443 67.7852 25.4545 69.9158 25.4545C71.9613 25.4545 73.0408 27.1023 73.0408 29.5455C73.0408 32.017 71.9329 33.7216 69.9158 33.7216ZM78.2184 35H79.8377V33.3239H80.0366C80.4059 33.9205 81.1161 35.2273 83.2184 35.2273C85.9457 35.2273 87.8491 33.0398 87.8491 29.5739C87.8491 26.1364 85.9457 23.9489 83.19 23.9489C81.0593 23.9489 80.4059 25.2557 80.0366 25.8239H79.8945V20.4545H78.2184V35ZM79.8661 29.5455C79.8661 27.1023 80.9457 25.4545 82.9911 25.4545C85.1218 25.4545 86.1729 27.2443 86.1729 29.5455C86.1729 31.875 85.0934 33.7216 82.9911 33.7216C80.9741 33.7216 79.8661 32.017 79.8661 29.5455ZM93.6232 35.2557C95.5266 35.2557 96.521 34.233 96.8619 33.5227H96.9471V35H98.6232V27.8125C98.6232 24.3466 95.9812 23.9489 94.5891 23.9489C92.9414 23.9489 91.0664 24.517 90.2141 26.5057L91.805 27.0739C92.1744 26.2784 93.0479 25.4261 94.646 25.4261C96.1871 25.4261 96.9471 26.2429 96.9471 27.642V27.6989C96.9471 28.5085 96.1232 28.4375 94.1346 28.6932C92.1104 28.956 89.9016 29.4034 89.9016 31.9034C89.9016 34.0341 91.5494 35.2557 93.6232 35.2557ZM93.8789 33.75C92.5437 33.75 91.5778 33.1534 91.5778 31.9886C91.5778 30.7102 92.7425 30.3125 94.0494 30.142C94.7596 30.0568 96.663 29.858 96.9471 29.517V31.0511C96.9471 32.4148 95.8675 33.75 93.8789 33.75ZM106.427 24.0909H104.097V21.4773H102.421V24.0909H100.773V25.5114H102.421V32.3295C102.421 34.233 103.955 35.142 105.376 35.142C106.001 35.142 106.398 35.0284 106.626 34.9432L106.285 33.4375C106.143 33.4659 105.915 33.5227 105.546 33.5227C104.808 33.5227 104.097 33.2955 104.097 31.875V25.5114H106.427V24.0909ZM110.859 28.4375C110.859 26.5341 112.073 25.4545 113.728 25.4545C115.305 25.4545 116.256 26.4489 116.256 28.1818V35H117.933V28.0682C117.933 25.2628 116.441 23.9489 114.211 23.9489C112.492 23.9489 111.512 24.6662 111.001 25.7955H110.859V20.4545H109.183V35H110.859V28.4375ZM122.221 35.1136C122.924 35.1136 123.499 34.5384 123.499 33.8352C123.499 33.1321 122.924 32.5568 122.221 32.5568C121.517 32.5568 120.942 33.1321 120.942 33.8352C120.942 34.5384 121.517 35.1136 122.221 35.1136ZM126.734 35H135.626V33.4375H128.495V28.4943H135.058V26.9318H128.495V22.017H135.512V20.4545H126.734V35ZM147.38 24.0909H145.562L142.551 32.7841H142.437L139.426 24.0909H137.608L141.642 35H143.346L147.38 24.0909ZM153.776 35.2273C155.992 35.2273 157.611 34.1193 158.123 32.4716L156.503 32.017C156.077 33.1534 155.09 33.7216 153.776 33.7216C151.809 33.7216 150.452 32.4503 150.374 30.1136H158.293V29.4034C158.293 25.3409 155.878 23.9489 153.605 23.9489C150.651 23.9489 148.691 26.2784 148.691 29.6307C148.691 32.983 150.623 35.2273 153.776 35.2273ZM150.374 28.6648C150.488 26.9673 151.688 25.4545 153.605 25.4545C155.424 25.4545 156.588 26.8182 156.588 28.6648H150.374ZM162.519 28.4375C162.519 26.5341 163.698 25.4545 165.303 25.4545C166.858 25.4545 167.803 26.4702 167.803 28.1818V35H169.479V28.0682C169.479 25.2841 167.995 23.9489 165.786 23.9489C164.138 23.9489 163.115 24.6875 162.604 25.7955H162.462V24.0909H160.843V35H162.519V28.4375ZM177.286 24.0909H174.957V21.4773H173.281V24.0909H171.633V25.5114H173.281V32.3295C173.281 34.233 174.815 35.142 176.235 35.142C176.86 35.142 177.258 35.0284 177.485 34.9432L177.144 33.4375C177.002 33.4659 176.775 33.5227 176.406 33.5227C175.667 33.5227 174.957 33.2955 174.957 31.875V25.5114H177.286V24.0909ZM181.029 35.1136C181.732 35.1136 182.308 34.5384 182.308 33.8352C182.308 33.1321 181.732 32.5568 181.029 32.5568C180.326 32.5568 179.751 33.1321 179.751 33.8352C179.751 34.5384 180.326 35.1136 181.029 35.1136ZM274.388 28.8636C274.388 32.4432 275.354 35.4261 277.087 37.9545H278.565C277.201 36.0795 276.121 32.2443 276.121 28.8636C276.121 25.483 277.201 21.6477 278.565 19.7727H277.087C275.354 22.3011 274.388 25.2841 274.388 28.8636ZM43.5114 53.5341C42.9858 51.9858 41.8068 50.9489 39.6477 50.9489C37.3466 50.9489 35.642 52.2557 35.642 54.1023C35.642 55.608 36.5369 56.6165 38.5398 57.0852L40.358 57.5114C41.4588 57.767 41.9773 58.2926 41.9773 59.0455C41.9773 59.983 40.983 60.75 39.4205 60.75C38.0497 60.75 37.1903 60.1605 36.892 58.9886L35.3011 59.3864C35.6918 61.2401 37.2188 62.2273 39.4489 62.2273C41.9844 62.2273 43.7102 60.8423 43.7102 58.9602C43.7102 57.4403 42.7585 56.4815 40.8125 56.0057L39.1932 55.608C37.9006 55.2884 37.3182 54.8551 37.3182 54.017C37.3182 53.0795 38.3125 52.3977 39.6477 52.3977C41.1108 52.3977 41.7145 53.2074 42.0057 53.9602L43.5114 53.5341ZM50.6651 62.2273C53.0799 62.2273 54.6708 60.75 54.9549 58.8182H53.2788C52.9663 60.0114 51.9719 60.7216 50.6651 60.7216C48.6765 60.7216 47.3981 59.0739 47.3981 56.5455C47.3981 54.0739 48.7049 52.4545 50.6651 52.4545C52.1424 52.4545 53.0231 53.3636 53.2788 54.358H54.9549C54.6708 52.3125 52.9379 50.9489 50.6367 50.9489C47.6822 50.9489 45.7219 53.2784 45.7219 56.6023C45.7219 59.8693 47.5969 62.2273 50.6651 62.2273ZM59.0813 55.4375C59.0813 53.5341 60.2958 52.4545 61.9506 52.4545C63.5273 52.4545 64.479 53.4489 64.479 55.1818V62H66.1552V55.0682C66.1552 52.2628 64.6637 50.9489 62.4336 50.9489C60.7148 50.9489 59.7347 51.6662 59.2234 52.7955H59.0813V47.4545H57.4052V62H59.0813V55.4375ZM73.7955 62.2273C76.0114 62.2273 77.6307 61.1193 78.142 59.4716L76.5227 59.017C76.0966 60.1534 75.1094 60.7216 73.7955 60.7216C71.8281 60.7216 70.4716 59.4503 70.3935 57.1136H78.3125V56.4034C78.3125 52.3409 75.8977 50.9489 73.625 50.9489C70.6705 50.9489 68.7102 53.2784 68.7102 56.6307C68.7102 59.983 70.642 62.2273 73.7955 62.2273ZM70.3935 55.6648C70.5071 53.9673 71.7074 52.4545 73.625 52.4545C75.4432 52.4545 76.608 53.8182 76.608 55.6648H70.3935ZM84.9815 62.2273C87.0838 62.2273 87.794 60.9205 88.1634 60.3239H88.3622V62H89.9815V47.4545H88.3054V52.8239H88.1634C87.794 52.2557 87.1406 50.9489 85.0099 50.9489C82.2543 50.9489 80.3509 53.1364 80.3509 56.5739C80.3509 60.0398 82.2543 62.2273 84.9815 62.2273ZM85.2088 60.7216C83.1065 60.7216 82.027 58.875 82.027 56.5455C82.027 54.2443 83.0781 52.4545 85.2088 52.4545C87.2543 52.4545 88.3338 54.1023 88.3338 56.5455C88.3338 59.017 87.2259 60.7216 85.2088 60.7216ZM100.159 57.5398C100.159 59.5852 98.5966 60.5227 97.3466 60.5227C95.9545 60.5227 94.9602 59.5 94.9602 57.9091V51.0909H93.2841V58.0227C93.2841 60.8068 94.7614 62.142 96.8068 62.142C98.4545 62.142 99.5341 61.2614 100.045 60.1534H100.159V62H101.835V51.0909H100.159V57.5398ZM106.581 47.4545H104.905V62H106.581V47.4545ZM114.225 62.2273C116.441 62.2273 118.06 61.1193 118.572 59.4716L116.952 59.017C116.526 60.1534 115.539 60.7216 114.225 60.7216C112.258 60.7216 110.901 59.4503 110.823 57.1136H118.742V56.4034C118.742 52.3409 116.327 50.9489 114.055 50.9489C111.1 50.9489 109.14 53.2784 109.14 56.6307C109.14 59.983 111.072 62.2273 114.225 62.2273ZM110.823 55.6648C110.937 53.9673 112.137 52.4545 114.055 52.4545C115.873 52.4545 117.038 53.8182 117.038 55.6648H110.823ZM125.411 62.2273C127.513 62.2273 128.224 60.9205 128.593 60.3239H128.792V62H130.411V47.4545H128.735V52.8239H128.593C128.224 52.2557 127.57 50.9489 125.44 50.9489C122.684 50.9489 120.781 53.1364 120.781 56.5739C120.781 60.0398 122.684 62.2273 125.411 62.2273ZM125.638 60.7216C123.536 60.7216 122.457 58.875 122.457 56.5455C122.457 54.2443 123.508 52.4545 125.638 52.4545C127.684 52.4545 128.763 54.1023 128.763 56.5455C128.763 59.017 127.656 60.7216 125.638 60.7216ZM141.926 62H132.835V63.5625H141.926V62ZM148.298 51.0909H145.855V49.983C145.855 48.9034 146.31 48.3352 147.418 48.3352C147.901 48.3352 148.185 48.4489 148.355 48.5057L148.838 47.0568C148.582 46.9432 148.071 46.7727 147.247 46.7727C145.685 46.7727 144.179 47.7102 144.179 49.5852V51.0909H142.418V52.5114H144.179V62H145.855V52.5114H148.298V51.0909ZM154.63 62.2273C157.585 62.2273 159.573 59.983 159.573 56.6023C159.573 53.1932 157.585 50.9489 154.63 50.9489C151.675 50.9489 149.687 53.1932 149.687 56.6023C149.687 59.983 151.675 62.2273 154.63 62.2273ZM154.63 60.7216C152.386 60.7216 151.363 58.7898 151.363 56.6023C151.363 54.4148 152.386 52.4545 154.63 52.4545C156.874 52.4545 157.897 54.4148 157.897 56.6023C157.897 58.7898 156.874 60.7216 154.63 60.7216ZM162.132 62H163.808V55.0966C163.808 53.6193 164.973 52.5398 166.564 52.5398C167.011 52.5398 167.473 52.625 167.586 52.6534V50.9489C167.395 50.9347 166.954 50.9205 166.706 50.9205C165.399 50.9205 164.262 51.6591 163.865 52.7386H163.751V51.0909H162.132V62ZM170.255 59.1875H179.005V57.6534H170.255V59.1875ZM170.255 54.983H179.005V53.4489H170.255V54.983ZM187.416 62C191.791 62 194.284 59.2656 194.291 54.6918C194.291 50.1676 191.833 47.4545 187.672 47.4545H183.154V62H187.416ZM184.483 60.8068V48.6477H187.593C191.123 48.6477 192.998 50.9276 193.005 54.6918C193.005 58.4915 191.088 60.8068 187.338 60.8068H184.483ZM196.848 62L198.403 57.6179H204.511L206.066 62H207.458L202.167 47.4545H200.747L195.456 62H196.848ZM198.829 56.4247L201.407 49.1804H201.507L204.085 56.4247H198.829ZM207.371 48.6477H211.981V62H213.309V48.6477H217.918V47.4545H207.371V48.6477ZM220.908 62H229.488V60.8068H222.237V55.3168H228.898V54.1236H222.237V48.6477H229.346V47.4545H220.908V62ZM231.903 48.6477H236.512V62H237.84V48.6477H242.45V47.4545H231.903V48.6477ZM246.768 47.4545H245.44V62H246.768V47.4545ZM250.635 47.4545V62H251.885V50.2599H251.999L256.906 62H258.114L263.021 50.2599H263.135V62H264.385V47.4545H262.851L257.574 60.125H257.446L252.169 47.4545H250.635ZM268.252 62H276.832V60.8068H269.58V55.3168H276.242V54.1236H269.58V48.6477H276.69V47.4545H268.252V62ZM282.229 60.0114H280.411L280.326 60.8068C280.12 62.7315 279.715 64.6491 279.531 65.5511H280.809C281.15 64.5852 281.874 62.3977 282.116 60.7784L282.229 60.0114ZM35.7841 89H37.4602V82.1818C37.4602 80.5838 38.625 79.4545 39.9318 79.4545C41.2031 79.4545 42.0909 80.2855 42.0909 81.5284V89H43.7955V81.8977C43.7955 80.4915 44.6761 79.4545 46.2102 79.4545C47.4034 79.4545 48.4261 80.0866 48.4261 81.6989V89H50.1023V81.6989C50.1023 79.1349 48.7244 77.9489 46.7784 77.9489C45.2159 77.9489 44.0724 78.6662 43.5114 79.7955H43.3977C42.858 78.6307 41.9062 77.9489 40.4716 77.9489C39.0511 77.9489 38 78.6307 37.5455 79.7955H37.4034V78.0909H35.7841V89ZM57.7408 89.2273C59.9567 89.2273 61.576 88.1193 62.0874 86.4716L60.468 86.017C60.0419 87.1534 59.0547 87.7216 57.7408 87.7216C55.7734 87.7216 54.4169 86.4503 54.3388 84.1136H62.2578V83.4034C62.2578 79.3409 59.843 77.9489 57.5703 77.9489C54.6158 77.9489 52.6555 80.2784 52.6555 83.6307C52.6555 86.983 54.5874 89.2273 57.7408 89.2273ZM54.3388 82.6648C54.4524 80.9673 55.6527 79.4545 57.5703 79.4545C59.3885 79.4545 60.5533 80.8182 60.5533 82.6648H54.3388ZM69.5518 78.0909H67.2223V75.4773H65.5462V78.0909H63.8984V79.5114H65.5462V86.3295C65.5462 88.233 67.0803 89.142 68.5007 89.142C69.1257 89.142 69.5234 89.0284 69.7507 88.9432L69.4098 87.4375C69.2678 87.4659 69.0405 87.5227 68.6712 87.5227C67.9325 87.5227 67.2223 87.2955 67.2223 85.875V79.5114H69.5518V78.0909ZM73.9837 82.4375C73.9837 80.5341 75.1982 79.4545 76.853 79.4545C78.4297 79.4545 79.3814 80.4489 79.3814 82.1818V89H81.0575V82.0682C81.0575 79.2628 79.5661 77.9489 77.3359 77.9489C75.6172 77.9489 74.6371 78.6662 74.1257 79.7955H73.9837V74.4545H72.3075V89H73.9837V82.4375ZM88.5558 89.2273C91.5103 89.2273 93.4989 86.983 93.4989 83.6023C93.4989 80.1932 91.5103 77.9489 88.5558 77.9489C85.6012 77.9489 83.6126 80.1932 83.6126 83.6023C83.6126 86.983 85.6012 89.2273 88.5558 89.2273ZM88.5558 87.7216C86.3114 87.7216 85.2887 85.7898 85.2887 83.6023C85.2887 81.4148 86.3114 79.4545 88.5558 79.4545C90.8001 79.4545 91.8228 81.4148 91.8228 83.6023C91.8228 85.7898 90.8001 87.7216 88.5558 87.7216ZM100.177 89.2273C102.279 89.2273 102.989 87.9205 103.359 87.3239H103.558V89H105.177V74.4545H103.501V79.8239H103.359C102.989 79.2557 102.336 77.9489 100.205 77.9489C97.4496 77.9489 95.5462 80.1364 95.5462 83.5739C95.5462 87.0398 97.4496 89.2273 100.177 89.2273ZM100.404 87.7216C98.3018 87.7216 97.2223 85.875 97.2223 83.5455C97.2223 81.2443 98.2734 79.4545 100.404 79.4545C102.45 79.4545 103.529 81.1023 103.529 83.5455C103.529 86.017 102.421 87.7216 100.404 87.7216ZM109.161 86.1875H117.911V84.6534H109.161V86.1875ZM109.161 81.983H117.911V80.4489H109.161V81.983ZM122.877 74.4545H121.684V79.3054H122.877V74.4545ZM126.208 74.4545H125.015V79.3054H126.208V74.4545ZM129.433 93.0909H130.704V86.9759H130.818C131.251 87.9773 132.189 89.2273 134.17 89.2273C136.841 89.2273 138.659 86.9545 138.659 83.5739C138.659 80.2074 136.848 77.9418 134.149 77.9418C132.146 77.9418 131.258 79.1918 130.818 80.1719H130.662V78.0909H129.433V93.0909ZM130.683 83.5526C130.683 80.9389 131.883 79.0923 134.014 79.0923C136.208 79.0923 137.387 81.0384 137.387 83.5526C137.387 86.0952 136.187 88.0696 134.014 88.0696C131.904 88.0696 130.683 86.1875 130.683 83.5526ZM145.667 89.2273C148.494 89.2273 150.468 86.919 150.468 83.5952C150.468 80.25 148.494 77.9418 145.667 77.9418C142.84 77.9418 140.866 80.25 140.866 83.5952C140.866 86.919 142.84 89.2273 145.667 89.2273ZM145.667 88.0696C143.401 88.0696 142.137 86.0384 142.137 83.5952C142.137 81.152 143.401 79.0923 145.667 79.0923C147.933 79.0923 149.197 81.152 149.197 83.5952C149.197 86.0384 147.933 88.0696 145.667 88.0696ZM160.573 80.4844C160.04 78.9077 158.875 77.9418 156.88 77.9418C154.678 77.9418 153.08 79.1989 153.08 80.9957C153.08 82.4588 153.968 83.4531 155.864 83.9077L157.647 84.3338C158.847 84.6179 159.422 85.2358 159.422 86.1094C159.422 87.2457 158.336 88.0909 156.659 88.0909C155.168 88.0909 154.238 87.4162 153.932 86.1236L152.718 86.4219C153.101 88.2401 154.543 89.2273 156.681 89.2273C159.081 89.2273 160.729 87.9062 160.729 86.0526C160.729 84.5966 159.813 83.6236 157.988 83.1761L156.34 82.7713C154.983 82.4304 154.351 81.8835 154.351 80.9389C154.351 79.831 155.409 79.0568 156.88 79.0568C158.35 79.0568 159.074 79.831 159.415 80.8111L160.573 80.4844ZM167.794 78.0909H165.486V75.4773H164.214V78.0909H162.588V79.1918H164.214V86.4503C164.214 88.233 165.621 89.1634 167.02 89.1634C167.545 89.1634 167.901 89.0639 168.142 88.9716L167.872 87.8281C167.695 87.8778 167.467 87.9276 167.134 87.9276C166.274 87.9276 165.486 87.5227 165.486 86.152V79.1918H167.794V78.0909ZM171.745 74.4545H170.551V79.3054H171.745V74.4545ZM175.076 74.4545H173.882V79.3054H175.076V74.4545ZM180.686 87.0114H178.868L178.783 87.8068C178.577 89.7315 178.172 91.6491 177.988 92.5511H179.266C179.607 91.5852 180.331 89.3977 180.573 87.7784L180.686 87.0114ZM36.0114 116H37.6307V114.324H37.8295C38.1989 114.92 38.9091 116.227 41.0114 116.227C43.7386 116.227 45.642 114.04 45.642 110.574C45.642 107.136 43.7386 104.949 40.983 104.949C38.8523 104.949 38.1989 106.256 37.8295 106.824H37.6875V101.455H36.0114V116ZM37.6591 110.545C37.6591 108.102 38.7386 106.455 40.7841 106.455C42.9148 106.455 43.9659 108.244 43.9659 110.545C43.9659 112.875 42.8864 114.722 40.7841 114.722C38.767 114.722 37.6591 113.017 37.6591 110.545ZM52.6378 116.227C55.5923 116.227 57.581 113.983 57.581 110.602C57.581 107.193 55.5923 104.949 52.6378 104.949C49.6832 104.949 47.6946 107.193 47.6946 110.602C47.6946 113.983 49.6832 116.227 52.6378 116.227ZM52.6378 114.722C50.3935 114.722 49.3707 112.79 49.3707 110.602C49.3707 108.415 50.3935 106.455 52.6378 106.455C54.8821 106.455 55.9048 108.415 55.9048 110.602C55.9048 112.79 54.8821 114.722 52.6378 114.722ZM64.2589 116.227C66.3612 116.227 67.0714 114.92 67.4407 114.324H67.6396V116H69.2589V101.455H67.5827V106.824H67.4407C67.0714 106.256 66.418 104.949 64.2873 104.949C61.5316 104.949 59.6282 107.136 59.6282 110.574C59.6282 114.04 61.5316 116.227 64.2589 116.227ZM64.4862 114.722C62.3839 114.722 61.3043 112.875 61.3043 110.545C61.3043 108.244 62.3555 106.455 64.4862 106.455C66.5316 106.455 67.6112 108.102 67.6112 110.545C67.6112 113.017 66.5032 114.722 64.4862 114.722ZM73.641 120.091C75.1538 120.091 76.2191 119.288 76.8512 117.591L81.4961 105.119L79.6637 105.091L76.6523 113.784H76.5387L73.5273 105.091H71.7092L75.7433 116.057L75.4308 116.909C74.82 118.571 74.0671 118.727 72.8455 118.415L72.4194 119.892C72.5898 119.977 73.0728 120.091 73.641 120.091ZM83.5948 113.188H92.3448V111.653H83.5948V113.188ZM83.5948 108.983H92.3448V107.449H83.5948V108.983ZM97.3111 101.455H96.1179V106.305H97.3111V101.455ZM100.642 101.455H99.4489V106.305H100.642V101.455ZM106.935 116.249C108.753 116.249 109.861 115.24 110.315 114.274H110.393V116H111.658V108.592C111.658 105.666 109.456 104.942 107.787 104.942C106.118 104.942 104.399 105.602 103.661 107.385L104.861 107.818C105.259 106.881 106.246 106.078 107.822 106.078C109.477 106.078 110.393 106.987 110.393 108.479V108.734C110.393 109.558 109.371 109.572 107.538 109.8C105.074 110.105 103.348 110.794 103.348 112.953C103.348 115.055 104.953 116.249 106.935 116.249ZM107.105 115.091C105.678 115.091 104.612 114.331 104.612 113.01C104.612 111.689 105.692 111.135 107.538 110.908C108.433 110.801 110.024 110.602 110.393 110.24V111.817C110.393 113.607 109.122 115.091 107.105 115.091ZM116.285 109.182C116.285 107.278 117.535 106.107 119.254 106.107C120.93 106.107 122.009 107.229 122.009 109.011V116H123.273V108.933C123.273 106.348 121.775 104.949 119.573 104.949C117.975 104.949 116.874 105.688 116.363 106.803H116.249V105.091H115.021V116H116.285V109.182ZM127.093 120.091C128.456 120.091 129.458 119.31 130.04 117.726L134.664 105.112L133.286 105.091L130.047 114.331H129.948L126.709 105.091H125.338L129.351 116.107L128.953 117.214C128.35 118.862 127.498 119.153 126.212 118.749L125.871 119.864C126.127 119.984 126.596 120.091 127.093 120.091ZM141.427 105.091H139.119V102.477H137.847V105.091H136.221V106.192H137.847V113.45C137.847 115.233 139.254 116.163 140.653 116.163C141.178 116.163 141.533 116.064 141.775 115.972L141.505 114.828C141.327 114.878 141.1 114.928 140.766 114.928C139.907 114.928 139.119 114.523 139.119 113.152V106.192H141.427V105.091ZM145.797 109.182C145.797 107.278 147.075 106.107 148.822 106.107C150.512 106.107 151.592 107.214 151.592 109.011V116H152.863V108.933C152.863 106.334 151.358 104.949 149.142 104.949C147.494 104.949 146.422 105.673 145.91 106.803H145.797V101.455H144.532V116H145.797V109.182ZM156.207 116H157.478V105.091H156.207V116ZM156.853 103.216C157.371 103.216 157.805 102.804 157.805 102.307C157.805 101.81 157.371 101.398 156.853 101.398C156.335 101.398 155.908 101.81 155.908 102.307C155.908 102.804 156.335 103.216 156.853 103.216ZM162.086 109.182C162.086 107.278 163.336 106.107 165.054 106.107C166.73 106.107 167.81 107.229 167.81 109.011V116H169.074V108.933C169.074 106.348 167.576 104.949 165.374 104.949C163.776 104.949 162.675 105.688 162.164 106.803H162.05V105.091H160.821V116H162.086V109.182ZM176.565 120.318C179.151 120.318 181.068 119.054 181.068 116.284V105.091H179.832V107.172H179.705C179.257 106.192 178.355 104.942 176.352 104.942C173.653 104.942 171.842 107.2 171.842 110.517C171.842 113.862 173.717 115.886 176.331 115.886C178.291 115.886 179.25 114.75 179.683 113.749H179.797V116.206C179.797 118.237 178.497 119.182 176.565 119.182C174.697 119.182 173.803 118.28 173.341 117.449L172.304 118.131C172.943 119.381 174.335 120.318 176.565 120.318ZM176.48 114.729C174.314 114.729 173.114 112.996 173.114 110.496C173.114 108.038 174.293 106.092 176.48 106.092C178.618 106.092 179.818 107.939 179.818 110.496C179.818 113.131 178.582 114.729 176.48 114.729ZM185.495 101.455H184.301V106.305H185.495V101.455ZM188.826 101.455H187.632V106.305H188.826V101.455ZM194.436 114.011H192.618L192.533 114.807C192.327 116.732 191.922 118.649 191.738 119.551H193.016C193.357 118.585 194.081 116.398 194.323 114.778L194.436 114.011ZM40.358 143.227C42.5739 143.227 44.1932 142.119 44.7045 140.472L43.0852 140.017C42.6591 141.153 41.6719 141.722 40.358 141.722C38.3906 141.722 37.0341 140.45 36.956 138.114H44.875V137.403C44.875 133.341 42.4602 131.949 40.1875 131.949C37.233 131.949 35.2727 134.278 35.2727 137.631C35.2727 140.983 37.2045 143.227 40.358 143.227ZM36.956 136.665C37.0696 134.967 38.2699 133.455 40.1875 133.455C42.0057 133.455 43.1705 134.818 43.1705 136.665H36.956ZM49.1009 136.438C49.1009 134.534 50.2798 133.455 51.8849 133.455C53.4403 133.455 54.3849 134.47 54.3849 136.182V143H56.0611V136.068C56.0611 133.284 54.5767 131.949 52.3679 131.949C50.7202 131.949 49.6974 132.688 49.1861 133.795H49.044V132.091H47.4247V143H49.1009V136.438ZM63.2433 143.227C65.3455 143.227 66.0558 141.92 66.4251 141.324H66.6239V143H68.2433V128.455H66.5671V133.824H66.4251C66.0558 133.256 65.4023 131.949 63.2717 131.949C60.516 131.949 58.6126 134.136 58.6126 137.574C58.6126 141.04 60.516 143.227 63.2433 143.227ZM63.4705 141.722C61.3683 141.722 60.2887 139.875 60.2887 137.545C60.2887 135.244 61.3398 133.455 63.4705 133.455C65.516 133.455 66.5955 135.102 66.5955 137.545C66.5955 140.017 65.4876 141.722 63.4705 141.722ZM71.5458 147.091H73.2219V141.324H73.364C73.7333 141.92 74.4435 143.227 76.5458 143.227C79.2731 143.227 81.1765 141.04 81.1765 137.574C81.1765 134.136 79.2731 131.949 76.5174 131.949C74.3867 131.949 73.7333 133.256 73.364 133.824H73.1651V132.091H71.5458V147.091ZM73.1935 137.545C73.1935 135.102 74.2731 133.455 76.3185 133.455C78.4492 133.455 79.5004 135.244 79.5004 137.545C79.5004 139.875 78.4208 141.722 76.3185 141.722C74.3015 141.722 73.1935 140.017 73.1935 137.545ZM88.1651 143.227C91.1197 143.227 93.1083 140.983 93.1083 137.602C93.1083 134.193 91.1197 131.949 88.1651 131.949C85.2106 131.949 83.2219 134.193 83.2219 137.602C83.2219 140.983 85.2106 143.227 88.1651 143.227ZM88.1651 141.722C85.9208 141.722 84.8981 139.79 84.8981 137.602C84.8981 135.415 85.9208 133.455 88.1651 133.455C90.4094 133.455 91.4322 135.415 91.4322 137.602C91.4322 139.79 90.4094 141.722 88.1651 141.722ZM95.6669 143H97.343V132.091H95.6669V143ZM96.5192 130.273C97.1726 130.273 97.7124 129.761 97.7124 129.136C97.7124 128.511 97.1726 128 96.5192 128C95.8658 128 95.326 128.511 95.326 129.136C95.326 129.761 95.8658 130.273 96.5192 130.273ZM102.089 136.438C102.089 134.534 103.268 133.455 104.873 133.455C106.429 133.455 107.373 134.47 107.373 136.182V143H109.049V136.068C109.049 133.284 107.565 131.949 105.356 131.949C103.708 131.949 102.686 132.688 102.174 133.795H102.032V132.091H100.413V143H102.089V136.438ZM116.857 132.091H114.527V129.477H112.851V132.091H111.203V133.511H112.851V140.33C112.851 142.233 114.385 143.142 115.805 143.142C116.43 143.142 116.828 143.028 117.055 142.943L116.714 141.438C116.572 141.466 116.345 141.523 115.976 141.523C115.237 141.523 114.527 141.295 114.527 139.875V133.511H116.857V132.091ZM120.06 140.188H128.81V138.653H120.06V140.188ZM120.06 135.983H128.81V134.449H120.06V135.983ZM133.776 128.455H132.583V133.305H133.776V128.455ZM137.107 128.455H135.914V133.305H137.107V128.455ZM141.617 136.182C141.617 134.278 142.895 133.107 144.642 133.107C146.333 133.107 147.412 134.214 147.412 136.011V143H148.684V135.933C148.684 133.334 147.178 131.949 144.962 131.949C143.314 131.949 142.242 132.673 141.73 133.803H141.617V128.455H140.353V143H141.617V136.182ZM156.31 132.091H154.001V129.477H152.73V132.091H151.104V133.192H152.73V140.45C152.73 142.233 154.136 143.163 155.536 143.163C156.061 143.163 156.416 143.064 156.658 142.972L156.388 141.828C156.21 141.878 155.983 141.928 155.649 141.928C154.79 141.928 154.001 141.523 154.001 140.152V133.192H156.31V132.091ZM163.478 132.091H161.169V129.477H159.898V132.091H158.272V133.192H159.898V140.45C159.898 142.233 161.304 143.163 162.703 143.163C163.229 143.163 163.584 143.064 163.826 142.972L163.556 141.828C163.378 141.878 163.151 141.928 162.817 141.928C161.958 141.928 161.169 141.523 161.169 140.152V133.192H163.478V132.091ZM166.327 147.091H167.599V140.976H167.712C168.146 141.977 169.083 143.227 171.065 143.227C173.735 143.227 175.553 140.955 175.553 137.574C175.553 134.207 173.742 131.942 171.043 131.942C169.04 131.942 168.153 133.192 167.712 134.172H167.556V132.091H166.327V147.091ZM167.577 137.553C167.577 134.939 168.778 133.092 170.908 133.092C173.103 133.092 174.282 135.038 174.282 137.553C174.282 140.095 173.082 142.07 170.908 142.07C168.799 142.07 167.577 140.188 167.577 137.553ZM185.651 134.484C185.118 132.908 183.953 131.942 181.958 131.942C179.756 131.942 178.158 133.199 178.158 134.996C178.158 136.459 179.046 137.453 180.942 137.908L182.725 138.334C183.925 138.618 184.5 139.236 184.5 140.109C184.5 141.246 183.414 142.091 181.738 142.091C180.246 142.091 179.316 141.416 179.01 140.124L177.796 140.422C178.179 142.24 179.621 143.227 181.759 143.227C184.159 143.227 185.807 141.906 185.807 140.053C185.807 138.597 184.891 137.624 183.066 137.176L181.418 136.771C180.061 136.43 179.429 135.884 179.429 134.939C179.429 133.831 180.488 133.057 181.958 133.057C183.428 133.057 184.152 133.831 184.493 134.811L185.651 134.484ZM189.584 142.73C190.152 142.73 190.607 142.268 190.607 141.707C190.607 141.139 190.152 140.685 189.584 140.685C189.023 140.685 188.561 141.139 188.561 141.707C188.561 142.268 189.023 142.73 189.584 142.73ZM189.584 134.861C190.152 134.861 190.607 134.399 190.607 133.838C190.607 133.27 190.152 132.815 189.584 132.815C189.023 132.815 188.561 133.27 188.561 133.838C188.561 134.399 189.023 134.861 189.584 134.861ZM198.669 127.773H197.483L192.796 145.188H193.982L198.669 127.773ZM205.583 127.773H204.397L199.71 145.188H200.896L205.583 127.773ZM211.702 143.227C213.684 143.227 214.607 141.97 215.054 140.976H215.203V143H216.439V128.455H215.168V134.172H215.054C214.621 133.192 213.719 131.942 211.723 131.942C209.032 131.942 207.213 134.214 207.213 137.574C207.213 140.962 209.025 143.227 211.702 143.227ZM211.851 142.07C209.678 142.07 208.485 140.095 208.485 137.553C208.485 135.038 209.664 133.092 211.851 133.092C213.982 133.092 215.189 134.939 215.189 137.553C215.189 140.188 213.968 142.07 211.851 142.07ZM226.972 138.831C226.972 140.834 225.466 141.913 223.989 141.913C222.412 141.913 221.304 140.784 221.304 139.08V132.091H220.04V139.158C220.04 141.743 221.532 143.142 223.627 143.142C225.225 143.142 226.361 142.311 226.873 141.189H226.972V143H228.236V132.091H226.972V138.831ZM231.583 143H232.847V136.011C232.847 134.314 233.977 133.107 235.489 133.107C236.981 133.107 237.847 134.101 237.847 135.578V143H239.14V135.82C239.14 134.25 240.077 133.107 241.739 133.107C243.181 133.107 244.14 133.973 244.14 135.692V143H245.404V135.692C245.404 133.249 244.147 131.949 242.123 131.949C240.532 131.949 239.381 132.723 238.891 133.93H238.799C238.316 132.695 237.357 131.949 235.852 131.949C234.424 131.949 233.359 132.638 232.925 133.767H232.812V132.091H231.583V143ZM248.751 143H250.015V136.011C250.015 134.314 251.145 133.107 252.657 133.107C254.149 133.107 255.015 134.101 255.015 135.578V143H256.308V135.82C256.308 134.25 257.245 133.107 258.907 133.107C260.349 133.107 261.308 133.973 261.308 135.692V143H262.572V135.692C262.572 133.249 261.315 131.949 259.291 131.949C257.7 131.949 256.549 132.723 256.059 133.93H255.967C255.484 132.695 254.525 131.949 253.02 131.949C251.592 131.949 250.527 132.638 250.093 133.767H249.98V132.091H248.751V143ZM266.409 147.091C267.773 147.091 268.774 146.31 269.357 144.726L273.98 132.112L272.602 132.091L269.364 141.331H269.264L266.026 132.091H264.655L268.668 143.107L268.27 144.214C267.666 145.862 266.814 146.153 265.528 145.749L265.188 146.864C265.443 146.984 265.912 147.091 266.409 147.091ZM276.771 143.107C277.339 143.107 277.794 142.645 277.794 142.084C277.794 141.516 277.339 141.061 276.771 141.061C276.21 141.061 275.749 141.516 275.749 142.084C275.749 142.645 276.21 143.107 276.771 143.107ZM281.397 143H282.625V140.976H282.782C283.222 141.977 284.145 143.227 286.134 143.227C288.811 143.227 290.623 140.962 290.623 137.574C290.623 134.214 288.804 131.942 286.113 131.942C284.117 131.942 283.215 133.192 282.782 134.172H282.668V128.455H281.397V143ZM282.647 137.553C282.647 134.939 283.847 133.092 285.978 133.092C288.165 133.092 289.351 135.038 289.351 137.553C289.351 140.095 288.151 142.07 285.978 142.07C283.861 142.07 282.647 140.188 282.647 137.553ZM294.664 128.455H293.4V143H294.664V128.455ZM302.249 143.227C305.076 143.227 307.05 140.919 307.05 137.595C307.05 134.25 305.076 131.942 302.249 131.942C299.422 131.942 297.448 134.25 297.448 137.595C297.448 140.919 299.422 143.227 302.249 143.227ZM302.249 142.07C299.983 142.07 298.719 140.038 298.719 137.595C298.719 135.152 299.983 133.092 302.249 133.092C304.515 133.092 305.779 135.152 305.779 137.595C305.779 140.038 304.515 142.07 302.249 142.07ZM314.065 143.227C316.892 143.227 318.866 140.919 318.866 137.595C318.866 134.25 316.892 131.942 314.065 131.942C311.239 131.942 309.264 134.25 309.264 137.595C309.264 140.919 311.239 143.227 314.065 143.227ZM314.065 142.07C311.8 142.07 310.536 140.038 310.536 137.595C310.536 135.152 311.8 133.092 314.065 133.092C316.331 133.092 317.595 135.152 317.595 137.595C317.595 140.038 316.331 142.07 314.065 142.07ZM325.569 143.227C327.551 143.227 328.474 141.97 328.922 140.976H329.071V143H330.306V128.455H329.035V134.172H328.922C328.488 133.192 327.586 131.942 325.591 131.942C322.899 131.942 321.081 134.214 321.081 137.574C321.081 140.962 322.892 143.227 325.569 143.227ZM325.718 142.07C323.545 142.07 322.352 140.095 322.352 137.553C322.352 135.038 323.531 133.092 325.718 133.092C327.849 133.092 329.056 134.939 329.056 137.553C329.056 140.188 327.835 142.07 325.718 142.07ZM334.17 143H335.399V140.976H335.555C335.995 141.977 336.919 143.227 338.907 143.227C341.585 143.227 343.396 140.962 343.396 137.574C343.396 134.214 341.578 131.942 338.886 131.942C336.89 131.942 335.988 133.192 335.555 134.172H335.441V128.455H334.17V143ZM335.42 137.553C335.42 134.939 336.62 133.092 338.751 133.092C340.939 133.092 342.125 135.038 342.125 137.553C342.125 140.095 340.924 142.07 338.751 142.07C336.635 142.07 335.42 140.188 335.42 137.553ZM349.22 143.249C351.038 143.249 352.146 142.24 352.6 141.274H352.679V143H353.943V135.592C353.943 132.666 351.741 131.942 350.072 131.942C348.403 131.942 346.684 132.602 345.946 134.385L347.146 134.818C347.544 133.881 348.531 133.078 350.108 133.078C351.762 133.078 352.679 133.987 352.679 135.479V135.734C352.679 136.558 351.656 136.572 349.824 136.8C347.359 137.105 345.633 137.794 345.633 139.953C345.633 142.055 347.238 143.249 349.22 143.249ZM349.39 142.091C347.963 142.091 346.897 141.331 346.897 140.01C346.897 138.689 347.977 138.135 349.824 137.908C350.718 137.801 352.309 137.602 352.679 137.24V138.817C352.679 140.607 351.407 142.091 349.39 142.091ZM361.603 132.091H359.294V129.477H358.023V132.091H356.397V133.192H358.023V140.45C358.023 142.233 359.429 143.163 360.828 143.163C361.354 143.163 361.709 143.064 361.951 142.972L361.681 141.828C361.503 141.878 361.276 141.928 360.942 141.928C360.083 141.928 359.294 141.523 359.294 140.152V133.192H361.603V132.091ZM365.972 136.182C365.972 134.278 367.251 133.107 368.998 133.107C370.688 133.107 371.768 134.214 371.768 136.011V143H373.039V135.933C373.039 133.334 371.533 131.949 369.317 131.949C367.67 131.949 366.597 132.673 366.086 133.803H365.972V128.455H364.708V143H365.972V136.182ZM377.377 143.107C377.945 143.107 378.4 142.645 378.4 142.084C378.4 141.516 377.945 141.061 377.377 141.061C376.816 141.061 376.354 141.516 376.354 142.084C376.354 142.645 376.816 143.107 377.377 143.107ZM381.754 143H383.025V132.091H381.754V143ZM382.4 130.216C382.918 130.216 383.352 129.804 383.352 129.307C383.352 128.81 382.918 128.398 382.4 128.398C381.881 128.398 381.455 128.81 381.455 129.307C381.455 129.804 381.881 130.216 382.4 130.216ZM390.608 143.227C393.435 143.227 395.409 140.919 395.409 137.595C395.409 134.25 393.435 131.942 390.608 131.942C387.782 131.942 385.807 134.25 385.807 137.595C385.807 140.919 387.782 143.227 390.608 143.227ZM390.608 142.07C388.343 142.07 387.078 140.038 387.078 137.595C387.078 135.152 388.343 133.092 390.608 133.092C392.874 133.092 394.138 135.152 394.138 137.595C394.138 140.038 392.874 142.07 390.608 142.07ZM399.264 128.455H398.071V133.305H399.264V128.455ZM402.595 128.455H401.402V133.305H402.595V128.455ZM28.1136 163.864C28.1136 160.284 27.1477 157.301 25.4148 154.773H23.9375C25.3011 156.648 26.3807 160.483 26.3807 163.864C26.3807 167.244 25.3011 171.08 23.9375 172.955H25.4148C27.1477 170.426 28.1136 167.443 28.1136 163.864Z" fill="black"/>
<path d="M193.724 26.9744C193.369 25.1278 191.892 23.9489 189.335 23.9489C186.707 23.9489 184.918 25.2415 184.925 27.2585C184.918 28.8494 185.898 29.9006 187.993 30.3338L189.854 30.7244C190.855 30.9446 191.324 31.3494 191.324 31.9673C191.324 32.7131 190.514 33.2741 189.293 33.2741C188.114 33.2741 187.347 32.7628 187.126 31.7827L184.619 32.0241C184.939 34.027 186.622 35.2131 189.3 35.2131C192.027 35.2131 193.952 33.7997 193.959 31.733C193.952 30.1776 192.95 29.2259 190.891 28.7784L189.03 28.3807C187.922 28.1321 187.482 27.7486 187.489 27.1165C187.482 26.3778 188.298 25.8665 189.371 25.8665C190.557 25.8665 191.182 26.5128 191.381 27.2301L193.724 26.9744ZM200.837 35.2131C203.579 35.2131 205.326 33.5866 205.511 31.2713H203.053C202.833 32.4432 201.988 33.1179 200.859 33.1179C199.254 33.1179 198.217 31.7756 198.217 29.5455C198.217 27.3438 199.275 26.0227 200.859 26.0227C202.094 26.0227 202.854 26.8182 203.053 27.8693H205.511C205.333 25.5043 203.487 23.9489 200.823 23.9489C197.627 23.9489 195.61 26.2571 195.61 29.5881C195.61 32.8906 197.577 35.2131 200.837 35.2131ZM210.193 28.608C210.193 27.0312 211.173 26.1222 212.551 26.1222C213.9 26.1222 214.696 26.9815 214.696 28.4517V35H217.267V28.054C217.267 25.419 215.775 23.9489 213.51 23.9489C211.833 23.9489 210.768 24.7088 210.264 25.9446H210.136V20.4545H207.622V35H210.193V28.608ZM224.717 35.2131C227.26 35.2131 229.007 33.9702 229.461 32.0739L227.061 31.804C226.713 32.7273 225.86 33.2102 224.752 33.2102C223.091 33.2102 221.99 32.1165 221.968 30.2486H229.568V29.4602C229.568 25.6321 227.267 23.9489 224.582 23.9489C221.457 23.9489 219.419 26.2429 219.419 29.6094C219.419 33.0327 221.429 35.2131 224.717 35.2131ZM221.975 28.5156C222.054 27.1236 223.083 25.9517 224.618 25.9517C226.095 25.9517 227.089 27.0312 227.103 28.5156H221.975ZM235.791 35.1918C237.666 35.1918 238.511 34.0767 238.916 33.2812H239.072V35H241.601V20.4545H239.023V25.8949H238.916C238.526 25.1065 237.723 23.9489 235.798 23.9489C233.277 23.9489 231.295 25.9233 231.295 29.5597C231.295 33.1534 233.22 35.1918 235.791 35.1918ZM236.509 33.0824C234.811 33.0824 233.916 31.5909 233.916 29.5455C233.916 27.5142 234.797 26.0582 236.509 26.0582C238.163 26.0582 239.072 27.429 239.072 29.5455C239.072 31.6619 238.149 33.0824 236.509 33.0824ZM251.294 30.4119C251.294 32.0739 250.108 32.8977 248.971 32.8977C247.735 32.8977 246.912 32.0241 246.912 30.6392V24.0909H244.341V31.0369C244.341 33.6577 245.832 35.142 247.977 35.142C249.61 35.142 250.761 34.2827 251.258 33.0611H251.372V35H253.865V24.0909H251.294V30.4119ZM259.08 20.4545H256.509V35H259.08V20.4545ZM266.553 35.2131C269.096 35.2131 270.843 33.9702 271.297 32.0739L268.897 31.804C268.549 32.7273 267.696 33.2102 266.588 33.2102C264.926 33.2102 263.826 32.1165 263.804 30.2486H271.404V29.4602C271.404 25.6321 269.103 23.9489 266.418 23.9489C263.293 23.9489 261.255 26.2429 261.255 29.6094C261.255 33.0327 263.265 35.2131 266.553 35.2131ZM263.811 28.5156C263.89 27.1236 264.919 25.9517 266.453 25.9517C267.931 25.9517 268.925 27.0312 268.939 28.5156H263.811Z" fill="#EA5758"/>
<rect x="0.5" y="0.5" width="418" height="186" rx="5.5" stroke="#DFE2E6"/>
</svg>
