<svg width="500" height="305" viewBox="0 0 500 305" fill="none" xmlns="http://www.w3.org/2000/svg">
<g clip-path="url(#clip0)">
<path d="M60.4214 304.799L59.5633 304.606C69.1306 262.059 93.1738 223.423 127.264 195.814C153.037 174.974 183.691 161.035 216.338 155.312C248.985 149.588 282.552 152.268 313.878 163.098C345.203 173.928 373.257 192.553 395.398 217.218C417.539 241.883 433.039 271.778 440.437 304.087L439.58 304.282C419.327 215.359 341.394 153.255 250.059 153.255C159.921 153.255 80.1669 216.988 60.4214 304.799Z" fill="#3F3D56"/>
<path d="M183.436 54.4054C196.627 54.4054 207.321 43.7115 207.321 30.5201C207.321 17.3286 196.627 6.63477 183.436 6.63477C170.244 6.63477 159.551 17.3286 159.551 30.5201C159.551 43.7115 170.244 54.4054 183.436 54.4054Z" fill="#FF6584"/>
<path d="M80.5324 299.372C81.2773 302.126 83.8288 303.831 83.8288 303.831C83.8288 303.831 85.1726 301.072 84.4276 298.318C83.6827 295.565 81.1312 293.859 81.1312 293.859C81.1312 293.859 79.7874 296.619 80.5324 299.372Z" fill="#3F3D56"/>
<path d="M81.627 298.781C83.671 300.771 83.9207 303.83 83.9207 303.83C83.9207 303.83 80.8563 303.662 78.8122 301.673C76.7681 299.683 76.5185 296.624 76.5185 296.624C76.5185 296.624 79.5829 296.791 81.627 298.781Z" fill="#6C63FF"/>
<path d="M137.261 299.372C138.006 302.126 140.557 303.831 140.557 303.831C140.557 303.831 141.901 301.072 141.156 298.318C140.411 295.565 137.859 293.859 137.859 293.859C137.859 293.859 136.516 296.619 137.261 299.372Z" fill="#3F3D56"/>
<path d="M138.355 298.781C140.399 300.771 140.649 303.83 140.649 303.83C140.649 303.83 137.585 303.662 135.54 301.673C133.496 299.683 133.247 296.624 133.247 296.624C133.247 296.624 136.311 296.791 138.355 298.781Z" fill="#6C63FF"/>
<path d="M148.509 80.0293L139.528 72.8437L189.824 27.9365H317.361V67.455L234.731 123.14L148.509 80.0293Z" fill="#3F3D56"/>
<path d="M340.614 53.1269V28.8336H323.681V34.7831L317.361 27.9365L276.046 72.8437L259.88 83.6217L234.813 266.763L272.617 304.566H360.472V74.6401L340.614 53.1269Z" fill="#CCCCCC"/>
<path d="M276.046 72.8447H139.528V304.567H276.046V72.8447Z" fill="#F2F2F2"/>
<path d="M217.667 247.983H192.519V304.567H217.667V247.983Z" fill="#CCCCCC"/>
<path d="M165.574 264.15V255.168H154.796V264.15H164.676H165.574Z" fill="#3F3D56"/>
<path d="M164.676 271.335H154.796V280.316H165.574V271.335H164.676Z" fill="#3F3D56"/>
<path d="M183.537 255.168H172.759V264.149H183.537V255.168Z" fill="#3F3D56"/>
<path d="M183.537 271.335H172.759V280.316H183.537V271.335Z" fill="#3F3D56"/>
<path d="M239.222 264.15V255.168H228.445V264.15H238.324H239.222Z" fill="#3F3D56"/>
<path d="M238.324 271.335H228.445V280.316H239.222V271.335H238.324Z" fill="#3F3D56"/>
<path d="M257.185 255.168H246.407V264.149H257.185V255.168Z" fill="#3F3D56"/>
<path d="M257.185 271.335H246.407V280.316H257.185V271.335Z" fill="#3F3D56"/>
<path d="M314.667 84.5201V75.5391H303.889V84.5201H313.769H314.667Z" fill="#3F3D56"/>
<path d="M313.769 91.7061H303.889V100.687H314.667V91.7061H313.769Z" fill="#3F3D56"/>
<path d="M332.63 75.5391H321.852V84.5205H332.63V75.5391Z" fill="#3F3D56"/>
<path d="M332.63 91.7051H321.852V100.687H332.63V91.7051Z" fill="#3F3D56"/>
<path d="M314.667 134.817V125.835H303.889V134.817H313.769H314.667Z" fill="#3F3D56"/>
<path d="M313.769 142.002H303.889V150.983H314.667V142.002H313.769Z" fill="#3F3D56"/>
<path d="M332.63 125.835H321.852V134.816H332.63V125.835Z" fill="#3F3D56"/>
<path d="M332.63 142.002H321.852V150.983H332.63V142.002Z" fill="#3F3D56"/>
<path d="M314.667 185.112V176.131H303.889V185.112H313.769H314.667Z" fill="#3F3D56"/>
<path d="M313.769 192.298H303.889V201.279H314.667V192.298H313.769Z" fill="#3F3D56"/>
<path d="M332.63 176.132H321.852V185.113H332.63V176.132Z" fill="#3F3D56"/>
<path d="M332.63 192.298H321.852V201.279H332.63V192.298Z" fill="#3F3D56"/>
<path d="M314.667 235.409V226.428H303.889V235.409H313.769H314.667Z" fill="#3F3D56"/>
<path d="M313.769 242.595H303.889V251.576H314.667V242.595H313.769Z" fill="#3F3D56"/>
<path d="M332.63 226.428H321.852V235.409H332.63V226.428Z" fill="#3F3D56"/>
<path d="M332.63 242.595H321.852V251.576H332.63V242.595Z" fill="#3F3D56"/>
<path d="M258.981 84.5205H154.796V106.076H258.981V84.5205Z" fill="#3F3D56"/>
<path d="M258.981 127.632H154.796V149.187H258.981V127.632Z" fill="#3F3D56"/>
<path d="M258.981 170.743H154.796V192.299H258.981V170.743Z" fill="#3F3D56"/>
<path d="M258.981 213.854H154.796V235.409H258.981V213.854Z" fill="#3F3D56"/>
<path d="M500 303.662H0V304.542H500V303.662Z" fill="#3F3D56"/>
<path d="M86.3147 202.117H83.7313V304.164H86.3147V202.117Z" fill="#3F3D56"/>
<path d="M110.157 215.122C110.322 250.805 85.2166 279.848 85.2166 279.848C85.2166 279.848 59.845 251.037 59.6806 215.354C59.5161 179.671 84.621 150.628 84.621 150.628C84.621 150.628 109.993 179.438 110.157 215.122Z" fill="#6C63FF"/>
<path opacity="0.1" d="M110.157 215.122C110.322 250.805 85.2166 279.848 85.2166 279.848C85.2166 279.848 59.845 251.037 59.6806 215.354C59.5161 179.671 84.621 150.628 84.621 150.628C84.621 150.628 109.993 179.438 110.157 215.122Z" fill="black"/>
<path d="M52.7298 202.117H50.1464V304.164H52.7298V202.117Z" fill="#3F3D56"/>
<path d="M76.5722 215.122C76.7366 250.805 51.6317 279.848 51.6317 279.848C51.6317 279.848 26.2601 251.037 26.0957 215.354C25.9312 179.671 51.0361 150.628 51.0361 150.628C51.0361 150.628 76.4077 179.438 76.5722 215.122Z" fill="#6C63FF"/>
<path d="M415.811 72.7001C395.461 72.7939 378.896 73.0945 378.896 73.0945C378.896 73.0945 398.586 47.0139 415.737 56.6766C432.889 66.3393 452.592 72.7548 452.592 72.7548C452.592 72.7548 436.161 72.6063 415.811 72.7001Z" fill="#F2F2F2"/>
<path d="M76.761 122.832C56.4106 122.926 39.8462 123.226 39.8462 123.226C39.8462 123.226 59.5356 97.1458 76.6871 106.808C93.8387 116.471 113.541 122.887 113.541 122.887C113.541 122.887 97.1114 122.738 76.761 122.832Z" fill="#F2F2F2"/>
<path d="M150.64 18.1708C130.289 18.2646 113.725 18.5652 113.725 18.5652C113.725 18.5652 133.414 -7.51537 150.566 2.1473C167.717 11.81 187.42 18.2256 187.42 18.2256C187.42 18.2256 170.99 18.077 150.64 18.1708Z" fill="#F2F2F2"/>
<path d="M457.743 202.117H455.16V304.164H457.743V202.117Z" fill="#3F3D56"/>
<path d="M481.585 215.122C481.75 250.805 456.645 279.848 456.645 279.848C456.645 279.848 431.273 251.037 431.109 215.354C430.944 179.671 456.049 150.628 456.049 150.628C456.049 150.628 481.421 179.438 481.585 215.122Z" fill="#6C63FF"/>
<path d="M362.65 240.822H388.723V234.528H403.108V240.822H430.079V268.692H403.108V303.755H388.723V268.692H362.65L349.164 253.408L362.65 240.822Z" fill="#3F3D56"/>
</g>
<defs>
<clipPath id="clip0">
<rect width="500" height="304.799" fill="white"/>
</clipPath>
</defs>
</svg>
