<svg width="400" height="308" viewBox="0 0 400 308" fill="none" xmlns="http://www.w3.org/2000/svg">
<g clip-path="url(#clip0)">
<path d="M207.962 213.057C207.146 212.917 206.37 212.6 205.69 212.128C205.01 211.655 204.441 211.04 204.025 210.324C203.608 209.608 203.354 208.81 203.279 207.985C203.205 207.161 203.312 206.33 203.593 205.551L178.734 162.556L190.484 158.858L211.246 202.234C212.523 202.794 213.551 203.802 214.134 205.068C214.717 206.334 214.816 207.771 214.411 209.105C214.006 210.439 213.126 211.578 211.938 212.306C210.749 213.035 209.334 213.302 207.962 213.057L207.962 213.057Z" fill="#FFB8B8"/>
<path d="M179.609 169.523C179.252 169.457 178.915 169.309 178.624 169.091C178.333 168.872 178.097 168.59 177.933 168.265L171.374 155.332C171.124 154.839 171.055 154.274 171.177 153.735C171.299 153.195 171.606 152.716 172.044 152.379L179.064 146.979C179.512 146.631 180.069 146.456 180.634 146.486C181.2 146.515 181.736 146.747 182.145 147.139L191.881 156.389C192.119 156.616 192.307 156.889 192.434 157.191C192.561 157.494 192.624 157.819 192.619 158.148C192.614 158.476 192.54 158.799 192.403 159.098C192.267 159.396 192.07 159.663 191.824 159.881L181.628 168.963C181.357 169.206 181.034 169.383 180.684 169.48C180.334 169.577 179.966 169.592 179.609 169.523H179.609Z" fill="#6C63FF"/>
<path d="M400 111.688C400 78.5754 373.157 0 340.044 0C306.931 0 280.087 78.5754 280.087 111.688C280.085 119.563 281.634 127.362 284.646 134.638C287.658 141.914 292.074 148.526 297.642 154.095C303.21 159.664 309.82 164.082 317.095 167.096C324.371 170.11 332.169 171.662 340.044 171.662C347.919 171.662 355.717 170.11 362.992 167.096C370.267 164.082 376.878 159.664 382.445 154.095C388.013 148.526 392.429 141.914 395.441 134.638C398.453 127.362 400.002 119.563 400 111.688Z" fill="#6C63FF"/>
<path d="M340.044 294.037C340.174 294.037 340.3 293.985 340.392 293.893C340.485 293.801 340.537 293.675 340.537 293.544V50.3524C340.537 50.2216 340.485 50.0962 340.392 50.0038C340.3 49.9113 340.174 49.8594 340.044 49.8594C339.913 49.8594 339.788 49.9113 339.695 50.0038C339.603 50.0962 339.551 50.2216 339.551 50.3524V293.544C339.551 293.675 339.603 293.801 339.695 293.893C339.788 293.985 339.913 294.037 340.044 294.037Z" fill="#3F3D56"/>
<path d="M340.044 90.2594C340.109 90.2595 340.173 90.2468 340.233 90.222C340.292 90.1972 340.347 90.1608 340.392 90.115L364.123 66.3845C364.215 66.2919 364.266 66.1667 364.265 66.0365C364.265 65.9062 364.213 65.7814 364.121 65.6893C364.029 65.5972 363.904 65.5453 363.774 65.5449C363.643 65.5446 363.518 65.5958 363.426 65.6873L339.695 89.4178C339.626 89.4868 339.579 89.5746 339.56 89.6703C339.541 89.7659 339.551 89.865 339.588 89.9551C339.626 90.0452 339.689 90.1221 339.77 90.1763C339.851 90.2305 339.946 90.2594 340.044 90.2594V90.2594Z" fill="#3F3D56"/>
<path d="M340.044 131.341C340.141 131.341 340.237 131.312 340.318 131.258C340.399 131.204 340.462 131.127 340.499 131.037C340.537 130.947 340.546 130.848 340.527 130.752C340.508 130.656 340.461 130.569 340.392 130.5L300.651 90.7583C300.559 90.6668 300.433 90.6158 300.303 90.6162C300.173 90.6167 300.048 90.6686 299.956 90.7606C299.864 90.8526 299.812 90.9773 299.812 91.1075C299.811 91.2377 299.863 91.3627 299.954 91.4554L339.695 131.197C339.741 131.243 339.795 131.279 339.855 131.304C339.915 131.329 339.979 131.341 340.044 131.341Z" fill="#3F3D56"/>
<path d="M375.981 307.445C375.895 307.512 375.805 307.571 375.718 307.636H302.214C300.774 301.8 300.266 295.959 302.417 290.886C305.482 283.657 314.554 279.144 321.766 282.249C323.475 283.004 324.963 284.182 326.091 285.671C328.91 280.626 333.965 276.822 339.801 276.826C347.112 276.831 353.191 282.81 355.175 289.717C358.369 284.325 364.679 280.556 370.846 282.177C381.161 284.889 384.42 300.923 375.981 307.445Z" fill="#F2F2F2"/>
<path d="M86.225 193.401C86.225 169.607 66.9229 113.145 43.1125 113.145C19.3021 113.145 0 169.607 0 193.401C0.00864169 204.83 4.55465 215.787 12.6389 223.866C20.7231 231.944 31.684 236.481 43.1125 236.481C54.541 236.481 65.5019 231.944 73.5861 223.866C81.6703 215.787 86.2164 204.83 86.225 193.401Z" fill="#E6E6E6"/>
<path d="M43.1125 298.218C43.159 298.218 43.2051 298.209 43.2481 298.191C43.2911 298.174 43.3302 298.147 43.3631 298.115C43.396 298.082 43.4222 298.043 43.44 298C43.4578 297.957 43.467 297.911 43.467 297.864V149.327C43.4667 149.233 43.4292 149.143 43.3627 149.077C43.2963 149.011 43.2063 148.974 43.1125 148.974C43.0187 148.974 42.9287 149.011 42.8623 149.077C42.7958 149.143 42.7583 149.233 42.758 149.327V297.864C42.758 297.911 42.7672 297.957 42.785 298C42.8028 298.043 42.829 298.082 42.8619 298.115C42.8948 298.147 42.9339 298.174 42.9769 298.191C43.0199 298.209 43.066 298.218 43.1125 298.218Z" fill="#3F3D56"/>
<path d="M43.1125 178.003C43.1591 178.003 43.2052 177.994 43.2482 177.976C43.2912 177.958 43.3303 177.932 43.3632 177.899L60.4271 160.847C60.4935 160.781 60.5308 160.69 60.5308 160.596C60.5307 160.502 60.4933 160.412 60.4269 160.346C60.3604 160.279 60.2702 160.242 60.1762 160.242C60.0822 160.242 59.9921 160.28 59.9257 160.346L42.8618 177.398C42.8123 177.448 42.7785 177.511 42.7649 177.58C42.7512 177.648 42.7583 177.72 42.7851 177.784C42.8119 177.849 42.8574 177.905 42.9156 177.943C42.9739 177.982 43.0424 178.003 43.1125 178.003L43.1125 178.003Z" fill="#3F3D56"/>
<path d="M43.1125 207.524C43.1826 207.524 43.2511 207.503 43.3094 207.464C43.3677 207.425 43.4131 207.37 43.4399 207.305C43.4668 207.24 43.4738 207.169 43.4602 207.1C43.4465 207.032 43.4128 206.969 43.3632 206.919L14.7867 178.362C14.7203 178.295 14.6301 178.258 14.5361 178.258C14.4422 178.258 14.352 178.295 14.2855 178.361C14.219 178.428 14.1817 178.518 14.1816 178.612C14.1816 178.706 14.2189 178.796 14.2853 178.863L42.8618 207.42C42.8947 207.453 42.9338 207.479 42.9768 207.497C43.0198 207.515 43.066 207.524 43.1125 207.524Z" fill="#3F3D56"/>
<path d="M68.7595 307.498C68.6979 307.546 68.6331 307.589 68.5709 307.635H15.7168C14.6812 303.442 14.3155 299.244 15.8624 295.599C18.0664 290.404 24.5896 287.162 29.7756 289.393C31.0041 289.935 32.0745 290.782 32.8859 291.852C34.9125 288.226 38.5479 285.493 42.7441 285.496C48.0013 285.5 52.3724 289.796 53.7988 294.759C56.0959 290.884 60.6329 288.177 65.0675 289.341C72.4849 291.29 74.8277 302.812 68.7595 307.498Z" fill="#F2F2F2"/>
<path d="M89.4805 307.635H277.316C277.446 307.635 277.572 307.583 277.664 307.491C277.757 307.399 277.809 307.273 277.809 307.142C277.809 307.012 277.757 306.886 277.664 306.794C277.572 306.701 277.446 306.649 277.316 306.649H89.4805C89.3497 306.649 89.2243 306.701 89.1318 306.794C89.0394 306.886 88.9875 307.012 88.9875 307.142C88.9875 307.273 89.0394 307.399 89.1318 307.491C89.2243 307.583 89.3497 307.635 89.4805 307.635Z" fill="#3F3D56"/>
<path d="M178.395 172.632C178.04 172.556 177.707 172.399 177.422 172.172C177.137 171.946 176.909 171.657 176.755 171.328L170.555 158.219C170.319 157.719 170.264 157.152 170.402 156.617C170.539 156.081 170.858 155.61 171.306 155.285L178.472 150.081C178.929 149.746 179.491 149.587 180.055 149.631C180.62 149.676 181.15 149.923 181.547 150.326L191.024 159.842C191.256 160.074 191.437 160.352 191.555 160.658C191.674 160.964 191.728 161.292 191.714 161.62C191.699 161.948 191.617 162.269 191.472 162.563C191.327 162.858 191.123 163.119 190.872 163.331L180.428 172.128C180.151 172.363 179.823 172.531 179.471 172.618C179.118 172.706 178.75 172.71 178.395 172.632Z" fill="#6C63FF"/>
<path d="M139.116 296.914L145.353 298.611L154.867 275.36L145.662 272.855L139.116 296.914Z" fill="#FFB8B8"/>
<path d="M155.807 307.676L136.204 302.342L138.264 294.768L150.786 298.175C152.664 298.686 154.262 299.922 155.229 301.612C156.196 303.301 156.452 305.306 155.941 307.184L155.807 307.676Z" fill="#2F2E41"/>
<path d="M192.438 301.674L198.902 301.673L201.977 276.74L192.436 276.741L192.438 301.674Z" fill="#FFB8B8"/>
<path d="M211.369 307.675L191.053 307.676L191.053 299.826L204.029 299.826C205.975 299.826 207.842 300.599 209.219 301.975C210.595 303.352 211.368 305.218 211.369 307.165L211.369 307.675Z" fill="#2F2E41"/>
<path d="M191.857 133.261C196.915 128.203 196.915 120.004 191.857 114.946C186.8 109.889 178.601 109.889 173.543 114.946C168.486 120.004 168.486 128.203 173.543 133.261C178.601 138.318 186.8 138.318 191.857 133.261Z" fill="#FFB8B8"/>
<path d="M190.483 281.845L183.245 228.915C183.191 228.523 183.012 228.158 182.735 227.874C182.457 227.591 182.096 227.405 181.704 227.343C181.313 227.281 180.911 227.347 180.56 227.531C180.209 227.715 179.926 228.007 179.754 228.364L155.119 279.459C154.869 279.973 154.442 280.379 153.917 280.605C153.392 280.831 152.804 280.86 152.259 280.689L142.765 277.651C142.178 277.465 141.686 277.057 141.394 276.514C141.103 275.97 141.035 275.335 141.206 274.742C152.753 233.972 162.724 203.64 173.849 188.125C173.893 188.065 173.938 188.008 173.986 187.951L176.453 185.073C176.676 184.813 176.952 184.604 177.263 184.461C177.574 184.318 177.912 184.244 178.255 184.244H196.42C196.894 184.243 197.358 184.384 197.751 184.65C198.144 184.916 198.448 185.295 198.623 185.736L199.096 186.919C199.134 187.013 199.166 187.111 199.192 187.209C205.13 209.81 206.67 239.826 204.038 281.67C203.999 282.272 203.732 282.837 203.292 283.251C202.852 283.664 202.271 283.895 201.667 283.896H192.834C192.261 283.894 191.707 283.686 191.276 283.309C190.844 282.932 190.562 282.412 190.483 281.845Z" fill="#2F2E41"/>
<path d="M172.971 187.05C170.354 182.862 157.867 161.226 169.076 146.573C169.277 146.313 169.407 146.006 169.452 145.681L169.896 142.273C169.937 141.955 170.043 141.648 170.206 141.371C170.369 141.095 170.586 140.854 170.845 140.664C171.104 140.475 171.399 140.339 171.712 140.267C172.025 140.195 172.349 140.187 172.665 140.243C176.562 140.952 183.901 143.182 189.275 150.144C189.532 150.48 189.693 150.878 189.744 151.297L190.041 153.67C190.078 153.982 190.195 154.279 190.381 154.533C190.567 154.786 190.815 154.987 191.102 155.116C194.529 156.673 202.201 162.738 199.404 185.38C199.337 185.943 199.069 186.464 198.65 186.847C198.231 187.229 197.689 187.449 197.121 187.464L175.056 188.161C175.031 188.162 175.007 188.162 174.982 188.162C174.58 188.162 174.185 188.06 173.833 187.865C173.482 187.671 173.185 187.391 172.971 187.05Z" fill="#6C63FF"/>
<path d="M164.023 221.751C163.462 221.141 163.042 220.416 162.793 219.627C162.543 218.837 162.469 218.003 162.577 217.182C162.684 216.361 162.97 215.573 163.415 214.875C163.86 214.176 164.453 213.584 165.151 213.139L171.745 163.915L183.305 168.168L173.236 215.191C173.905 216.414 174.103 217.84 173.791 219.198C173.479 220.557 172.679 221.754 171.543 222.563C170.408 223.372 169.015 223.736 167.629 223.586C166.243 223.436 164.96 222.783 164.023 221.751Z" fill="#FFB8B8"/>
<path d="M168.18 169.964C167.938 169.693 167.761 169.37 167.665 169.02C167.568 168.669 167.554 168.301 167.623 167.944L170.333 153.698C170.437 153.155 170.727 152.665 171.153 152.313C171.579 151.961 172.115 151.769 172.668 151.77L181.525 151.785C182.091 151.783 182.639 151.985 183.069 152.354C183.499 152.723 183.781 153.234 183.866 153.794L185.92 167.066C185.97 167.39 185.952 167.721 185.868 168.039C185.784 168.356 185.634 168.652 185.43 168.909C185.225 169.165 184.969 169.376 184.679 169.529C184.388 169.682 184.069 169.772 183.742 169.795L170.12 170.754C169.758 170.781 169.394 170.723 169.058 170.586C168.721 170.449 168.421 170.236 168.18 169.964L168.18 169.964Z" fill="#6C63FF"/>
<path d="M168.452 116.049C169.414 113.134 170.124 110.141 170.574 107.104C170.716 105.335 170.263 103.433 168.975 102.213C166.565 99.9298 162.471 101.017 159.951 103.178C156.309 106.301 154.492 111.1 153.805 115.848C153.119 120.597 153.421 125.425 153.256 130.22C153.091 135.015 152.405 139.945 149.96 144.073C147.516 148.201 142.98 151.37 138.195 151.019C136.264 150.914 134.43 150.137 133.011 148.822C132.315 148.16 131.788 147.34 131.474 146.432C131.16 145.524 131.068 144.554 131.206 143.603C128.761 147.982 130.001 153.917 133.648 157.36C137.296 160.802 142.907 161.776 147.703 160.306C152.498 158.836 156.445 155.15 158.802 150.723C161.16 146.296 162.024 141.182 161.899 136.168C161.802 132.318 161.148 128.436 161.799 124.639C162.449 120.843 164.825 116.988 168.572 116.094L168.452 116.049Z" fill="#2F2E41"/>
<path d="M180.559 136.142C180.05 135.336 179.722 134.43 179.595 133.485C179.468 132.541 179.546 131.58 179.823 130.669C180.101 129.757 180.572 128.916 181.204 128.203C181.835 127.489 182.613 126.921 183.485 126.535C185.833 125.496 188.549 125.893 191.069 125.4C195.584 124.516 199.3 120.392 199.569 115.799C199.837 111.207 196.523 106.616 192.045 105.562C190.258 105.141 188.396 105.24 186.564 105.341C184.803 105.439 183.042 105.536 181.291 105.737C177.826 106.134 174.32 106.973 171.436 108.935C168.552 110.897 166.375 114.145 166.412 117.633C166.455 121.613 168.332 129.537 170.943 132.543C173.462 135.442 175.38 136.487 179.378 136.684L180.559 136.142Z" fill="#2F2E41"/>
<path d="M229.254 183.911H223.171V177.828C223.171 177.632 223.093 177.444 222.955 177.305C222.816 177.167 222.628 177.089 222.432 177.089C222.236 177.089 222.048 177.167 221.909 177.305C221.77 177.444 221.692 177.632 221.692 177.828V183.911H215.61C215.413 183.911 215.225 183.989 215.087 184.128C214.948 184.266 214.87 184.454 214.87 184.651C214.87 184.847 214.948 185.035 215.087 185.173C215.225 185.312 215.413 185.39 215.61 185.39H221.692V191.473C221.692 191.669 221.77 191.857 221.909 191.996C222.048 192.134 222.236 192.212 222.432 192.212C222.628 192.212 222.816 192.134 222.955 191.996C223.093 191.857 223.171 191.669 223.171 191.473V185.39H229.254C229.45 185.39 229.638 185.312 229.777 185.173C229.916 185.035 229.993 184.847 229.993 184.651C229.993 184.454 229.916 184.266 229.777 184.128C229.638 183.989 229.45 183.911 229.254 183.911Z" fill="#6C63FF"/>
<path d="M211.999 89.747H205.916V83.6643C205.916 83.4682 205.838 83.2801 205.699 83.1414C205.561 83.0027 205.373 82.9248 205.177 82.9248C204.98 82.9248 204.792 83.0027 204.654 83.1414C204.515 83.2801 204.437 83.4682 204.437 83.6643V89.747H198.354C198.158 89.747 197.97 89.8249 197.831 89.9636C197.693 90.1022 197.615 90.2903 197.615 90.4865C197.615 90.6826 197.693 90.8707 197.831 91.0094C197.97 91.1481 198.158 91.226 198.354 91.226H204.437V97.3086C204.437 97.5048 204.515 97.6929 204.654 97.8316C204.792 97.9702 204.98 98.0481 205.177 98.0481C205.373 98.0481 205.561 97.9702 205.699 97.8316C205.838 97.6929 205.916 97.5048 205.916 97.3086V91.226H211.999C212.195 91.226 212.383 91.1481 212.522 91.0094C212.66 90.8707 212.738 90.6826 212.738 90.4865C212.738 90.2903 212.66 90.1022 212.522 89.9636C212.383 89.8249 212.195 89.747 211.999 89.747Z" fill="#6C63FF"/>
<path d="M133.118 117.355H127.035V111.273C127.035 111.077 126.957 110.888 126.819 110.75C126.68 110.611 126.492 110.533 126.296 110.533C126.099 110.533 125.911 110.611 125.773 110.75C125.634 110.888 125.556 111.077 125.556 111.273V117.355H119.473C119.277 117.355 119.089 117.433 118.951 117.572C118.812 117.711 118.734 117.899 118.734 118.095C118.734 118.291 118.812 118.479 118.951 118.618C119.089 118.756 119.277 118.834 119.473 118.834H125.556V124.917C125.556 125.113 125.634 125.301 125.773 125.44C125.911 125.579 126.099 125.657 126.296 125.657C126.492 125.657 126.68 125.579 126.819 125.44C126.957 125.301 127.035 125.113 127.035 124.917V118.834H133.118C133.314 118.834 133.502 118.756 133.641 118.618C133.779 118.479 133.857 118.291 133.857 118.095C133.857 117.899 133.779 117.711 133.641 117.572C133.502 117.433 133.314 117.355 133.118 117.355Z" fill="#6C63FF"/>
</g>
<defs>
<clipPath id="clip0">
<rect width="400" height="307.676" fill="white"/>
</clipPath>
</defs>
</svg>
